G04 Layer_Color=8388736*
%FSLAX44Y44*%
%MOMM*%
G71*
G01*
G75*
%ADD91R,1.2032X1.1032*%
%ADD92R,1.3032X1.3032*%
%ADD93R,1.0032X1.0032*%
%ADD94R,0.9032X0.6532*%
%ADD95R,1.1032X0.9032*%
%ADD96R,1.1032X1.2032*%
%ADD97R,1.3032X1.3032*%
%ADD98O,0.5532X1.9032*%
%ADD99C,0.6532*%
%ADD100O,1.9032X0.8032*%
%ADD101R,1.7532X1.5032*%
%ADD102R,2.0032X2.2032*%
G04:AMPARAMS|DCode=103|XSize=3.7032mm|YSize=2.2532mm|CornerRadius=0.6141mm|HoleSize=0mm|Usage=FLASHONLY|Rotation=180.000|XOffset=0mm|YOffset=0mm|HoleType=Round|Shape=RoundedRectangle|*
%AMROUNDEDRECTD103*
21,1,3.7032,1.0250,0,0,180.0*
21,1,2.4750,2.2532,0,0,180.0*
1,1,1.2282,-1.2375,0.5125*
1,1,1.2282,1.2375,0.5125*
1,1,1.2282,1.2375,-0.5125*
1,1,1.2282,-1.2375,-0.5125*
%
%ADD103ROUNDEDRECTD103*%
G04:AMPARAMS|DCode=104|XSize=4.2032mm|YSize=2.2532mm|CornerRadius=0.6141mm|HoleSize=0mm|Usage=FLASHONLY|Rotation=180.000|XOffset=0mm|YOffset=0mm|HoleType=Round|Shape=RoundedRectangle|*
%AMROUNDEDRECTD104*
21,1,4.2032,1.0250,0,0,180.0*
21,1,2.9750,2.2532,0,0,180.0*
1,1,1.2282,-1.4875,0.5125*
1,1,1.2282,1.4875,0.5125*
1,1,1.2282,1.4875,-0.5125*
1,1,1.2282,-1.4875,-0.5125*
%
%ADD104ROUNDEDRECTD104*%
G04:AMPARAMS|DCode=105|XSize=3.7032mm|YSize=2.2532mm|CornerRadius=0.6141mm|HoleSize=0mm|Usage=FLASHONLY|Rotation=180.000|XOffset=0mm|YOffset=0mm|HoleType=Round|Shape=RoundedRectangle|*
%AMROUNDEDRECTD105*
21,1,3.7032,1.0250,0,0,180.0*
21,1,2.4750,2.2532,0,0,180.0*
1,1,1.2282,-1.2375,0.5125*
1,1,1.2282,1.2375,0.5125*
1,1,1.2282,1.2375,-0.5125*
1,1,1.2282,-1.2375,-0.5125*
%
%ADD105ROUNDEDRECTD105*%
G04:AMPARAMS|DCode=106|XSize=3.0032mm|YSize=0.7032mm|CornerRadius=0.2266mm|HoleSize=0mm|Usage=FLASHONLY|Rotation=180.000|XOffset=0mm|YOffset=0mm|HoleType=Round|Shape=RoundedRectangle|*
%AMROUNDEDRECTD106*
21,1,3.0032,0.2500,0,0,180.0*
21,1,2.5500,0.7032,0,0,180.0*
1,1,0.4532,-1.2750,0.1250*
1,1,0.4532,1.2750,0.1250*
1,1,0.4532,1.2750,-0.1250*
1,1,0.4532,-1.2750,-0.1250*
%
%ADD106ROUNDEDRECTD106*%
%ADD107O,0.5532X2.0032*%
%ADD108R,0.9032X1.1032*%
%ADD109R,1.0032X1.0032*%
%ADD110R,1.5032X1.7532*%
%ADD111R,1.9032X1.1532*%
%ADD112R,3.4400X3.4400*%
%ADD113O,0.8300X0.4200*%
%ADD114O,0.4200X0.8300*%
%ADD115R,2.2032X2.0032*%
G04:AMPARAMS|DCode=116|XSize=3.7032mm|YSize=2.2532mm|CornerRadius=0.6141mm|HoleSize=0mm|Usage=FLASHONLY|Rotation=90.000|XOffset=0mm|YOffset=0mm|HoleType=Round|Shape=RoundedRectangle|*
%AMROUNDEDRECTD116*
21,1,3.7032,1.0250,0,0,90.0*
21,1,2.4750,2.2532,0,0,90.0*
1,1,1.2282,0.5125,1.2375*
1,1,1.2282,0.5125,-1.2375*
1,1,1.2282,-0.5125,-1.2375*
1,1,1.2282,-0.5125,1.2375*
%
%ADD116ROUNDEDRECTD116*%
G04:AMPARAMS|DCode=117|XSize=4.2032mm|YSize=2.2532mm|CornerRadius=0.6141mm|HoleSize=0mm|Usage=FLASHONLY|Rotation=90.000|XOffset=0mm|YOffset=0mm|HoleType=Round|Shape=RoundedRectangle|*
%AMROUNDEDRECTD117*
21,1,4.2032,1.0250,0,0,90.0*
21,1,2.9750,2.2532,0,0,90.0*
1,1,1.2282,0.5125,1.4875*
1,1,1.2282,0.5125,-1.4875*
1,1,1.2282,-0.5125,-1.4875*
1,1,1.2282,-0.5125,1.4875*
%
%ADD117ROUNDEDRECTD117*%
G04:AMPARAMS|DCode=118|XSize=3.7032mm|YSize=2.2532mm|CornerRadius=0.6141mm|HoleSize=0mm|Usage=FLASHONLY|Rotation=90.000|XOffset=0mm|YOffset=0mm|HoleType=Round|Shape=RoundedRectangle|*
%AMROUNDEDRECTD118*
21,1,3.7032,1.0250,0,0,90.0*
21,1,2.4750,2.2532,0,0,90.0*
1,1,1.2282,0.5125,1.2375*
1,1,1.2282,0.5125,-1.2375*
1,1,1.2282,-0.5125,-1.2375*
1,1,1.2282,-0.5125,1.2375*
%
%ADD118ROUNDEDRECTD118*%
G04:AMPARAMS|DCode=119|XSize=3.0032mm|YSize=0.7032mm|CornerRadius=0.2266mm|HoleSize=0mm|Usage=FLASHONLY|Rotation=90.000|XOffset=0mm|YOffset=0mm|HoleType=Round|Shape=RoundedRectangle|*
%AMROUNDEDRECTD119*
21,1,3.0032,0.2500,0,0,90.0*
21,1,2.5500,0.7032,0,0,90.0*
1,1,0.4532,0.1250,1.2750*
1,1,0.4532,0.1250,-1.2750*
1,1,0.4532,-0.1250,-1.2750*
1,1,0.4532,-0.1250,1.2750*
%
%ADD119ROUNDEDRECTD119*%
%ADD120R,8.2032X10.6032*%
%ADD121R,3.1032X1.2032*%
%ADD122R,1.7532X1.7532*%
%ADD123C,1.7532*%
%ADD124R,1.7232X1.7232*%
%ADD125C,1.7232*%
%ADD126R,1.7232X1.7232*%
%ADD127R,1.7532X1.7532*%
%ADD128R,2.2532X2.2532*%
%ADD129C,2.2532*%
%ADD130C,1.1032*%
%ADD131R,1.7032X1.7032*%
%ADD132C,1.7032*%
%ADD133R,1.7032X1.7032*%
%ADD134R,1.5032X1.5032*%
%ADD135C,1.5032*%
%ADD136C,0.6032*%
%ADD137C,0.7032*%
D91*
X333500Y698000D02*
D03*
Y714000D02*
D03*
X333750Y664250D02*
D03*
Y680250D02*
D03*
X296749Y58750D02*
D03*
Y74750D02*
D03*
X259750Y58750D02*
D03*
Y74750D02*
D03*
X222750Y58749D02*
D03*
Y74749D02*
D03*
X185749Y58750D02*
D03*
Y74750D02*
D03*
X148749Y58750D02*
D03*
Y74750D02*
D03*
X111750Y58750D02*
D03*
Y74750D02*
D03*
X74749Y58749D02*
D03*
Y74749D02*
D03*
X38250Y58250D02*
D03*
Y74250D02*
D03*
X1006750Y466250D02*
D03*
Y450250D02*
D03*
X1036500Y130250D02*
D03*
Y114250D02*
D03*
X1074000Y122250D02*
D03*
Y106250D02*
D03*
X1095500Y82000D02*
D03*
Y98000D02*
D03*
X1056167Y71750D02*
D03*
Y87750D02*
D03*
X960767Y1345000D02*
D03*
Y1361000D02*
D03*
X875439Y1344294D02*
D03*
Y1360294D02*
D03*
X903882Y1344500D02*
D03*
Y1360500D02*
D03*
X932324Y1344250D02*
D03*
Y1360250D02*
D03*
X514500Y409250D02*
D03*
Y393250D02*
D03*
X813250Y1121750D02*
D03*
Y1137750D02*
D03*
X317700Y386700D02*
D03*
Y402700D02*
D03*
X317450Y349450D02*
D03*
Y365450D02*
D03*
X376500Y677250D02*
D03*
Y693250D02*
D03*
X333250Y532250D02*
D03*
Y548250D02*
D03*
X333500Y568500D02*
D03*
Y584500D02*
D03*
X412750Y739700D02*
D03*
Y755700D02*
D03*
X260500Y365250D02*
D03*
Y349250D02*
D03*
X262500Y488000D02*
D03*
Y472000D02*
D03*
X374750Y542750D02*
D03*
Y558750D02*
D03*
X257500Y618000D02*
D03*
Y602000D02*
D03*
X707750Y300500D02*
D03*
Y316500D02*
D03*
X707750Y348250D02*
D03*
Y332250D02*
D03*
X923250Y301250D02*
D03*
Y317250D02*
D03*
D92*
X584500Y656700D02*
D03*
X566500D02*
D03*
X1162000Y29000D02*
D03*
X1144000D02*
D03*
X818500Y181500D02*
D03*
X800500D02*
D03*
X817500Y156000D02*
D03*
X799500D02*
D03*
X819250Y44500D02*
D03*
X801250D02*
D03*
X819000Y71500D02*
D03*
X801000D02*
D03*
X584250Y680700D02*
D03*
X566250D02*
D03*
X508750Y769700D02*
D03*
X526750D02*
D03*
X792250Y1211250D02*
D03*
X810250D02*
D03*
X792000Y1177000D02*
D03*
X810000D02*
D03*
X452750Y702950D02*
D03*
X470750D02*
D03*
X576999Y757450D02*
D03*
X558999D02*
D03*
X528500Y523000D02*
D03*
X546500D02*
D03*
X566750Y539000D02*
D03*
X548750D02*
D03*
X584750Y569750D02*
D03*
X566750D02*
D03*
X971250Y1200500D02*
D03*
X953250D02*
D03*
X441000Y746700D02*
D03*
X459000D02*
D03*
X428750Y851450D02*
D03*
X410750D02*
D03*
X576750Y779450D02*
D03*
X558750D02*
D03*
D93*
X295750Y116250D02*
D03*
Y100250D02*
D03*
X259000Y116250D02*
D03*
Y100250D02*
D03*
X222250Y116250D02*
D03*
Y100250D02*
D03*
X185500Y116250D02*
D03*
Y100250D02*
D03*
X148750Y116250D02*
D03*
Y100250D02*
D03*
X112000Y116250D02*
D03*
Y100250D02*
D03*
X1026750Y449750D02*
D03*
Y465750D02*
D03*
X38000Y116000D02*
D03*
Y100000D02*
D03*
X75250Y116250D02*
D03*
Y100250D02*
D03*
X874689Y1384750D02*
D03*
Y1400750D02*
D03*
X903631Y1384750D02*
D03*
Y1400750D02*
D03*
X932574Y1384750D02*
D03*
Y1400750D02*
D03*
X961517Y1384750D02*
D03*
Y1400750D02*
D03*
D94*
X158750Y1089750D02*
D03*
Y1080250D02*
D03*
Y1070750D02*
D03*
X134750D02*
D03*
Y1080250D02*
D03*
Y1089750D02*
D03*
X159250Y847500D02*
D03*
Y857000D02*
D03*
Y866500D02*
D03*
X183250D02*
D03*
Y857000D02*
D03*
Y847500D02*
D03*
X171000Y1217500D02*
D03*
Y1208000D02*
D03*
Y1198500D02*
D03*
X147000D02*
D03*
Y1208000D02*
D03*
Y1217500D02*
D03*
D95*
X1056250Y451750D02*
D03*
Y465750D02*
D03*
X1025750Y416750D02*
D03*
Y430750D02*
D03*
X1077250Y477500D02*
D03*
Y491500D02*
D03*
X1077250Y451250D02*
D03*
Y465250D02*
D03*
X981250Y180000D02*
D03*
Y194000D02*
D03*
X956750Y179000D02*
D03*
Y193000D02*
D03*
X930000Y179000D02*
D03*
Y193000D02*
D03*
X373984Y520750D02*
D03*
Y506750D02*
D03*
X553750Y827200D02*
D03*
Y841200D02*
D03*
X728250Y301250D02*
D03*
Y315250D02*
D03*
D96*
X263750Y799666D02*
D03*
X247750D02*
D03*
X247750Y749500D02*
D03*
X263750D02*
D03*
X247750Y774583D02*
D03*
X263750D02*
D03*
X263750Y824750D02*
D03*
X247750D02*
D03*
X1167000Y1211000D02*
D03*
X1151000D02*
D03*
X216750Y1186750D02*
D03*
X200750D02*
D03*
X217000Y1210000D02*
D03*
X201000D02*
D03*
X209000Y1121000D02*
D03*
X193000D02*
D03*
X210000Y1091000D02*
D03*
X194000D02*
D03*
D97*
X1006700Y1304002D02*
D03*
Y1322002D02*
D03*
X1033950Y1304002D02*
D03*
Y1322002D02*
D03*
X691250Y25750D02*
D03*
Y43750D02*
D03*
X685000Y126000D02*
D03*
Y108000D02*
D03*
X684250Y163250D02*
D03*
Y181250D02*
D03*
Y223250D02*
D03*
Y205250D02*
D03*
X654250Y122500D02*
D03*
Y104500D02*
D03*
X935750Y1228750D02*
D03*
Y1246750D02*
D03*
X839500Y1075500D02*
D03*
Y1093500D02*
D03*
X902750Y1246500D02*
D03*
Y1228500D02*
D03*
X872000Y1247250D02*
D03*
Y1229250D02*
D03*
X837250Y1247500D02*
D03*
Y1229500D02*
D03*
X916750Y1092750D02*
D03*
Y1074750D02*
D03*
X886250D02*
D03*
Y1092750D02*
D03*
X376750Y635500D02*
D03*
Y653500D02*
D03*
X548500Y478500D02*
D03*
Y496500D02*
D03*
X572750Y478750D02*
D03*
Y496750D02*
D03*
X440750Y790450D02*
D03*
Y772450D02*
D03*
X465250Y790950D02*
D03*
Y772950D02*
D03*
X629500Y588500D02*
D03*
Y570500D02*
D03*
X1180200Y1290752D02*
D03*
Y1272752D02*
D03*
D98*
X578250Y426500D02*
D03*
X571750D02*
D03*
X565250D02*
D03*
X558750D02*
D03*
X552250D02*
D03*
X545750D02*
D03*
X539250D02*
D03*
X578250Y369500D02*
D03*
X571750D02*
D03*
X565250D02*
D03*
X558750D02*
D03*
X552250D02*
D03*
X545750D02*
D03*
X539250D02*
D03*
D99*
X856973Y686352D02*
D03*
X866973D02*
D03*
X876973D02*
D03*
X886973D02*
D03*
X896973D02*
D03*
X906973D02*
D03*
X916973D02*
D03*
X926973D02*
D03*
X936973D02*
D03*
X946973D02*
D03*
X956973D02*
D03*
X966973D02*
D03*
X976973D02*
D03*
X986973D02*
D03*
X996973D02*
D03*
X1006973D02*
D03*
X856973Y676352D02*
D03*
X866973D02*
D03*
X876973D02*
D03*
X886973D02*
D03*
X896973D02*
D03*
X906973D02*
D03*
X916973D02*
D03*
X926973D02*
D03*
X936973D02*
D03*
X946973D02*
D03*
X956973D02*
D03*
X966973D02*
D03*
X976973D02*
D03*
X986973D02*
D03*
X996973D02*
D03*
X1006973D02*
D03*
X856973Y666352D02*
D03*
X866973D02*
D03*
X876973D02*
D03*
X886973D02*
D03*
X896973D02*
D03*
X906973D02*
D03*
X916973D02*
D03*
X926973D02*
D03*
X936973D02*
D03*
X946973D02*
D03*
X956973D02*
D03*
X966973D02*
D03*
X976973D02*
D03*
X986973D02*
D03*
X996973D02*
D03*
X1006973D02*
D03*
X856973Y656352D02*
D03*
X866973D02*
D03*
X876973D02*
D03*
X886973D02*
D03*
X896973D02*
D03*
X906973D02*
D03*
X916973D02*
D03*
X926973D02*
D03*
X936973D02*
D03*
X946973D02*
D03*
X956973D02*
D03*
X966973D02*
D03*
X976973D02*
D03*
X986973D02*
D03*
X996973D02*
D03*
X1006973D02*
D03*
X856973Y646352D02*
D03*
X866973D02*
D03*
X876973D02*
D03*
X886973D02*
D03*
X896973D02*
D03*
X906973D02*
D03*
X916973D02*
D03*
X926973D02*
D03*
X936973D02*
D03*
X946973D02*
D03*
X956973D02*
D03*
X966973D02*
D03*
X976973D02*
D03*
X986973D02*
D03*
X996973D02*
D03*
X1006973D02*
D03*
X856973Y636352D02*
D03*
X866973D02*
D03*
X876973D02*
D03*
X886973D02*
D03*
X896973D02*
D03*
X906973D02*
D03*
X916973D02*
D03*
X926973D02*
D03*
X936973D02*
D03*
X946973D02*
D03*
X956973D02*
D03*
X966973D02*
D03*
X976973D02*
D03*
X986973D02*
D03*
X996973D02*
D03*
X1006973D02*
D03*
X856973Y626352D02*
D03*
X866973D02*
D03*
X876973D02*
D03*
X886973D02*
D03*
X896973D02*
D03*
X906973D02*
D03*
X916973D02*
D03*
X926973D02*
D03*
X936973D02*
D03*
X946973D02*
D03*
X956973D02*
D03*
X966973D02*
D03*
X976973D02*
D03*
X986973D02*
D03*
X996973D02*
D03*
X1006973D02*
D03*
X856973Y616352D02*
D03*
X866973D02*
D03*
X876973D02*
D03*
X886973D02*
D03*
X896973D02*
D03*
X906973D02*
D03*
X916973D02*
D03*
X926973D02*
D03*
X936973D02*
D03*
X946973D02*
D03*
X956973D02*
D03*
X966973D02*
D03*
X976973D02*
D03*
X986973D02*
D03*
X996973D02*
D03*
X1006973D02*
D03*
X856973Y606352D02*
D03*
X866973D02*
D03*
X876973D02*
D03*
X886973D02*
D03*
X896973D02*
D03*
X906973D02*
D03*
X916973D02*
D03*
X926973D02*
D03*
X936973D02*
D03*
X946973D02*
D03*
X956973D02*
D03*
X966973D02*
D03*
X976973D02*
D03*
X986973D02*
D03*
X996973D02*
D03*
X1006973D02*
D03*
X856973Y596351D02*
D03*
X866973D02*
D03*
X876973D02*
D03*
X886973D02*
D03*
X896973D02*
D03*
X906973D02*
D03*
X916973D02*
D03*
X926973D02*
D03*
X936973D02*
D03*
X946973D02*
D03*
X956973D02*
D03*
X966973D02*
D03*
X976973D02*
D03*
X986973D02*
D03*
X996973D02*
D03*
X1006973D02*
D03*
X856973Y586351D02*
D03*
X866973D02*
D03*
X876973D02*
D03*
X886973D02*
D03*
X896973D02*
D03*
X906973D02*
D03*
X916973D02*
D03*
X926973D02*
D03*
X936973D02*
D03*
X946973D02*
D03*
X956973D02*
D03*
X966973D02*
D03*
X976973D02*
D03*
X986973D02*
D03*
X996973D02*
D03*
X1006973D02*
D03*
X856973Y576351D02*
D03*
X866973D02*
D03*
X876973D02*
D03*
X886973D02*
D03*
X896973D02*
D03*
X906973D02*
D03*
X916973D02*
D03*
X926973D02*
D03*
X936973D02*
D03*
X946973D02*
D03*
X956973D02*
D03*
X966973D02*
D03*
X976973D02*
D03*
X986973D02*
D03*
X996973D02*
D03*
X1006973D02*
D03*
X856973Y566351D02*
D03*
X866973D02*
D03*
X876973D02*
D03*
X886973D02*
D03*
X896973D02*
D03*
X906973D02*
D03*
X916973D02*
D03*
X926973D02*
D03*
X936973D02*
D03*
X946973D02*
D03*
X956973D02*
D03*
X966973D02*
D03*
X976973D02*
D03*
X986973D02*
D03*
X996973D02*
D03*
X1006973D02*
D03*
X856973Y556351D02*
D03*
X866973D02*
D03*
X876973D02*
D03*
X886973D02*
D03*
X896973D02*
D03*
X906973D02*
D03*
X916973D02*
D03*
X926973D02*
D03*
X936973D02*
D03*
X946973D02*
D03*
X956973D02*
D03*
X966973D02*
D03*
X976973D02*
D03*
X986973D02*
D03*
X996973D02*
D03*
X1006973D02*
D03*
X856973Y546351D02*
D03*
X866973D02*
D03*
X876973D02*
D03*
X886973D02*
D03*
X896973D02*
D03*
X906973D02*
D03*
X916973D02*
D03*
X926973D02*
D03*
X936973D02*
D03*
X946973D02*
D03*
X956973D02*
D03*
X966973D02*
D03*
X976973D02*
D03*
X986973D02*
D03*
X996973D02*
D03*
X1006973D02*
D03*
X856973Y536351D02*
D03*
X866973D02*
D03*
X876973D02*
D03*
X886973D02*
D03*
X896973D02*
D03*
X906973D02*
D03*
X916973D02*
D03*
X926973D02*
D03*
X936973D02*
D03*
X946973D02*
D03*
X956973D02*
D03*
X966973D02*
D03*
X976973D02*
D03*
X986973D02*
D03*
X996973D02*
D03*
X1006973D02*
D03*
X924748Y1201242D02*
D03*
Y1193242D02*
D03*
Y1185241D02*
D03*
Y1177242D02*
D03*
Y1169241D02*
D03*
Y1161242D02*
D03*
Y1153242D02*
D03*
Y1145242D02*
D03*
Y1137241D02*
D03*
Y1129241D02*
D03*
Y1121241D02*
D03*
X916748Y1201242D02*
D03*
Y1193242D02*
D03*
Y1185241D02*
D03*
Y1177242D02*
D03*
Y1169241D02*
D03*
Y1161242D02*
D03*
Y1153242D02*
D03*
Y1145242D02*
D03*
Y1137241D02*
D03*
Y1129241D02*
D03*
Y1121241D02*
D03*
X908748Y1201242D02*
D03*
Y1193242D02*
D03*
Y1185241D02*
D03*
Y1177242D02*
D03*
Y1169241D02*
D03*
Y1161242D02*
D03*
Y1153242D02*
D03*
Y1145242D02*
D03*
Y1137241D02*
D03*
Y1129241D02*
D03*
Y1121241D02*
D03*
X900748Y1201242D02*
D03*
Y1193242D02*
D03*
Y1185241D02*
D03*
Y1177242D02*
D03*
Y1169241D02*
D03*
Y1161242D02*
D03*
Y1153242D02*
D03*
Y1145242D02*
D03*
Y1137241D02*
D03*
Y1129241D02*
D03*
Y1121241D02*
D03*
X892748Y1201242D02*
D03*
Y1193242D02*
D03*
Y1185241D02*
D03*
Y1177242D02*
D03*
Y1169241D02*
D03*
Y1161242D02*
D03*
Y1153242D02*
D03*
Y1145242D02*
D03*
Y1137241D02*
D03*
Y1129241D02*
D03*
Y1121241D02*
D03*
X884748Y1201242D02*
D03*
Y1193242D02*
D03*
Y1185241D02*
D03*
Y1177242D02*
D03*
Y1169241D02*
D03*
Y1161242D02*
D03*
Y1153242D02*
D03*
Y1145242D02*
D03*
Y1137241D02*
D03*
Y1129241D02*
D03*
Y1121241D02*
D03*
X876748Y1201242D02*
D03*
Y1193242D02*
D03*
Y1185241D02*
D03*
Y1177242D02*
D03*
Y1169241D02*
D03*
Y1161242D02*
D03*
Y1153242D02*
D03*
Y1145242D02*
D03*
Y1137241D02*
D03*
Y1129241D02*
D03*
Y1121241D02*
D03*
X868748Y1201242D02*
D03*
Y1193242D02*
D03*
Y1185241D02*
D03*
Y1177242D02*
D03*
Y1169241D02*
D03*
Y1161242D02*
D03*
Y1153242D02*
D03*
Y1145242D02*
D03*
Y1137241D02*
D03*
Y1129241D02*
D03*
Y1121241D02*
D03*
X860748Y1201242D02*
D03*
Y1193242D02*
D03*
Y1185241D02*
D03*
Y1177242D02*
D03*
Y1169241D02*
D03*
Y1161242D02*
D03*
Y1153242D02*
D03*
Y1145242D02*
D03*
Y1137241D02*
D03*
Y1129241D02*
D03*
Y1121241D02*
D03*
X852748Y1201242D02*
D03*
Y1193242D02*
D03*
Y1185241D02*
D03*
Y1177242D02*
D03*
Y1169241D02*
D03*
Y1161242D02*
D03*
Y1153242D02*
D03*
Y1145242D02*
D03*
Y1137241D02*
D03*
Y1129241D02*
D03*
Y1121241D02*
D03*
X844748Y1201242D02*
D03*
Y1193242D02*
D03*
Y1185241D02*
D03*
Y1177242D02*
D03*
Y1169241D02*
D03*
Y1161242D02*
D03*
Y1153242D02*
D03*
Y1145242D02*
D03*
Y1137241D02*
D03*
Y1129241D02*
D03*
Y1121241D02*
D03*
D100*
X627500Y61700D02*
D03*
Y74400D02*
D03*
Y87100D02*
D03*
Y99800D02*
D03*
X556000Y61700D02*
D03*
Y74400D02*
D03*
Y87100D02*
D03*
Y99800D02*
D03*
D101*
X470500Y1449750D02*
D03*
Y1404750D02*
D03*
X391000D02*
D03*
Y1449750D02*
D03*
D102*
X734450Y1137750D02*
D03*
X785250D02*
D03*
Y1095750D02*
D03*
X734450D02*
D03*
D103*
X89250Y837000D02*
D03*
X1108500Y974000D02*
D03*
X91750Y1253750D02*
D03*
X91500Y1126500D02*
D03*
D104*
X46750Y837000D02*
D03*
Y738500D02*
D03*
X1151000Y974000D02*
D03*
Y1072500D02*
D03*
X49250Y1253750D02*
D03*
Y1155250D02*
D03*
X49000Y1126500D02*
D03*
Y1028000D02*
D03*
D105*
X89250Y738500D02*
D03*
X1108500Y1072500D02*
D03*
X91750Y1155250D02*
D03*
X91500Y1028000D02*
D03*
D106*
X89000Y795750D02*
D03*
Y803750D02*
D03*
Y779750D02*
D03*
Y771750D02*
D03*
Y787750D02*
D03*
X1108750Y1015250D02*
D03*
Y1007250D02*
D03*
Y1031250D02*
D03*
Y1039250D02*
D03*
Y1023250D02*
D03*
X91500Y1212500D02*
D03*
Y1220500D02*
D03*
Y1196500D02*
D03*
Y1188500D02*
D03*
Y1204500D02*
D03*
X91250Y1085250D02*
D03*
Y1093250D02*
D03*
Y1069250D02*
D03*
Y1061250D02*
D03*
Y1077250D02*
D03*
D107*
X1065400Y1240500D02*
D03*
X1071900D02*
D03*
X1078400D02*
D03*
X1084900D02*
D03*
X1091400D02*
D03*
X1097900D02*
D03*
X1104400D02*
D03*
X1110900D02*
D03*
X1117400D02*
D03*
X1123900D02*
D03*
X1130400D02*
D03*
X1136900D02*
D03*
X1143400D02*
D03*
X1149900D02*
D03*
X1065400Y1308500D02*
D03*
X1071900D02*
D03*
X1078400D02*
D03*
X1084900D02*
D03*
X1091400D02*
D03*
X1097900D02*
D03*
X1104400D02*
D03*
X1110900D02*
D03*
X1117400D02*
D03*
X1123900D02*
D03*
X1130400D02*
D03*
X1136900D02*
D03*
X1143400D02*
D03*
X1149900D02*
D03*
D108*
X767250Y1077250D02*
D03*
X753250D02*
D03*
X471500Y725700D02*
D03*
X457500D02*
D03*
D109*
X303500Y748749D02*
D03*
X319500D02*
D03*
X303500Y773833D02*
D03*
X319500D02*
D03*
X303500Y798916D02*
D03*
X319500D02*
D03*
X303500Y823999D02*
D03*
X319500D02*
D03*
D110*
X756500Y374750D02*
D03*
X801500D02*
D03*
Y295250D02*
D03*
X756500D02*
D03*
X842000Y374750D02*
D03*
X887000D02*
D03*
Y295250D02*
D03*
X842000D02*
D03*
D111*
X282750Y369000D02*
D03*
Y341000D02*
D03*
X259750Y411500D02*
D03*
Y383500D02*
D03*
X287500Y488500D02*
D03*
Y460500D02*
D03*
X263000Y534750D02*
D03*
Y506750D02*
D03*
X286500Y617500D02*
D03*
Y589500D02*
D03*
X259750Y663250D02*
D03*
Y635250D02*
D03*
D112*
X523250Y711950D02*
D03*
D113*
X497050Y729450D02*
D03*
Y724450D02*
D03*
Y719450D02*
D03*
Y714450D02*
D03*
Y709450D02*
D03*
Y704450D02*
D03*
Y699450D02*
D03*
Y694450D02*
D03*
X549450D02*
D03*
Y699450D02*
D03*
Y704450D02*
D03*
Y709450D02*
D03*
Y714450D02*
D03*
Y719450D02*
D03*
Y724450D02*
D03*
Y729450D02*
D03*
D114*
X505750Y685750D02*
D03*
X510750D02*
D03*
X515750D02*
D03*
X520750D02*
D03*
X525750D02*
D03*
X530750D02*
D03*
X535750D02*
D03*
X540750D02*
D03*
Y738150D02*
D03*
X535750D02*
D03*
X530750D02*
D03*
X525750D02*
D03*
X520750D02*
D03*
X515750D02*
D03*
X510750D02*
D03*
X505750D02*
D03*
D115*
X533750Y845250D02*
D03*
Y794450D02*
D03*
X491750D02*
D03*
Y845250D02*
D03*
D116*
X1170500Y1412000D02*
D03*
D117*
Y1454500D02*
D03*
X1072000D02*
D03*
D118*
Y1412000D02*
D03*
D119*
X1129250Y1412250D02*
D03*
X1137250D02*
D03*
X1113250D02*
D03*
X1105250D02*
D03*
X1121250D02*
D03*
D120*
X119000Y619750D02*
D03*
X119500Y489500D02*
D03*
X119500Y365000D02*
D03*
D121*
X212500Y653750D02*
D03*
Y636750D02*
D03*
Y619750D02*
D03*
Y602750D02*
D03*
Y585750D02*
D03*
X213000Y523500D02*
D03*
Y506500D02*
D03*
Y489500D02*
D03*
Y472500D02*
D03*
Y455500D02*
D03*
X213000Y399000D02*
D03*
Y382000D02*
D03*
Y365000D02*
D03*
Y348000D02*
D03*
Y331000D02*
D03*
D122*
X885617Y1457750D02*
D03*
X558200Y1416250D02*
D03*
X1041200Y1118352D02*
D03*
X1078950Y852000D02*
D03*
X498650Y30000D02*
D03*
D123*
X911017Y1457750D02*
D03*
X936417D02*
D03*
X961817D02*
D03*
X1146250Y383450D02*
D03*
Y408850D02*
D03*
Y434250D02*
D03*
Y459650D02*
D03*
Y485050D02*
D03*
Y510450D02*
D03*
Y535850D02*
D03*
Y561250D02*
D03*
Y586650D02*
D03*
Y612050D02*
D03*
Y637450D02*
D03*
Y662850D02*
D03*
Y688250D02*
D03*
Y713650D02*
D03*
Y739050D02*
D03*
X637000Y753750D02*
D03*
Y728350D02*
D03*
Y702950D02*
D03*
Y677550D02*
D03*
Y652150D02*
D03*
Y626750D02*
D03*
X661500Y779150D02*
D03*
Y753750D02*
D03*
Y728350D02*
D03*
Y702950D02*
D03*
Y677550D02*
D03*
Y652150D02*
D03*
Y626750D02*
D03*
X737850Y206050D02*
D03*
Y180650D02*
D03*
Y155250D02*
D03*
X763250Y206050D02*
D03*
Y180650D02*
D03*
X736750Y94650D02*
D03*
Y69250D02*
D03*
Y43850D02*
D03*
X762150Y94650D02*
D03*
Y69250D02*
D03*
X786800Y1441650D02*
D03*
Y1416250D02*
D03*
X761400Y1441650D02*
D03*
Y1416250D02*
D03*
X736000Y1441650D02*
D03*
Y1416250D02*
D03*
X710600D02*
D03*
Y1441650D02*
D03*
X685200D02*
D03*
Y1416250D02*
D03*
X659800Y1441650D02*
D03*
X558200D02*
D03*
X583600Y1416250D02*
D03*
Y1441650D02*
D03*
X609000Y1416250D02*
D03*
Y1441650D02*
D03*
X634400Y1416250D02*
D03*
Y1441650D02*
D03*
X659800Y1416250D02*
D03*
X62250Y272750D02*
D03*
Y30750D02*
D03*
X457000Y531500D02*
D03*
Y506100D02*
D03*
Y480700D02*
D03*
X411499Y788050D02*
D03*
X1066600Y1118352D02*
D03*
X1092000D02*
D03*
X1117400D02*
D03*
X1142800D02*
D03*
X1168200D02*
D03*
X1041200Y1143752D02*
D03*
X1066600D02*
D03*
X1092000D02*
D03*
X1117400D02*
D03*
X1142800D02*
D03*
X1168200D02*
D03*
X635500Y1291900D02*
D03*
Y1266500D02*
D03*
Y1241100D02*
D03*
Y1215700D02*
D03*
X1053550Y852000D02*
D03*
X1028150D02*
D03*
X1002750D02*
D03*
X473250Y30000D02*
D03*
X447850D02*
D03*
X477000Y90150D02*
D03*
Y115550D02*
D03*
Y140950D02*
D03*
Y166350D02*
D03*
Y191750D02*
D03*
X451600Y90150D02*
D03*
Y115550D02*
D03*
Y140950D02*
D03*
Y166350D02*
D03*
D124*
X636000Y897200D02*
D03*
D125*
Y922600D02*
D03*
Y948000D02*
D03*
Y973400D02*
D03*
Y998800D02*
D03*
Y1024200D02*
D03*
Y1049600D02*
D03*
Y1075000D02*
D03*
Y1100400D02*
D03*
Y1125800D02*
D03*
Y1151200D02*
D03*
Y1176600D02*
D03*
X1065050Y931750D02*
D03*
X1039650D02*
D03*
X1014250D02*
D03*
X988850D02*
D03*
X963450D02*
D03*
X938050D02*
D03*
X912650D02*
D03*
X887250D02*
D03*
X861850D02*
D03*
X836450D02*
D03*
X811050D02*
D03*
X785650D02*
D03*
X760250D02*
D03*
X734850D02*
D03*
X709450D02*
D03*
X1064650Y900250D02*
D03*
X1039250D02*
D03*
X1013850D02*
D03*
X988450D02*
D03*
X963050D02*
D03*
X937650D02*
D03*
X912250D02*
D03*
X886850D02*
D03*
X861450D02*
D03*
X836050D02*
D03*
X810650D02*
D03*
X785250D02*
D03*
X759850D02*
D03*
X734450D02*
D03*
X709050D02*
D03*
D126*
X684050Y931750D02*
D03*
X683650Y900250D02*
D03*
D127*
X1146250Y764450D02*
D03*
X637000Y779150D02*
D03*
X763250Y155250D02*
D03*
X762150Y43850D02*
D03*
X457000Y556900D02*
D03*
X411499Y813450D02*
D03*
X635500Y1317300D02*
D03*
X451600Y191750D02*
D03*
D128*
X77250Y958250D02*
D03*
D129*
Y908250D02*
D03*
D130*
X65750Y809750D02*
D03*
Y765750D02*
D03*
X1132000Y1001250D02*
D03*
Y1045250D02*
D03*
X1143250Y1435500D02*
D03*
X1099250D02*
D03*
X68250Y1226500D02*
D03*
Y1182500D02*
D03*
X68000Y1099250D02*
D03*
Y1055250D02*
D03*
D131*
X1160750Y69000D02*
D03*
X637750Y399000D02*
D03*
Y458750D02*
D03*
D132*
X1140750Y69000D02*
D03*
X1160750Y89000D02*
D03*
X1140750D02*
D03*
X1160750Y109000D02*
D03*
X1140750D02*
D03*
X1160750Y129000D02*
D03*
X1140750D02*
D03*
X1160750Y149000D02*
D03*
X1140750D02*
D03*
X1160750Y169000D02*
D03*
X1140750D02*
D03*
X1160750Y189000D02*
D03*
X1140750D02*
D03*
X271900Y708250D02*
D03*
X324750Y432500D02*
D03*
X663150Y424400D02*
D03*
Y399000D02*
D03*
X637750Y424400D02*
D03*
X663150Y484150D02*
D03*
Y458750D02*
D03*
X637750Y484150D02*
D03*
D133*
X246500Y708250D02*
D03*
X350150Y432500D02*
D03*
D134*
X930600Y57400D02*
D03*
D135*
X956000D02*
D03*
X981400D02*
D03*
Y133600D02*
D03*
X956000D02*
D03*
X930600D02*
D03*
D136*
X668250Y223250D02*
D03*
X669500Y122500D02*
D03*
X837508Y1153242D02*
D03*
X551000Y576750D02*
D03*
X543250Y568500D02*
D03*
X1020500Y1146250D02*
D03*
D137*
X533250Y64500D02*
D03*
X509750Y725450D02*
D03*
X518750D02*
D03*
X527750D02*
D03*
X536750D02*
D03*
X509750Y716450D02*
D03*
X518750D02*
D03*
X527750D02*
D03*
X536750D02*
D03*
X509750Y707450D02*
D03*
X518750D02*
D03*
X527750D02*
D03*
X536750D02*
D03*
X509750Y698450D02*
D03*
X518750D02*
D03*
X527750D02*
D03*
X536750D02*
D03*
M02*
