G04 Layer_Physical_Order=8*
G04 Layer_Color=16711680*
%FSLAX44Y44*%
%MOMM*%
G71*
G01*
G75*
%ADD10R,1.0000X0.9000*%
%ADD11R,1.1000X1.1000*%
%ADD13R,0.7000X0.4500*%
%ADD14R,0.9000X0.7000*%
%ADD15R,0.9000X1.0000*%
%ADD16R,1.1000X1.1000*%
%ADD21R,1.8000X2.0000*%
%ADD22R,0.3000X0.3000*%
%ADD28R,0.7000X0.9000*%
%ADD42C,0.2000*%
%ADD43C,0.3000*%
%ADD44C,0.4000*%
%ADD45C,0.5000*%
%ADD46C,0.1000*%
%ADD48C,0.2540*%
%ADD49C,1.0000*%
%ADD50C,0.6000*%
%ADD51R,1.5500X1.5500*%
%ADD52C,1.5500*%
%ADD53R,1.5200X1.5200*%
%ADD54C,1.5200*%
%ADD55R,1.5200X1.5200*%
%ADD56R,1.5500X1.5500*%
%ADD57R,2.0500X2.0500*%
%ADD58C,2.0500*%
%ADD59C,0.9000*%
%ADD60R,1.5000X1.5000*%
%ADD61C,1.5000*%
%ADD62R,1.5000X1.5000*%
%ADD63C,1.3000*%
%ADD64R,1.3000X1.3000*%
%ADD65C,0.5000*%
%ADD66C,0.4000*%
%ADD67C,1.0000*%
%ADD78R,2.7000X1.1500*%
%ADD79R,1.1500X2.7000*%
%ADD80R,1.6000X0.6500*%
%ADD81R,0.4500X0.7000*%
%ADD82R,0.3000X0.3000*%
%ADD83R,1.1000X1.5000*%
%ADD84R,2.0000X1.0000*%
%ADD85R,2.2000X1.5500*%
%ADD86R,3.2000X2.1000*%
%ADD87R,1.9500X1.2000*%
%ADD88R,1.6500X1.5000*%
%ADD89R,1.8700X1.6000*%
%ADD90R,4.1700X1.5500*%
%ADD91C,0.8000*%
D10*
X124750Y739750D02*
D03*
Y755750D02*
D03*
X375250Y260250D02*
D03*
Y244250D02*
D03*
X398500Y234250D02*
D03*
Y218250D02*
D03*
X375249Y209750D02*
D03*
Y193750D02*
D03*
X398500Y37750D02*
D03*
Y53750D02*
D03*
X375250Y86750D02*
D03*
Y70750D02*
D03*
X398500Y160750D02*
D03*
Y144750D02*
D03*
X1008750Y1068250D02*
D03*
Y1052250D02*
D03*
D11*
X1050000Y531250D02*
D03*
X1032000D02*
D03*
X1054250Y666500D02*
D03*
X1036250D02*
D03*
X807500Y552250D02*
D03*
X825500D02*
D03*
X1037000Y713750D02*
D03*
X1055000D02*
D03*
X970750Y1119750D02*
D03*
X952750D02*
D03*
X952750Y1145250D02*
D03*
X970750D02*
D03*
X970750Y1172750D02*
D03*
X952750D02*
D03*
D13*
X1065000Y1011750D02*
D03*
Y1021250D02*
D03*
Y1030750D02*
D03*
X1041000D02*
D03*
Y1021250D02*
D03*
Y1011750D02*
D03*
D14*
X780000Y755250D02*
D03*
Y741250D02*
D03*
X960250Y493250D02*
D03*
Y507250D02*
D03*
X941583Y493250D02*
D03*
Y507250D02*
D03*
X922916Y493250D02*
D03*
Y507250D02*
D03*
X904250Y493250D02*
D03*
Y507250D02*
D03*
X828500Y624250D02*
D03*
Y638250D02*
D03*
X808000Y624000D02*
D03*
Y638000D02*
D03*
X786500Y623750D02*
D03*
Y637750D02*
D03*
X962750Y721500D02*
D03*
Y707500D02*
D03*
X944083Y721500D02*
D03*
Y707500D02*
D03*
X925417Y721500D02*
D03*
Y707500D02*
D03*
X906750Y721500D02*
D03*
Y707500D02*
D03*
X1030750Y1068000D02*
D03*
Y1054000D02*
D03*
X1052750Y1068500D02*
D03*
Y1054500D02*
D03*
X824000Y495750D02*
D03*
Y509750D02*
D03*
X840000Y496000D02*
D03*
Y510000D02*
D03*
X856000Y496000D02*
D03*
Y510000D02*
D03*
D15*
X200750Y546500D02*
D03*
X216750D02*
D03*
X206750Y419750D02*
D03*
X222750D02*
D03*
X203750Y329000D02*
D03*
X219750D02*
D03*
X843000Y709500D02*
D03*
X859000D02*
D03*
X1069750Y1371750D02*
D03*
X1085750D02*
D03*
X1068000Y1353000D02*
D03*
X1084000D02*
D03*
X1041000Y990500D02*
D03*
X1057000D02*
D03*
D16*
X714750Y467250D02*
D03*
Y485250D02*
D03*
X979250Y487500D02*
D03*
Y505500D02*
D03*
X884000Y487500D02*
D03*
Y505500D02*
D03*
X769000Y622500D02*
D03*
Y640500D02*
D03*
X744250Y622500D02*
D03*
Y640500D02*
D03*
X983750Y726750D02*
D03*
Y708750D02*
D03*
X886250Y727250D02*
D03*
Y709250D02*
D03*
X886250Y1075750D02*
D03*
Y1093750D02*
D03*
X345750Y224000D02*
D03*
Y206000D02*
D03*
X775500Y471000D02*
D03*
Y489000D02*
D03*
X800750Y471250D02*
D03*
Y489250D02*
D03*
D21*
X801250Y731500D02*
D03*
X852050D02*
D03*
Y773500D02*
D03*
X801250D02*
D03*
D22*
X762000Y657750D02*
D03*
X767250D02*
D03*
X1055500Y1371750D02*
D03*
X1060750D02*
D03*
D28*
X815500Y653250D02*
D03*
X829500D02*
D03*
X1043250Y549250D02*
D03*
X1029250D02*
D03*
X1043000Y564750D02*
D03*
X1029000D02*
D03*
X1050000Y642750D02*
D03*
X1036000D02*
D03*
X1050250Y622750D02*
D03*
X1036250D02*
D03*
X811750Y577500D02*
D03*
X825750D02*
D03*
X812000Y599750D02*
D03*
X826000D02*
D03*
X815500Y673750D02*
D03*
X829500D02*
D03*
X815500Y690500D02*
D03*
X829500D02*
D03*
D42*
X958250Y721750D02*
X968250D01*
X812000Y599750D02*
Y608500D01*
X919750Y741250D02*
Y757500D01*
X920000Y757750D01*
X894750Y731250D02*
X896750D01*
X890750Y727250D02*
X894750Y731250D01*
X886543Y727543D02*
Y735536D01*
X886250Y727250D02*
X886543Y727543D01*
X747037Y522525D02*
X758775D01*
X759250Y523000D01*
X911750Y766250D02*
X915500D01*
X920250Y761500D01*
X931000Y488500D02*
X932000D01*
X926250Y493250D02*
X931000Y488500D01*
X914750Y711500D02*
X914750D01*
X910750Y707500D02*
X914750Y711500D01*
X1050474Y530776D02*
X1058552D01*
X1050000Y531250D02*
X1050474Y530776D01*
X1058552D02*
Y531052D01*
X1059000Y531500D01*
X917500Y445000D02*
X917771Y445272D01*
X905794D02*
X917771D01*
X918000Y445500D01*
X917500Y427750D02*
Y445000D01*
X910794Y509525D02*
X911725D01*
X910794Y507544D02*
Y509525D01*
X910500Y507250D02*
X910794Y507544D01*
X914795Y488024D02*
Y488545D01*
X919500Y493250D01*
X912544Y494795D02*
Y495024D01*
X810790Y586529D02*
X811221D01*
X811750Y586000D01*
X807289Y623290D02*
X808000Y624000D01*
X812471Y608030D02*
X813040D01*
X807289Y617530D02*
Y623290D01*
X980215Y712285D02*
X983750Y708750D01*
X974747Y712285D02*
X980215D01*
X967250Y707500D02*
X970750Y704000D01*
X933788Y711039D02*
Y712419D01*
X954797Y704034D02*
Y704532D01*
X954790Y704539D02*
X954797Y704532D01*
X935546Y703534D02*
Y704781D01*
X935538Y704789D02*
X935546Y704781D01*
X932989Y719785D02*
X933046D01*
X932477Y719273D02*
X932989Y719785D01*
X930250Y707500D02*
X933788Y711039D01*
X886250Y709250D02*
X895750D01*
X877043Y727286D02*
X886214D01*
X886250Y727250D01*
X930697Y1143250D02*
X953750D01*
X963500Y1133500D01*
X928697Y1145250D02*
X930697Y1143250D01*
X917000Y1145250D02*
X928697D01*
X951546Y1183704D02*
Y1184308D01*
Y1183704D02*
X952750Y1182500D01*
X886448Y1075553D02*
X895794D01*
X886250Y1075750D02*
X886448Y1075553D01*
X1119000Y1382250D02*
X1126750Y1390000D01*
X138500Y1121250D02*
X179500D01*
X125500Y1108250D02*
X138500Y1121250D01*
X125500Y1081250D02*
Y1108250D01*
X542071Y576750D02*
X551000D01*
X375750Y743071D02*
X542071Y576750D01*
X375750Y743071D02*
Y1083821D01*
X157250Y1198500D02*
X161000D01*
X175250Y1212750D02*
X239750D01*
X161000Y1198500D02*
X175250Y1212750D01*
X157750Y1217750D02*
X241821D01*
X375750Y1083821D01*
X239750Y1212750D02*
X370750Y1081750D01*
X175250Y1077750D02*
Y1083750D01*
X168750Y1090250D02*
X175250Y1083750D01*
X144750Y1090250D02*
X168750D01*
X165250Y1070750D02*
X169000Y1074500D01*
X144500Y1070750D02*
X165250D01*
X811750Y569000D02*
Y577500D01*
X1025750Y573250D02*
X1029000Y570000D01*
X911000Y493250D02*
X912544Y494795D01*
X911725Y509525D02*
X912250Y509000D01*
X927250Y507250D02*
X931000Y503500D01*
X952000Y503250D02*
X956000Y507250D01*
X933000Y508750D02*
X934500Y507250D01*
X948000D02*
X950250Y509500D01*
X970500Y511000D02*
X976000Y505500D01*
X948250Y493250D02*
X950000Y495000D01*
X969500Y484500D02*
X970500D01*
X973500Y487500D01*
X966500Y493250D02*
X969000Y490750D01*
X960250Y493250D02*
X966500D01*
X918000Y718750D02*
X920750Y721500D01*
X930250D02*
X932477Y719273D01*
X914000Y723750D02*
X914750D01*
X911750Y721500D02*
X914000Y723750D01*
X935538Y704789D02*
X938250Y707500D01*
X955500Y719000D02*
X958250Y721750D01*
X951250Y721500D02*
X952375Y722625D01*
X944083Y721500D02*
X951250D01*
X877250Y666500D02*
Y697000D01*
X864750Y709500D02*
X877250Y697000D01*
X859000Y709500D02*
X864750D01*
X867575Y655750D02*
X882325Y641000D01*
X832000Y655750D02*
X867575D01*
X829500Y653250D02*
X832000Y655750D01*
X882325Y641000D02*
X894250D01*
X954790Y704539D02*
X957750Y707500D01*
X952023Y710273D02*
X952789D01*
X949250Y707500D02*
X952023Y710273D01*
X938727Y724274D02*
X941500Y721500D01*
X937039Y724274D02*
X938727D01*
X852050Y773500D02*
Y787950D01*
X789750Y731500D02*
X801250D01*
X780000Y741250D02*
X789750Y731500D01*
X780000Y755250D02*
X789000D01*
X770750D02*
X780000D01*
X833000Y717000D02*
X840500Y709500D01*
X843000D01*
X852050Y716450D02*
X859000Y709500D01*
X852050Y716450D02*
Y731500D01*
X877250Y666500D02*
X882250Y661500D01*
X791000Y690500D02*
X807000D01*
X791000D02*
Y698250D01*
X773500Y690500D02*
X791000D01*
X809000Y648000D02*
X810250D01*
X815500Y653250D01*
X822250Y660500D02*
X829500Y653250D01*
X791000Y660500D02*
X822250D01*
X744250Y640500D02*
X761438Y657688D01*
X788250Y657750D02*
X791000Y660500D01*
X767250Y657750D02*
X788250D01*
X894250Y641000D02*
X899750Y646500D01*
X938000D01*
X942250Y650750D01*
X759250Y523000D02*
Y542000D01*
Y504000D02*
Y523000D01*
X798500D02*
X800000Y524500D01*
X789250Y523000D02*
X798500D01*
X789250D02*
Y541250D01*
Y505500D02*
X790250Y504500D01*
X789250Y505500D02*
Y523000D01*
X1043000Y569500D02*
X1045500Y572000D01*
X1043000Y564750D02*
Y569500D01*
X1029000Y564750D02*
Y570000D01*
Y560500D02*
X1032000Y557500D01*
X1029000Y560500D02*
Y564750D01*
X1029250Y549250D02*
Y551250D01*
X1043250Y553250D02*
X1046000Y556000D01*
X1043250Y549250D02*
Y553250D01*
X1050000Y522750D02*
X1050500Y522250D01*
X1050000Y522750D02*
Y531250D01*
Y536000D02*
X1053750Y539750D01*
X1050000Y531250D02*
Y536000D01*
X1046000Y541500D02*
Y546500D01*
X1043250Y549250D02*
X1046000Y546500D01*
X1026750Y541500D02*
Y546750D01*
X1029250Y549250D01*
X1036000Y535250D02*
Y539750D01*
X1032000Y531250D02*
X1036000Y535250D01*
X1032000Y521500D02*
X1033750Y519750D01*
X1032000Y521500D02*
Y531250D01*
X826000Y607000D02*
X828500Y609500D01*
X826000Y599750D02*
Y607000D01*
X824750Y590750D02*
X826000Y592000D01*
Y599750D01*
X805750Y592750D02*
X812000Y599000D01*
Y599750D01*
X811750Y577500D02*
Y586000D01*
X825750Y574500D02*
X830750Y569500D01*
X825750Y574500D02*
Y577500D01*
Y579750D02*
X832250Y586250D01*
X825750Y577500D02*
Y579750D01*
X825500Y542750D02*
Y552250D01*
X835000D01*
X825500D02*
Y562250D01*
X807500Y542250D02*
Y552250D01*
X807000Y562750D02*
X807500Y562250D01*
Y552250D02*
Y562250D01*
X1036000Y649250D02*
X1038250Y651500D01*
X1036000Y642750D02*
Y649250D01*
Y638250D02*
X1039750Y634500D01*
X1036000Y638250D02*
Y642750D01*
X1033000Y615000D02*
X1036250Y618250D01*
Y622750D01*
X1034250Y631250D02*
X1036250Y629250D01*
Y622750D02*
Y629250D01*
X1050250Y619750D02*
X1054500Y615500D01*
X1050250Y619750D02*
Y622750D01*
Y625500D02*
X1055250Y630500D01*
X1050250Y622750D02*
Y625500D01*
X1050000Y634500D02*
Y642750D01*
Y650250D01*
X1055500Y660750D02*
X1058000Y658250D01*
X1054250Y660750D02*
Y666500D01*
X1066500D01*
X1053250Y676000D02*
X1054250Y675000D01*
Y666500D02*
Y675000D01*
X1029750Y657750D02*
X1036250Y664250D01*
Y666500D01*
X1027250D02*
X1036250D01*
X1029750Y676500D02*
X1036250Y670000D01*
Y666500D02*
Y670000D01*
X918000Y445500D02*
Y464000D01*
X948000Y427500D02*
Y445500D01*
Y464000D01*
Y445500D02*
X959750D01*
X962750Y707500D02*
X967250D01*
X957750D02*
X962750D01*
X944083D02*
X949250D01*
X938250D02*
X944083D01*
X916000Y703750D02*
X919750Y707500D01*
X925417D01*
X930250D01*
X815500Y690500D02*
Y698500D01*
Y665750D02*
Y673750D01*
Y687250D02*
X820000Y682750D01*
X815500Y687250D02*
Y690500D01*
X812250Y681250D02*
X815500Y678000D01*
Y673750D02*
Y678000D01*
X829500Y665500D02*
Y673750D01*
X837500D01*
X829500Y683500D02*
Y690500D01*
Y698000D01*
X1037000Y723500D02*
X1037000Y723500D01*
Y713750D02*
Y723500D01*
X1055000Y713750D02*
X1063500D01*
X1027750D02*
X1037000D01*
Y704500D02*
Y713750D01*
X1055000Y704000D02*
Y713750D01*
Y724000D01*
X825000Y616500D02*
Y623750D01*
X906750Y707500D02*
X910750D01*
X875750Y709250D02*
X886250D01*
X979250Y487500D02*
X987500D01*
X979250Y479000D02*
Y487500D01*
Y505500D02*
X987500D01*
X979250D02*
Y512750D01*
X973500Y487500D02*
X979250D01*
X976000Y505500D02*
X979250D01*
X965500Y507250D02*
X969500Y503250D01*
X960250Y507250D02*
X965500D01*
X956000D02*
X960250D01*
X952500Y488750D02*
X957000Y493250D01*
X960250D01*
X941583D02*
X948250D01*
X941583Y507250D02*
X948000D01*
X933500Y494750D02*
X935000Y493250D01*
X941583D01*
X934500Y507250D02*
X941583D01*
X922916Y493250D02*
X926250D01*
X922916Y507250D02*
X927250D01*
X914250Y503500D02*
X918000Y507250D01*
X922916D01*
X919500Y493250D02*
X922916D01*
X904250D02*
X911000D01*
X904250Y507250D02*
X910500D01*
X896000Y509250D02*
X898000Y507250D01*
X904250D01*
X896000Y495500D02*
X898250Y493250D01*
X904250D01*
X884000Y479500D02*
Y487500D01*
X889000D02*
X892250Y490750D01*
X884000Y487500D02*
X889000D01*
X875250Y491500D02*
X879250Y487500D01*
X884000D01*
X889500Y505500D02*
X892750Y502250D01*
X884000Y505500D02*
X889500D01*
X874750Y503500D02*
X876750Y505500D01*
X884000D01*
X745750Y586000D02*
Y595000D01*
X727500Y586000D02*
X745750D01*
X763500D01*
X745750Y556000D02*
X763250D01*
X727500D02*
X745750D01*
X920250Y761500D02*
Y778000D01*
X950250Y761500D02*
Y777750D01*
Y761500D02*
X959000D01*
X918250Y759500D02*
X920250Y761500D01*
X769000Y614250D02*
Y622500D01*
X744250Y613250D02*
Y622500D01*
X878500Y1101500D02*
X886250Y1093750D01*
X877000Y1101500D02*
X878500D01*
X970750Y1119750D02*
X983000D01*
X970750Y1172750D02*
X983500D01*
X952750D02*
Y1182500D01*
X912750Y1149500D02*
X917000Y1145250D01*
X912750Y1133239D02*
X917000Y1137489D01*
Y1145250D01*
X952750Y1129000D02*
X952750Y1129000D01*
Y1119750D02*
Y1129000D01*
X952250Y1110250D02*
X952750Y1110750D01*
Y1119750D01*
X920250Y761500D02*
X920250Y761500D01*
X983750Y708750D02*
X993750D01*
X983750Y726750D02*
X993750D01*
X974500D02*
X983750D01*
X968250Y721750D02*
X970000Y720000D01*
X941500Y721500D02*
X944083D01*
X925417D02*
X930250D01*
X920750D02*
X925417D01*
X906750D02*
X911750D01*
X901250D02*
X906750D01*
X898750Y719000D02*
X901250Y721500D01*
X886250Y727250D02*
X890750D01*
X983750Y726750D02*
Y735000D01*
X950250Y761500D02*
X952250Y759500D01*
Y744750D02*
Y759500D01*
X743750Y554000D02*
X745750Y556000D01*
X743750Y546000D02*
Y554000D01*
X370750Y741000D02*
X543250Y568500D01*
X370750Y741000D02*
Y1081750D01*
X375250Y260250D02*
X389250D01*
X362500Y209750D02*
X375249D01*
X375250Y86750D02*
X389500D01*
X1119000Y1380250D02*
Y1382250D01*
X1138000Y1380250D02*
Y1387500D01*
Y1380250D02*
X1138500Y1379750D01*
Y1372000D02*
Y1379750D01*
X1150250Y1372750D02*
Y1388250D01*
X1144250Y1366750D02*
X1150250Y1372750D01*
X1131000Y1366750D02*
X1144250D01*
X1128500Y1364250D02*
X1131000Y1366750D01*
X1128500Y1356250D02*
Y1364250D01*
Y1373750D02*
Y1380250D01*
X1118500Y1363750D02*
X1128500Y1373750D01*
Y1380250D02*
X1131750Y1383500D01*
X1130500Y1398250D02*
X1131750Y1397000D01*
Y1383500D02*
Y1397000D01*
X1113250Y1398250D02*
X1130500D01*
X1105250Y1390250D02*
X1113250Y1398250D01*
X1060770Y1371750D02*
X1069500D01*
X1033750Y1378000D02*
X1043250D01*
X1049500Y1371750D01*
X1055500D01*
X1085750Y1371750D02*
X1093750Y1363750D01*
X1117750Y1369750D02*
Y1370250D01*
Y1378999D01*
X1119000Y1380250D01*
X1093750Y1363750D02*
X1118500D01*
X1084000Y1353000D02*
X1099500D01*
X1104250Y1348250D01*
X1124500D01*
X1128500Y1352250D01*
Y1356250D01*
X1023500Y1353000D02*
X1068000D01*
X1009000Y1338500D02*
X1023500Y1353000D01*
X1041000Y1009500D02*
Y1011750D01*
Y1009500D02*
X1048750Y1001750D01*
X1081000Y1008250D02*
Y1016000D01*
X1075750Y1021250D02*
X1081000Y1016000D01*
X1065000Y1021250D02*
X1075750D01*
X1041000Y1030750D02*
Y1038250D01*
X1042250Y1039500D01*
X1041000Y1011750D02*
X1046750D01*
X1050000Y1015000D01*
Y1051750D01*
X1052750Y1054500D01*
X1057250Y1021250D02*
X1065000D01*
X1055500Y1023000D02*
X1057250Y1021250D01*
X1030750Y1038250D02*
Y1054000D01*
Y1038250D02*
X1038250Y1030750D01*
X1041000D01*
X1026500Y1035750D02*
Y1035750D01*
Y1035750D02*
X1041000Y1021250D01*
X1055500Y992000D02*
Y1023000D01*
Y992000D02*
X1057000Y990500D01*
X991250Y1040250D02*
X1041000Y990500D01*
X991250Y1040250D02*
Y1129500D01*
X987250Y1133500D02*
X991250Y1129500D01*
X963500Y1133500D02*
X987250D01*
X1021750Y1021250D02*
X1041000D01*
X1008750Y1034250D02*
X1021750Y1021250D01*
X1008750Y1034250D02*
Y1052250D01*
X1007500Y1069500D02*
Y1078000D01*
Y1069500D02*
X1008750Y1068250D01*
X996750Y1083250D02*
X1007500D01*
X812000Y608500D02*
X812471Y608030D01*
X1080500Y666750D02*
X1099500D01*
X1080250Y666500D02*
X1080500Y666750D01*
X1099500D02*
Y677250D01*
Y666750D02*
X1119000D01*
X541000Y668000D02*
X550500Y677500D01*
Y735250D01*
X535750Y750000D02*
X550500Y735250D01*
X677000Y552000D02*
X698500D01*
X675750Y550750D02*
X677000Y552000D01*
X698500D02*
X716750D01*
X718750Y550000D01*
X698500Y540750D02*
Y552000D01*
X970750Y1145250D02*
X985500D01*
X774500Y741250D02*
X780000D01*
X770000Y745750D02*
X774500Y741250D01*
X1024500Y556000D02*
X1029250Y551250D01*
X387250Y37750D02*
X398500D01*
X387000Y37500D02*
X387250Y37750D01*
X394500Y160750D02*
X398500D01*
X385250Y170000D02*
X394500Y160750D01*
X386750Y234250D02*
X398500D01*
X386000Y233500D02*
X386750Y234250D01*
X918250Y759500D02*
X920000Y757750D01*
D43*
X838250Y493543D02*
X840354Y495647D01*
X932957Y641781D02*
X933046D01*
X932750Y641575D02*
X932957Y641781D01*
X933046Y638545D02*
Y641781D01*
X930250Y635750D02*
X933046Y638545D01*
X912325Y637825D02*
Y641000D01*
X917000Y619000D02*
X920000Y616000D01*
X917000Y619000D02*
Y635750D01*
X942296Y591279D02*
X942529D01*
X947000Y595750D01*
X838250Y486750D02*
Y493543D01*
X840000Y496000D02*
X840354Y495647D01*
X902294Y630531D02*
Y631031D01*
X897000Y636325D02*
X902294Y631031D01*
X156499Y748001D02*
X181000Y723500D01*
X232500Y546500D02*
X246250Y560250D01*
Y584250D01*
X216750Y546500D02*
X232500D01*
X233000Y419750D02*
X240250Y427000D01*
X222750Y419750D02*
X233000D01*
X942500Y650750D02*
X952500Y640750D01*
X942250Y650750D02*
X942500D01*
X927250Y626000D02*
X937175D01*
X922500Y630750D02*
X927250Y626000D01*
X952250Y601000D02*
X952325D01*
X947000Y606250D02*
X952250Y601000D01*
X947000Y595750D02*
Y606250D01*
X945250Y626000D02*
X947000Y624250D01*
X937175Y626000D02*
X945250D01*
X937175D02*
X942250Y631075D01*
X917000Y635750D02*
X930250D01*
X936500Y606000D02*
Y616825D01*
X932500Y620825D02*
X936500Y616825D01*
X910250Y635750D02*
X917000D01*
X927675Y616000D02*
X932500Y620825D01*
X920000Y616000D02*
X927675D01*
X898000Y635750D02*
X910250D01*
X912325Y637825D01*
X897000Y636750D02*
X898000Y635750D01*
X922750Y590750D02*
X926750Y586750D01*
X936500D01*
Y606000D01*
X932250Y601750D02*
X936500Y606000D01*
X897000Y636325D02*
Y636750D01*
Y616325D02*
Y636325D01*
Y616325D02*
X902250Y611075D01*
X151250Y757750D02*
X151500Y757500D01*
X176500D02*
X195750D01*
X110750Y769750D02*
X124750Y755750D01*
Y739750D02*
X131750Y732750D01*
X133250D01*
X151500Y748001D02*
X156499D01*
X151500Y767000D02*
X158500D01*
X171000Y779500D01*
X110750Y820000D02*
X141250Y789500D01*
X110750Y769750D02*
Y820000D01*
X141250Y789500D02*
X269250D01*
X282250Y776500D01*
X328500D01*
X176500Y748001D02*
X214750D01*
X824000Y487000D02*
Y495750D01*
X856000Y488750D02*
Y496000D01*
X789750Y471250D02*
X800750D01*
X765500Y471000D02*
X775500D01*
X800750Y462250D02*
Y471250D01*
X811750D01*
X775500Y461250D02*
Y471000D01*
X744750Y450500D02*
Y459750D01*
X727250D02*
X744750D01*
X762000D01*
X714750Y457500D02*
Y467250D01*
X219750Y329000D02*
X239250D01*
X246250Y336000D01*
X433000Y185000D02*
X439750Y178250D01*
X465100D01*
X477000Y166350D01*
X463200Y154750D02*
X477000Y140950D01*
X420200Y245550D02*
X433000Y232750D01*
Y185000D02*
Y232750D01*
X411950Y220550D02*
X427875Y204625D01*
X444150Y166350D02*
X451600D01*
X427875Y182625D02*
X444150Y166350D01*
X427875Y182625D02*
Y204625D01*
X402450Y195550D02*
X443250Y154750D01*
X463200D01*
X447800Y144750D02*
X451600Y140950D01*
X446700Y120450D02*
X451600Y115550D01*
X456750Y54250D02*
X477000Y74500D01*
Y90150D01*
X432700Y71250D02*
X451600Y90150D01*
X397500Y144750D02*
X398500D01*
X447800D01*
X331750Y206000D02*
X345750D01*
X942325Y611000D02*
X947000Y606325D01*
Y606250D02*
Y606325D01*
Y624250D01*
X1099500Y625500D02*
Y636750D01*
X1080500D02*
X1099500D01*
X1120000D01*
X786500Y615750D02*
Y623750D01*
Y615750D02*
X787000Y615250D01*
X200750Y546500D02*
Y566500D01*
X198500Y568750D02*
X200750Y566500D01*
X196500Y430000D02*
X206750Y419750D01*
X196500Y430000D02*
Y439000D01*
X194500Y329000D02*
X203750D01*
X191500Y332000D02*
X194500Y329000D01*
X191500Y332000D02*
Y334250D01*
X122750Y757750D02*
X151250D01*
X171000Y779500D02*
X214500D01*
X176500Y767000D02*
X215000D01*
X826425Y636325D02*
X897000D01*
X140400Y217250D02*
X143650Y214000D01*
X140400Y192250D02*
X162500D01*
X163500Y191250D01*
X323250Y102750D02*
X456500D01*
X293000Y72500D02*
X323250Y102750D01*
X140400Y117250D02*
X158750D01*
X353750Y43750D02*
X364250Y54250D01*
X158900Y43750D02*
X167750D01*
X140400Y62250D02*
X158900Y43750D01*
X451600Y140950D02*
X463500Y129050D01*
X456500Y102750D02*
X463500Y109750D01*
Y129050D01*
X145250Y242250D02*
X158750Y255750D01*
X142750Y242250D02*
X145250D01*
X143650Y214000D02*
X168500D01*
X140400Y77250D02*
X154750D01*
X159500Y72500D01*
X173000D01*
X158750Y117250D02*
X162250Y120750D01*
X166750D01*
X212450Y13800D02*
X254300D01*
X272750Y32250D01*
X327500D01*
X342750Y71250D02*
X432700D01*
X319500Y120450D02*
X446700D01*
X305250Y195550D02*
X402450D01*
X304800Y220550D02*
X411950D01*
X305050Y245550D02*
X420200D01*
X364250Y54250D02*
X456750D01*
D44*
X904750Y565750D02*
X936500D01*
X947000Y595750D02*
X947500Y595250D01*
Y578000D02*
Y595250D01*
Y578000D02*
X948250Y577250D01*
X937500Y575000D02*
X938074Y575574D01*
X946574D02*
X948250Y577250D01*
X938074Y575574D02*
X946574D01*
X110750Y820000D02*
X112250Y821500D01*
Y873250D01*
X77250Y908250D02*
X112250Y873250D01*
X856000Y510000D02*
X894000Y548000D01*
Y555000D01*
X904750Y565750D01*
X937500Y566750D02*
Y575000D01*
X936500Y565750D02*
X937500Y566750D01*
X130250Y142250D02*
X140400D01*
X65750Y162750D02*
X109750D01*
X130250Y142250D01*
D45*
X120000Y180000D02*
X132750Y167250D01*
X714750Y485250D02*
X719250Y489750D01*
X744750D01*
X774750D01*
X775500Y489000D01*
X800500D01*
X800750Y489250D01*
Y492000D01*
X818500Y509750D01*
X824000D01*
X839750D01*
X840000Y510000D01*
X855500D01*
X856000Y509500D01*
X130500Y92250D02*
X140400D01*
X91250Y131500D02*
X130500Y92250D01*
X132750Y167250D02*
X140400D01*
D46*
X1010250Y667250D02*
X1015500Y672500D01*
X937000Y667250D02*
X1010250D01*
X932717Y671533D02*
X937000Y667250D01*
X1011078Y665250D02*
X1017500Y671672D01*
X929000Y665250D02*
X1011078D01*
X923000Y671250D02*
X929000Y665250D01*
X962500Y671000D02*
X963250D01*
X932296Y671533D02*
X932717D01*
X975750Y527500D02*
X979250Y524000D01*
X975750Y527500D02*
Y553250D01*
X972500Y556500D02*
X975750Y553250D01*
X955000Y556500D02*
X972500D01*
X1001500Y687000D02*
X1007500Y693000D01*
X994028Y687000D02*
X1001500D01*
X993778Y686750D02*
X994028Y687000D01*
X964422Y686750D02*
X993778D01*
X964172Y687000D02*
X964422Y686750D01*
X1005500Y701300D02*
Y775657D01*
X965250Y688750D02*
X992950D01*
X1005500Y701300D01*
X1005579Y675250D02*
X1013500Y683172D01*
X952250Y681500D02*
X958500Y675250D01*
X1004750Y677250D02*
X1011500Y684000D01*
X962500Y680825D02*
X966075Y677250D01*
X1004750D01*
X958500Y675250D02*
X1005579D01*
X937461Y700500D02*
X995500D01*
X938289Y698500D02*
X996329D01*
X945500Y696500D02*
X997500D01*
X932750Y681250D02*
X938500Y687000D01*
X942500Y680825D02*
X946675Y685000D01*
X953700D01*
X938500Y687000D02*
X964172D01*
X942046Y693284D02*
X942284D01*
X945500Y696500D01*
X953950Y684750D02*
X1002078D01*
X953700Y685000D02*
X953950Y684750D01*
X927034Y700034D02*
X936995D01*
X922034Y695034D02*
X927034Y700034D01*
X921795Y695034D02*
X922034D01*
X937824Y698034D02*
X938289Y698500D01*
X936034Y698034D02*
X937824D01*
X932250Y694250D02*
X936034Y698034D01*
X936995Y700034D02*
X937461Y700500D01*
X864792Y1180808D02*
Y1181958D01*
X861750Y1185000D02*
X864792Y1181958D01*
X861239Y1176750D02*
X864989Y1173000D01*
X837500Y1176750D02*
X861239D01*
X819750Y1194500D02*
X837500Y1176750D01*
X784907Y1196500D02*
X833149D01*
X844650Y1185000D01*
X861750D01*
X873500Y1168750D02*
X878250Y1173500D01*
X852260Y1168750D02*
X873500D01*
X848750Y1165240D02*
X852260Y1168750D01*
X850210Y1161750D02*
X853250D01*
X850200Y1161740D02*
X850210Y1161750D01*
X847300Y1161740D02*
X850200D01*
X847290Y1161750D02*
X847300Y1161740D01*
X844750Y1161750D02*
X847290D01*
X853250D02*
X856750Y1165250D01*
X904544Y1149306D02*
Y1150206D01*
X901500Y1153250D02*
X904544Y1150206D01*
X895250Y1151250D02*
X896750Y1149750D01*
X894922Y1151250D02*
X895250D01*
X883000Y1163172D02*
X894922Y1151250D01*
X883000Y1163172D02*
Y1163500D01*
X882500Y1164000D02*
X883000Y1163500D01*
X882500Y1164000D02*
Y1217760D01*
X895750Y1153250D02*
X901500D01*
X885000Y1164000D02*
X895750Y1153250D01*
X885000Y1164000D02*
Y1218796D01*
X1146250Y761500D02*
Y764450D01*
X1133500Y748750D02*
X1146250Y761500D01*
X1133500Y705500D02*
Y748750D01*
Y705500D02*
X1138250Y700750D01*
X1151000D01*
X1156500Y695250D01*
Y630250D02*
Y695250D01*
X1151500Y625250D02*
X1156500Y630250D01*
X1132250Y625250D02*
X1151500D01*
X1105750Y598750D02*
X1132250Y625250D01*
X1044578Y598750D02*
X1105750D01*
X1002250Y556422D02*
X1044578Y598750D01*
X1002250Y551075D02*
Y556422D01*
X1158500Y626000D02*
Y726800D01*
X1154000Y621500D02*
X1158500Y626000D01*
X1136750Y621500D02*
X1154000D01*
X1119250Y604000D02*
X1136750Y621500D01*
X1146250Y739050D02*
X1158500Y726800D01*
X1119250Y570328D02*
Y604000D01*
X1064672Y515750D02*
X1119250Y570328D01*
X1013985Y515750D02*
X1064672D01*
X1001735Y528000D02*
X1013985Y515750D01*
X992750Y528000D02*
X1001735D01*
X982324Y538426D02*
X992750Y528000D01*
X982324Y538426D02*
Y541000D01*
X1130500Y672500D02*
X1146250Y688250D01*
X1130500Y657328D02*
Y672500D01*
X1127750Y654578D02*
X1130500Y657328D01*
X1127750Y629578D02*
Y654578D01*
X1100922Y602750D02*
X1127750Y629578D01*
X1129750Y628750D02*
Y653750D01*
X1101750Y600750D02*
X1129750Y628750D01*
X1042922Y602750D02*
X1100922D01*
X1007172Y567000D02*
X1042922Y602750D01*
X979500Y567000D02*
X1007172D01*
X975676Y570824D02*
X979500Y567000D01*
X972500Y570824D02*
X975676D01*
X1138850Y662850D02*
X1146250D01*
X1129750Y653750D02*
X1138850Y662850D01*
X1043750Y600750D02*
X1101750D01*
X1008000Y565000D02*
X1043750Y600750D01*
X977500Y565000D02*
X1008000D01*
X974000Y561500D02*
X977500Y565000D01*
X972000Y561500D02*
X974000D01*
X1128750Y577000D02*
Y594550D01*
X1065500Y513750D02*
X1128750Y577000D01*
X1013157Y513750D02*
X1065500D01*
X1128750Y594550D02*
X1146250Y612050D01*
X1000907Y526000D02*
X1013157Y513750D01*
X983000Y526000D02*
X1000907D01*
X978500Y530500D02*
X983000Y526000D01*
X978500Y530500D02*
Y557750D01*
X982000Y561250D01*
X979250Y524000D02*
X1000078D01*
X1145700Y511000D02*
X1146250Y510450D01*
X1013078Y511000D02*
X1145700D01*
X1000078Y524000D02*
X1013078Y511000D01*
X952500Y559000D02*
X955000Y556500D01*
X952500Y559000D02*
Y560824D01*
X1137950Y476750D02*
X1146250Y485050D01*
X1044500Y476750D02*
X1137950D01*
X999250Y522000D02*
X1044500Y476750D01*
X975500Y522000D02*
X999250D01*
X968000Y529500D02*
X975500Y522000D01*
X968000Y529500D02*
Y547250D01*
X964750Y550500D02*
X968000Y547250D01*
X962250Y550500D02*
X964750D01*
X1146100Y459500D02*
X1146250Y459650D01*
X1056750Y459500D02*
X1146100D01*
X996500Y519750D02*
X1056750Y459500D01*
X972500Y519750D02*
X996500D01*
X962324Y529926D02*
X972500Y519750D01*
X962324Y529926D02*
Y541000D01*
X635500Y1241100D02*
X644000Y1232600D01*
X662500D01*
X643750Y1258250D02*
X717500D01*
X635500Y1266500D02*
X643750Y1258250D01*
X635500Y1291900D02*
X686678D01*
X784078Y1194500D01*
X664107Y1317300D02*
X784907Y1196500D01*
X635500Y1317300D02*
X664107D01*
X813000Y1341008D02*
Y1352750D01*
Y1341008D02*
X874000Y1280008D01*
X795500Y1428750D02*
X801250Y1423000D01*
Y1349750D02*
Y1423000D01*
Y1349750D02*
X871500Y1279500D01*
X634400Y1416250D02*
X646900Y1428750D01*
X795500D01*
X786500Y1361374D02*
Y1373000D01*
Y1361374D02*
X869250Y1278624D01*
X736000Y1407750D02*
Y1416250D01*
Y1407750D02*
X867250Y1276500D01*
Y1227000D02*
Y1276500D01*
X818500Y1192250D02*
X838186Y1172564D01*
X857078D01*
X592000Y851951D02*
X628201Y815750D01*
X592000Y1081800D02*
X636000Y1125800D01*
X592000Y851951D02*
Y1081800D01*
X630900Y1100400D02*
X636000D01*
X594701Y1064201D02*
X630900Y1100400D01*
X594701Y852500D02*
X629153Y818048D01*
X594701Y852500D02*
Y1064201D01*
X630250Y1075000D02*
X636000D01*
X597390Y1042140D02*
X630250Y1075000D01*
X597390Y852640D02*
X629981Y820048D01*
X597390Y852640D02*
Y1042140D01*
X631150Y1044750D02*
X636000Y1049600D01*
X626500Y1044750D02*
X631150D01*
X600358Y852500D02*
X630810Y822048D01*
X600358Y1018608D02*
X626500Y1044750D01*
X600358Y852500D02*
Y1018608D01*
X633450Y1024200D02*
X636000D01*
X603343Y994093D02*
X633450Y1024200D01*
X603343Y852343D02*
X631638Y824048D01*
X603343Y852343D02*
Y994093D01*
X628700Y991500D02*
X636000Y998800D01*
X625000Y991500D02*
X628700D01*
X606500Y852015D02*
X632467Y826048D01*
X606500Y973000D02*
X625000Y991500D01*
X606500Y852015D02*
Y973000D01*
X630600Y968000D02*
X636000Y973400D01*
X625000Y968000D02*
X630600D01*
X609843Y851500D02*
X633295Y828048D01*
X609843Y952843D02*
X625000Y968000D01*
X609843Y851500D02*
Y952843D01*
X613250Y925250D02*
X636000Y948000D01*
X613250Y854093D02*
Y925250D01*
Y854093D02*
X635052Y832291D01*
X616172Y854000D02*
X635881Y834291D01*
X616172Y902772D02*
X636000Y922600D01*
X616172Y854000D02*
Y902772D01*
X621500Y851500D02*
X636709Y836291D01*
X621500Y882700D02*
X636000Y897200D01*
X621500Y851500D02*
Y882700D01*
X995500Y700500D02*
X999500Y704500D01*
X996329Y698500D02*
X1001500Y703672D01*
X932250Y693500D02*
Y694250D01*
X1003500Y702500D02*
Y774828D01*
X997500Y696500D02*
X1003500Y702500D01*
X961750Y692250D02*
X965250Y688750D01*
X1002078Y684750D02*
X1009500Y692172D01*
X1011500Y697250D02*
X1011500Y697250D01*
Y684000D02*
Y697250D01*
X1013500Y683172D02*
Y782142D01*
X636709Y836291D02*
X965008D01*
X635881Y834291D02*
X964180D01*
X635052Y832291D02*
X963352D01*
X633295Y828048D02*
X961594D01*
X632467Y826048D02*
X960766D01*
X631638Y824048D02*
X959937D01*
X630810Y822048D02*
X959109D01*
X629981Y820048D02*
X958280D01*
X1003500Y774828D01*
X629153Y818048D02*
X957452D01*
X628201Y815750D02*
X956500D01*
X965008Y836291D02*
X1017500Y783799D01*
Y671672D02*
Y783799D01*
X964180Y834291D02*
X1015500Y782971D01*
Y672500D02*
Y782971D01*
X963352Y832291D02*
X1013500Y782142D01*
X961594Y828048D02*
X1011500Y778142D01*
Y697250D02*
Y778142D01*
X960766Y826048D02*
X1009500Y777314D01*
Y692172D02*
Y777314D01*
X959937Y824048D02*
X1007500Y776485D01*
Y693000D02*
Y776485D01*
X959109Y822048D02*
X1005500Y775657D01*
X957452Y818048D02*
X1001500Y774000D01*
Y703672D02*
Y774000D01*
X956500Y815750D02*
X999500Y772750D01*
Y704500D02*
Y772750D01*
X1053550Y852000D02*
Y865450D01*
X1028250Y890750D02*
X1053550Y865450D01*
X1003750Y926500D02*
Y945750D01*
X989500Y960000D02*
X1003750Y945750D01*
X1028250Y890750D02*
Y902000D01*
X1003750Y926500D02*
X1028250Y902000D01*
X896250Y983750D02*
X920000Y960000D01*
X989500D01*
X896250Y983750D02*
Y989750D01*
X1028150Y852000D02*
Y871100D01*
X1001000Y898250D02*
X1028150Y871100D01*
X1001000Y898250D02*
Y945250D01*
X988250Y958000D02*
X1001000Y945250D01*
X916500Y958000D02*
X988250D01*
X890750Y983750D02*
Y990250D01*
Y983750D02*
X916500Y958000D01*
X1078950Y852000D02*
Y947050D01*
X1056000Y970000D02*
X1078950Y947050D01*
X936750Y970000D02*
X1056000D01*
X918000Y988750D02*
X936750Y970000D01*
X1002750Y852000D02*
Y861250D01*
X970000Y955500D02*
X977250Y948250D01*
Y886750D02*
X1002750Y861250D01*
X977250Y886750D02*
Y948250D01*
X912000Y955500D02*
X970000D01*
X885000Y982500D02*
X912000Y955500D01*
X885000Y982500D02*
Y990500D01*
X816250Y1190250D02*
X844750Y1161750D01*
X760750Y957750D02*
X794500Y991500D01*
X706750Y957750D02*
X760750D01*
X684050Y931750D02*
Y935050D01*
X706750Y957750D01*
X902500Y985250D02*
Y989250D01*
Y985250D02*
X924500Y963250D01*
X994250D01*
X1014250Y943250D01*
Y931750D02*
Y943250D01*
X910500Y982250D02*
Y989000D01*
Y982250D02*
X926750Y966000D01*
X1005400D01*
X1039650Y931750D01*
X867250Y1227000D02*
X878250Y1216000D01*
X871500Y1228761D02*
X882500Y1217760D01*
X874000Y1229796D02*
X885000Y1218796D01*
X869250Y1227829D02*
X880250Y1216829D01*
X874000Y1229796D02*
Y1280008D01*
X871500Y1228761D02*
Y1279500D01*
X869250Y1227829D02*
Y1278624D01*
X880250Y1158000D02*
Y1216829D01*
Y1158000D02*
X889000Y1149250D01*
X783500Y1192250D02*
X818500D01*
X878250Y1173500D02*
Y1216000D01*
X717500Y1258250D02*
X783500Y1192250D01*
X784078Y1194500D02*
X819750D01*
X739900Y1232850D02*
X782500Y1190250D01*
X816250D01*
X662500Y1232600D02*
X662750Y1232850D01*
X739900D01*
X1030750Y1068000D02*
Y1072250D01*
X1025250Y1077750D02*
X1030750Y1072250D01*
X1052750Y1068500D02*
Y1071000D01*
X1045750Y1078000D02*
X1052750Y1071000D01*
X729000Y358500D02*
Y393500D01*
X751250Y415750D01*
X803000D01*
X867500Y480250D01*
Y511500D01*
X879250Y523250D01*
X934000D01*
X942500Y531750D01*
Y541250D01*
D48*
X762000Y657750D02*
X767250D01*
X1055500Y1371750D02*
X1060750D01*
X1007500Y1078000D02*
Y1083250D01*
D49*
X457000Y531500D02*
X582500D01*
X633000Y582000D01*
X698500D01*
X702500D01*
X724750Y604250D01*
Y626250D01*
X739000Y640500D01*
X744250D01*
D50*
X824750Y638000D02*
X826425Y636325D01*
X808000Y638000D02*
X824750D01*
X807750Y638250D02*
X808000Y638000D01*
X790250Y638250D02*
X807750D01*
X769000Y640500D02*
X769000Y640500D01*
X744250Y640500D02*
X769000D01*
X769000Y640500D02*
X788000D01*
D51*
X885617Y1457750D02*
D03*
X558200Y1416250D02*
D03*
X1041200Y1118352D02*
D03*
X1078950Y852000D02*
D03*
X498650Y30000D02*
D03*
D52*
X911017Y1457750D02*
D03*
X936417D02*
D03*
X961817D02*
D03*
X1146250Y383450D02*
D03*
Y408850D02*
D03*
Y434250D02*
D03*
Y459650D02*
D03*
Y485050D02*
D03*
Y510450D02*
D03*
Y535850D02*
D03*
Y561250D02*
D03*
Y586650D02*
D03*
Y612050D02*
D03*
Y637450D02*
D03*
Y662850D02*
D03*
Y688250D02*
D03*
Y713650D02*
D03*
Y739050D02*
D03*
X637000Y753750D02*
D03*
Y728350D02*
D03*
Y702950D02*
D03*
Y677550D02*
D03*
Y652150D02*
D03*
Y626750D02*
D03*
X661500Y779150D02*
D03*
Y753750D02*
D03*
Y728350D02*
D03*
Y702950D02*
D03*
Y677550D02*
D03*
Y652150D02*
D03*
Y626750D02*
D03*
X737850Y206050D02*
D03*
Y180650D02*
D03*
Y155250D02*
D03*
X763250Y206050D02*
D03*
Y180650D02*
D03*
X736750Y94650D02*
D03*
Y69250D02*
D03*
Y43850D02*
D03*
X762150Y94650D02*
D03*
Y69250D02*
D03*
X786800Y1441650D02*
D03*
Y1416250D02*
D03*
X761400Y1441650D02*
D03*
Y1416250D02*
D03*
X736000Y1441650D02*
D03*
Y1416250D02*
D03*
X710600D02*
D03*
Y1441650D02*
D03*
X685200D02*
D03*
Y1416250D02*
D03*
X659800Y1441650D02*
D03*
X558200D02*
D03*
X583600Y1416250D02*
D03*
Y1441650D02*
D03*
X609000Y1416250D02*
D03*
Y1441650D02*
D03*
X634400Y1416250D02*
D03*
Y1441650D02*
D03*
X659800Y1416250D02*
D03*
X457000Y531500D02*
D03*
Y506100D02*
D03*
Y480700D02*
D03*
X411499Y788050D02*
D03*
X1066600Y1118352D02*
D03*
X1092000D02*
D03*
X1117400D02*
D03*
X1142800D02*
D03*
X1168200D02*
D03*
X1041200Y1143752D02*
D03*
X1066600D02*
D03*
X1092000D02*
D03*
X1117400D02*
D03*
X1142800D02*
D03*
X1168200D02*
D03*
X635500Y1291900D02*
D03*
Y1266500D02*
D03*
Y1241100D02*
D03*
Y1215700D02*
D03*
X1053550Y852000D02*
D03*
X1028150D02*
D03*
X1002750D02*
D03*
X473250Y30000D02*
D03*
X447850D02*
D03*
X477000Y90150D02*
D03*
Y115550D02*
D03*
Y140950D02*
D03*
Y166350D02*
D03*
Y191750D02*
D03*
X451600Y90150D02*
D03*
Y115550D02*
D03*
Y140950D02*
D03*
Y166350D02*
D03*
D53*
X636000Y897200D02*
D03*
D54*
Y922600D02*
D03*
Y948000D02*
D03*
Y973400D02*
D03*
Y998800D02*
D03*
Y1024200D02*
D03*
Y1049600D02*
D03*
Y1075000D02*
D03*
Y1100400D02*
D03*
Y1125800D02*
D03*
Y1151200D02*
D03*
Y1176600D02*
D03*
X1065050Y931750D02*
D03*
X1039650D02*
D03*
X1014250D02*
D03*
X988850D02*
D03*
X963450D02*
D03*
X938050D02*
D03*
X912650D02*
D03*
X887250D02*
D03*
X861850D02*
D03*
X836450D02*
D03*
X811050D02*
D03*
X785650D02*
D03*
X760250D02*
D03*
X734850D02*
D03*
X709450D02*
D03*
X1064650Y900250D02*
D03*
X1039250D02*
D03*
X1013850D02*
D03*
X988450D02*
D03*
X963050D02*
D03*
X937650D02*
D03*
X912250D02*
D03*
X886850D02*
D03*
X861450D02*
D03*
X836050D02*
D03*
X810650D02*
D03*
X785250D02*
D03*
X759850D02*
D03*
X734450D02*
D03*
X709050D02*
D03*
D55*
X684050Y931750D02*
D03*
X683650Y900250D02*
D03*
D56*
X1146250Y764450D02*
D03*
X637000Y779150D02*
D03*
X763250Y155250D02*
D03*
X762150Y43850D02*
D03*
X457000Y556900D02*
D03*
X411499Y813450D02*
D03*
X635500Y1317300D02*
D03*
X451600Y191750D02*
D03*
D57*
X77250Y958250D02*
D03*
D58*
Y908250D02*
D03*
D59*
X65750Y809750D02*
D03*
Y765750D02*
D03*
X1132000Y1001250D02*
D03*
Y1045250D02*
D03*
X1143250Y1435500D02*
D03*
X1099250D02*
D03*
X68250Y1226500D02*
D03*
Y1182500D02*
D03*
X68000Y1099250D02*
D03*
Y1055250D02*
D03*
D60*
X1160750Y69000D02*
D03*
X637750Y399000D02*
D03*
Y458750D02*
D03*
D61*
X1140750Y69000D02*
D03*
X1160750Y89000D02*
D03*
X1140750D02*
D03*
X1160750Y109000D02*
D03*
X1140750D02*
D03*
X1160750Y129000D02*
D03*
X1140750D02*
D03*
X1160750Y149000D02*
D03*
X1140750D02*
D03*
X1160750Y169000D02*
D03*
X1140750D02*
D03*
X1160750Y189000D02*
D03*
X1140750D02*
D03*
X271900Y708250D02*
D03*
X324750Y432500D02*
D03*
X663150Y424400D02*
D03*
Y399000D02*
D03*
X637750Y424400D02*
D03*
X663150Y484150D02*
D03*
Y458750D02*
D03*
X637750Y484150D02*
D03*
D62*
X246500Y708250D02*
D03*
X350150Y432500D02*
D03*
D63*
X930600Y133600D02*
D03*
X956000D02*
D03*
X981400D02*
D03*
Y57400D02*
D03*
X956000D02*
D03*
D64*
X930600D02*
D03*
D65*
X1075500Y1328000D02*
D03*
X343250Y714000D02*
D03*
X560500Y744750D02*
D03*
X566250Y670250D02*
D03*
X478299Y710500D02*
D03*
X459000Y757500D02*
D03*
X241250Y1121750D02*
D03*
X440300Y851450D02*
D03*
X179500Y1121250D02*
D03*
X125500Y1081250D02*
D03*
X154250Y428500D02*
D03*
X138500Y430000D02*
D03*
X117500D02*
D03*
X97250Y430750D02*
D03*
X79500Y431250D02*
D03*
X13500Y347403D02*
D03*
Y326750D02*
D03*
X151250Y556000D02*
D03*
X136500D02*
D03*
X121750D02*
D03*
X107000D02*
D03*
X92250D02*
D03*
X77500D02*
D03*
X126750Y684750D02*
D03*
X106250Y702000D02*
D03*
X128000Y702250D02*
D03*
X106250Y685000D02*
D03*
X55000Y676267D02*
D03*
Y698000D02*
D03*
Y654533D02*
D03*
Y632800D02*
D03*
Y611067D02*
D03*
Y589333D02*
D03*
Y567600D02*
D03*
Y545867D02*
D03*
Y524133D02*
D03*
Y502400D02*
D03*
Y480667D02*
D03*
Y458933D02*
D03*
Y437200D02*
D03*
Y415467D02*
D03*
Y393733D02*
D03*
Y372000D02*
D03*
X13500Y368055D02*
D03*
Y388708D02*
D03*
Y409361D02*
D03*
Y430014D02*
D03*
Y450667D02*
D03*
Y471319D02*
D03*
Y491972D02*
D03*
Y512625D02*
D03*
Y533278D02*
D03*
Y553930D02*
D03*
Y574583D02*
D03*
Y595236D02*
D03*
Y615889D02*
D03*
Y636541D02*
D03*
Y657194D02*
D03*
Y677847D02*
D03*
Y698500D02*
D03*
X1110900Y1324749D02*
D03*
X1085649Y1223000D02*
D03*
X1095400Y1215500D02*
D03*
X802750Y1121750D02*
D03*
X822500D02*
D03*
X1093950Y1333252D02*
D03*
X533250Y64500D02*
D03*
X672500Y29500D02*
D03*
X1080250Y666500D02*
D03*
X1099500Y677250D02*
D03*
Y625500D02*
D03*
X1080500Y636750D02*
D03*
X1120000D02*
D03*
X1119000Y666750D02*
D03*
X509750Y725450D02*
D03*
X518750D02*
D03*
X527750D02*
D03*
X536750D02*
D03*
X509750Y716450D02*
D03*
X518750D02*
D03*
X527750D02*
D03*
X536750D02*
D03*
X509750Y707450D02*
D03*
X518750D02*
D03*
X527750D02*
D03*
X536750D02*
D03*
X509750Y698450D02*
D03*
X518750D02*
D03*
X527750D02*
D03*
X536750D02*
D03*
X305500Y687250D02*
D03*
X163500Y191250D02*
D03*
X319500Y120500D02*
D03*
X353750Y43750D02*
D03*
X167750D02*
D03*
X342750Y71000D02*
D03*
X158750Y255750D02*
D03*
X173000Y72500D02*
D03*
X166750Y120750D02*
D03*
X327500Y32250D02*
D03*
X91250Y131500D02*
D03*
X120250Y179750D02*
D03*
X65750Y162750D02*
D03*
X83750Y223000D02*
D03*
X65750Y222500D02*
D03*
D66*
X919750Y741250D02*
D03*
X851500Y198578D02*
D03*
X896500Y1141489D02*
D03*
X880173Y1133241D02*
D03*
X889195Y1133305D02*
D03*
X889000Y1125250D02*
D03*
X849541Y1075303D02*
D03*
X1002500Y671000D02*
D03*
X962500D02*
D03*
X962000Y641000D02*
D03*
X896750Y731250D02*
D03*
X886543Y735536D02*
D03*
X933046Y661032D02*
D03*
X747037Y522525D02*
D03*
X911750Y766250D02*
D03*
X932000Y488500D02*
D03*
X1002000Y611750D02*
D03*
X1001799Y680783D02*
D03*
X1002750Y641250D02*
D03*
X883000Y680250D02*
D03*
X914750Y711500D02*
D03*
X923000Y671250D02*
D03*
X932296Y671533D02*
D03*
X933046Y651782D02*
D03*
Y641781D02*
D03*
X912325Y641000D02*
D03*
X971750Y692250D02*
D03*
X992000Y692750D02*
D03*
X912544Y560527D02*
D03*
Y571028D02*
D03*
X912294Y630781D02*
D03*
X942296Y591279D02*
D03*
X1058552Y530776D02*
D03*
X905794Y445272D02*
D03*
X917500Y427750D02*
D03*
X910794Y509525D02*
D03*
X914795Y488024D02*
D03*
X912544Y495024D02*
D03*
X838250Y486750D02*
D03*
X810790Y586529D02*
D03*
X813040Y608030D02*
D03*
X807289Y617530D02*
D03*
X851250Y651000D02*
D03*
X850825Y642500D02*
D03*
X862542Y671033D02*
D03*
X974747Y712285D02*
D03*
X970750Y704000D02*
D03*
X942046Y693284D02*
D03*
X962750Y661750D02*
D03*
X932750Y681250D02*
D03*
X941750Y671750D02*
D03*
X921795Y695034D02*
D03*
X933788Y712419D02*
D03*
X954797Y704034D02*
D03*
X935546Y703534D02*
D03*
X933046Y719785D02*
D03*
X895750Y709250D02*
D03*
X877043Y727286D02*
D03*
X931045Y1148806D02*
D03*
X864792Y1180808D02*
D03*
X904544Y1149306D02*
D03*
X882293Y1229310D02*
D03*
X837041Y1197558D02*
D03*
X951546Y1184308D02*
D03*
X932795Y1182808D02*
D03*
X895794Y1075553D02*
D03*
X817790Y992798D02*
D03*
X902294Y630531D02*
D03*
X891794Y692784D02*
D03*
X237000Y825750D02*
D03*
X588000Y779000D02*
D03*
X577375Y745875D02*
D03*
X233916Y799666D02*
D03*
X157750Y1217750D02*
D03*
X157250Y1198500D02*
D03*
X169000Y1074500D02*
D03*
X175250Y1077750D02*
D03*
X144500Y1070750D02*
D03*
X144750Y1090250D02*
D03*
X1024750Y408250D02*
D03*
X1180200Y1258800D02*
D03*
X277250Y135250D02*
D03*
X257000Y146000D02*
D03*
X219000Y144250D02*
D03*
X113750Y140000D02*
D03*
X73250Y138500D02*
D03*
X44750Y137750D02*
D03*
X851000Y621250D02*
D03*
X872500Y611250D02*
D03*
X850750D02*
D03*
X851250Y601750D02*
D03*
X872500Y600912D02*
D03*
X862500Y590500D02*
D03*
X872500Y591250D02*
D03*
X872750Y621500D02*
D03*
X811750Y569000D02*
D03*
X1025750Y573250D02*
D03*
X1033950Y1288550D02*
D03*
X1006700Y1290450D02*
D03*
X486250Y1449750D02*
D03*
X813000Y1352750D02*
D03*
X786500Y1373000D02*
D03*
X931500Y591750D02*
D03*
X945000Y305000D02*
D03*
X909750Y317250D02*
D03*
X1055750Y483250D02*
D03*
X1027500Y606750D02*
D03*
X941750Y621000D02*
D03*
X952500Y621250D02*
D03*
X1025750Y478500D02*
D03*
X1006000Y477500D02*
D03*
X1005250Y436500D02*
D03*
X1046500Y451750D02*
D03*
X1087250Y491500D02*
D03*
X1067250D02*
D03*
X1087000Y451250D02*
D03*
X1064000Y451750D02*
D03*
X942250Y601250D02*
D03*
X1025750Y130250D02*
D03*
X1046250D02*
D03*
X1060500Y122250D02*
D03*
X1085250D02*
D03*
X1104250Y82000D02*
D03*
X1087250D02*
D03*
X1068250Y71750D02*
D03*
X1044250D02*
D03*
X1032500Y98250D02*
D03*
X1013750Y94250D02*
D03*
X1004000Y109000D02*
D03*
X1026000Y113250D02*
D03*
X953000Y581000D02*
D03*
X981250Y168000D02*
D03*
X932250Y581000D02*
D03*
X930500Y168000D02*
D03*
X942324Y581000D02*
D03*
X957000Y168000D02*
D03*
X912250Y591074D02*
D03*
X912750Y581250D02*
D03*
X922250Y571074D02*
D03*
X993250Y194000D02*
D03*
X852500Y211000D02*
D03*
X819750Y85750D02*
D03*
X834250Y191250D02*
D03*
X850500Y157750D02*
D03*
X1002750Y601250D02*
D03*
X962574Y590750D02*
D03*
X992324Y601000D02*
D03*
X982500Y611000D02*
D03*
X972250D02*
D03*
X922500Y650825D02*
D03*
X931000Y503500D02*
D03*
X952000Y503250D02*
D03*
X933000Y508750D02*
D03*
X950250Y509500D02*
D03*
X970500Y511000D02*
D03*
X950000Y495000D02*
D03*
X969500Y484500D02*
D03*
X969000Y490750D02*
D03*
X668250Y223250D02*
D03*
X672500Y163250D02*
D03*
X667500Y104500D02*
D03*
X640500Y122500D02*
D03*
X669500D02*
D03*
X700000Y130000D02*
D03*
X942500Y541250D02*
D03*
X707750Y287750D02*
D03*
X720000Y348250D02*
D03*
X826500Y372500D02*
D03*
X815000Y376000D02*
D03*
X240250Y427000D02*
D03*
X300500Y617500D02*
D03*
X259750Y673000D02*
D03*
X276500Y663250D02*
D03*
X317700Y413950D02*
D03*
X304700Y349450D02*
D03*
X282750Y378500D02*
D03*
X848750Y1208250D02*
D03*
X839500Y1208000D02*
D03*
X932250Y693500D02*
D03*
X864750Y1189240D02*
D03*
X961750Y692250D02*
D03*
X848750Y1197250D02*
D03*
X942500Y680825D02*
D03*
X856750Y1189000D02*
D03*
X962500Y680825D02*
D03*
X864750Y1197250D02*
D03*
X952250Y681500D02*
D03*
X857000Y1208000D02*
D03*
X865000Y1207500D02*
D03*
X972250Y681075D02*
D03*
X982250Y680750D02*
D03*
X992250Y681250D02*
D03*
X981750Y693000D02*
D03*
X913000Y1165250D02*
D03*
X896250Y989750D02*
D03*
X991500Y631250D02*
D03*
X890750Y990250D02*
D03*
X982500Y621000D02*
D03*
X932250Y1173250D02*
D03*
X918000Y988750D02*
D03*
X896750Y1165370D02*
D03*
X885000Y990500D02*
D03*
X992500Y611000D02*
D03*
X993000Y661500D02*
D03*
X982325Y651000D02*
D03*
X918000Y718750D02*
D03*
X914750Y723750D02*
D03*
X955500Y719000D02*
D03*
X953500Y723750D02*
D03*
X952074Y571250D02*
D03*
X852075Y671250D02*
D03*
X862325Y681000D02*
D03*
X872075Y671250D02*
D03*
X912325Y671000D02*
D03*
X872575Y680750D02*
D03*
X873250Y692250D02*
D03*
X911825Y651500D02*
D03*
X912075Y661250D02*
D03*
X882500Y692000D02*
D03*
X902075Y671250D02*
D03*
X892325Y631000D02*
D03*
X864000Y692500D02*
D03*
X893000Y681000D02*
D03*
X899250Y693500D02*
D03*
X882325Y651000D02*
D03*
X862500Y610750D02*
D03*
X852250Y541000D02*
D03*
X882325Y551000D02*
D03*
X992750Y590574D02*
D03*
X1002500Y590825D02*
D03*
X972574Y580750D02*
D03*
X942750Y570574D02*
D03*
X962250Y610750D02*
D03*
X992750Y620575D02*
D03*
X1002250Y692750D02*
D03*
X902250Y591250D02*
D03*
X873000Y581000D02*
D03*
X892000Y611750D02*
D03*
X882250D02*
D03*
X851750Y631750D02*
D03*
X863000Y631500D02*
D03*
X862500Y621750D02*
D03*
X882750Y631250D02*
D03*
X882500Y621250D02*
D03*
X953000Y671500D02*
D03*
X952789Y710273D02*
D03*
X937039Y724274D02*
D03*
X962500Y631000D02*
D03*
X962750Y621250D02*
D03*
X972500Y621500D02*
D03*
X1002250Y621750D02*
D03*
X1002500Y631250D02*
D03*
X982250Y631000D02*
D03*
X992500Y641250D02*
D03*
X982500Y641000D02*
D03*
X972500Y641500D02*
D03*
X952250Y651000D02*
D03*
X962750D02*
D03*
X972000Y651325D02*
D03*
X992250Y651075D02*
D03*
X1003000Y651000D02*
D03*
X972000Y671325D02*
D03*
X982500Y671250D02*
D03*
X1002750Y661500D02*
D03*
X982500Y661250D02*
D03*
X972250D02*
D03*
X852050Y787950D02*
D03*
X789000Y755250D02*
D03*
X770750D02*
D03*
X833000Y717000D02*
D03*
X882250Y661500D02*
D03*
X807000Y690500D02*
D03*
X791000Y698250D02*
D03*
X773500Y690500D02*
D03*
X809000Y648000D02*
D03*
X952500Y640750D02*
D03*
X942250Y650750D02*
D03*
X759250Y542000D02*
D03*
Y504000D02*
D03*
X800000Y524500D02*
D03*
X789250Y541250D02*
D03*
X790250Y504500D02*
D03*
X1045500Y572000D02*
D03*
X1032000Y557500D02*
D03*
X1046000Y556000D02*
D03*
X1050500Y522250D02*
D03*
X1053750Y539750D02*
D03*
X1046000Y541500D02*
D03*
X1026750D02*
D03*
X1036000Y539750D02*
D03*
X1033750Y519750D02*
D03*
X828500Y609500D02*
D03*
X824750Y590750D02*
D03*
X805750Y592750D02*
D03*
X830750Y569500D02*
D03*
X832250Y586250D02*
D03*
X825500Y542750D02*
D03*
X835000Y552250D02*
D03*
X825500Y562250D02*
D03*
X807500Y542250D02*
D03*
Y562250D02*
D03*
X1058000Y658250D02*
D03*
X1038250Y651500D02*
D03*
X1039750Y634500D02*
D03*
X1033000Y615000D02*
D03*
X1034250Y631250D02*
D03*
X1054500Y615500D02*
D03*
X1055250Y630500D02*
D03*
X1050000Y634500D02*
D03*
Y650250D02*
D03*
X1066500Y666500D02*
D03*
X1054250Y675000D02*
D03*
X1029750Y657750D02*
D03*
X1027250Y666500D02*
D03*
X1029750Y676500D02*
D03*
X918000Y464000D02*
D03*
X948000Y427500D02*
D03*
Y464000D02*
D03*
X959750Y445500D02*
D03*
X916000Y703750D02*
D03*
X815500Y698500D02*
D03*
Y665750D02*
D03*
X820000Y682750D02*
D03*
X812250Y681250D02*
D03*
X972750Y631750D02*
D03*
X829500Y665500D02*
D03*
X837500Y673750D02*
D03*
X829500Y683500D02*
D03*
Y698000D02*
D03*
X1063500Y713750D02*
D03*
X1055000Y704000D02*
D03*
Y724000D02*
D03*
X1027750Y713750D02*
D03*
X1037000Y704500D02*
D03*
X1037500Y723500D02*
D03*
X875750Y709250D02*
D03*
X974500Y726750D02*
D03*
X987500Y487500D02*
D03*
X979250Y479000D02*
D03*
X987500Y505500D02*
D03*
X979250Y512750D02*
D03*
X969500Y503250D02*
D03*
X952500Y488750D02*
D03*
X933500Y494750D02*
D03*
X914250Y503500D02*
D03*
X896000Y509250D02*
D03*
Y495500D02*
D03*
X884000Y479500D02*
D03*
X892250Y490750D02*
D03*
X875250Y491500D02*
D03*
X874750Y503500D02*
D03*
X892750Y502250D02*
D03*
X745750Y595000D02*
D03*
X727500Y586000D02*
D03*
X763500D02*
D03*
X763250Y556000D02*
D03*
X727500D02*
D03*
X952500Y591000D02*
D03*
X952325Y601000D02*
D03*
X942325Y611000D02*
D03*
X931825Y631500D02*
D03*
X942250Y631075D02*
D03*
X922500Y630750D02*
D03*
X922250Y641750D02*
D03*
X851824Y591500D02*
D03*
X1002575Y540750D02*
D03*
X992500Y570824D02*
D03*
X962250Y561500D02*
D03*
X931500Y611250D02*
D03*
X922750Y601250D02*
D03*
X912250Y601000D02*
D03*
X903000Y620325D02*
D03*
X912500Y611250D02*
D03*
X852750Y691000D02*
D03*
X862325Y661000D02*
D03*
X872750Y631250D02*
D03*
X882000Y601500D02*
D03*
X932500Y551250D02*
D03*
X902500Y541250D02*
D03*
X862250Y561074D02*
D03*
X922500Y580824D02*
D03*
X892000Y571324D02*
D03*
X902000Y601324D02*
D03*
X982000Y601324D02*
D03*
X952500Y611750D02*
D03*
X942000Y641325D02*
D03*
X992500Y671500D02*
D03*
X952000Y692250D02*
D03*
X922500Y680750D02*
D03*
X892750Y671250D02*
D03*
X903500Y641000D02*
D03*
X912250Y620750D02*
D03*
X922500Y621000D02*
D03*
Y611250D02*
D03*
X922750Y590750D02*
D03*
X932250Y601750D02*
D03*
X902250Y611075D02*
D03*
X932500Y620825D02*
D03*
X825000Y616500D02*
D03*
X787000Y615250D02*
D03*
X769000Y614250D02*
D03*
X744250Y613250D02*
D03*
X982324Y541000D02*
D03*
X849000Y1188989D02*
D03*
X848750Y1181239D02*
D03*
X856750Y1181239D02*
D03*
X838750Y1185250D02*
D03*
X857078Y1172564D02*
D03*
X856750Y1165250D02*
D03*
X789250Y991500D02*
D03*
X794500D02*
D03*
X877000Y1101500D02*
D03*
X877250Y1075500D02*
D03*
X743000Y991250D02*
D03*
X829500Y996750D02*
D03*
X720250Y991750D02*
D03*
X727750Y991437D02*
D03*
X736250Y991750D02*
D03*
X749250Y991250D02*
D03*
X769250Y991500D02*
D03*
X777750D02*
D03*
X801500Y991000D02*
D03*
X856750Y1149250D02*
D03*
X857250Y1157250D02*
D03*
X872750Y1133500D02*
D03*
X905000Y1141500D02*
D03*
X896750Y1133239D02*
D03*
X889000Y1140989D02*
D03*
X876749Y1114001D02*
D03*
X921250Y1141250D02*
D03*
X912750Y1141239D02*
D03*
X924000Y988250D02*
D03*
X960250Y986250D02*
D03*
X902500Y989250D02*
D03*
X910500Y989000D02*
D03*
X974500Y986000D02*
D03*
X988250D02*
D03*
X996750Y986000D02*
D03*
X1002250Y986750D02*
D03*
X1008750D02*
D03*
X913000Y1197500D02*
D03*
X920879Y1197629D02*
D03*
X905000Y1189250D02*
D03*
X931750Y1191750D02*
D03*
X913000Y1189500D02*
D03*
X888619Y1189631D02*
D03*
X889379Y1197129D02*
D03*
X912739Y1181250D02*
D03*
X873250Y1180740D02*
D03*
X896750Y1173239D02*
D03*
X897000Y1156990D02*
D03*
X880879Y1149371D02*
D03*
X873000Y1149250D02*
D03*
X849000Y1148990D02*
D03*
X848989Y1141000D02*
D03*
X837508Y1153242D02*
D03*
X848748Y1157053D02*
D03*
X873000Y1189250D02*
D03*
X896500Y1181500D02*
D03*
X904750Y1157250D02*
D03*
X872500Y1141489D02*
D03*
X881000Y1141250D02*
D03*
X849000Y1133250D02*
D03*
X865000D02*
D03*
X896750Y1197370D02*
D03*
X865000Y1164989D02*
D03*
Y1156990D02*
D03*
X864989Y1173000D02*
D03*
X865000Y1141500D02*
D03*
X912750Y1133239D02*
D03*
Y1149500D02*
D03*
X904879Y1197629D02*
D03*
X924748Y1208248D02*
D03*
X916748Y1207748D02*
D03*
X908748Y1207498D02*
D03*
X900748Y1207248D02*
D03*
X829250Y1075500D02*
D03*
X907250Y1074750D02*
D03*
X916750Y1064750D02*
D03*
X983000Y1119750D02*
D03*
X983500Y1172750D02*
D03*
X984500Y1200500D02*
D03*
X810250Y1200500D02*
D03*
Y1221750D02*
D03*
X792000Y1186000D02*
D03*
X792250Y1220250D02*
D03*
X792000Y1167250D02*
D03*
X810000Y1186750D02*
D03*
X753250Y1066000D02*
D03*
X767250Y1066750D02*
D03*
X913250Y1228500D02*
D03*
X893750D02*
D03*
X913250Y1246500D02*
D03*
X892250D02*
D03*
X882000Y1247250D02*
D03*
X860000D02*
D03*
X861500Y1228750D02*
D03*
X825500Y1229500D02*
D03*
X826500Y1247500D02*
D03*
X847000D02*
D03*
X847000Y1229500D02*
D03*
X896750Y1149750D02*
D03*
X889000Y1149250D02*
D03*
X848750Y1165240D02*
D03*
X782000Y1213750D02*
D03*
X946750Y1246750D02*
D03*
X925250D02*
D03*
X925750Y1228750D02*
D03*
X946750D02*
D03*
X952750Y1129000D02*
D03*
X952250Y1110250D02*
D03*
X920250Y778000D02*
D03*
X959000Y761500D02*
D03*
X950250Y777750D02*
D03*
X993750Y708750D02*
D03*
X993750Y726750D02*
D03*
X970000Y720000D02*
D03*
X898750Y719000D02*
D03*
X983750Y735000D02*
D03*
X952250Y744750D02*
D03*
X319500Y836750D02*
D03*
X195750Y757500D02*
D03*
X133250Y732750D02*
D03*
X215000Y767500D02*
D03*
X328500Y776500D02*
D03*
X214500Y780000D02*
D03*
X214750Y748000D02*
D03*
X180750Y723250D02*
D03*
X360000Y704750D02*
D03*
X333000Y558500D02*
D03*
X321250Y584500D02*
D03*
X362250Y558750D02*
D03*
X584500Y665450D02*
D03*
Y646700D02*
D03*
X580250Y671700D02*
D03*
X584250Y690450D02*
D03*
X465250Y801451D02*
D03*
X440750Y801700D02*
D03*
X494500Y811450D02*
D03*
X427999Y746700D02*
D03*
X451500Y731700D02*
D03*
X902000Y661750D02*
D03*
X941000Y986250D02*
D03*
X950000Y988250D02*
D03*
X564700Y841200D02*
D03*
X553750Y818250D02*
D03*
X765500Y471000D02*
D03*
X789750Y471250D02*
D03*
X824000Y487000D02*
D03*
X856000Y488750D02*
D03*
X800750Y462250D02*
D03*
X811750Y471250D02*
D03*
X775500Y461250D02*
D03*
X744750Y450500D02*
D03*
X727250Y459750D02*
D03*
X762000D02*
D03*
X714750Y457500D02*
D03*
X506750Y381250D02*
D03*
X578250Y349500D02*
D03*
X891750Y621000D02*
D03*
X743750Y546000D02*
D03*
X551000Y576750D02*
D03*
X543250Y568500D02*
D03*
X246250Y336000D02*
D03*
X852000Y581000D02*
D03*
X851250Y571250D02*
D03*
X862250D02*
D03*
X892574Y580750D02*
D03*
X852574Y560750D02*
D03*
X872500Y560825D02*
D03*
X882325Y561000D02*
D03*
X389250Y260250D02*
D03*
X362500Y209750D02*
D03*
X389500Y86750D02*
D03*
X331750Y206000D02*
D03*
X1103900Y1220252D02*
D03*
X1084900Y1324652D02*
D03*
X1130400Y1325201D02*
D03*
X1126750Y1389750D02*
D03*
X1138000Y1387500D02*
D03*
X1150250Y1388250D02*
D03*
X1138500Y1372000D02*
D03*
X1105250Y1390250D02*
D03*
X1033750Y1378000D02*
D03*
X1020500Y1146250D02*
D03*
X1176749Y1210001D02*
D03*
X1117750Y1370250D02*
D03*
X1009000Y1336250D02*
D03*
X1025250Y1077750D02*
D03*
X1045750Y1078000D02*
D03*
X1048750Y1001750D02*
D03*
X1081000Y1008250D02*
D03*
X1042250Y1039500D02*
D03*
X1055500Y1023000D02*
D03*
X1026500Y1035750D02*
D03*
X996750Y1083250D02*
D03*
X656500Y555500D02*
D03*
X656000Y561750D02*
D03*
X655750Y571250D02*
D03*
X961750D02*
D03*
X972500Y570824D02*
D03*
X982250Y571074D02*
D03*
X942074Y561250D02*
D03*
X952500Y560824D02*
D03*
X972000Y561500D02*
D03*
X982000Y561250D02*
D03*
X962250Y550500D02*
D03*
X972250Y551250D02*
D03*
X982574Y550750D02*
D03*
X962324Y541000D02*
D03*
X972074Y541250D02*
D03*
X992074D02*
D03*
X1002250Y551075D02*
D03*
X952074Y541250D02*
D03*
X942000Y551324D02*
D03*
X865000Y1116000D02*
D03*
X856250Y1115500D02*
D03*
X857500Y1197000D02*
D03*
X885000Y1326250D02*
D03*
X892748Y1206998D02*
D03*
X503500Y409250D02*
D03*
X514500Y418000D02*
D03*
X484750Y723000D02*
D03*
X484250Y735000D02*
D03*
X541000Y668000D02*
D03*
X535750Y750000D02*
D03*
X675750Y550750D02*
D03*
X718750Y550000D02*
D03*
X698500Y540750D02*
D03*
X963250Y1215750D02*
D03*
X971250Y1209750D02*
D03*
X792250Y1201250D02*
D03*
X827000Y1093500D02*
D03*
X850250Y1094000D02*
D03*
X985500Y1145250D02*
D03*
X770000Y745750D02*
D03*
X729000Y358500D02*
D03*
X286500Y627000D02*
D03*
X508750Y779750D02*
D03*
Y760250D02*
D03*
X442000Y713000D02*
D03*
X893500Y1325750D02*
D03*
X919000Y1332250D02*
D03*
X975500Y1327250D02*
D03*
X1024500Y556000D02*
D03*
X387250Y37750D02*
D03*
X385250Y170000D02*
D03*
X386000Y233500D02*
D03*
X198500Y568750D02*
D03*
X196500Y439000D02*
D03*
X191500Y334250D02*
D03*
X158500Y167750D02*
D03*
X133500Y155750D02*
D03*
X305050Y245550D02*
D03*
X304800Y220550D02*
D03*
X305250Y195550D02*
D03*
X168500Y214000D02*
D03*
D67*
X246250Y584250D02*
D03*
X279000Y534750D02*
D03*
X246500D02*
D03*
X288000Y388750D02*
D03*
X324500Y488750D02*
D03*
X325000Y460250D02*
D03*
X315250Y322250D02*
D03*
X320000Y601500D02*
D03*
X276250Y411500D02*
D03*
X244000Y411250D02*
D03*
X298750Y369500D02*
D03*
D78*
X791000Y690500D02*
D03*
Y660500D02*
D03*
X1099500Y636750D02*
D03*
Y666750D02*
D03*
X745750Y586000D02*
D03*
Y556000D02*
D03*
X698500Y552000D02*
D03*
Y582000D02*
D03*
X744750Y459750D02*
D03*
Y489750D02*
D03*
D79*
X948000Y445500D02*
D03*
X918000D02*
D03*
X950250Y761500D02*
D03*
X920250D02*
D03*
X789250Y523000D02*
D03*
X759250D02*
D03*
D80*
X176500Y767000D02*
D03*
Y757500D02*
D03*
Y748001D02*
D03*
X151500D02*
D03*
Y757500D02*
D03*
Y767000D02*
D03*
D81*
X1119000Y1356250D02*
D03*
X1128500D02*
D03*
X1138000D02*
D03*
Y1380250D02*
D03*
X1128500D02*
D03*
X1119000D02*
D03*
D82*
X1007500Y1083250D02*
D03*
Y1078000D02*
D03*
D83*
X212450Y13800D02*
D03*
D84*
X98750Y20300D02*
D03*
Y32300D02*
D03*
D85*
X104150Y291550D02*
D03*
D86*
X57350Y267500D02*
D03*
Y29500D02*
D03*
D87*
X140400Y192250D02*
D03*
Y167250D02*
D03*
Y142250D02*
D03*
Y117250D02*
D03*
Y92250D02*
D03*
Y217250D02*
D03*
Y77250D02*
D03*
Y62250D02*
D03*
Y242250D02*
D03*
D88*
X294100Y13800D02*
D03*
D89*
X293000Y72500D02*
D03*
D90*
X281500Y291550D02*
D03*
D91*
X457000Y506100D02*
X693900D01*
X714750Y485250D01*
M02*
