G04 Layer_Physical_Order=3*
G04 Layer_Color=16440176*
%FSLAX44Y44*%
%MOMM*%
G71*
G01*
G75*
%ADD42C,0.2000*%
%ADD43C,0.1000*%
%ADD49C,1.0000*%
%ADD51R,1.5500X1.5500*%
%ADD52C,1.5500*%
%ADD54C,1.5200*%
%ADD55R,1.5200X1.5200*%
%ADD56R,1.5500X1.5500*%
%ADD58C,2.0500*%
%ADD60R,1.5000X1.5000*%
%ADD61C,1.5000*%
%ADD65C,0.4000*%
%ADD66C,0.5000*%
%ADD67C,1.0000*%
%ADD77C,1.5000*%
D42*
X1066600Y1186701D02*
X1095400Y1215500D01*
X1093950Y1231301D02*
Y1333252D01*
X1085649Y1223000D02*
X1093950Y1231301D01*
X1066600Y1143752D02*
Y1186701D01*
D43*
X945500Y688500D02*
Y691788D01*
Y688500D02*
X948750Y685250D01*
X946750Y676328D02*
Y681750D01*
X941250Y687250D02*
X946750Y681750D01*
X933550Y687250D02*
X941250D01*
X869078Y765750D02*
X890043Y744785D01*
Y734086D02*
Y744785D01*
X892043Y727207D02*
Y745614D01*
X869657Y768000D02*
X892043Y745614D01*
X897778Y737500D02*
Y742722D01*
X900428Y737678D02*
X902250Y735857D01*
X900428Y737678D02*
Y742900D01*
X902685Y738250D02*
X904250Y736685D01*
X902685Y738250D02*
Y743472D01*
X905007Y738757D02*
X906250Y737513D01*
X872735Y776250D02*
X905007Y743979D01*
Y738757D02*
Y743979D01*
X973250Y708250D02*
X975250Y706250D01*
Y695250D02*
Y706250D01*
X972250Y692250D02*
X975250Y695250D01*
X971096Y708250D02*
X973250D01*
X900250Y731593D02*
X905750Y726093D01*
X902250Y732422D02*
X908250Y726422D01*
X904250Y733250D02*
X910500Y727000D01*
X906250Y734593D02*
X913593Y727250D01*
X908250Y735422D02*
X914422Y729250D01*
X910250Y736250D02*
X915250Y731250D01*
X912250Y737672D02*
X916422Y733500D01*
X914250Y738500D02*
X917250Y735500D01*
X918550Y737500D02*
X925500D01*
X916250Y739800D02*
X918550Y737500D01*
X914250Y738500D02*
Y740827D01*
X912250Y737672D02*
Y739999D01*
X910250Y736250D02*
Y739170D01*
X908250Y735422D02*
Y738342D01*
X906250Y734593D02*
Y737513D01*
X904250Y733250D02*
Y736685D01*
X902250Y732422D02*
Y735857D01*
X900250Y731593D02*
Y735028D01*
X909750Y739670D02*
X910250Y739170D01*
X897778Y737500D02*
X900250Y735028D01*
X907750Y738842D02*
X908250Y738342D01*
X912000Y740249D02*
X912250Y739999D01*
X914000Y741077D02*
X914250Y740827D01*
X916250Y739800D02*
Y741656D01*
X916000Y741906D02*
X916250Y741656D01*
X899000Y724500D02*
X903750Y719750D01*
X892043Y727207D02*
X894750Y724500D01*
X899000D01*
X851500Y198578D02*
X929250Y276328D01*
X895500Y1083175D02*
Y1129828D01*
X890250Y1077925D02*
X895500Y1083175D01*
X896750Y1131078D02*
Y1133239D01*
X895500Y1129828D02*
X896750Y1131078D01*
X897500Y1129000D02*
X900290Y1131790D01*
X897500Y1082346D02*
Y1129000D01*
X892250Y1077096D02*
X897500Y1082346D01*
X836450Y994200D02*
X913750Y1071500D01*
X836450Y931750D02*
Y994200D01*
X913750Y1071500D02*
Y1125750D01*
X924750Y1136750D01*
Y1143750D01*
X896750Y1165370D02*
X906880D01*
X923261Y1145239D02*
X924750Y1143750D01*
X906880Y1165370D02*
X927250Y1145000D01*
X900250Y1145239D02*
X923261D01*
X896500Y1141489D02*
X900250Y1145239D01*
X883500Y1134863D02*
X883672Y1134691D01*
Y1131791D02*
Y1134691D01*
X883500Y1131619D02*
X883672Y1131791D01*
X883500Y1134863D02*
Y1137750D01*
Y1090186D02*
Y1131619D01*
X880173Y1133241D02*
X880197D01*
X880268Y1133312D01*
X880173Y1129593D02*
Y1133241D01*
X880079Y1129500D02*
X880173Y1129593D01*
X880268Y1133312D02*
X880540Y1133040D01*
X883500Y1137750D02*
X886739Y1140989D01*
X888945Y1133305D02*
X889195D01*
X889000Y1082331D02*
Y1125250D01*
X892500Y1083003D02*
Y1126700D01*
X892250Y1126950D02*
Y1130000D01*
Y1126950D02*
X892500Y1126700D01*
X888945Y1133305D02*
X892250Y1130000D01*
X863041Y1069728D02*
X883500Y1090186D01*
X886250Y1079582D02*
X889000Y1082331D01*
X888250Y1078753D02*
X892500Y1083003D01*
X872750Y1109000D02*
Y1133500D01*
X868500Y1114550D02*
Y1147000D01*
X899789Y1128461D02*
X902290Y1130962D01*
X899789Y1072789D02*
Y1128461D01*
X902657Y1128500D02*
X904290Y1130133D01*
X902657Y1070157D02*
Y1128500D01*
X861500Y1082328D02*
Y1150250D01*
X853041Y1073870D02*
X861500Y1082328D01*
X853041Y1073853D02*
Y1073870D01*
X816267Y1034250D02*
X855041Y1073024D01*
X817096Y1032250D02*
X857041Y1072196D01*
X817924Y1030250D02*
X859041Y1071367D01*
X818752Y1028250D02*
X861041Y1070539D01*
X819581Y1026250D02*
X863041Y1069711D01*
X786119Y1034250D02*
X816267D01*
X855041Y1073024D02*
Y1073042D01*
X786948Y1032250D02*
X817096D01*
X857041Y1072196D02*
Y1072213D01*
X787776Y1030250D02*
X817924D01*
X859041Y1071367D02*
Y1071385D01*
X818735Y1028250D02*
X818752D01*
X861041Y1070539D02*
Y1070556D01*
X819564Y1026250D02*
X819581D01*
X863041Y1069711D02*
Y1069728D01*
X819064Y1025750D02*
X819564Y1026250D01*
X818485Y1028000D02*
X818735Y1028250D01*
X761500Y1003974D02*
X787776Y1030250D01*
X757000Y1002302D02*
X786948Y1032250D01*
X749250Y997381D02*
X786119Y1034250D01*
X778573Y1036250D02*
X815439D01*
X861041Y1070556D02*
X880750Y1090265D01*
X859041Y1071385D02*
X872250Y1084593D01*
X857041Y1072213D02*
X870250Y1085422D01*
X855041Y1073042D02*
X868250Y1086250D01*
X815439Y1036250D02*
X853041Y1073853D01*
X777391Y1038250D02*
X807404D01*
X868250Y1086250D02*
Y1114300D01*
X870250Y1085422D02*
Y1106500D01*
X872250Y1084593D02*
Y1104001D01*
X798608Y1028000D02*
X818485D01*
X880750Y1090265D02*
Y1128829D01*
X799186Y1025750D02*
X819064D01*
X776563Y1040250D02*
X806575D01*
X958500Y678250D02*
X960500Y676250D01*
X967075D02*
X972000Y671325D01*
X960500Y676250D02*
X967075D01*
X996500Y677000D02*
X1002500Y671000D01*
X956500Y677000D02*
X962500Y671000D01*
X890250Y646750D02*
X893000Y649500D01*
X849750Y646750D02*
X890250D01*
X844750Y641750D02*
X849750Y646750D01*
X859250Y639250D02*
X893750D01*
X856250Y636250D02*
X859250Y639250D01*
X848000Y636250D02*
X856250D01*
X845000Y639250D02*
X848000Y636250D01*
X649500Y639250D02*
X845000D01*
X916000Y741906D02*
Y747127D01*
X914000Y741077D02*
Y746299D01*
X912000Y740249D02*
Y745471D01*
X909750Y739670D02*
Y744892D01*
X907750Y738842D02*
Y744064D01*
X888250Y732293D02*
X890043Y734086D01*
X888250Y722750D02*
Y732293D01*
X932718Y661032D02*
X933046D01*
X926500Y667250D02*
X932718Y661032D01*
X886739Y1140989D02*
X889000D01*
X880079Y1129500D02*
X880750Y1128829D01*
X999750Y601250D02*
X1002750D01*
X993500Y595000D02*
X999750Y601250D01*
X972750Y595000D02*
X993500D01*
X1001799Y680783D02*
Y681451D01*
X997750Y685500D02*
X1001799Y681451D01*
X878250Y675500D02*
X883000Y680250D01*
X971750Y692250D02*
X972250D01*
X992000Y692750D02*
Y705000D01*
X992000Y705000D01*
X963250Y585500D02*
X972750Y595000D01*
X959324Y587500D02*
X962574Y590750D01*
X951050Y587500D02*
X959324D01*
X950222Y585500D02*
X963250D01*
X949972Y585750D02*
X950222Y585500D01*
X940000Y585750D02*
X949972D01*
X950800Y587750D02*
X951050Y587500D01*
X938750Y587750D02*
X950800D01*
X985250Y557000D02*
X997000Y545250D01*
X969250Y557000D02*
X985250D01*
X966750Y559500D02*
X969250Y557000D01*
X974750Y555000D02*
X979000Y550750D01*
X948324Y555000D02*
X974750D01*
X942074Y561250D02*
X948324Y555000D01*
X987250Y534250D02*
X994224Y527276D01*
X1137676D02*
X1146250Y535850D01*
X994224Y527276D02*
X1137676D01*
X1125750Y534500D02*
X1138250Y547000D01*
X996250Y534500D02*
X1125750D01*
X992074Y538676D02*
X996250Y534500D01*
X914500Y452910D02*
Y467000D01*
Y452910D02*
X931250Y436160D01*
X910500Y465828D02*
X921750Y477078D01*
X910500Y454081D02*
Y465828D01*
Y454081D02*
X929250Y435332D01*
X907544Y454209D02*
Y466000D01*
X923250Y278813D02*
Y432846D01*
X903544Y452552D02*
X923250Y432846D01*
X925250Y277985D02*
Y433675D01*
X905544Y453380D02*
X925250Y433675D01*
X927250Y277157D02*
Y434503D01*
X907544Y454209D02*
X927250Y434503D01*
X929250Y276328D02*
Y435332D01*
X931250Y275500D02*
Y436160D01*
X912250Y433750D02*
X917096D01*
X901544Y444455D02*
X912250Y433750D01*
X901544Y444455D02*
Y513356D01*
X917096Y433750D02*
X921250Y429596D01*
X907544Y466000D02*
X919750Y478206D01*
Y506422D01*
X911500Y514672D02*
X919750Y506422D01*
X911500Y514672D02*
Y538172D01*
X921750Y477078D02*
Y507250D01*
X913500Y515500D02*
X921750Y507250D01*
X913500Y515500D02*
Y537343D01*
X914500Y467000D02*
X923750Y476250D01*
X915500Y524500D02*
X923750Y516250D01*
Y476250D02*
Y516250D01*
X839500Y496500D02*
Y568500D01*
X828000Y485000D02*
X839500Y496500D01*
X828000Y477500D02*
Y485000D01*
X788367Y419500D02*
X851500Y482633D01*
X787539Y421500D02*
X849500Y483461D01*
X786710Y423500D02*
X847500Y484290D01*
X845500Y485118D02*
Y562250D01*
X785882Y425500D02*
X845500Y485118D01*
X785053Y427500D02*
X843500Y485947D01*
X841500Y494950D02*
Y567672D01*
X830664Y484114D02*
X841500Y494950D01*
X830664Y477336D02*
Y484114D01*
X782829Y429500D02*
X830664Y477336D01*
X717000Y419500D02*
X788367D01*
X716172Y421500D02*
X787539D01*
X715343Y423500D02*
X786710D01*
X714515Y425500D02*
X785882D01*
X713686Y427500D02*
X785053D01*
X851500Y482633D02*
Y531422D01*
X849500Y483461D02*
Y532250D01*
X847500Y484290D02*
Y555675D01*
X843500Y485947D02*
Y566000D01*
X782000Y431500D02*
X828000Y477500D01*
X816540Y615807D02*
X826732Y626000D01*
X816540Y597290D02*
Y615807D01*
X757250Y546000D02*
X765154D01*
X801250Y586172D02*
Y603346D01*
X763078Y548000D02*
X801250Y586172D01*
X755422Y548000D02*
X763078D01*
X799250Y587000D02*
Y604175D01*
X762250Y550000D02*
X799250Y587000D01*
X754593Y550000D02*
X762250D01*
X809500Y590250D02*
X816540Y597290D01*
X820000Y606500D02*
X830750Y617250D01*
X820000Y590000D02*
Y606500D01*
X671750Y441750D02*
X820000Y590000D01*
X878500Y617250D02*
X882500Y621250D01*
X830750Y617250D02*
X878500D01*
X879000Y615000D02*
X882250Y611750D01*
X838250Y615000D02*
X879000D01*
X832500Y609250D02*
X838250Y615000D01*
X685250Y643750D02*
X830250D01*
X885172Y654500D02*
X901922Y671250D01*
X830250Y643750D02*
X841000Y654500D01*
X885172D01*
X893750Y639250D02*
X902000Y647500D01*
X871000Y657000D02*
X893000Y679000D01*
X684750Y657000D02*
X871000D01*
X676000Y665750D02*
X684750Y657000D01*
X862542Y670867D02*
Y671033D01*
X853675Y662000D02*
X862542Y670867D01*
X855750Y659500D02*
X863750Y667500D01*
X733750Y659500D02*
X855750D01*
X715700Y677550D02*
X733750Y659500D01*
X748500Y662000D02*
X853675D01*
X971750Y740750D02*
X997750Y714750D01*
Y685500D02*
Y714750D01*
X978250Y695750D02*
X982750Y700250D01*
X978250Y690000D02*
Y695750D01*
Y690000D02*
X982250Y686000D01*
Y680750D02*
Y686000D01*
X962750Y716596D02*
X971096Y708250D01*
X977965Y715785D02*
X982750Y711000D01*
X973298Y715785D02*
X977965D01*
X972513Y715000D02*
X973298Y715785D01*
X968500Y715000D02*
X972513D01*
X966250Y717250D02*
X968500Y715000D01*
X989750Y707250D02*
X992000Y705000D01*
X982750Y700250D02*
Y711000D01*
X946131Y707750D02*
X953347Y700534D01*
X922500Y706204D02*
Y708750D01*
Y706204D02*
X928669Y700034D01*
X945716D02*
X947546Y698204D01*
X945546Y691834D02*
Y695000D01*
X942512Y698034D02*
X945546Y695000D01*
X927841Y698034D02*
X942512D01*
X928669Y700034D02*
X945716D01*
X912750Y707750D02*
X918125D01*
X927841Y698034D01*
X953431Y700534D02*
X956250Y697716D01*
Y687500D02*
Y697716D01*
Y687500D02*
X958500Y685250D01*
Y678250D02*
Y685250D01*
X928750Y692050D02*
X933550Y687250D01*
X934200Y684750D02*
X936250Y682700D01*
X933222Y684750D02*
X934200D01*
X936250Y681500D02*
Y682700D01*
X946750Y676328D02*
X947500Y675578D01*
X948750Y679000D02*
X953000Y674750D01*
X948750Y679000D02*
Y685250D01*
X947546Y691454D02*
Y698204D01*
Y691454D02*
X956500Y682500D01*
X945500Y691788D02*
X945546Y691834D01*
X953000Y671500D02*
Y674750D01*
X947500Y672050D02*
Y675578D01*
X945500Y667328D02*
Y674750D01*
X943750Y676500D02*
X945500Y674750D01*
X947500Y672050D02*
X952550Y667000D01*
X966500D01*
X945500Y667328D02*
X958328Y654500D01*
X941250Y676500D02*
X943750D01*
X929000Y679750D02*
X931500Y677250D01*
X937000Y667000D02*
Y675000D01*
X948250Y661750D02*
X959000Y651000D01*
X931500Y677250D02*
X934750D01*
X937000Y675000D01*
X932500Y667500D02*
X941500Y658500D01*
X930750Y667500D02*
X932500D01*
X928250Y670000D02*
X930750Y667500D01*
X928250Y670000D02*
Y674750D01*
X926250Y676750D02*
X928250Y674750D01*
X920500Y667250D02*
X926500D01*
X936250Y681500D02*
X941250Y676500D01*
X917000Y670750D02*
X920500Y667250D01*
X929000Y679750D02*
Y684329D01*
X937000Y667000D02*
X942250Y661750D01*
X948250D01*
X947000Y658500D02*
X952250Y653250D01*
X941500Y658500D02*
X947000D01*
X926250Y676750D02*
Y684250D01*
X947250Y714939D02*
X958750D01*
X930250Y716000D02*
X946189D01*
X947250Y714939D01*
X927250Y719000D02*
X930250Y716000D01*
X901750Y707301D02*
Y713500D01*
X918722Y687500D02*
X923000D01*
X899750Y706472D02*
Y712672D01*
X903750Y708129D02*
Y719750D01*
X929750Y707750D02*
X946131D01*
X903750Y708129D02*
X920345Y691534D01*
X919551Y689500D02*
X923829D01*
X901750Y707301D02*
X919551Y689500D01*
X928750Y692050D02*
Y693029D01*
X923029Y698750D02*
X928750Y693029D01*
X916000Y698750D02*
X923029D01*
X926438Y691534D02*
X933222Y684750D01*
X920345Y691534D02*
X926438D01*
X899750Y706472D02*
X918722Y687500D01*
X923829Y689500D02*
X929000Y684329D01*
X953347Y700534D02*
X953431D01*
X929828Y751750D02*
X940828Y740750D01*
X919907Y751750D02*
X929828D01*
X876000Y795657D02*
X919907Y751750D01*
X929000Y749750D02*
X940000Y738750D01*
X919079Y749750D02*
X929000D01*
X861450Y807378D02*
X919079Y749750D01*
X939000Y736750D02*
X970093D01*
X851250Y814750D02*
X918250Y747750D01*
X928000D01*
X939000Y736750D01*
X940000Y738750D02*
X970922D01*
X940828Y740750D02*
X971750D01*
X898922Y713500D02*
X899750Y712672D01*
X894000Y713500D02*
X898922D01*
X880750Y716750D02*
Y730500D01*
X900250Y701000D02*
X917000Y684250D01*
X880750Y716750D02*
X896500Y701000D01*
X900250D01*
X883000Y724500D02*
X894000Y713500D01*
X888250Y722750D02*
X895500Y715500D01*
X899750D01*
X901750Y713500D01*
X883000Y724500D02*
Y732000D01*
X868500Y763500D02*
X879000Y753000D01*
Y736000D02*
Y753000D01*
Y736000D02*
X883000Y732000D01*
X868000Y761000D02*
X874500Y754500D01*
Y736750D02*
Y754500D01*
Y736750D02*
X880750Y730500D01*
X922000Y1165000D02*
X934545Y1152455D01*
X896250Y989750D02*
X934545Y1028046D01*
X890750Y990250D02*
X931045Y1030546D01*
X934545Y1028046D02*
Y1152455D01*
X931045Y1030546D02*
Y1148806D01*
X861500Y1174460D02*
Y1176489D01*
X856750Y1181239D02*
X861500Y1176489D01*
X962250Y988250D02*
Y1178554D01*
X943554Y1197250D02*
X962250Y1178554D01*
X921258Y1197250D02*
X943554D01*
X964250Y989500D02*
Y1179382D01*
X942382Y1201250D02*
X964250Y1179382D01*
X916750Y1201250D02*
X942382D01*
X910500Y1203250D02*
X943211D01*
X966250Y994250D02*
Y1180211D01*
X943211Y1203250D02*
X966250Y1180211D01*
X968250Y999000D02*
Y1181039D01*
X941041Y1208248D02*
X968250Y1181039D01*
X924748Y1208248D02*
X941041D01*
X960250Y993000D02*
Y1170404D01*
X935404Y1195250D02*
X960250Y1170404D01*
X928500Y1195250D02*
X935404D01*
X928250Y1176750D02*
X934750D01*
X943000Y1168500D01*
X927250Y1177750D02*
X928250Y1176750D01*
X936295Y1184204D02*
X956250Y1164250D01*
X936295Y1184204D02*
Y1184257D01*
X934245Y1186308D02*
X936295Y1184257D01*
X934192Y1186308D02*
X934245D01*
X933500Y1187000D02*
X934192Y1186308D01*
X932795Y1182808D02*
X934864D01*
X948250Y1169422D01*
X928846Y1181250D02*
X930846Y1179250D01*
X915500Y1187000D02*
X933500D01*
X913000Y1189500D02*
X915500Y1187000D01*
X941000Y1011750D02*
Y1159750D01*
X932250Y1168500D02*
X941000Y1159750D01*
X932250Y1168500D02*
Y1173250D01*
X927250Y1032750D02*
Y1145000D01*
X837000Y1014500D02*
X892250Y1069750D01*
X831750Y1014500D02*
X837000D01*
X811050Y993800D02*
X831750Y1014500D01*
X811050Y931750D02*
Y993800D01*
X819798Y992798D02*
X899789Y1072789D01*
X817790Y991790D02*
Y992798D01*
X817750Y991750D02*
X817790Y991790D01*
Y992798D02*
X819798D01*
X892250Y1069750D02*
Y1077096D01*
X890250Y1072078D02*
Y1077925D01*
X888250Y1072907D02*
Y1078753D01*
X834593Y1019250D02*
X888250Y1072907D01*
X829500Y997000D02*
X902657Y1070157D01*
X861489Y1154010D02*
X868500Y1147000D01*
X868250Y1114300D02*
X868500Y1114550D01*
X861489Y1154010D02*
Y1174450D01*
X861500Y1174460D01*
X857250Y1154500D02*
X861500Y1150250D01*
X857250Y1154500D02*
Y1157250D01*
X891794Y692044D02*
Y692784D01*
X891500Y691750D02*
X891794Y692044D01*
Y692784D02*
Y698456D01*
X848500Y741750D02*
X891794Y698456D01*
X1007500Y626500D02*
X1027500Y606500D01*
X992074Y538676D02*
Y541250D01*
X1146250Y713650D02*
X1159250Y700650D01*
Y557250D02*
Y700650D01*
X1149000Y547000D02*
X1159250Y557250D01*
X1138250Y547000D02*
X1149000D01*
X1146250Y625750D02*
Y637450D01*
X1069750Y549250D02*
X1146250Y625750D01*
X1013750Y549250D02*
X1069750D01*
X1004000Y559000D02*
X1013750Y549250D01*
X994750Y559000D02*
X1004000D01*
X982676Y571074D02*
X994750Y559000D01*
X982250Y571074D02*
X982676D01*
X992000Y553500D02*
Y556750D01*
X982750Y566000D02*
X992000Y556750D01*
X971000Y566000D02*
X982750D01*
X1142400Y586650D02*
X1146250D01*
X1103000Y547250D02*
X1142400Y586650D01*
X998250Y547250D02*
X1103000D01*
X992000Y553500D02*
X998250Y547250D01*
X968750Y568250D02*
X971000Y566000D01*
X968750Y568250D02*
Y570250D01*
X963250Y575750D02*
X968750Y570250D01*
X956574Y575750D02*
X963250D01*
X952074Y571250D02*
X956574Y575750D01*
X1130250Y545250D02*
X1146250Y561250D01*
X997000Y545250D02*
X1130250D01*
X966750Y559500D02*
Y566250D01*
X961750Y571250D02*
X966750Y566250D01*
X987250Y534250D02*
Y543000D01*
X985000Y545250D02*
X987250Y543000D01*
X982000Y545250D02*
X985000D01*
X979000Y548250D02*
X982000Y545250D01*
X979000Y548250D02*
Y550750D01*
X1098800Y383450D02*
X1146250D01*
X1031250Y451000D02*
X1098800Y383450D01*
X1031250Y451000D02*
Y464750D01*
X1001000Y495000D02*
X1031250Y464750D01*
X970000Y495000D02*
X1001000D01*
X962250Y502750D02*
X970000Y495000D01*
X962250Y502750D02*
Y513000D01*
X947500Y527750D02*
X962250Y513000D01*
X947500Y527750D02*
Y545824D01*
X942000Y551324D02*
X947500Y545824D01*
X1098250Y410500D02*
X1144600D01*
X1055500Y453250D02*
X1098250Y410500D01*
X1055500Y453250D02*
Y457824D01*
X972250Y551250D02*
X976500Y547000D01*
Y539653D02*
Y547000D01*
Y539653D02*
X1055653Y460500D01*
X1063000D01*
X1089250Y434250D01*
X1146250D01*
X1144600Y410500D02*
X1146250Y408850D01*
X972074Y541250D02*
X1055500Y457824D01*
X929250Y597250D02*
X988574D01*
X927000Y595000D02*
X929250Y597250D01*
X927000Y566750D02*
Y595000D01*
X946500Y626500D02*
X1007500D01*
X941750Y621750D02*
X946500Y626500D01*
X941750Y621000D02*
Y621750D01*
X858265Y211000D02*
X925250Y277985D01*
X852500Y211000D02*
X858265D01*
X849071Y222821D02*
X864429D01*
X762150Y94650D02*
X802650D01*
X814750Y106750D01*
Y188500D01*
X849071Y222821D01*
X848750Y217500D02*
X861936D01*
X819750Y85750D02*
Y188500D01*
X848750Y217500D01*
X834250Y191250D02*
X847500Y204500D01*
X854593D01*
X862125Y206375D02*
X931250Y275500D01*
X850500Y157750D02*
X862125Y169375D01*
Y206375D01*
X938250Y584000D02*
X940000Y585750D01*
X938250Y577922D02*
Y584000D01*
X933000Y572672D02*
X938250Y577922D01*
X933000Y566000D02*
Y572672D01*
X923000Y556000D02*
X933000Y566000D01*
X923000Y544015D02*
Y556000D01*
X915500Y524500D02*
Y536515D01*
X923000Y544015D01*
X936250Y585250D02*
X938750Y587750D01*
X936250Y578750D02*
Y585250D01*
X930250Y566750D02*
Y572750D01*
X936250Y578750D01*
X921000Y557500D02*
X930250Y566750D01*
X921000Y544843D02*
Y557500D01*
X988574Y597250D02*
X992324Y601000D01*
X919000Y558750D02*
X927000Y566750D01*
X919000Y545672D02*
Y558750D01*
X911500Y538172D02*
X919000Y545672D01*
X978250Y606750D02*
X982500Y611000D01*
X921750Y606750D02*
X978250D01*
X917000Y602000D02*
X921750Y606750D01*
X917000Y546500D02*
Y602000D01*
X909500Y539000D02*
X917000Y546500D01*
X909500Y515655D02*
Y539000D01*
X967250Y616000D02*
X972250Y611000D01*
X910000Y616000D02*
X967250D01*
X907500Y613500D02*
X910000Y616000D01*
X907500Y516483D02*
Y613500D01*
X917000Y645325D02*
X922500Y650825D01*
X917000Y628500D02*
Y645325D01*
X914250Y625750D02*
X917000Y628500D01*
X899750Y625750D02*
X914250D01*
X897000Y541000D02*
X905500Y532500D01*
X897000Y623000D02*
X899750Y625750D01*
X897000Y541000D02*
Y623000D01*
X864429Y222821D02*
X921250Y279642D01*
Y429596D01*
X861936Y217500D02*
X923250Y278813D01*
X854593Y204500D02*
X927250Y277157D01*
X901544Y513356D02*
X905500Y517312D01*
Y532500D01*
X903544Y452552D02*
Y512528D01*
X905544Y453380D02*
Y511699D01*
X903544Y512528D02*
X907500Y516483D01*
X905544Y511699D02*
X909500Y515655D01*
X835422Y1017250D02*
X890250Y1072078D01*
X827750Y1017250D02*
X835422D01*
X801500Y991000D02*
X827750Y1017250D01*
X822250Y1019250D02*
X834593D01*
X794500Y991500D02*
X822250Y1019250D01*
X833765Y1021250D02*
X886250Y1073735D01*
X819000Y1021250D02*
X833765D01*
X789250Y991500D02*
X819000Y1021250D01*
X777750Y1004314D02*
X799186Y1025750D01*
X769250Y998642D02*
X798608Y1028000D01*
X844750Y1081750D02*
Y1179250D01*
X805250Y1042250D02*
X844750Y1081750D01*
X770750Y1042250D02*
X805250D01*
X720250Y991750D02*
X770750Y1042250D01*
X727750Y991437D02*
X776563Y1040250D01*
X736250Y997109D02*
X777391Y1038250D01*
X743000Y1000677D02*
X778573Y1036250D01*
X992250Y681250D02*
Y687500D01*
X986750Y693000D02*
X992250Y687500D01*
X981750Y693000D02*
X984750Y696000D01*
X913250Y1165000D02*
X922000D01*
X913000Y1165250D02*
X913250Y1165000D01*
X896000Y989500D02*
X896250Y989750D01*
X889750Y990250D02*
X890750D01*
X918000Y988750D02*
X941000Y1011750D01*
X885000Y990500D02*
X927250Y1032750D01*
X905750Y709000D02*
Y726093D01*
Y709000D02*
X916000Y698750D01*
X917000Y670750D02*
Y684250D01*
X923000Y687500D02*
X926250Y684250D01*
X908250Y712250D02*
X912750Y707750D01*
X910500Y720750D02*
X922500Y708750D01*
X908250Y712250D02*
Y726422D01*
X910500Y720750D02*
Y727000D01*
X913593Y727250D02*
X919750D01*
X914422Y729250D02*
X921172D01*
X915250Y731250D02*
X922000D01*
X916422Y733500D02*
X922672D01*
X917250Y735500D02*
X923500D01*
X927250Y719000D02*
Y723172D01*
X921172Y729250D02*
X927250Y723172D01*
X925250Y712250D02*
Y721750D01*
X919750Y727250D02*
X925250Y721750D01*
Y712250D02*
X929750Y707750D01*
X922000Y731250D02*
X925000Y728250D01*
X922672Y733500D02*
X925922Y730250D01*
X923500Y735500D02*
X926250Y732750D01*
X925500Y737500D02*
X928250Y734750D01*
X958750Y714939D02*
X965250Y708439D01*
X967250Y679250D02*
Y687422D01*
X870250Y770250D02*
X897778Y742722D01*
X925000Y728250D02*
X957250D01*
X925922Y730250D02*
X958500D01*
X957250Y728250D02*
X960750Y724750D01*
X958500Y730250D02*
X962750Y726000D01*
X926250Y732750D02*
X961250D01*
X928250Y734750D02*
X967250D01*
X961250Y732750D02*
X966250Y727750D01*
X967250Y734750D02*
X969000Y733000D01*
X970093Y736750D02*
X986750Y720093D01*
X970922Y738750D02*
X989750Y719922D01*
X960750Y715768D02*
X967250Y709268D01*
X960750Y715768D02*
Y724750D01*
X962750Y716596D02*
Y726000D01*
X965250Y689422D02*
Y708439D01*
Y689422D02*
X967250Y687422D01*
X876127Y787000D02*
X916000Y747127D01*
X966250Y717250D02*
Y727750D01*
X969000Y726000D02*
Y733000D01*
X972250Y722750D02*
X980500D01*
X984750Y718500D01*
X969000Y726000D02*
X972250Y722750D01*
X984750Y696000D02*
Y718500D01*
X986750Y693000D02*
Y720093D01*
X989750Y707250D02*
Y719922D01*
X871078Y772250D02*
X900428Y742900D01*
X871907Y774250D02*
X902685Y743472D01*
X967250Y690250D02*
X970500Y687000D01*
X976250D01*
X978000Y685250D01*
Y679500D02*
Y685250D01*
Y679500D02*
X980500Y677000D01*
X996500D01*
X967250Y690250D02*
Y709268D01*
Y679250D02*
X971500Y675000D01*
X876000Y795657D02*
Y917600D01*
X861450Y807378D02*
Y900250D01*
X851250Y814750D02*
Y911750D01*
X868750Y787000D02*
X876127D01*
X875299Y785000D02*
X914000Y746299D01*
X861500Y785000D02*
X875299D01*
X874471Y783000D02*
X912000Y745471D01*
X814500Y783000D02*
X874471D01*
X873642Y781000D02*
X909750Y744892D01*
X807299Y781000D02*
X873642D01*
X872814Y779000D02*
X907750Y744064D01*
X806471Y779000D02*
X872814D01*
X806392Y776250D02*
X872735D01*
X805564Y774250D02*
X871907D01*
X804735Y772250D02*
X871078D01*
X803907Y770250D02*
X870250D01*
X803328Y768000D02*
X869657D01*
X802750Y765750D02*
X869078D01*
X861850Y931750D02*
X876000Y917600D01*
X836450Y926550D02*
Y931750D01*
Y926550D02*
X851250Y911750D01*
X820300Y922500D02*
X829500D01*
X811050Y931750D02*
X820300Y922500D01*
X848250Y807500D02*
Y903750D01*
X829500Y922500D02*
X848250Y903750D01*
X861850Y926650D02*
Y931750D01*
X836050Y900250D02*
X836250Y900050D01*
X848250Y807500D02*
X868750Y787000D01*
X801250Y763500D02*
X868500D01*
X836250Y810250D02*
X861500Y785000D01*
X810750Y786750D02*
X814500Y783000D01*
X797750Y790549D02*
X807299Y781000D01*
X785750Y799721D02*
X806471Y779000D01*
X771750Y810892D02*
X806392Y776250D01*
X759750Y820064D02*
X805564Y774250D01*
X747000Y829985D02*
X804735Y772250D01*
X733750Y840407D02*
X803907Y770250D01*
X720750Y850579D02*
X803328Y768000D01*
X709050Y859450D02*
X802750Y765750D01*
X697500Y867250D02*
X801250Y763500D01*
X836250Y810250D02*
Y900050D01*
X797000Y929922D02*
X810650Y916272D01*
Y900250D02*
Y916272D01*
X799000Y930750D02*
X829500Y900250D01*
X797000Y929922D02*
Y942500D01*
X810650Y900250D02*
X810750Y900150D01*
Y786750D02*
Y900150D01*
X797750Y790549D02*
Y914500D01*
X785650Y926600D02*
X797750Y914500D01*
X785650Y926600D02*
Y931750D01*
X785750Y799721D02*
Y899750D01*
X771750Y810892D02*
Y916250D01*
X759750Y820064D02*
Y888750D01*
X747000Y829985D02*
Y915500D01*
X733750Y840407D02*
Y899550D01*
X720750Y850579D02*
Y911000D01*
X709050Y859450D02*
Y900250D01*
X785250D02*
X785750Y899750D01*
X760250Y927750D02*
X771750Y916250D01*
X760250Y927750D02*
Y931750D01*
X759750Y888750D02*
X759850Y888850D01*
Y900250D01*
X734850Y927650D02*
Y931750D01*
Y927650D02*
X747000Y915500D01*
X733750Y899550D02*
X734450Y900250D01*
X709450Y931750D02*
X710250Y930950D01*
Y921500D02*
Y930950D01*
Y921500D02*
X720750Y911000D01*
X684050Y928950D02*
X697500Y915500D01*
X684050Y928950D02*
Y931750D01*
X697500Y867250D02*
Y915500D01*
X683650Y876600D02*
Y900250D01*
Y876600D02*
X799250Y761000D01*
X868000D01*
X971500Y675000D02*
X978750D01*
X982500Y671250D01*
X956500Y677000D02*
Y682500D01*
X966500Y667000D02*
X972250Y661250D01*
X958328Y654500D02*
X968825D01*
X972000Y651325D01*
X959000Y651000D02*
X962750D01*
X952250D02*
Y653250D01*
X734450Y900250D02*
Y904550D01*
X720250Y918750D02*
X734450Y904550D01*
X849000Y1188989D02*
X852750Y1185239D01*
X838750Y1185250D02*
X844750Y1179250D01*
X720250Y918750D02*
Y991750D01*
X736250Y989500D02*
X773750Y952000D01*
Y923500D02*
Y952000D01*
Y923500D02*
X785250Y912000D01*
X736250Y989500D02*
Y991750D01*
X785250Y900250D02*
Y912000D01*
X757000Y982500D02*
X797000Y942500D01*
X886250Y1073735D02*
Y1079582D01*
X761500Y983750D02*
Y1003974D01*
X736250Y991750D02*
Y997109D01*
X743000Y991250D02*
Y1000677D01*
X799000Y930750D02*
Y946250D01*
X761500Y983750D02*
X799000Y946250D01*
X829500Y900250D02*
X836050D01*
X829500Y996750D02*
Y997000D01*
X807404Y1038250D02*
X859250Y1090096D01*
X806575Y1040250D02*
X857250Y1090925D01*
X749250Y991250D02*
Y997381D01*
X757000Y982500D02*
Y1002302D01*
X769250Y991500D02*
Y998642D01*
X777750Y991500D02*
Y1004314D01*
X856750Y1149250D02*
X859250Y1146750D01*
X870250Y1106500D02*
X872750Y1109000D01*
X900290Y1136790D02*
X905000Y1141500D01*
X900290Y1131790D02*
Y1136790D01*
X896500Y1140750D02*
Y1141489D01*
X876749Y1108500D02*
Y1114001D01*
X872250Y1104001D02*
X876749Y1108500D01*
X920750Y1141250D02*
X921250D01*
X916500Y1137000D02*
X920750Y1141250D01*
X904290Y1131790D02*
X909500Y1137000D01*
X916500D01*
X904290Y1130133D02*
Y1131790D01*
X910739Y1141239D02*
X912750D01*
X902290Y1132790D02*
X910739Y1141239D01*
X902290Y1130962D02*
Y1132790D01*
X902500Y989250D02*
X937000Y1023750D01*
X902250Y989000D02*
X902500Y989250D01*
X968250Y999000D02*
X981250Y986000D01*
Y980750D02*
Y986000D01*
X970500Y1003750D02*
X988250Y986000D01*
X970500Y1003750D02*
Y1182750D01*
X972500Y1010250D02*
Y1187750D01*
Y1010250D02*
X996750Y986000D01*
X974500Y1014500D02*
X1002250Y986750D01*
X974500Y1014500D02*
Y1191000D01*
X976500Y1019000D02*
Y1191829D01*
Y1019000D02*
X1008750Y986750D01*
X940000Y1213250D02*
X970500Y1182750D01*
X945000Y1215250D02*
X972500Y1187750D01*
X948250Y1217250D02*
X974500Y1191000D01*
X947828Y1220500D02*
X976500Y1191829D01*
X981250Y980750D02*
X992750Y969250D01*
X1021750D01*
X1052250Y938750D01*
Y912650D02*
Y938750D01*
Y912650D02*
X1064650Y900250D01*
X967500Y969000D02*
Y986250D01*
Y969000D02*
X1003000Y933500D01*
Y911100D02*
Y933500D01*
X958250Y997250D02*
Y1165250D01*
X956250Y1001000D02*
Y1164250D01*
X1003000Y911100D02*
X1013850Y900250D01*
X956000D02*
X963050D01*
X937650D02*
Y909400D01*
X924750Y912750D02*
Y964500D01*
X912250Y900250D02*
X924750Y912750D01*
X930000Y978000D02*
Y988250D01*
X899750Y947750D02*
X930000Y978000D01*
X899750Y922500D02*
Y947750D01*
X886850Y909600D02*
X899750Y922500D01*
X886850Y900250D02*
Y909600D01*
X964250Y989500D02*
X967500Y986250D01*
X930000Y988250D02*
X945500Y1003750D01*
X924000Y988250D02*
X943000Y1007250D01*
X960250Y986250D02*
X962250Y988250D01*
X910500Y989000D02*
X939000Y1017500D01*
X945500Y1003750D02*
Y1169343D01*
X966250Y994250D02*
X974500Y986000D01*
X906250Y1220500D02*
X947828D01*
X913000Y1197500D02*
X916750Y1201250D01*
X920879Y1197629D02*
X921258Y1197250D01*
X926750Y1193500D02*
X928500Y1195250D01*
X910500Y1193500D02*
X926750D01*
X906250Y1189250D02*
X910500Y1193500D01*
X905000Y1189250D02*
X906250D01*
X931750Y1191750D02*
X958250Y1165250D01*
X948250Y999500D02*
Y1169422D01*
X937000Y1023750D02*
Y1153750D01*
X923750Y1167000D02*
X937000Y1153750D01*
X915750Y1172750D02*
X921500Y1167000D01*
X923750D01*
X888619Y1189631D02*
X893369D01*
X910250Y1172750D02*
X915750D01*
X893369Y1189631D02*
X910250Y1172750D01*
X939000Y1017500D02*
Y1157250D01*
X921500Y1174750D02*
X939000Y1157250D01*
X894197Y1191631D02*
X911078Y1174750D01*
X921500D01*
X892369Y1191631D02*
X894197D01*
X889379Y1194621D02*
Y1197129D01*
Y1194621D02*
X892369Y1191631D01*
X930846Y1179250D02*
X935593D01*
X945500Y1169343D01*
X912739Y1181250D02*
X928846D01*
X943000Y1007250D02*
Y1168500D01*
X911000Y1177750D02*
X927250D01*
X896750Y1192000D02*
X911000Y1177750D01*
X896750Y1192000D02*
Y1197370D01*
X897370D01*
X904879Y1197629D02*
X910500Y1203250D01*
X922250Y1213250D02*
X940000D01*
X916748Y1207748D02*
X922250Y1213250D01*
X916500Y1215250D02*
X945000D01*
X908748Y1207498D02*
X916500Y1215250D01*
X910750Y1217250D02*
X948250D01*
X900748Y1207248D02*
X910750Y1217250D01*
X907325Y666000D02*
X912325Y671000D01*
X899500Y666000D02*
X907325D01*
X893000Y659500D02*
X899500Y666000D01*
X893000Y649500D02*
Y659500D01*
X902000Y647500D02*
Y661750D01*
X901922Y671250D02*
X902075D01*
X893000Y679000D02*
Y681000D01*
X716250Y737500D02*
X828000D01*
X873250Y692250D01*
X697500Y735250D02*
X821250D01*
X864000Y692500D01*
X834750Y739750D02*
X882500Y692000D01*
X808750Y728750D02*
X856500Y681000D01*
X862325D01*
X863750Y667500D02*
X868325D01*
X872075Y671250D01*
X814500Y720000D02*
X859000Y675500D01*
X878250D01*
X845575Y677750D02*
X852075Y671250D01*
X729750Y741750D02*
X848500D01*
X692350Y779150D02*
X729750Y741750D01*
X661500Y779150D02*
X692350D01*
X701250Y766250D02*
X727750Y739750D01*
X652750Y766250D02*
X701250D01*
X727750Y739750D02*
X834750D01*
X637000Y779150D02*
X639850D01*
X652750Y766250D01*
X699750Y754000D02*
X716250Y737500D01*
X661750Y754000D02*
X699750D01*
X661500Y753750D02*
X661750Y754000D01*
X690500Y742250D02*
X697500Y735250D01*
X649000Y742250D02*
X690500D01*
X637500Y753750D02*
X649000Y742250D01*
X637000Y753750D02*
X637500D01*
X661500Y728350D02*
X661900Y728750D01*
X808750D01*
X697500Y720000D02*
X814500D01*
X694000Y716500D02*
X697500Y720000D01*
X648850Y716500D02*
X694000D01*
X637000Y728350D02*
X648850Y716500D01*
X750750Y677750D02*
X845575D01*
X723500Y705000D02*
X750750Y677750D01*
X721250Y689250D02*
X748500Y662000D01*
X650500Y689250D02*
X721250D01*
X650500D02*
Y689450D01*
X637000Y702950D02*
X650500Y689450D01*
X661500Y702950D02*
X663550Y705000D01*
X723500D01*
X661500Y677550D02*
X715700D01*
X648800Y665750D02*
X676000D01*
X637000Y677550D02*
X648800Y665750D01*
X676850Y652150D02*
X685250Y643750D01*
X661500Y652150D02*
X676850D01*
X637000D02*
X647400Y641750D01*
X844750D01*
X637000Y626750D02*
X649500Y639250D01*
X924750Y964500D02*
X934500Y974250D01*
Y985750D01*
X948250Y999500D01*
X941500Y986250D02*
X956250Y1001000D01*
X941000Y986250D02*
X941500D01*
X937650Y909400D02*
X952250Y924000D01*
Y985000D01*
X960250Y993000D01*
X950000Y989000D02*
X958250Y997250D01*
X950000Y988250D02*
Y989000D01*
X863000Y630000D02*
Y631500D01*
X861250Y628250D02*
X863000Y630000D01*
X858250Y626000D02*
X862500Y621750D01*
X832500Y592500D02*
Y609250D01*
X892000Y601000D02*
Y611750D01*
X888250Y597250D02*
X892000Y601000D01*
X886500Y615750D02*
X891750Y621000D01*
X886500Y609000D02*
Y615750D01*
X883250Y605750D02*
X886500Y609000D01*
X679250Y442922D02*
X793828Y557500D01*
X684500Y445343D02*
X794157Y555000D01*
X793828Y557500D02*
X809000D01*
X794157Y555000D02*
X810000D01*
X841750Y586750D01*
Y595500D01*
X843500Y597250D01*
X888250D01*
X809000Y557500D02*
X836250Y584750D01*
Y601250D01*
X840750Y605750D01*
X883250D01*
X765154Y546000D02*
X809404Y590250D01*
X809500D01*
X826154Y628250D02*
X861250D01*
X799250Y604175D02*
X809075Y614000D01*
X809096D01*
X811000Y615904D01*
Y615925D01*
X801250Y603346D02*
X809904Y612000D01*
X809925D01*
X813000Y615075D01*
Y615096D01*
X826154Y628250D01*
X811000Y615925D02*
X826825Y631750D01*
X851750D01*
X826732Y626000D02*
X858250D01*
X663150Y429650D02*
X819250Y585750D01*
X825750D01*
X832500Y592500D01*
X654000Y472750D02*
X680172D01*
X640000Y458750D02*
X654000Y472750D01*
X680172D02*
X755422Y548000D01*
X637750Y458750D02*
X640000D01*
X663150Y484150D02*
X688743D01*
X754593Y550000D01*
X672750Y461500D02*
X757250Y546000D01*
X665900Y461500D02*
X672750D01*
X663150Y458750D02*
X665900Y461500D01*
X654000Y441750D02*
X671750D01*
X637750Y425500D02*
X654000Y441750D01*
X637750Y424400D02*
Y425500D01*
X663150Y424400D02*
Y429650D01*
X679250Y421000D02*
Y442922D01*
X668250Y410000D02*
X679250Y421000D01*
X648750Y410000D02*
X668250D01*
X637750Y399000D02*
X648750Y410000D01*
X684500Y420350D02*
Y445343D01*
X663150Y399000D02*
X684500Y420350D01*
X712029Y431500D02*
X782000D01*
X712858Y429500D02*
X782829D01*
X534750Y237250D02*
X717000Y419500D01*
X532750Y238078D02*
X716172Y421500D01*
X530750Y238907D02*
X715343Y423500D01*
X528750Y239735D02*
X714515Y425500D01*
X528750Y173250D02*
Y239735D01*
X839500Y568500D02*
X852000Y581000D01*
X845078Y571250D02*
X851250D01*
X841500Y567672D02*
X845078Y571250D01*
X843500Y566000D02*
X844750Y567250D01*
X858250D01*
X862250Y571250D01*
X845500Y562250D02*
X848500Y565250D01*
X864500D01*
X880000Y580750D01*
X892574D01*
X847500Y555675D02*
X852574Y560750D01*
X849500Y532250D02*
X868426Y551176D01*
Y556750D01*
X872500Y560825D01*
X851500Y531422D02*
X881078Y561000D01*
X882325D01*
X477000Y166350D02*
X496350D01*
X451600D02*
X463200Y154750D01*
X490500D01*
X477000Y140950D02*
X479528D01*
X451600D02*
X454050D01*
X496350Y166350D02*
X522750Y192750D01*
Y242221D01*
X712029Y431500D01*
X490500Y154750D02*
X524750Y189000D01*
Y241392D01*
X712858Y429500D01*
X479528Y140950D02*
X526750Y188172D01*
Y240564D01*
X713686Y427500D01*
X530750Y164500D02*
Y238907D01*
X454050Y140950D02*
X464500Y130500D01*
X486000D01*
X528750Y173250D01*
X494500Y128250D02*
X530750Y164500D01*
X451600Y115550D02*
X464300Y128250D01*
X494500D01*
X532750Y150000D02*
Y238078D01*
X485250Y102500D02*
X532750Y150000D01*
X463950Y102500D02*
X485250D01*
X451600Y90150D02*
X463950Y102500D01*
X534750Y147900D02*
Y237250D01*
X477000Y90150D02*
X534750Y147900D01*
X1020500Y1139052D02*
X1041200Y1118352D01*
X1020500Y1139052D02*
Y1146250D01*
X852750Y1129000D02*
Y1185239D01*
X857250Y1090925D02*
Y1103250D01*
X847250Y1113250D02*
X857250Y1103250D01*
X847250Y1113250D02*
Y1123500D01*
X852750Y1129000D01*
X849250Y1122000D02*
X859250Y1132000D01*
X849250Y1114078D02*
Y1122000D01*
Y1114078D02*
X859250Y1104078D01*
Y1090096D02*
Y1104078D01*
Y1132000D02*
Y1146750D01*
X892748Y1206998D02*
X906250Y1220500D01*
X913500Y537343D02*
X921000Y544843D01*
D49*
X149250Y691750D02*
X240000Y601000D01*
X149250Y691750D02*
Y836250D01*
X86250Y899250D02*
X149250Y836250D01*
X240000Y601000D02*
X240500Y601500D01*
X320000D01*
D51*
X1041200Y1118352D02*
D03*
D52*
X1146250Y383450D02*
D03*
Y408850D02*
D03*
Y434250D02*
D03*
Y535850D02*
D03*
Y561250D02*
D03*
Y586650D02*
D03*
Y637450D02*
D03*
Y713650D02*
D03*
X637000Y753750D02*
D03*
Y728350D02*
D03*
Y702950D02*
D03*
Y677550D02*
D03*
Y652150D02*
D03*
Y626750D02*
D03*
X661500Y779150D02*
D03*
Y753750D02*
D03*
Y728350D02*
D03*
Y702950D02*
D03*
Y677550D02*
D03*
Y652150D02*
D03*
X762150Y94650D02*
D03*
X1066600Y1143752D02*
D03*
X477000Y90150D02*
D03*
Y140950D02*
D03*
Y166350D02*
D03*
X451600Y90150D02*
D03*
Y115550D02*
D03*
Y140950D02*
D03*
Y166350D02*
D03*
D54*
X861850Y931750D02*
D03*
X836450D02*
D03*
X811050D02*
D03*
X785650D02*
D03*
X760250D02*
D03*
X734850D02*
D03*
X709450D02*
D03*
X1064650Y900250D02*
D03*
X1013850D02*
D03*
X963050D02*
D03*
X937650D02*
D03*
X912250D02*
D03*
X886850D02*
D03*
X861450D02*
D03*
X836050D02*
D03*
X810650D02*
D03*
X785250D02*
D03*
X759850D02*
D03*
X734450D02*
D03*
X709050D02*
D03*
D55*
X684050Y931750D02*
D03*
X683650Y900250D02*
D03*
D56*
X637000Y779150D02*
D03*
D58*
X77250Y908250D02*
D03*
D60*
X637750Y399000D02*
D03*
Y458750D02*
D03*
D61*
X663150Y424400D02*
D03*
Y399000D02*
D03*
X637750Y424400D02*
D03*
X663150Y484150D02*
D03*
Y458750D02*
D03*
D65*
X851500Y198578D02*
D03*
X896500Y1141489D02*
D03*
X880173Y1133241D02*
D03*
X889195Y1133305D02*
D03*
X889000Y1125250D02*
D03*
X1002500Y671000D02*
D03*
X962500D02*
D03*
X933046Y661032D02*
D03*
X1001799Y680783D02*
D03*
X883000Y680250D02*
D03*
X971750Y692250D02*
D03*
X992000Y692750D02*
D03*
X862542Y671033D02*
D03*
X931045Y1148806D02*
D03*
X932795Y1182808D02*
D03*
X817790Y992798D02*
D03*
X891794Y692784D02*
D03*
X1027500Y606750D02*
D03*
X941750Y621000D02*
D03*
X852500Y211000D02*
D03*
X819750Y85750D02*
D03*
X834250Y191250D02*
D03*
X850500Y157750D02*
D03*
X1002750Y601250D02*
D03*
X962574Y590750D02*
D03*
X992324Y601000D02*
D03*
X982500Y611000D02*
D03*
X972250D02*
D03*
X922500Y650825D02*
D03*
X982250Y680750D02*
D03*
X992250Y681250D02*
D03*
X981750Y693000D02*
D03*
X913000Y1165250D02*
D03*
X896250Y989750D02*
D03*
X890750Y990250D02*
D03*
X932250Y1173250D02*
D03*
X918000Y988750D02*
D03*
X896750Y1165370D02*
D03*
X885000Y990500D02*
D03*
X952074Y571250D02*
D03*
X852075Y671250D02*
D03*
X862325Y681000D02*
D03*
X872075Y671250D02*
D03*
X912325Y671000D02*
D03*
X873250Y692250D02*
D03*
X882500Y692000D02*
D03*
X902075Y671250D02*
D03*
X864000Y692500D02*
D03*
X893000Y681000D02*
D03*
X892000Y611750D02*
D03*
X882250D02*
D03*
X851750Y631750D02*
D03*
X863000Y631500D02*
D03*
X862500Y621750D02*
D03*
X882500Y621250D02*
D03*
X953000Y671500D02*
D03*
X952250Y651000D02*
D03*
X962750D02*
D03*
X972000Y651325D02*
D03*
Y671325D02*
D03*
X982500Y671250D02*
D03*
X972250Y661250D02*
D03*
X849000Y1188989D02*
D03*
X856750Y1181239D02*
D03*
X838750Y1185250D02*
D03*
X789250Y991500D02*
D03*
X794500D02*
D03*
X743000Y991250D02*
D03*
X829500Y996750D02*
D03*
X720250Y991750D02*
D03*
X727750Y991437D02*
D03*
X736250Y991750D02*
D03*
X749250Y991250D02*
D03*
X769250Y991500D02*
D03*
X777750D02*
D03*
X801500Y991000D02*
D03*
X856750Y1149250D02*
D03*
X857250Y1157250D02*
D03*
X872750Y1133500D02*
D03*
X905000Y1141500D02*
D03*
X896750Y1133239D02*
D03*
X889000Y1140989D02*
D03*
X876749Y1114001D02*
D03*
X921250Y1141250D02*
D03*
X912750Y1141239D02*
D03*
X924000Y988250D02*
D03*
X960250Y986250D02*
D03*
X902500Y989250D02*
D03*
X910500Y989000D02*
D03*
X974500Y986000D02*
D03*
X988250D02*
D03*
X996750Y986000D02*
D03*
X1002250Y986750D02*
D03*
X1008750D02*
D03*
X913000Y1197500D02*
D03*
X920879Y1197629D02*
D03*
X905000Y1189250D02*
D03*
X931750Y1191750D02*
D03*
X913000Y1189500D02*
D03*
X888619Y1189631D02*
D03*
X889379Y1197129D02*
D03*
X912739Y1181250D02*
D03*
X896750Y1197370D02*
D03*
X904879Y1197629D02*
D03*
X924748Y1208248D02*
D03*
X916748Y1207748D02*
D03*
X908748Y1207498D02*
D03*
X900748Y1207248D02*
D03*
X902000Y661750D02*
D03*
X941000Y986250D02*
D03*
X950000Y988250D02*
D03*
X891750Y621000D02*
D03*
X852000Y581000D02*
D03*
X851250Y571250D02*
D03*
X862250D02*
D03*
X892574Y580750D02*
D03*
X852574Y560750D02*
D03*
X872500Y560825D02*
D03*
X882325Y561000D02*
D03*
X1020500Y1146250D02*
D03*
X961750Y571250D02*
D03*
X982250Y571074D02*
D03*
X942074Y561250D02*
D03*
X972250Y551250D02*
D03*
X972074Y541250D02*
D03*
X992074D02*
D03*
X942000Y551324D02*
D03*
X892748Y1206998D02*
D03*
D66*
X1085649Y1223000D02*
D03*
X1095400Y1215500D02*
D03*
X1093950Y1333252D02*
D03*
D67*
X325000Y460250D02*
D03*
X315250Y322250D02*
D03*
X320000Y601500D02*
D03*
D77*
X36000Y351500D02*
X65250Y322250D01*
X36000Y351500D02*
Y867000D01*
X77250Y908250D01*
X86250Y899250D01*
Y655500D02*
Y899250D01*
X281500Y460250D02*
X325000D01*
X86250Y655500D02*
X281500Y460250D01*
X65250Y322250D02*
X315250D01*
M02*
