G04 Layer_Color=16711935*
%FSLAX44Y44*%
%MOMM*%
G71*
G01*
G75*
%ADD93R,1.3032X1.3032*%
%ADD98R,1.2032X1.1032*%
%ADD100R,1.1032X0.9032*%
%ADD101R,1.1032X1.2032*%
%ADD107R,1.3032X1.3032*%
%ADD114R,0.9032X1.1032*%
%ADD117R,0.9032X0.6532*%
%ADD118R,2.0032X2.2032*%
%ADD122C,1.7032*%
%ADD123R,1.7032X1.7032*%
%ADD124R,1.7532X1.7532*%
%ADD125C,1.7532*%
%ADD126C,1.5032*%
%ADD127R,1.5032X1.5032*%
%ADD128R,1.7532X1.7532*%
%ADD129C,1.1032*%
%ADD130R,1.7032X1.7032*%
%ADD131C,2.2532*%
%ADD132R,2.2532X2.2532*%
%ADD133R,1.7232X1.7232*%
%ADD134C,1.7232*%
%ADD135R,1.7232X1.7232*%
%ADD136C,0.7032*%
%ADD137C,0.5532*%
%ADD138R,1.3532X2.9032*%
%ADD139R,2.9032X1.3532*%
%ADD140R,0.6532X0.9032*%
G04:AMPARAMS|DCode=141|XSize=1.7272mm|YSize=3.2512mm|CornerRadius=0.4826mm|HoleSize=0mm|Usage=FLASHONLY|Rotation=270.000|XOffset=0mm|YOffset=0mm|HoleType=Round|Shape=RoundedRectangle|*
%AMROUNDEDRECTD141*
21,1,1.7272,2.2860,0,0,270.0*
21,1,0.7620,3.2512,0,0,270.0*
1,1,0.9652,-1.1430,-0.3810*
1,1,0.9652,-1.1430,0.3810*
1,1,0.9652,1.1430,0.3810*
1,1,0.9652,1.1430,-0.3810*
%
%ADD141ROUNDEDRECTD141*%
G04:AMPARAMS|DCode=142|XSize=1.3632mm|YSize=2.7032mm|CornerRadius=0.3916mm|HoleSize=0mm|Usage=FLASHONLY|Rotation=270.000|XOffset=0mm|YOffset=0mm|HoleType=Round|Shape=RoundedRectangle|*
%AMROUNDEDRECTD142*
21,1,1.3632,1.9200,0,0,270.0*
21,1,0.5800,2.7032,0,0,270.0*
1,1,0.7832,-0.9600,-0.2900*
1,1,0.7832,-0.9600,0.2900*
1,1,0.7832,0.9600,0.2900*
1,1,0.7832,0.9600,-0.2900*
%
%ADD142ROUNDEDRECTD142*%
%ADD143R,1.8032X0.8532*%
D93*
X800750Y489250D02*
D03*
Y471250D02*
D03*
X775500Y489000D02*
D03*
Y471000D02*
D03*
X345750Y206000D02*
D03*
Y224000D02*
D03*
X343250Y143750D02*
D03*
Y161750D02*
D03*
X886250Y1093750D02*
D03*
Y1075750D02*
D03*
X886250Y709250D02*
D03*
Y727250D02*
D03*
X983750Y708750D02*
D03*
Y726750D02*
D03*
X744250Y640500D02*
D03*
Y622500D02*
D03*
X769000Y640500D02*
D03*
Y622500D02*
D03*
X884000Y505500D02*
D03*
Y487500D02*
D03*
X979250Y505500D02*
D03*
Y487500D02*
D03*
X714750Y485250D02*
D03*
Y467250D02*
D03*
D98*
X1008750Y1052250D02*
D03*
Y1068250D02*
D03*
X398500Y144750D02*
D03*
Y160750D02*
D03*
X375250Y70750D02*
D03*
Y86750D02*
D03*
X398500Y53750D02*
D03*
Y37750D02*
D03*
X375249Y193750D02*
D03*
Y209750D02*
D03*
X398500Y218250D02*
D03*
Y234250D02*
D03*
X375250Y244250D02*
D03*
Y260250D02*
D03*
X124750Y755750D02*
D03*
Y739750D02*
D03*
D100*
X856000Y510000D02*
D03*
Y496000D02*
D03*
X840000Y510000D02*
D03*
Y496000D02*
D03*
X824000Y509750D02*
D03*
Y495750D02*
D03*
X1052750Y1054500D02*
D03*
Y1068500D02*
D03*
X1030750Y1054000D02*
D03*
Y1068000D02*
D03*
X906750Y707500D02*
D03*
Y721500D02*
D03*
X925417Y707500D02*
D03*
Y721500D02*
D03*
X944083Y707500D02*
D03*
Y721500D02*
D03*
X962750Y707500D02*
D03*
Y721500D02*
D03*
X786500Y637750D02*
D03*
Y623750D02*
D03*
X808000Y638000D02*
D03*
Y624000D02*
D03*
X828500Y638250D02*
D03*
Y624250D02*
D03*
X904250Y507250D02*
D03*
Y493250D02*
D03*
X922916Y507250D02*
D03*
Y493250D02*
D03*
X941583Y507250D02*
D03*
Y493250D02*
D03*
X960250Y507250D02*
D03*
Y493250D02*
D03*
X780000Y741250D02*
D03*
Y755250D02*
D03*
D101*
X1057000Y990500D02*
D03*
X1041000D02*
D03*
X1084000Y1353000D02*
D03*
X1068000D02*
D03*
X1085750Y1371750D02*
D03*
X1069750D02*
D03*
X859000Y709500D02*
D03*
X843000D02*
D03*
X219750Y329000D02*
D03*
X203750D02*
D03*
X222750Y419750D02*
D03*
X206750D02*
D03*
X216750Y546500D02*
D03*
X200750D02*
D03*
D107*
X952750Y1172750D02*
D03*
X970750D02*
D03*
X970750Y1145250D02*
D03*
X952750D02*
D03*
X952750Y1119750D02*
D03*
X970750D02*
D03*
X1055000Y713750D02*
D03*
X1037000D02*
D03*
X825500Y552250D02*
D03*
X807500D02*
D03*
X1036250Y666500D02*
D03*
X1054250D02*
D03*
X1032000Y531250D02*
D03*
X1050000D02*
D03*
D114*
X829500Y690500D02*
D03*
X815500D02*
D03*
X829500Y673750D02*
D03*
X815500D02*
D03*
X826000Y599750D02*
D03*
X812000D02*
D03*
X825750Y577500D02*
D03*
X811750D02*
D03*
X1036250Y622750D02*
D03*
X1050250D02*
D03*
X1036000Y642750D02*
D03*
X1050000D02*
D03*
X1029000Y564750D02*
D03*
X1043000D02*
D03*
X1029250Y549250D02*
D03*
X1043250D02*
D03*
X829500Y653250D02*
D03*
X815500D02*
D03*
D117*
X1041000Y1011750D02*
D03*
Y1021250D02*
D03*
Y1030750D02*
D03*
X1065000D02*
D03*
Y1021250D02*
D03*
Y1011750D02*
D03*
D118*
X801250Y773500D02*
D03*
X852050D02*
D03*
Y731500D02*
D03*
X801250D02*
D03*
D122*
X637750Y484150D02*
D03*
X663150Y458750D02*
D03*
Y484150D02*
D03*
X637750Y424400D02*
D03*
X663150Y399000D02*
D03*
Y424400D02*
D03*
X324750Y432500D02*
D03*
X271900Y708250D02*
D03*
X1140750Y189000D02*
D03*
X1160750D02*
D03*
X1140750Y169000D02*
D03*
X1160750D02*
D03*
X1140750Y149000D02*
D03*
X1160750D02*
D03*
X1140750Y129000D02*
D03*
X1160750D02*
D03*
X1140750Y109000D02*
D03*
X1160750D02*
D03*
X1140750Y89000D02*
D03*
X1160750D02*
D03*
X1140750Y69000D02*
D03*
D123*
X637750Y458750D02*
D03*
Y399000D02*
D03*
X1160750Y69000D02*
D03*
D124*
X451600Y191750D02*
D03*
X635500Y1317300D02*
D03*
X411499Y813450D02*
D03*
X457000Y556900D02*
D03*
X762150Y43850D02*
D03*
X763250Y155250D02*
D03*
X637000Y779150D02*
D03*
X1146250Y764450D02*
D03*
D125*
X451600Y166350D02*
D03*
Y140950D02*
D03*
Y115550D02*
D03*
Y90150D02*
D03*
X477000Y191750D02*
D03*
Y166350D02*
D03*
Y140950D02*
D03*
Y115550D02*
D03*
Y90150D02*
D03*
X447850Y30000D02*
D03*
X473250D02*
D03*
X1002750Y852000D02*
D03*
X1028150D02*
D03*
X1053550D02*
D03*
X635500Y1215700D02*
D03*
Y1241100D02*
D03*
Y1266500D02*
D03*
Y1291900D02*
D03*
X1168200Y1143752D02*
D03*
X1142800D02*
D03*
X1117400D02*
D03*
X1092000D02*
D03*
X1066600D02*
D03*
X1041200D02*
D03*
X1168200Y1118352D02*
D03*
X1142800D02*
D03*
X1117400D02*
D03*
X1092000D02*
D03*
X1066600D02*
D03*
X411499Y788050D02*
D03*
X457000Y480700D02*
D03*
Y506100D02*
D03*
Y531500D02*
D03*
X62250Y30750D02*
D03*
Y272750D02*
D03*
X659800Y1416250D02*
D03*
X634400Y1441650D02*
D03*
Y1416250D02*
D03*
X609000Y1441650D02*
D03*
Y1416250D02*
D03*
X583600Y1441650D02*
D03*
Y1416250D02*
D03*
X558200Y1441650D02*
D03*
X659800D02*
D03*
X685200Y1416250D02*
D03*
Y1441650D02*
D03*
X710600D02*
D03*
Y1416250D02*
D03*
X736000D02*
D03*
Y1441650D02*
D03*
X761400Y1416250D02*
D03*
Y1441650D02*
D03*
X786800Y1416250D02*
D03*
Y1441650D02*
D03*
X762150Y69250D02*
D03*
Y94650D02*
D03*
X736750Y43850D02*
D03*
Y69250D02*
D03*
Y94650D02*
D03*
X763250Y180650D02*
D03*
Y206050D02*
D03*
X737850Y155250D02*
D03*
Y180650D02*
D03*
Y206050D02*
D03*
X661500Y626750D02*
D03*
Y652150D02*
D03*
Y677550D02*
D03*
Y702950D02*
D03*
Y728350D02*
D03*
Y753750D02*
D03*
Y779150D02*
D03*
X637000Y626750D02*
D03*
Y652150D02*
D03*
Y677550D02*
D03*
Y702950D02*
D03*
Y728350D02*
D03*
Y753750D02*
D03*
X1146250Y739050D02*
D03*
Y713650D02*
D03*
Y688250D02*
D03*
Y662850D02*
D03*
Y637450D02*
D03*
Y612050D02*
D03*
Y586650D02*
D03*
Y561250D02*
D03*
Y535850D02*
D03*
Y510450D02*
D03*
Y485050D02*
D03*
Y459650D02*
D03*
Y434250D02*
D03*
Y408850D02*
D03*
Y383450D02*
D03*
X961817Y1457750D02*
D03*
X936417D02*
D03*
X911017D02*
D03*
D126*
X930600Y133600D02*
D03*
X956000D02*
D03*
X981400D02*
D03*
Y57400D02*
D03*
X956000D02*
D03*
D127*
X930600D02*
D03*
D128*
X498650Y30000D02*
D03*
X1078950Y852000D02*
D03*
X1041200Y1118352D02*
D03*
X558200Y1416250D02*
D03*
X885617Y1457750D02*
D03*
D129*
X68000Y1055250D02*
D03*
Y1099250D02*
D03*
X68250Y1182500D02*
D03*
Y1226500D02*
D03*
X1099250Y1435500D02*
D03*
X1143250D02*
D03*
X1132000Y1045250D02*
D03*
Y1001250D02*
D03*
X65750Y765750D02*
D03*
Y809750D02*
D03*
D130*
X350150Y432500D02*
D03*
X246500Y708250D02*
D03*
D131*
X77250Y908250D02*
D03*
D132*
Y958250D02*
D03*
D133*
X683650Y900250D02*
D03*
X684050Y931750D02*
D03*
D134*
X709050Y900250D02*
D03*
X734450D02*
D03*
X759850D02*
D03*
X785250D02*
D03*
X810650D02*
D03*
X836050D02*
D03*
X861450D02*
D03*
X886850D02*
D03*
X912250D02*
D03*
X937650D02*
D03*
X963050D02*
D03*
X988450D02*
D03*
X1013850D02*
D03*
X1039250D02*
D03*
X1064650D02*
D03*
X709450Y931750D02*
D03*
X734850D02*
D03*
X760250D02*
D03*
X785650D02*
D03*
X811050D02*
D03*
X836450D02*
D03*
X861850D02*
D03*
X887250D02*
D03*
X912650D02*
D03*
X938050D02*
D03*
X963450D02*
D03*
X988850D02*
D03*
X1014250D02*
D03*
X1039650D02*
D03*
X1065050D02*
D03*
X636000Y1176600D02*
D03*
Y1151200D02*
D03*
Y1125800D02*
D03*
Y1100400D02*
D03*
Y1075000D02*
D03*
Y1049600D02*
D03*
Y1024200D02*
D03*
Y998800D02*
D03*
Y973400D02*
D03*
Y948000D02*
D03*
Y922600D02*
D03*
D135*
Y897200D02*
D03*
D136*
X536750Y698450D02*
D03*
X527750D02*
D03*
X518750D02*
D03*
X509750D02*
D03*
X536750Y707450D02*
D03*
X527750D02*
D03*
X518750D02*
D03*
X509750D02*
D03*
X536750Y716450D02*
D03*
X527750D02*
D03*
X518750D02*
D03*
X509750D02*
D03*
X536750Y725450D02*
D03*
X527750D02*
D03*
X518750D02*
D03*
X509750D02*
D03*
X533250Y64500D02*
D03*
D137*
X892748Y1206998D02*
D03*
X857500Y1197000D02*
D03*
X856250Y1115500D02*
D03*
X865000Y1116000D02*
D03*
X942000Y551324D02*
D03*
X952074Y541250D02*
D03*
X1002250Y551075D02*
D03*
X992074Y541250D02*
D03*
X972074D02*
D03*
X962324Y541000D02*
D03*
X982574Y550750D02*
D03*
X972250Y551250D02*
D03*
X962250Y550500D02*
D03*
X982000Y561250D02*
D03*
X972000Y561500D02*
D03*
X952500Y560824D02*
D03*
X942074Y561250D02*
D03*
X982250Y571074D02*
D03*
X972500Y570824D02*
D03*
X961750Y571250D02*
D03*
X1020500Y1146250D02*
D03*
X882325Y561000D02*
D03*
X872500Y560825D02*
D03*
X852574Y560750D02*
D03*
X892574Y580750D02*
D03*
X862250Y571250D02*
D03*
X851250D02*
D03*
X852000Y581000D02*
D03*
X543250Y568500D02*
D03*
X551000Y576750D02*
D03*
X891750Y621000D02*
D03*
X902000Y661750D02*
D03*
X865500Y1181250D02*
D03*
X848750Y1165240D02*
D03*
X889000Y1149250D02*
D03*
X896750Y1149750D02*
D03*
X905000D02*
D03*
X900748Y1207248D02*
D03*
X908748Y1207498D02*
D03*
X916748Y1207748D02*
D03*
X924748Y1208248D02*
D03*
X904879Y1197629D02*
D03*
X912750Y1149500D02*
D03*
Y1133239D02*
D03*
X865000Y1141500D02*
D03*
X864989Y1173000D02*
D03*
X865000Y1156990D02*
D03*
Y1164989D02*
D03*
X889000Y1125250D02*
D03*
X896750Y1197370D02*
D03*
X865000Y1133250D02*
D03*
X849000D02*
D03*
X881000Y1141250D02*
D03*
X872500Y1141489D02*
D03*
X904750Y1157250D02*
D03*
X896500Y1181500D02*
D03*
X873000Y1189250D02*
D03*
X848748Y1157053D02*
D03*
X837508Y1153242D02*
D03*
X848989Y1141000D02*
D03*
X849000Y1148990D02*
D03*
X873000Y1149250D02*
D03*
X880879Y1149371D02*
D03*
X897000Y1156990D02*
D03*
X896750Y1173239D02*
D03*
X873250Y1180740D02*
D03*
X912739Y1181250D02*
D03*
X889379Y1197129D02*
D03*
X888619Y1189631D02*
D03*
X932750Y1182000D02*
D03*
X913000Y1189500D02*
D03*
X931750Y1191750D02*
D03*
X905000Y1189250D02*
D03*
X920879Y1197629D02*
D03*
X913000Y1197500D02*
D03*
X912750Y1141239D02*
D03*
X921250Y1141250D02*
D03*
X876749Y1114001D02*
D03*
X880079Y1133312D02*
D03*
X889000Y1140989D02*
D03*
X896500Y1141489D02*
D03*
X888750Y1133750D02*
D03*
X896750Y1133239D02*
D03*
X905000Y1141500D02*
D03*
X872750Y1133500D02*
D03*
X857250Y1157250D02*
D03*
X856750Y1149250D02*
D03*
Y1165250D02*
D03*
X857078Y1172564D02*
D03*
X838750Y1185250D02*
D03*
X856750Y1181239D02*
D03*
X848750Y1181239D02*
D03*
X849000Y1188989D02*
D03*
X982324Y541000D02*
D03*
X932750Y641500D02*
D03*
X932500Y620825D02*
D03*
X912325Y641000D02*
D03*
X902500Y630825D02*
D03*
X902250Y611075D02*
D03*
X932250Y601750D02*
D03*
X922750Y590750D02*
D03*
X922500Y611250D02*
D03*
Y621000D02*
D03*
X912250Y620750D02*
D03*
X912750Y630750D02*
D03*
X903500Y641000D02*
D03*
X892750Y671250D02*
D03*
X922500Y680750D02*
D03*
X952000Y692250D02*
D03*
X962750Y661750D02*
D03*
X992500Y671500D02*
D03*
X1002250Y641500D02*
D03*
X942000Y641325D02*
D03*
X952500Y611750D02*
D03*
X982000Y601324D02*
D03*
X902000Y601324D02*
D03*
X892000Y571324D02*
D03*
X922500Y580824D02*
D03*
X862250Y561074D02*
D03*
X902500Y541250D02*
D03*
X932500Y551250D02*
D03*
X882000Y601500D02*
D03*
X872750Y631250D02*
D03*
X862325Y661000D02*
D03*
X852750Y691000D02*
D03*
X912500Y611250D02*
D03*
X903000Y620325D02*
D03*
X912250Y601000D02*
D03*
X922750Y601250D02*
D03*
X931500Y611250D02*
D03*
X962250Y561500D02*
D03*
X992500Y570824D02*
D03*
X1002575Y540750D02*
D03*
X851824Y591500D02*
D03*
X922250Y641750D02*
D03*
X922500Y630750D02*
D03*
X942250Y631075D02*
D03*
X931825Y631500D02*
D03*
X942325Y611000D02*
D03*
X942250Y591000D02*
D03*
X952325Y601000D02*
D03*
X952500Y591000D02*
D03*
X972750Y631750D02*
D03*
X942250Y650750D02*
D03*
X952500Y640750D02*
D03*
X932750Y651500D02*
D03*
X882250Y661500D02*
D03*
X972250Y661250D02*
D03*
X982500D02*
D03*
X1002750Y661500D02*
D03*
X982500Y671250D02*
D03*
X972000Y671325D02*
D03*
X962500Y671000D02*
D03*
X1003000Y651000D02*
D03*
X992250Y651075D02*
D03*
X972000Y651325D02*
D03*
X962750Y651000D02*
D03*
X952250D02*
D03*
X962000Y641000D02*
D03*
X972500Y641500D02*
D03*
X982500Y641000D02*
D03*
X992500Y641250D02*
D03*
X982250Y631000D02*
D03*
X1002500Y631250D02*
D03*
X1002250Y621750D02*
D03*
X972500Y621500D02*
D03*
X962750Y621250D02*
D03*
X962500Y631000D02*
D03*
X1002500Y671000D02*
D03*
X933000Y660750D02*
D03*
X953000Y671500D02*
D03*
X882500Y621250D02*
D03*
X882750Y631250D02*
D03*
X862500Y621750D02*
D03*
X863000Y631500D02*
D03*
X851750Y631750D02*
D03*
X882250Y611750D02*
D03*
X892000D02*
D03*
X873000Y581000D02*
D03*
X902250Y591250D02*
D03*
X941750Y671750D02*
D03*
X1002250Y692750D02*
D03*
X992750Y620575D02*
D03*
X962250Y610750D02*
D03*
X942750Y570574D02*
D03*
X972574Y580750D02*
D03*
X1002500Y590825D02*
D03*
X992750Y590574D02*
D03*
X912500Y561000D02*
D03*
X882325Y551000D02*
D03*
X852250Y541000D02*
D03*
X862500Y610750D02*
D03*
X882325Y651000D02*
D03*
X850825Y642500D02*
D03*
X851250Y651000D02*
D03*
X899250Y693500D02*
D03*
X893000Y681000D02*
D03*
X864000Y692500D02*
D03*
X891500Y692750D02*
D03*
X883000Y680250D02*
D03*
X892325Y631000D02*
D03*
X902075Y671250D02*
D03*
X882500Y692000D02*
D03*
X912075Y661250D02*
D03*
X911825Y651500D02*
D03*
X873250Y692250D02*
D03*
X872575Y680750D02*
D03*
X912325Y671000D02*
D03*
X872075Y671250D02*
D03*
X862500Y670825D02*
D03*
X862325Y681000D02*
D03*
X852075Y671250D02*
D03*
X952074Y571250D02*
D03*
X982325Y651000D02*
D03*
X993000Y661500D02*
D03*
X992500Y611000D02*
D03*
X896750Y1165370D02*
D03*
X1002000Y611750D02*
D03*
X932250Y1173250D02*
D03*
X982500Y621000D02*
D03*
X930750Y1148500D02*
D03*
X991500Y631250D02*
D03*
X913000Y1165250D02*
D03*
X992000Y693250D02*
D03*
X981750Y693000D02*
D03*
X1002000Y681250D02*
D03*
X992250D02*
D03*
X982250Y680750D02*
D03*
X972000Y692000D02*
D03*
X972250Y681075D02*
D03*
X923000Y671250D02*
D03*
X865000Y1207500D02*
D03*
X932750Y671500D02*
D03*
X857000Y1208000D02*
D03*
X952250Y681500D02*
D03*
X864750Y1197250D02*
D03*
X962500Y680825D02*
D03*
X856750Y1189000D02*
D03*
X942500Y680825D02*
D03*
X848750Y1197250D02*
D03*
X932750Y681250D02*
D03*
X837250Y1197250D02*
D03*
X961750Y692250D02*
D03*
X864750Y1189240D02*
D03*
X942000Y693000D02*
D03*
X932250Y693500D02*
D03*
X839500Y1208000D02*
D03*
X921750Y694750D02*
D03*
X848750Y1208250D02*
D03*
X942500Y541250D02*
D03*
X669500Y122500D02*
D03*
X668250Y223250D02*
D03*
X922500Y650825D02*
D03*
X972250Y611000D02*
D03*
X982500D02*
D03*
X992324Y601000D02*
D03*
X962574Y590750D02*
D03*
X1002750Y601250D02*
D03*
X922250Y571074D02*
D03*
X912500Y570824D02*
D03*
X912750Y581250D02*
D03*
X912250Y591074D02*
D03*
X942324Y581000D02*
D03*
X932250D02*
D03*
X953000D02*
D03*
X942250Y601250D02*
D03*
X952500Y621250D02*
D03*
X941750Y621000D02*
D03*
X931500Y591750D02*
D03*
X872750Y621500D02*
D03*
X872500Y591250D02*
D03*
X862500Y590500D02*
D03*
X872500Y600912D02*
D03*
X851250Y601750D02*
D03*
X850750Y611250D02*
D03*
X872500D02*
D03*
X851000Y621250D02*
D03*
D138*
X759250Y523000D02*
D03*
X789250D02*
D03*
X920250Y761500D02*
D03*
X950250D02*
D03*
X918000Y445500D02*
D03*
X948000D02*
D03*
D139*
X744750Y489750D02*
D03*
Y459750D02*
D03*
X698500Y582000D02*
D03*
Y552000D02*
D03*
X745750Y556000D02*
D03*
Y586000D02*
D03*
X1099500Y666750D02*
D03*
Y636750D02*
D03*
X791000Y660500D02*
D03*
Y690500D02*
D03*
D140*
X1119000Y1380250D02*
D03*
X1128500D02*
D03*
X1138000D02*
D03*
Y1356250D02*
D03*
X1128500D02*
D03*
X1119000D02*
D03*
D141*
X83250Y15750D02*
D03*
Y295750D02*
D03*
D142*
X305250Y120450D02*
D03*
Y54250D02*
D03*
Y71250D02*
D03*
Y95450D02*
D03*
Y245550D02*
D03*
Y145450D02*
D03*
Y162550D02*
D03*
Y220550D02*
D03*
Y195550D02*
D03*
Y20750D02*
D03*
Y179050D02*
D03*
D143*
X151500Y767000D02*
D03*
Y757500D02*
D03*
Y748001D02*
D03*
X176500D02*
D03*
Y757500D02*
D03*
Y767000D02*
D03*
M02*
