G04 Layer_Color=128*
%FSLAX44Y44*%
%MOMM*%
G71*
G01*
G75*
%ADD10R,1.0000X0.9000*%
%ADD11R,1.1000X1.1000*%
%ADD13R,0.7000X0.4500*%
%ADD14R,0.9000X0.7000*%
%ADD15R,0.9000X1.0000*%
%ADD16R,1.1000X1.1000*%
%ADD21R,1.8000X2.0000*%
%ADD22R,0.3000X0.3000*%
%ADD28R,0.7000X0.9000*%
%ADD78R,2.7000X1.1500*%
%ADD79R,1.1500X2.7000*%
%ADD80R,1.6000X0.6500*%
%ADD81R,0.4500X0.7000*%
%ADD82R,0.3000X0.3000*%
%ADD83R,1.1000X1.5000*%
%ADD84R,2.0000X1.0000*%
%ADD85R,2.2000X1.5500*%
%ADD86R,3.2000X2.1000*%
%ADD87R,1.9500X1.2000*%
%ADD88R,1.6500X1.5000*%
%ADD89R,1.8700X1.6000*%
%ADD90R,4.1700X1.5500*%
D10*
X124750Y739750D02*
D03*
Y755750D02*
D03*
X375250Y260250D02*
D03*
Y244250D02*
D03*
X398500Y234250D02*
D03*
Y218250D02*
D03*
X375249Y209750D02*
D03*
Y193750D02*
D03*
X398500Y37750D02*
D03*
Y53750D02*
D03*
X375250Y86750D02*
D03*
Y70750D02*
D03*
X398500Y160750D02*
D03*
Y144750D02*
D03*
X1008750Y1068250D02*
D03*
Y1052250D02*
D03*
D11*
X1050000Y531250D02*
D03*
X1032000D02*
D03*
X1054250Y666500D02*
D03*
X1036250D02*
D03*
X807500Y552250D02*
D03*
X825500D02*
D03*
X1037000Y713750D02*
D03*
X1055000D02*
D03*
X970750Y1119750D02*
D03*
X952750D02*
D03*
X952750Y1145250D02*
D03*
X970750D02*
D03*
X970750Y1172750D02*
D03*
X952750D02*
D03*
D13*
X1065000Y1011750D02*
D03*
Y1021250D02*
D03*
Y1030750D02*
D03*
X1041000D02*
D03*
Y1021250D02*
D03*
Y1011750D02*
D03*
D14*
X780000Y755250D02*
D03*
Y741250D02*
D03*
X960250Y493250D02*
D03*
Y507250D02*
D03*
X941583Y493250D02*
D03*
Y507250D02*
D03*
X922916Y493250D02*
D03*
Y507250D02*
D03*
X904250Y493250D02*
D03*
Y507250D02*
D03*
X828500Y624250D02*
D03*
Y638250D02*
D03*
X808000Y624000D02*
D03*
Y638000D02*
D03*
X786500Y623750D02*
D03*
Y637750D02*
D03*
X962750Y721500D02*
D03*
Y707500D02*
D03*
X944083Y721500D02*
D03*
Y707500D02*
D03*
X925417Y721500D02*
D03*
Y707500D02*
D03*
X906750Y721500D02*
D03*
Y707500D02*
D03*
X1030750Y1068000D02*
D03*
Y1054000D02*
D03*
X1052750Y1068500D02*
D03*
Y1054500D02*
D03*
X824000Y495750D02*
D03*
Y509750D02*
D03*
X840000Y496000D02*
D03*
Y510000D02*
D03*
X856000Y496000D02*
D03*
Y510000D02*
D03*
D15*
X200750Y546500D02*
D03*
X216750D02*
D03*
X206750Y419750D02*
D03*
X222750D02*
D03*
X203750Y329000D02*
D03*
X219750D02*
D03*
X843000Y709500D02*
D03*
X859000D02*
D03*
X1069750Y1371750D02*
D03*
X1085750D02*
D03*
X1068000Y1353000D02*
D03*
X1084000D02*
D03*
X1041000Y990500D02*
D03*
X1057000D02*
D03*
D16*
X714750Y467250D02*
D03*
Y485250D02*
D03*
X979250Y487500D02*
D03*
Y505500D02*
D03*
X884000Y487500D02*
D03*
Y505500D02*
D03*
X769000Y622500D02*
D03*
Y640500D02*
D03*
X744250Y622500D02*
D03*
Y640500D02*
D03*
X983750Y726750D02*
D03*
Y708750D02*
D03*
X886250Y727250D02*
D03*
Y709250D02*
D03*
X886250Y1075750D02*
D03*
Y1093750D02*
D03*
X345750Y224000D02*
D03*
Y206000D02*
D03*
X775500Y471000D02*
D03*
Y489000D02*
D03*
X800750Y471250D02*
D03*
Y489250D02*
D03*
D21*
X801250Y731500D02*
D03*
X852050D02*
D03*
Y773500D02*
D03*
X801250D02*
D03*
D22*
X762000Y657750D02*
D03*
X767250D02*
D03*
X1055500Y1371750D02*
D03*
X1060750D02*
D03*
D28*
X815500Y653250D02*
D03*
X829500D02*
D03*
X1043250Y549250D02*
D03*
X1029250D02*
D03*
X1043000Y564750D02*
D03*
X1029000D02*
D03*
X1050000Y642750D02*
D03*
X1036000D02*
D03*
X1050250Y622750D02*
D03*
X1036250D02*
D03*
X811750Y577500D02*
D03*
X825750D02*
D03*
X812000Y599750D02*
D03*
X826000D02*
D03*
X815500Y673750D02*
D03*
X829500D02*
D03*
X815500Y690500D02*
D03*
X829500D02*
D03*
D78*
X791000Y690500D02*
D03*
Y660500D02*
D03*
X1099500Y636750D02*
D03*
Y666750D02*
D03*
X745750Y586000D02*
D03*
Y556000D02*
D03*
X698500Y552000D02*
D03*
Y582000D02*
D03*
X744750Y459750D02*
D03*
Y489750D02*
D03*
D79*
X948000Y445500D02*
D03*
X918000D02*
D03*
X950250Y761500D02*
D03*
X920250D02*
D03*
X789250Y523000D02*
D03*
X759250D02*
D03*
D80*
X176500Y767000D02*
D03*
Y757500D02*
D03*
Y748001D02*
D03*
X151500D02*
D03*
Y757500D02*
D03*
Y767000D02*
D03*
D81*
X1119000Y1356250D02*
D03*
X1128500D02*
D03*
X1138000D02*
D03*
Y1380250D02*
D03*
X1128500D02*
D03*
X1119000D02*
D03*
D82*
X1007500Y1083250D02*
D03*
Y1078000D02*
D03*
D83*
X212450Y13800D02*
D03*
D84*
X98750Y20300D02*
D03*
Y32300D02*
D03*
D85*
X104150Y291550D02*
D03*
D86*
X57350Y267500D02*
D03*
Y29500D02*
D03*
D87*
X140400Y192250D02*
D03*
Y167250D02*
D03*
Y142250D02*
D03*
Y117250D02*
D03*
Y92250D02*
D03*
Y217250D02*
D03*
Y77250D02*
D03*
Y62250D02*
D03*
Y242250D02*
D03*
D88*
X294100Y13800D02*
D03*
D89*
X293000Y72500D02*
D03*
D90*
X281500Y291550D02*
D03*
M02*
