G04 Layer_Color=8421504*
%FSLAX44Y44*%
%MOMM*%
G71*
G01*
G75*
%ADD10R,2.9000X1.0000*%
%ADD11R,8.0000X10.4000*%
%ADD12R,1.1000X1.1000*%
G04:AMPARAMS|DCode=13|XSize=2.8mm|YSize=0.5mm|CornerRadius=0.125mm|HoleSize=0mm|Usage=FLASHONLY|Rotation=180.000|XOffset=0mm|YOffset=0mm|HoleType=Round|Shape=RoundedRectangle|*
%AMROUNDEDRECTD13*
21,1,2.8000,0.2500,0,0,180.0*
21,1,2.5500,0.5000,0,0,180.0*
1,1,0.2500,-1.2750,0.1250*
1,1,0.2500,1.2750,0.1250*
1,1,0.2500,1.2750,-0.1250*
1,1,0.2500,-1.2750,-0.1250*
%
%ADD13ROUNDEDRECTD13*%
G04:AMPARAMS|DCode=14|XSize=3.5mm|YSize=2.05mm|CornerRadius=0.5125mm|HoleSize=0mm|Usage=FLASHONLY|Rotation=180.000|XOffset=0mm|YOffset=0mm|HoleType=Round|Shape=RoundedRectangle|*
%AMROUNDEDRECTD14*
21,1,3.5000,1.0250,0,0,180.0*
21,1,2.4750,2.0500,0,0,180.0*
1,1,1.0250,-1.2375,0.5125*
1,1,1.0250,1.2375,0.5125*
1,1,1.0250,1.2375,-0.5125*
1,1,1.0250,-1.2375,-0.5125*
%
%ADD14ROUNDEDRECTD14*%
G04:AMPARAMS|DCode=15|XSize=4mm|YSize=2.05mm|CornerRadius=0.5125mm|HoleSize=0mm|Usage=FLASHONLY|Rotation=180.000|XOffset=0mm|YOffset=0mm|HoleType=Round|Shape=RoundedRectangle|*
%AMROUNDEDRECTD15*
21,1,4.0000,1.0250,0,0,180.0*
21,1,2.9750,2.0500,0,0,180.0*
1,1,1.0250,-1.4875,0.5125*
1,1,1.0250,1.4875,0.5125*
1,1,1.0250,1.4875,-0.5125*
1,1,1.0250,-1.4875,-0.5125*
%
%ADD15ROUNDEDRECTD15*%
G04:AMPARAMS|DCode=16|XSize=3.5mm|YSize=2.05mm|CornerRadius=0.5125mm|HoleSize=0mm|Usage=FLASHONLY|Rotation=180.000|XOffset=0mm|YOffset=0mm|HoleType=Round|Shape=RoundedRectangle|*
%AMROUNDEDRECTD16*
21,1,3.5000,1.0250,0,0,180.0*
21,1,2.4750,2.0500,0,0,180.0*
1,1,1.0250,-1.2375,0.5125*
1,1,1.0250,1.2375,0.5125*
1,1,1.0250,1.2375,-0.5125*
1,1,1.0250,-1.2375,-0.5125*
%
%ADD16ROUNDEDRECTD16*%
%ADD17R,1.0000X0.9000*%
%ADD18R,1.3000X1.5500*%
%ADD19R,0.9000X0.7000*%
%ADD20R,0.9000X1.0000*%
G04:AMPARAMS|DCode=21|XSize=2.8mm|YSize=0.5mm|CornerRadius=0.125mm|HoleSize=0mm|Usage=FLASHONLY|Rotation=90.000|XOffset=0mm|YOffset=0mm|HoleType=Round|Shape=RoundedRectangle|*
%AMROUNDEDRECTD21*
21,1,2.8000,0.2500,0,0,90.0*
21,1,2.5500,0.5000,0,0,90.0*
1,1,0.2500,0.1250,1.2750*
1,1,0.2500,0.1250,-1.2750*
1,1,0.2500,-0.1250,-1.2750*
1,1,0.2500,-0.1250,1.2750*
%
%ADD21ROUNDEDRECTD21*%
G04:AMPARAMS|DCode=22|XSize=3.5mm|YSize=2.05mm|CornerRadius=0.5125mm|HoleSize=0mm|Usage=FLASHONLY|Rotation=90.000|XOffset=0mm|YOffset=0mm|HoleType=Round|Shape=RoundedRectangle|*
%AMROUNDEDRECTD22*
21,1,3.5000,1.0250,0,0,90.0*
21,1,2.4750,2.0500,0,0,90.0*
1,1,1.0250,0.5125,1.2375*
1,1,1.0250,0.5125,-1.2375*
1,1,1.0250,-0.5125,-1.2375*
1,1,1.0250,-0.5125,1.2375*
%
%ADD22ROUNDEDRECTD22*%
G04:AMPARAMS|DCode=23|XSize=4mm|YSize=2.05mm|CornerRadius=0.5125mm|HoleSize=0mm|Usage=FLASHONLY|Rotation=90.000|XOffset=0mm|YOffset=0mm|HoleType=Round|Shape=RoundedRectangle|*
%AMROUNDEDRECTD23*
21,1,4.0000,1.0250,0,0,90.0*
21,1,2.9750,2.0500,0,0,90.0*
1,1,1.0250,0.5125,1.4875*
1,1,1.0250,0.5125,-1.4875*
1,1,1.0250,-0.5125,-1.4875*
1,1,1.0250,-0.5125,1.4875*
%
%ADD23ROUNDEDRECTD23*%
G04:AMPARAMS|DCode=24|XSize=3.5mm|YSize=2.05mm|CornerRadius=0.5125mm|HoleSize=0mm|Usage=FLASHONLY|Rotation=90.000|XOffset=0mm|YOffset=0mm|HoleType=Round|Shape=RoundedRectangle|*
%AMROUNDEDRECTD24*
21,1,3.5000,1.0250,0,0,90.0*
21,1,2.4750,2.0500,0,0,90.0*
1,1,1.0250,0.5125,1.2375*
1,1,1.0250,0.5125,-1.2375*
1,1,1.0250,-0.5125,-1.2375*
1,1,1.0250,-0.5125,1.2375*
%
%ADD24ROUNDEDRECTD24*%
%ADD25R,2.0000X1.8000*%
%ADD26R,1.1000X1.1000*%
%ADD30R,1.7000X0.9500*%
%ADD31C,0.4500*%
%ADD32R,0.8000X0.8000*%
%ADD33R,0.7000X0.9000*%
%ADD34R,0.8000X0.8000*%
%ADD35O,0.3500X1.8000*%
%ADD36R,0.7000X0.4500*%
%ADD37R,0.3000X0.3000*%
%ADD38R,1.8000X2.0000*%
%ADD39R,1.5500X1.3000*%
%ADD40O,1.7000X0.6000*%
%ADD41O,0.3500X1.7000*%
%ADD90C,0.2300*%
G36*
X533949Y705493D02*
X534793Y704649D01*
X535250Y703547D01*
Y702950D01*
Y702353D01*
X534793Y701251D01*
X533949Y700407D01*
X532846Y699950D01*
X531653D01*
X530550Y700407D01*
X529706Y701251D01*
X529250Y702353D01*
Y702950D01*
Y703547D01*
X529706Y704649D01*
X530550Y705493D01*
X531653Y705950D01*
X532846D01*
X533949Y705493D01*
D02*
G37*
G36*
X515949Y714493D02*
X516793Y713649D01*
X517250Y712547D01*
Y711950D01*
Y711353D01*
X516793Y710251D01*
X515949Y709407D01*
X514846Y708950D01*
X513653D01*
X512550Y709407D01*
X511707Y710251D01*
X511250Y711353D01*
Y711950D01*
Y712547D01*
X511707Y713649D01*
X512550Y714493D01*
X513653Y714950D01*
X514846D01*
X515949Y714493D01*
D02*
G37*
G36*
Y705493D02*
X516793Y704649D01*
X517250Y703547D01*
Y702950D01*
Y702353D01*
X516793Y701251D01*
X515949Y700407D01*
X514846Y699950D01*
X513653D01*
X512550Y700407D01*
X511707Y701251D01*
X511250Y702353D01*
Y702950D01*
Y703547D01*
X511707Y704649D01*
X512550Y705493D01*
X513653Y705950D01*
X514846D01*
X515949Y705493D01*
D02*
G37*
G36*
X524949D02*
X525793Y704649D01*
X526250Y703547D01*
Y702950D01*
Y702353D01*
X525793Y701251D01*
X524949Y700407D01*
X523847Y699950D01*
X522653D01*
X521550Y700407D01*
X520706Y701251D01*
X520250Y702353D01*
Y702950D01*
Y703547D01*
X520706Y704649D01*
X521550Y705493D01*
X522653Y705950D01*
X523847D01*
X524949Y705493D01*
D02*
G37*
G36*
Y714493D02*
X525793Y713649D01*
X526250Y712547D01*
Y711950D01*
Y711353D01*
X525793Y710251D01*
X524949Y709407D01*
X523847Y708950D01*
X522653D01*
X521550Y709407D01*
X520706Y710251D01*
X520250Y711353D01*
Y711950D01*
Y712547D01*
X520706Y713649D01*
X521550Y714493D01*
X522653Y714950D01*
X523847D01*
X524949Y714493D01*
D02*
G37*
G36*
Y723493D02*
X525793Y722649D01*
X526250Y721547D01*
Y720950D01*
Y720353D01*
X525793Y719251D01*
X524949Y718407D01*
X523847Y717950D01*
X522653D01*
X521550Y718407D01*
X520706Y719251D01*
X520250Y720353D01*
Y720950D01*
Y721547D01*
X520706Y722649D01*
X521550Y723493D01*
X522653Y723950D01*
X523847D01*
X524949Y723493D01*
D02*
G37*
G36*
X533949D02*
X534793Y722649D01*
X535250Y721547D01*
Y720950D01*
Y720353D01*
X534793Y719251D01*
X533949Y718407D01*
X532846Y717950D01*
X531653D01*
X530550Y718407D01*
X529706Y719251D01*
X529250Y720353D01*
Y720950D01*
Y721547D01*
X529706Y722649D01*
X530550Y723493D01*
X531653Y723950D01*
X532846D01*
X533949Y723493D01*
D02*
G37*
G36*
Y714493D02*
X534793Y713649D01*
X535250Y712547D01*
Y711950D01*
Y711353D01*
X534793Y710251D01*
X533949Y709407D01*
X532846Y708950D01*
X531653D01*
X530550Y709407D01*
X529706Y710251D01*
X529250Y711353D01*
Y711950D01*
Y712547D01*
X529706Y713649D01*
X530550Y714493D01*
X531653Y714950D01*
X532846D01*
X533949Y714493D01*
D02*
G37*
G36*
X515949Y723493D02*
X516793Y722649D01*
X517250Y721547D01*
Y720950D01*
Y720353D01*
X516793Y719251D01*
X515949Y718407D01*
X514846Y717950D01*
X513653D01*
X512550Y718407D01*
X511707Y719251D01*
X511250Y720353D01*
Y720950D01*
Y721547D01*
X511707Y722649D01*
X512550Y723493D01*
X513653Y723950D01*
X514846D01*
X515949Y723493D01*
D02*
G37*
D10*
X213000Y331000D02*
D03*
Y348000D02*
D03*
Y365000D02*
D03*
Y382000D02*
D03*
Y399000D02*
D03*
X213000Y455500D02*
D03*
Y472500D02*
D03*
Y489500D02*
D03*
Y506500D02*
D03*
Y523500D02*
D03*
X212500Y585750D02*
D03*
Y602750D02*
D03*
Y619750D02*
D03*
Y636750D02*
D03*
Y653750D02*
D03*
D11*
X119500Y365000D02*
D03*
X119500Y489500D02*
D03*
X119000Y619750D02*
D03*
D12*
X1180200Y1272752D02*
D03*
Y1290752D02*
D03*
X629500Y570500D02*
D03*
Y588500D02*
D03*
X465250Y772950D02*
D03*
Y790950D02*
D03*
X440750Y772450D02*
D03*
Y790450D02*
D03*
X572750Y496750D02*
D03*
Y478750D02*
D03*
X548500Y496500D02*
D03*
Y478500D02*
D03*
X376750Y653500D02*
D03*
Y635500D02*
D03*
X886250Y1092750D02*
D03*
Y1074750D02*
D03*
X916750D02*
D03*
Y1092750D02*
D03*
X837250Y1229500D02*
D03*
Y1247500D02*
D03*
X872000Y1229250D02*
D03*
Y1247250D02*
D03*
X902750Y1228500D02*
D03*
Y1246500D02*
D03*
X839500Y1093500D02*
D03*
Y1075500D02*
D03*
X935750Y1246750D02*
D03*
Y1228750D02*
D03*
X654250Y104500D02*
D03*
Y122500D02*
D03*
X684250Y205250D02*
D03*
Y223250D02*
D03*
Y181250D02*
D03*
Y163250D02*
D03*
X685000Y108000D02*
D03*
Y126000D02*
D03*
X691250Y43750D02*
D03*
Y25750D02*
D03*
X1033950Y1322002D02*
D03*
Y1304002D02*
D03*
X1006700Y1322002D02*
D03*
Y1304002D02*
D03*
D13*
X91250Y1077250D02*
D03*
Y1061250D02*
D03*
Y1069250D02*
D03*
Y1093250D02*
D03*
Y1085250D02*
D03*
X91500Y1204500D02*
D03*
Y1188500D02*
D03*
Y1196500D02*
D03*
Y1220500D02*
D03*
Y1212500D02*
D03*
X1108750Y1023250D02*
D03*
Y1039250D02*
D03*
Y1031250D02*
D03*
Y1007250D02*
D03*
Y1015250D02*
D03*
X89000Y787750D02*
D03*
Y771750D02*
D03*
Y779750D02*
D03*
Y803750D02*
D03*
Y795750D02*
D03*
D14*
X91500Y1028000D02*
D03*
X91750Y1155250D02*
D03*
X1108500Y1072500D02*
D03*
X89250Y738500D02*
D03*
D15*
X49000Y1028000D02*
D03*
Y1126500D02*
D03*
X49250Y1155250D02*
D03*
Y1253750D02*
D03*
X1151000Y1072500D02*
D03*
Y974000D02*
D03*
X46750Y738500D02*
D03*
Y837000D02*
D03*
D16*
X91500Y1126500D02*
D03*
X91750Y1253750D02*
D03*
X1108500Y974000D02*
D03*
X89250Y837000D02*
D03*
D17*
X923250Y317250D02*
D03*
Y301250D02*
D03*
X707750Y332250D02*
D03*
Y348250D02*
D03*
X707750Y316500D02*
D03*
Y300500D02*
D03*
X257500Y602000D02*
D03*
Y618000D02*
D03*
X374750Y558750D02*
D03*
Y542750D02*
D03*
X262500Y472000D02*
D03*
Y488000D02*
D03*
X260500Y349250D02*
D03*
Y365250D02*
D03*
X412750Y755700D02*
D03*
Y739700D02*
D03*
X333500Y584500D02*
D03*
Y568500D02*
D03*
X333250Y548250D02*
D03*
Y532250D02*
D03*
X376500Y693250D02*
D03*
Y677250D02*
D03*
X317450Y365450D02*
D03*
Y349450D02*
D03*
X317700Y402700D02*
D03*
Y386700D02*
D03*
X813250Y1137750D02*
D03*
Y1121750D02*
D03*
X514500Y393250D02*
D03*
Y409250D02*
D03*
X932324Y1360250D02*
D03*
Y1344250D02*
D03*
X903882Y1360500D02*
D03*
Y1344500D02*
D03*
X875439Y1360294D02*
D03*
Y1344294D02*
D03*
X960767Y1361000D02*
D03*
Y1345000D02*
D03*
X1056167Y87750D02*
D03*
Y71750D02*
D03*
X1095500Y98000D02*
D03*
Y82000D02*
D03*
X1074000Y106250D02*
D03*
Y122250D02*
D03*
X1036500Y114250D02*
D03*
Y130250D02*
D03*
X1006750Y450250D02*
D03*
Y466250D02*
D03*
X38250Y74250D02*
D03*
Y58250D02*
D03*
X74749Y74749D02*
D03*
Y58749D02*
D03*
X111750Y74750D02*
D03*
Y58750D02*
D03*
X148749Y74750D02*
D03*
Y58750D02*
D03*
X185749Y74750D02*
D03*
Y58750D02*
D03*
X222750Y74749D02*
D03*
Y58749D02*
D03*
X259750Y74750D02*
D03*
Y58750D02*
D03*
X296749Y74750D02*
D03*
Y58750D02*
D03*
X333750Y680250D02*
D03*
Y664250D02*
D03*
X333500Y714000D02*
D03*
Y698000D02*
D03*
D18*
X842000Y295250D02*
D03*
X887000D02*
D03*
Y374750D02*
D03*
X842000D02*
D03*
X756500Y295250D02*
D03*
X801500D02*
D03*
Y374750D02*
D03*
X756500D02*
D03*
D19*
X728250Y315250D02*
D03*
Y301250D02*
D03*
X553750Y841200D02*
D03*
Y827200D02*
D03*
X373984Y506750D02*
D03*
Y520750D02*
D03*
X930000Y193000D02*
D03*
Y179000D02*
D03*
X956750Y193000D02*
D03*
Y179000D02*
D03*
X981250Y194000D02*
D03*
Y180000D02*
D03*
X1077250Y465250D02*
D03*
Y451250D02*
D03*
X1077250Y491500D02*
D03*
Y477500D02*
D03*
X1025750Y430750D02*
D03*
Y416750D02*
D03*
X1056250Y465750D02*
D03*
Y451750D02*
D03*
D20*
X194000Y1091000D02*
D03*
X210000D02*
D03*
X193000Y1121000D02*
D03*
X209000D02*
D03*
X201000Y1210000D02*
D03*
X217000D02*
D03*
X200750Y1186750D02*
D03*
X216750D02*
D03*
X1151000Y1211000D02*
D03*
X1167000D02*
D03*
X247750Y824750D02*
D03*
X263750D02*
D03*
X263750Y774583D02*
D03*
X247750D02*
D03*
X263750Y749500D02*
D03*
X247750D02*
D03*
X247750Y799666D02*
D03*
X263750D02*
D03*
D21*
X1121250Y1412250D02*
D03*
X1105250D02*
D03*
X1113250D02*
D03*
X1137250D02*
D03*
X1129250D02*
D03*
D22*
X1072000Y1412000D02*
D03*
D23*
Y1454500D02*
D03*
X1170500D02*
D03*
D24*
Y1412000D02*
D03*
D25*
X491750Y845250D02*
D03*
Y794450D02*
D03*
X533750D02*
D03*
Y845250D02*
D03*
D26*
X558750Y779450D02*
D03*
X576750D02*
D03*
X410750Y851450D02*
D03*
X428750D02*
D03*
X459000Y746700D02*
D03*
X441000D02*
D03*
X953250Y1200500D02*
D03*
X971250D02*
D03*
X566750Y569750D02*
D03*
X584750D02*
D03*
X548750Y539000D02*
D03*
X566750D02*
D03*
X546500Y523000D02*
D03*
X528500D02*
D03*
X558999Y757450D02*
D03*
X576999D02*
D03*
X470750Y702950D02*
D03*
X452750D02*
D03*
X810000Y1177000D02*
D03*
X792000D02*
D03*
X810250Y1211250D02*
D03*
X792250D02*
D03*
X526750Y769700D02*
D03*
X508750D02*
D03*
X566250Y680700D02*
D03*
X584250D02*
D03*
X801000Y71500D02*
D03*
X819000D02*
D03*
X801250Y44500D02*
D03*
X819250D02*
D03*
X799500Y156000D02*
D03*
X817500D02*
D03*
X800500Y181500D02*
D03*
X818500D02*
D03*
X1144000Y29000D02*
D03*
X1162000D02*
D03*
X566500Y656700D02*
D03*
X584500D02*
D03*
D30*
X259750Y635250D02*
D03*
Y663250D02*
D03*
X286500Y589500D02*
D03*
Y617500D02*
D03*
X263000Y506750D02*
D03*
Y534750D02*
D03*
X287500Y460500D02*
D03*
Y488500D02*
D03*
X259750Y383500D02*
D03*
Y411500D02*
D03*
X282750Y341000D02*
D03*
Y369000D02*
D03*
D31*
X844748Y1121241D02*
D03*
Y1129241D02*
D03*
Y1137241D02*
D03*
Y1145242D02*
D03*
Y1153242D02*
D03*
Y1161242D02*
D03*
Y1169241D02*
D03*
Y1177242D02*
D03*
Y1185241D02*
D03*
Y1193242D02*
D03*
Y1201242D02*
D03*
X852748Y1121241D02*
D03*
Y1129241D02*
D03*
Y1137241D02*
D03*
Y1145242D02*
D03*
Y1153242D02*
D03*
Y1161242D02*
D03*
Y1169241D02*
D03*
Y1177242D02*
D03*
Y1185241D02*
D03*
Y1193242D02*
D03*
Y1201242D02*
D03*
X860748Y1121241D02*
D03*
Y1129241D02*
D03*
Y1137241D02*
D03*
Y1145242D02*
D03*
Y1153242D02*
D03*
Y1161242D02*
D03*
Y1169241D02*
D03*
Y1177242D02*
D03*
Y1185241D02*
D03*
Y1193242D02*
D03*
Y1201242D02*
D03*
X868748Y1121241D02*
D03*
Y1129241D02*
D03*
Y1137241D02*
D03*
Y1145242D02*
D03*
Y1153242D02*
D03*
Y1161242D02*
D03*
Y1169241D02*
D03*
Y1177242D02*
D03*
Y1185241D02*
D03*
Y1193242D02*
D03*
Y1201242D02*
D03*
X876748Y1121241D02*
D03*
Y1129241D02*
D03*
Y1137241D02*
D03*
Y1145242D02*
D03*
Y1153242D02*
D03*
Y1161242D02*
D03*
Y1169241D02*
D03*
Y1177242D02*
D03*
Y1185241D02*
D03*
Y1193242D02*
D03*
Y1201242D02*
D03*
X884748Y1121241D02*
D03*
Y1129241D02*
D03*
Y1137241D02*
D03*
Y1145242D02*
D03*
Y1153242D02*
D03*
Y1161242D02*
D03*
Y1169241D02*
D03*
Y1177242D02*
D03*
Y1185241D02*
D03*
Y1193242D02*
D03*
Y1201242D02*
D03*
X892748Y1121241D02*
D03*
Y1129241D02*
D03*
Y1137241D02*
D03*
Y1145242D02*
D03*
Y1153242D02*
D03*
Y1161242D02*
D03*
Y1169241D02*
D03*
Y1177242D02*
D03*
Y1185241D02*
D03*
Y1193242D02*
D03*
Y1201242D02*
D03*
X900748Y1121241D02*
D03*
Y1129241D02*
D03*
Y1137241D02*
D03*
Y1145242D02*
D03*
Y1153242D02*
D03*
Y1161242D02*
D03*
Y1169241D02*
D03*
Y1177242D02*
D03*
Y1185241D02*
D03*
Y1193242D02*
D03*
Y1201242D02*
D03*
X908748Y1121241D02*
D03*
Y1129241D02*
D03*
Y1137241D02*
D03*
Y1145242D02*
D03*
Y1153242D02*
D03*
Y1161242D02*
D03*
Y1169241D02*
D03*
Y1177242D02*
D03*
Y1185241D02*
D03*
Y1193242D02*
D03*
Y1201242D02*
D03*
X916748Y1121241D02*
D03*
Y1129241D02*
D03*
Y1137241D02*
D03*
Y1145242D02*
D03*
Y1153242D02*
D03*
Y1161242D02*
D03*
Y1169241D02*
D03*
Y1177242D02*
D03*
Y1185241D02*
D03*
Y1193242D02*
D03*
Y1201242D02*
D03*
X924748Y1121241D02*
D03*
Y1129241D02*
D03*
Y1137241D02*
D03*
Y1145242D02*
D03*
Y1153242D02*
D03*
Y1161242D02*
D03*
Y1169241D02*
D03*
Y1177242D02*
D03*
Y1185241D02*
D03*
Y1193242D02*
D03*
Y1201242D02*
D03*
X1006973Y536351D02*
D03*
X996973D02*
D03*
X986973D02*
D03*
X976973D02*
D03*
X966973D02*
D03*
X956973D02*
D03*
X946973D02*
D03*
X936973D02*
D03*
X926973D02*
D03*
X916973D02*
D03*
X906973D02*
D03*
X896973D02*
D03*
X886973D02*
D03*
X876973D02*
D03*
X866973D02*
D03*
X856973D02*
D03*
X1006973Y546351D02*
D03*
X996973D02*
D03*
X986973D02*
D03*
X976973D02*
D03*
X966973D02*
D03*
X956973D02*
D03*
X946973D02*
D03*
X936973D02*
D03*
X926973D02*
D03*
X916973D02*
D03*
X906973D02*
D03*
X896973D02*
D03*
X886973D02*
D03*
X876973D02*
D03*
X866973D02*
D03*
X856973D02*
D03*
X1006973Y556351D02*
D03*
X996973D02*
D03*
X986973D02*
D03*
X976973D02*
D03*
X966973D02*
D03*
X956973D02*
D03*
X946973D02*
D03*
X936973D02*
D03*
X926973D02*
D03*
X916973D02*
D03*
X906973D02*
D03*
X896973D02*
D03*
X886973D02*
D03*
X876973D02*
D03*
X866973D02*
D03*
X856973D02*
D03*
X1006973Y566351D02*
D03*
X996973D02*
D03*
X986973D02*
D03*
X976973D02*
D03*
X966973D02*
D03*
X956973D02*
D03*
X946973D02*
D03*
X936973D02*
D03*
X926973D02*
D03*
X916973D02*
D03*
X906973D02*
D03*
X896973D02*
D03*
X886973D02*
D03*
X876973D02*
D03*
X866973D02*
D03*
X856973D02*
D03*
X1006973Y576351D02*
D03*
X996973D02*
D03*
X986973D02*
D03*
X976973D02*
D03*
X966973D02*
D03*
X956973D02*
D03*
X946973D02*
D03*
X936973D02*
D03*
X926973D02*
D03*
X916973D02*
D03*
X906973D02*
D03*
X896973D02*
D03*
X886973D02*
D03*
X876973D02*
D03*
X866973D02*
D03*
X856973D02*
D03*
X1006973Y586351D02*
D03*
X996973D02*
D03*
X986973D02*
D03*
X976973D02*
D03*
X966973D02*
D03*
X956973D02*
D03*
X946973D02*
D03*
X936973D02*
D03*
X926973D02*
D03*
X916973D02*
D03*
X906973D02*
D03*
X896973D02*
D03*
X886973D02*
D03*
X876973D02*
D03*
X866973D02*
D03*
X856973D02*
D03*
X1006973Y596351D02*
D03*
X996973D02*
D03*
X986973D02*
D03*
X976973D02*
D03*
X966973D02*
D03*
X956973D02*
D03*
X946973D02*
D03*
X936973D02*
D03*
X926973D02*
D03*
X916973D02*
D03*
X906973D02*
D03*
X896973D02*
D03*
X886973D02*
D03*
X876973D02*
D03*
X866973D02*
D03*
X856973D02*
D03*
X1006973Y606352D02*
D03*
X996973D02*
D03*
X986973D02*
D03*
X976973D02*
D03*
X966973D02*
D03*
X956973D02*
D03*
X946973D02*
D03*
X936973D02*
D03*
X926973D02*
D03*
X916973D02*
D03*
X906973D02*
D03*
X896973D02*
D03*
X886973D02*
D03*
X876973D02*
D03*
X866973D02*
D03*
X856973D02*
D03*
X1006973Y616352D02*
D03*
X996973D02*
D03*
X986973D02*
D03*
X976973D02*
D03*
X966973D02*
D03*
X956973D02*
D03*
X946973D02*
D03*
X936973D02*
D03*
X926973D02*
D03*
X916973D02*
D03*
X906973D02*
D03*
X896973D02*
D03*
X886973D02*
D03*
X876973D02*
D03*
X866973D02*
D03*
X856973D02*
D03*
X1006973Y626352D02*
D03*
X996973D02*
D03*
X986973D02*
D03*
X976973D02*
D03*
X966973D02*
D03*
X956973D02*
D03*
X946973D02*
D03*
X936973D02*
D03*
X926973D02*
D03*
X916973D02*
D03*
X906973D02*
D03*
X896973D02*
D03*
X886973D02*
D03*
X876973D02*
D03*
X866973D02*
D03*
X856973D02*
D03*
X1006973Y636352D02*
D03*
X996973D02*
D03*
X986973D02*
D03*
X976973D02*
D03*
X966973D02*
D03*
X956973D02*
D03*
X946973D02*
D03*
X936973D02*
D03*
X926973D02*
D03*
X916973D02*
D03*
X906973D02*
D03*
X896973D02*
D03*
X886973D02*
D03*
X876973D02*
D03*
X866973D02*
D03*
X856973D02*
D03*
X1006973Y646352D02*
D03*
X996973D02*
D03*
X986973D02*
D03*
X976973D02*
D03*
X966973D02*
D03*
X956973D02*
D03*
X946973D02*
D03*
X936973D02*
D03*
X926973D02*
D03*
X916973D02*
D03*
X906973D02*
D03*
X896973D02*
D03*
X886973D02*
D03*
X876973D02*
D03*
X866973D02*
D03*
X856973D02*
D03*
X1006973Y656352D02*
D03*
X996973D02*
D03*
X986973D02*
D03*
X976973D02*
D03*
X966973D02*
D03*
X956973D02*
D03*
X946973D02*
D03*
X936973D02*
D03*
X926973D02*
D03*
X916973D02*
D03*
X906973D02*
D03*
X896973D02*
D03*
X886973D02*
D03*
X876973D02*
D03*
X866973D02*
D03*
X856973D02*
D03*
X1006973Y666352D02*
D03*
X996973D02*
D03*
X986973D02*
D03*
X976973D02*
D03*
X966973D02*
D03*
X956973D02*
D03*
X946973D02*
D03*
X936973D02*
D03*
X926973D02*
D03*
X916973D02*
D03*
X906973D02*
D03*
X896973D02*
D03*
X886973D02*
D03*
X876973D02*
D03*
X866973D02*
D03*
X856973D02*
D03*
X1006973Y676352D02*
D03*
X996973D02*
D03*
X986973D02*
D03*
X976973D02*
D03*
X966973D02*
D03*
X956973D02*
D03*
X946973D02*
D03*
X936973D02*
D03*
X926973D02*
D03*
X916973D02*
D03*
X906973D02*
D03*
X896973D02*
D03*
X886973D02*
D03*
X876973D02*
D03*
X866973D02*
D03*
X856973D02*
D03*
X1006973Y686352D02*
D03*
X996973D02*
D03*
X986973D02*
D03*
X976973D02*
D03*
X966973D02*
D03*
X956973D02*
D03*
X946973D02*
D03*
X936973D02*
D03*
X926973D02*
D03*
X916973D02*
D03*
X906973D02*
D03*
X896973D02*
D03*
X886973D02*
D03*
X876973D02*
D03*
X866973D02*
D03*
X856973D02*
D03*
D32*
X961517Y1400750D02*
D03*
Y1384750D02*
D03*
X932574Y1400750D02*
D03*
Y1384750D02*
D03*
X903631Y1400750D02*
D03*
Y1384750D02*
D03*
X874689Y1400750D02*
D03*
Y1384750D02*
D03*
X75250Y100250D02*
D03*
Y116250D02*
D03*
X38000Y100000D02*
D03*
Y116000D02*
D03*
X1026750Y465750D02*
D03*
Y449750D02*
D03*
X112000Y100250D02*
D03*
Y116250D02*
D03*
X148750Y100250D02*
D03*
Y116250D02*
D03*
X185500Y100250D02*
D03*
Y116250D02*
D03*
X222250Y100250D02*
D03*
Y116250D02*
D03*
X259000Y100250D02*
D03*
Y116250D02*
D03*
X295750Y100250D02*
D03*
Y116250D02*
D03*
D33*
X457500Y725700D02*
D03*
X471500D02*
D03*
X753250Y1077250D02*
D03*
X767250D02*
D03*
D34*
X319500Y823999D02*
D03*
X303500D02*
D03*
X319500Y798916D02*
D03*
X303500D02*
D03*
X319500Y773833D02*
D03*
X303500D02*
D03*
X319500Y748749D02*
D03*
X303500D02*
D03*
D35*
X1149900Y1308500D02*
D03*
X1143400D02*
D03*
X1136900D02*
D03*
X1130400D02*
D03*
X1123900D02*
D03*
X1117400D02*
D03*
X1110900D02*
D03*
X1104400D02*
D03*
X1097900D02*
D03*
X1091400D02*
D03*
X1084900D02*
D03*
X1078400D02*
D03*
X1071900D02*
D03*
X1065400D02*
D03*
X1149900Y1240500D02*
D03*
X1143400D02*
D03*
X1136900D02*
D03*
X1130400D02*
D03*
X1123900D02*
D03*
X1117400D02*
D03*
X1110900D02*
D03*
X1104400D02*
D03*
X1097900D02*
D03*
X1091400D02*
D03*
X1084900D02*
D03*
X1078400D02*
D03*
X1071900D02*
D03*
X1065400D02*
D03*
D36*
X147000Y1217500D02*
D03*
Y1208000D02*
D03*
Y1198500D02*
D03*
X171000D02*
D03*
Y1208000D02*
D03*
Y1217500D02*
D03*
X183250Y847500D02*
D03*
Y857000D02*
D03*
Y866500D02*
D03*
X159250D02*
D03*
Y857000D02*
D03*
Y847500D02*
D03*
X134750Y1089750D02*
D03*
Y1080250D02*
D03*
Y1070750D02*
D03*
X158750D02*
D03*
Y1080250D02*
D03*
Y1089750D02*
D03*
D37*
X226250Y1121750D02*
D03*
X231500D02*
D03*
D38*
X734450Y1095750D02*
D03*
X785250D02*
D03*
Y1137750D02*
D03*
X734450D02*
D03*
D39*
X391000Y1449750D02*
D03*
Y1404750D02*
D03*
X470500D02*
D03*
Y1449750D02*
D03*
D40*
X556000Y99800D02*
D03*
Y87100D02*
D03*
Y74400D02*
D03*
Y61700D02*
D03*
X627500Y99800D02*
D03*
Y87100D02*
D03*
Y74400D02*
D03*
Y61700D02*
D03*
D41*
X539250Y369500D02*
D03*
X545750D02*
D03*
X552250D02*
D03*
X558750D02*
D03*
X565250D02*
D03*
X571750D02*
D03*
X578250D02*
D03*
X539250Y426500D02*
D03*
X545750D02*
D03*
X552250D02*
D03*
X558750D02*
D03*
X565250D02*
D03*
X571750D02*
D03*
X578250D02*
D03*
D90*
X505750Y735850D02*
Y739750D01*
X510750Y735850D02*
Y739750D01*
X515750Y735850D02*
Y739750D01*
X520750Y735850D02*
Y739750D01*
X525750Y735850D02*
Y739750D01*
X530750Y735850D02*
Y739750D01*
X535750Y735850D02*
Y739750D01*
X540750Y735850D02*
Y739750D01*
X547150Y729450D02*
X551050D01*
X547150Y724450D02*
X551050D01*
X547150Y719450D02*
X551050D01*
X547150Y714450D02*
X551050D01*
X547150Y709450D02*
X551050D01*
X547150Y704450D02*
X551050D01*
X547150Y699450D02*
X551050D01*
X547150Y694450D02*
X551050D01*
X540750Y684150D02*
Y688050D01*
X535750Y684150D02*
Y688050D01*
X530750Y684150D02*
Y688050D01*
X525750Y684150D02*
Y688050D01*
X520750Y684150D02*
Y688050D01*
X515750Y684150D02*
Y688050D01*
X510750Y684150D02*
Y688050D01*
X505750Y684150D02*
Y688050D01*
X495450Y694450D02*
X499350D01*
X495450Y699450D02*
X499350D01*
X495450Y704450D02*
X499350D01*
X495450Y709450D02*
X499350D01*
X495450Y714450D02*
X499350D01*
X495450Y719450D02*
X499350D01*
X495450Y724450D02*
X499350D01*
X495450Y729450D02*
X499350D01*
M02*
