G04 Layer_Physical_Order=1*
G04 Layer_Color=255*
%FSLAX44Y44*%
%MOMM*%
G71*
G01*
G75*
%ADD10R,1.0000X0.9000*%
%ADD11R,1.1000X1.1000*%
%ADD12R,0.8000X0.8000*%
%ADD13R,0.7000X0.4500*%
%ADD14R,0.9000X0.7000*%
%ADD15R,0.9000X1.0000*%
%ADD16R,1.1000X1.1000*%
%ADD17O,0.3500X1.7000*%
%ADD18C,0.4500*%
%ADD19O,1.7000X0.6000*%
%ADD20R,1.5500X1.3000*%
%ADD21R,1.8000X2.0000*%
%ADD22R,0.3000X0.3000*%
G04:AMPARAMS|DCode=23|XSize=3.5mm|YSize=2.05mm|CornerRadius=0.5125mm|HoleSize=0mm|Usage=FLASHONLY|Rotation=180.000|XOffset=0mm|YOffset=0mm|HoleType=Round|Shape=RoundedRectangle|*
%AMROUNDEDRECTD23*
21,1,3.5000,1.0250,0,0,180.0*
21,1,2.4750,2.0500,0,0,180.0*
1,1,1.0250,-1.2375,0.5125*
1,1,1.0250,1.2375,0.5125*
1,1,1.0250,1.2375,-0.5125*
1,1,1.0250,-1.2375,-0.5125*
%
%ADD23ROUNDEDRECTD23*%
G04:AMPARAMS|DCode=24|XSize=4mm|YSize=2.05mm|CornerRadius=0.5125mm|HoleSize=0mm|Usage=FLASHONLY|Rotation=180.000|XOffset=0mm|YOffset=0mm|HoleType=Round|Shape=RoundedRectangle|*
%AMROUNDEDRECTD24*
21,1,4.0000,1.0250,0,0,180.0*
21,1,2.9750,2.0500,0,0,180.0*
1,1,1.0250,-1.4875,0.5125*
1,1,1.0250,1.4875,0.5125*
1,1,1.0250,1.4875,-0.5125*
1,1,1.0250,-1.4875,-0.5125*
%
%ADD24ROUNDEDRECTD24*%
G04:AMPARAMS|DCode=25|XSize=3.5mm|YSize=2.05mm|CornerRadius=0.5125mm|HoleSize=0mm|Usage=FLASHONLY|Rotation=180.000|XOffset=0mm|YOffset=0mm|HoleType=Round|Shape=RoundedRectangle|*
%AMROUNDEDRECTD25*
21,1,3.5000,1.0250,0,0,180.0*
21,1,2.4750,2.0500,0,0,180.0*
1,1,1.0250,-1.2375,0.5125*
1,1,1.0250,1.2375,0.5125*
1,1,1.0250,1.2375,-0.5125*
1,1,1.0250,-1.2375,-0.5125*
%
%ADD25ROUNDEDRECTD25*%
G04:AMPARAMS|DCode=26|XSize=2.8mm|YSize=0.5mm|CornerRadius=0.125mm|HoleSize=0mm|Usage=FLASHONLY|Rotation=180.000|XOffset=0mm|YOffset=0mm|HoleType=Round|Shape=RoundedRectangle|*
%AMROUNDEDRECTD26*
21,1,2.8000,0.2500,0,0,180.0*
21,1,2.5500,0.5000,0,0,180.0*
1,1,0.2500,-1.2750,0.1250*
1,1,0.2500,1.2750,0.1250*
1,1,0.2500,1.2750,-0.1250*
1,1,0.2500,-1.2750,-0.1250*
%
%ADD26ROUNDEDRECTD26*%
%ADD27O,0.3500X1.8000*%
%ADD28R,0.7000X0.9000*%
%ADD29R,0.8000X0.8000*%
%ADD30R,1.3000X1.5500*%
%ADD31R,1.7000X0.9500*%
%ADD32R,3.3000X3.3000*%
%ADD33O,0.6900X0.2800*%
%ADD34O,0.2800X0.6900*%
%ADD35R,2.0000X1.8000*%
G04:AMPARAMS|DCode=36|XSize=3.5mm|YSize=2.05mm|CornerRadius=0.5125mm|HoleSize=0mm|Usage=FLASHONLY|Rotation=90.000|XOffset=0mm|YOffset=0mm|HoleType=Round|Shape=RoundedRectangle|*
%AMROUNDEDRECTD36*
21,1,3.5000,1.0250,0,0,90.0*
21,1,2.4750,2.0500,0,0,90.0*
1,1,1.0250,0.5125,1.2375*
1,1,1.0250,0.5125,-1.2375*
1,1,1.0250,-0.5125,-1.2375*
1,1,1.0250,-0.5125,1.2375*
%
%ADD36ROUNDEDRECTD36*%
G04:AMPARAMS|DCode=37|XSize=4mm|YSize=2.05mm|CornerRadius=0.5125mm|HoleSize=0mm|Usage=FLASHONLY|Rotation=90.000|XOffset=0mm|YOffset=0mm|HoleType=Round|Shape=RoundedRectangle|*
%AMROUNDEDRECTD37*
21,1,4.0000,1.0250,0,0,90.0*
21,1,2.9750,2.0500,0,0,90.0*
1,1,1.0250,0.5125,1.4875*
1,1,1.0250,0.5125,-1.4875*
1,1,1.0250,-0.5125,-1.4875*
1,1,1.0250,-0.5125,1.4875*
%
%ADD37ROUNDEDRECTD37*%
G04:AMPARAMS|DCode=38|XSize=3.5mm|YSize=2.05mm|CornerRadius=0.5125mm|HoleSize=0mm|Usage=FLASHONLY|Rotation=90.000|XOffset=0mm|YOffset=0mm|HoleType=Round|Shape=RoundedRectangle|*
%AMROUNDEDRECTD38*
21,1,3.5000,1.0250,0,0,90.0*
21,1,2.4750,2.0500,0,0,90.0*
1,1,1.0250,0.5125,1.2375*
1,1,1.0250,0.5125,-1.2375*
1,1,1.0250,-0.5125,-1.2375*
1,1,1.0250,-0.5125,1.2375*
%
%ADD38ROUNDEDRECTD38*%
G04:AMPARAMS|DCode=39|XSize=2.8mm|YSize=0.5mm|CornerRadius=0.125mm|HoleSize=0mm|Usage=FLASHONLY|Rotation=90.000|XOffset=0mm|YOffset=0mm|HoleType=Round|Shape=RoundedRectangle|*
%AMROUNDEDRECTD39*
21,1,2.8000,0.2500,0,0,90.0*
21,1,2.5500,0.5000,0,0,90.0*
1,1,0.2500,0.1250,1.2750*
1,1,0.2500,0.1250,-1.2750*
1,1,0.2500,-0.1250,-1.2750*
1,1,0.2500,-0.1250,1.2750*
%
%ADD39ROUNDEDRECTD39*%
%ADD40R,8.3000X10.4500*%
%ADD41R,3.2000X1.0500*%
%ADD42C,0.2000*%
%ADD43C,0.3000*%
%ADD44C,0.4000*%
%ADD45C,0.5000*%
%ADD46C,0.1000*%
%ADD47C,0.7000*%
%ADD48C,0.2540*%
%ADD49C,1.0000*%
%ADD50C,0.6000*%
%ADD51R,1.5500X1.5500*%
%ADD52C,1.5500*%
%ADD53R,1.5200X1.5200*%
%ADD54C,1.5200*%
%ADD55R,1.5200X1.5200*%
%ADD56R,1.5500X1.5500*%
%ADD57R,2.0500X2.0500*%
%ADD58C,2.0500*%
%ADD59C,0.9000*%
%ADD60R,1.5000X1.5000*%
%ADD61C,1.5000*%
%ADD62R,1.5000X1.5000*%
%ADD63C,1.3000*%
%ADD64R,1.3000X1.3000*%
%ADD65C,0.5000*%
%ADD66C,0.4000*%
%ADD67C,1.0000*%
G36*
X186500Y241250D02*
X177000Y231750D01*
X2039D01*
Y713500D01*
X186500D01*
Y241250D01*
D02*
G37*
%LPC*%
G36*
X12230Y476205D02*
X11533Y476067D01*
X9866Y474953D01*
X8752Y473286D01*
X8614Y472589D01*
X12230D01*
Y476205D01*
D02*
G37*
G36*
X14770D02*
Y472589D01*
X18386D01*
X18248Y473286D01*
X17134Y474953D01*
X15467Y476067D01*
X14770Y476205D01*
D02*
G37*
G36*
X53730Y479397D02*
X50114D01*
X50252Y478700D01*
X51366Y477033D01*
X53033Y475919D01*
X53730Y475781D01*
Y479397D01*
D02*
G37*
G36*
X56270Y463819D02*
Y460203D01*
X59886D01*
X59748Y460900D01*
X58634Y462567D01*
X56967Y463681D01*
X56270Y463819D01*
D02*
G37*
G36*
X12230Y470049D02*
X8614D01*
X8752Y469353D01*
X9866Y467686D01*
X11533Y466572D01*
X12230Y466433D01*
Y470049D01*
D02*
G37*
G36*
X18386D02*
X14770D01*
Y466433D01*
X15467Y466572D01*
X17134Y467686D01*
X18248Y469353D01*
X18386Y470049D01*
D02*
G37*
G36*
X12230Y490702D02*
X8614D01*
X8752Y490006D01*
X9866Y488339D01*
X11533Y487225D01*
X12230Y487086D01*
Y490702D01*
D02*
G37*
G36*
X18386D02*
X14770D01*
Y487086D01*
X15467Y487225D01*
X17134Y488339D01*
X18248Y490006D01*
X18386Y490702D01*
D02*
G37*
G36*
X117730Y544290D02*
X74960D01*
Y490770D01*
X117730D01*
Y544290D01*
D02*
G37*
G36*
X59886Y479397D02*
X56270D01*
Y475781D01*
X56967Y475919D01*
X58634Y477033D01*
X59748Y478700D01*
X59886Y479397D01*
D02*
G37*
G36*
X53730Y485553D02*
X53033Y485414D01*
X51366Y484300D01*
X50252Y482633D01*
X50114Y481937D01*
X53730D01*
Y485553D01*
D02*
G37*
G36*
X56270D02*
Y481937D01*
X59886D01*
X59748Y482633D01*
X58634Y484300D01*
X56967Y485414D01*
X56270Y485553D01*
D02*
G37*
G36*
X53730Y463819D02*
X53033Y463681D01*
X51366Y462567D01*
X50252Y460900D01*
X50114Y460203D01*
X53730D01*
Y463819D01*
D02*
G37*
G36*
X163040Y488230D02*
X119000D01*
X74960D01*
Y434710D01*
X74960D01*
X75311Y434053D01*
X74752Y433217D01*
X74614Y432520D01*
X84386D01*
X84248Y433217D01*
X83998Y433590D01*
X84597Y434710D01*
X92307D01*
X92986Y433440D01*
X92502Y432716D01*
X92364Y432020D01*
X102136D01*
X101998Y432716D01*
X101514Y433440D01*
X102193Y434710D01*
X113365D01*
X113737Y433440D01*
X112752Y431967D01*
X112614Y431270D01*
X122386D01*
X122248Y431967D01*
X121263Y433440D01*
X121635Y434710D01*
X134365D01*
X134737Y433440D01*
X133752Y431967D01*
X133614Y431270D01*
X143386D01*
X143248Y431967D01*
X142263Y433440D01*
X142635Y434710D01*
X153126D01*
X153251Y433440D01*
X152283Y433248D01*
X150616Y432134D01*
X149502Y430466D01*
X149364Y429770D01*
X159136D01*
X158998Y430466D01*
X157884Y432134D01*
X156216Y433248D01*
X155249Y433440D01*
X155374Y434710D01*
X163040D01*
Y488230D01*
D02*
G37*
G36*
X53730Y442086D02*
X53033Y441948D01*
X51366Y440834D01*
X50252Y439166D01*
X50114Y438470D01*
X53730D01*
Y442086D01*
D02*
G37*
G36*
X56270D02*
Y438470D01*
X59886D01*
X59748Y439166D01*
X58634Y440834D01*
X56967Y441948D01*
X56270Y442086D01*
D02*
G37*
G36*
X14770Y434900D02*
Y431284D01*
X18386D01*
X18248Y431980D01*
X17134Y433647D01*
X15467Y434761D01*
X14770Y434900D01*
D02*
G37*
G36*
X53730Y435930D02*
X50114D01*
X50252Y435233D01*
X51366Y433566D01*
X53033Y432452D01*
X53730Y432314D01*
Y435930D01*
D02*
G37*
G36*
X59886D02*
X56270D01*
Y432314D01*
X56967Y432452D01*
X58634Y433566D01*
X59748Y435233D01*
X59886Y435930D01*
D02*
G37*
G36*
X14770Y455553D02*
Y451937D01*
X18386D01*
X18248Y452633D01*
X17134Y454300D01*
X15467Y455414D01*
X14770Y455553D01*
D02*
G37*
G36*
X53730Y457663D02*
X50114D01*
X50252Y456967D01*
X51366Y455300D01*
X53033Y454186D01*
X53730Y454047D01*
Y457663D01*
D02*
G37*
G36*
X59886D02*
X56270D01*
Y454047D01*
X56967Y454186D01*
X58634Y455300D01*
X59748Y456967D01*
X59886Y457663D01*
D02*
G37*
G36*
X12230Y449397D02*
X8614D01*
X8752Y448700D01*
X9866Y447033D01*
X11533Y445919D01*
X12230Y445780D01*
Y449397D01*
D02*
G37*
G36*
X18386D02*
X14770D01*
Y445780D01*
X15467Y445919D01*
X17134Y447033D01*
X18248Y448700D01*
X18386Y449397D01*
D02*
G37*
G36*
X12230Y455553D02*
X11533Y455414D01*
X9866Y454300D01*
X8752Y452633D01*
X8614Y451937D01*
X12230D01*
Y455553D01*
D02*
G37*
G36*
X18386Y532008D02*
X14770D01*
Y528392D01*
X15467Y528530D01*
X17134Y529644D01*
X18248Y531311D01*
X18386Y532008D01*
D02*
G37*
G36*
X12230Y538164D02*
X11533Y538025D01*
X9866Y536911D01*
X8752Y535244D01*
X8614Y534548D01*
X12230D01*
Y538164D01*
D02*
G37*
G36*
X14770D02*
Y534548D01*
X18386D01*
X18248Y535244D01*
X17134Y536911D01*
X15467Y538025D01*
X14770Y538164D01*
D02*
G37*
G36*
X53730Y529019D02*
X53033Y528881D01*
X51366Y527767D01*
X50252Y526100D01*
X50114Y525403D01*
X53730D01*
Y529019D01*
D02*
G37*
G36*
X56270D02*
Y525403D01*
X59886D01*
X59748Y526100D01*
X58634Y527767D01*
X56967Y528881D01*
X56270Y529019D01*
D02*
G37*
G36*
X12230Y532008D02*
X8614D01*
X8752Y531311D01*
X9866Y529644D01*
X11533Y528530D01*
X12230Y528392D01*
Y532008D01*
D02*
G37*
G36*
X56270Y550753D02*
Y547137D01*
X59886D01*
X59748Y547833D01*
X58634Y549500D01*
X56967Y550614D01*
X56270Y550753D01*
D02*
G37*
G36*
X12230Y552660D02*
X8614D01*
X8752Y551964D01*
X9866Y550297D01*
X11533Y549183D01*
X12230Y549044D01*
Y552660D01*
D02*
G37*
G36*
X18386D02*
X14770D01*
Y549044D01*
X15467Y549183D01*
X17134Y550297D01*
X18248Y551964D01*
X18386Y552660D01*
D02*
G37*
G36*
X53730Y544597D02*
X50114D01*
X50252Y543900D01*
X51366Y542233D01*
X53033Y541119D01*
X53730Y540981D01*
Y544597D01*
D02*
G37*
G36*
X59886D02*
X56270D01*
Y540981D01*
X56967Y541119D01*
X58634Y542233D01*
X59748Y543900D01*
X59886Y544597D01*
D02*
G37*
G36*
X53730Y550753D02*
X53033Y550614D01*
X51366Y549500D01*
X50252Y547833D01*
X50114Y547137D01*
X53730D01*
Y550753D01*
D02*
G37*
G36*
X59886Y522863D02*
X56270D01*
Y519247D01*
X56967Y519386D01*
X58634Y520500D01*
X59748Y522167D01*
X59886Y522863D01*
D02*
G37*
G36*
X53730Y501130D02*
X50114D01*
X50252Y500434D01*
X51366Y498766D01*
X53033Y497652D01*
X53730Y497514D01*
Y501130D01*
D02*
G37*
G36*
X59886D02*
X56270D01*
Y497514D01*
X56967Y497652D01*
X58634Y498766D01*
X59748Y500434D01*
X59886Y501130D01*
D02*
G37*
G36*
X53730Y507286D02*
X53033Y507148D01*
X51366Y506034D01*
X50252Y504366D01*
X50114Y503670D01*
X53730D01*
Y507286D01*
D02*
G37*
G36*
X163040Y544290D02*
X120270D01*
Y490770D01*
X163040D01*
Y544290D01*
D02*
G37*
G36*
X12230Y496858D02*
X11533Y496720D01*
X9866Y495606D01*
X8752Y493939D01*
X8614Y493242D01*
X12230D01*
Y496858D01*
D02*
G37*
G36*
X14770D02*
Y493242D01*
X18386D01*
X18248Y493939D01*
X17134Y495606D01*
X15467Y496720D01*
X14770Y496858D01*
D02*
G37*
G36*
X12230Y517511D02*
X11533Y517372D01*
X9866Y516259D01*
X8752Y514591D01*
X8614Y513895D01*
X12230D01*
Y517511D01*
D02*
G37*
G36*
X14770D02*
Y513895D01*
X18386D01*
X18248Y514591D01*
X17134Y516259D01*
X15467Y517372D01*
X14770Y517511D01*
D02*
G37*
G36*
X53730Y522863D02*
X50114D01*
X50252Y522167D01*
X51366Y520500D01*
X53033Y519386D01*
X53730Y519247D01*
Y522863D01*
D02*
G37*
G36*
X56270Y507286D02*
Y503670D01*
X59886D01*
X59748Y504366D01*
X58634Y506034D01*
X56967Y507148D01*
X56270Y507286D01*
D02*
G37*
G36*
X12230Y511355D02*
X8614D01*
X8752Y510658D01*
X9866Y508991D01*
X11533Y507877D01*
X12230Y507739D01*
Y511355D01*
D02*
G37*
G36*
X18386D02*
X14770D01*
Y507739D01*
X15467Y507877D01*
X17134Y508991D01*
X18248Y510658D01*
X18386Y511355D01*
D02*
G37*
G36*
X59886Y370730D02*
X56270D01*
Y367114D01*
X56967Y367252D01*
X58634Y368366D01*
X59748Y370033D01*
X59886Y370730D01*
D02*
G37*
G36*
X12230Y372942D02*
X11533Y372803D01*
X9866Y371689D01*
X8752Y370022D01*
X8614Y369325D01*
X12230D01*
Y372942D01*
D02*
G37*
G36*
X14770D02*
Y369325D01*
X18386D01*
X18248Y370022D01*
X17134Y371689D01*
X15467Y372803D01*
X14770Y372942D01*
D02*
G37*
G36*
X117730Y419790D02*
X74960D01*
Y366270D01*
X117730D01*
Y419790D01*
D02*
G37*
G36*
X163040D02*
X120270D01*
Y366270D01*
X163040D01*
Y419790D01*
D02*
G37*
G36*
X53730Y370730D02*
X50114D01*
X50252Y370033D01*
X51366Y368366D01*
X53033Y367252D01*
X53730Y367114D01*
Y370730D01*
D02*
G37*
G36*
X18386Y387438D02*
X14770D01*
Y383822D01*
X15467Y383961D01*
X17134Y385075D01*
X18248Y386742D01*
X18386Y387438D01*
D02*
G37*
G36*
X53730Y392463D02*
X50114D01*
X50252Y391767D01*
X51366Y390100D01*
X53033Y388986D01*
X53730Y388847D01*
Y392463D01*
D02*
G37*
G36*
X59886D02*
X56270D01*
Y388847D01*
X56967Y388986D01*
X58634Y390100D01*
X59748Y391767D01*
X59886Y392463D01*
D02*
G37*
G36*
X53730Y376886D02*
X53033Y376748D01*
X51366Y375634D01*
X50252Y373966D01*
X50114Y373270D01*
X53730D01*
Y376886D01*
D02*
G37*
G36*
X56270D02*
Y373270D01*
X59886D01*
X59748Y373966D01*
X58634Y375634D01*
X56967Y376748D01*
X56270Y376886D01*
D02*
G37*
G36*
X12230Y387438D02*
X8614D01*
X8752Y386742D01*
X9866Y385075D01*
X11533Y383961D01*
X12230Y383822D01*
Y387438D01*
D02*
G37*
G36*
X18386Y366786D02*
X14770D01*
Y363169D01*
X15467Y363308D01*
X17134Y364422D01*
X18248Y366089D01*
X18386Y366786D01*
D02*
G37*
G36*
X12230Y325480D02*
X8614D01*
X8752Y324784D01*
X9866Y323116D01*
X11533Y322002D01*
X12230Y321864D01*
Y325480D01*
D02*
G37*
G36*
X18386D02*
X14770D01*
Y321864D01*
X15467Y322002D01*
X17134Y323116D01*
X18248Y324784D01*
X18386Y325480D01*
D02*
G37*
G36*
X12230Y331636D02*
X11533Y331498D01*
X9866Y330384D01*
X8752Y328717D01*
X8614Y328020D01*
X12230D01*
Y331636D01*
D02*
G37*
G36*
X158750Y259319D02*
X157384Y259047D01*
X156227Y258273D01*
X155453Y257116D01*
X155181Y255750D01*
X155453Y254384D01*
X156227Y253227D01*
X157384Y252453D01*
X158750Y252181D01*
X160116Y252453D01*
X161273Y253227D01*
X162047Y254384D01*
X162319Y255750D01*
X162047Y257116D01*
X161273Y258273D01*
X160116Y259047D01*
X158750Y259319D01*
D02*
G37*
G36*
X117730Y363730D02*
X74960D01*
Y310210D01*
X117730D01*
Y363730D01*
D02*
G37*
G36*
X163040D02*
X120270D01*
Y310210D01*
X163040D01*
Y363730D01*
D02*
G37*
G36*
X12230Y352289D02*
X11533Y352150D01*
X9866Y351036D01*
X8752Y349369D01*
X8614Y348673D01*
X12230D01*
Y352289D01*
D02*
G37*
G36*
X14770D02*
Y348673D01*
X18386D01*
X18248Y349369D01*
X17134Y351036D01*
X15467Y352150D01*
X14770Y352289D01*
D02*
G37*
G36*
X12230Y366786D02*
X8614D01*
X8752Y366089D01*
X9866Y364422D01*
X11533Y363308D01*
X12230Y363169D01*
Y366786D01*
D02*
G37*
G36*
X14770Y331636D02*
Y328020D01*
X18386D01*
X18248Y328717D01*
X17134Y330384D01*
X15467Y331498D01*
X14770Y331636D01*
D02*
G37*
G36*
X12230Y346133D02*
X8614D01*
X8752Y345436D01*
X9866Y343769D01*
X11533Y342655D01*
X12230Y342517D01*
Y346133D01*
D02*
G37*
G36*
X18386D02*
X14770D01*
Y342517D01*
X15467Y342655D01*
X17134Y343769D01*
X18248Y345436D01*
X18386Y346133D01*
D02*
G37*
G36*
X137230Y428730D02*
X133614D01*
X133752Y428033D01*
X134866Y426366D01*
X136533Y425252D01*
X137230Y425114D01*
Y428730D01*
D02*
G37*
G36*
X143386D02*
X139770D01*
Y425114D01*
X140466Y425252D01*
X142134Y426366D01*
X143248Y428033D01*
X143386Y428730D01*
D02*
G37*
G36*
X12230Y428744D02*
X8614D01*
X8752Y428047D01*
X9866Y426380D01*
X11533Y425266D01*
X12230Y425128D01*
Y428744D01*
D02*
G37*
G36*
X159136Y427230D02*
X155520D01*
Y423614D01*
X156216Y423752D01*
X157884Y424866D01*
X158998Y426534D01*
X159136Y427230D01*
D02*
G37*
G36*
X116230Y428730D02*
X112614D01*
X112752Y428033D01*
X113866Y426366D01*
X115534Y425252D01*
X116230Y425114D01*
Y428730D01*
D02*
G37*
G36*
X122386D02*
X118770D01*
Y425114D01*
X119466Y425252D01*
X121134Y426366D01*
X122248Y428033D01*
X122386Y428730D01*
D02*
G37*
G36*
X78230Y429980D02*
X74614D01*
X74752Y429283D01*
X75866Y427616D01*
X77533Y426502D01*
X78230Y426364D01*
Y429980D01*
D02*
G37*
G36*
X84386D02*
X80770D01*
Y426364D01*
X81467Y426502D01*
X83134Y427616D01*
X84248Y429283D01*
X84386Y429980D01*
D02*
G37*
G36*
X12230Y434900D02*
X11533Y434761D01*
X9866Y433647D01*
X8752Y431980D01*
X8614Y431284D01*
X12230D01*
Y434900D01*
D02*
G37*
G36*
X18386Y428744D02*
X14770D01*
Y425128D01*
X15467Y425266D01*
X17134Y426380D01*
X18248Y428047D01*
X18386Y428744D01*
D02*
G37*
G36*
X95980Y429480D02*
X92364D01*
X92502Y428783D01*
X93616Y427116D01*
X95283Y426002D01*
X95980Y425864D01*
Y429480D01*
D02*
G37*
G36*
X102136D02*
X98520D01*
Y425864D01*
X99216Y426002D01*
X100884Y427116D01*
X101998Y428783D01*
X102136Y429480D01*
D02*
G37*
G36*
X152980Y427230D02*
X149364D01*
X149502Y426534D01*
X150616Y424866D01*
X152283Y423752D01*
X152980Y423614D01*
Y427230D01*
D02*
G37*
G36*
X56270Y398619D02*
Y395003D01*
X59886D01*
X59748Y395700D01*
X58634Y397367D01*
X56967Y398481D01*
X56270Y398619D01*
D02*
G37*
G36*
X12230Y408091D02*
X8614D01*
X8752Y407395D01*
X9866Y405727D01*
X11533Y404613D01*
X12230Y404475D01*
Y408091D01*
D02*
G37*
G36*
X18386D02*
X14770D01*
Y404475D01*
X15467Y404613D01*
X17134Y405727D01*
X18248Y407395D01*
X18386Y408091D01*
D02*
G37*
G36*
X12230Y393594D02*
X11533Y393456D01*
X9866Y392342D01*
X8752Y390675D01*
X8614Y389978D01*
X12230D01*
Y393594D01*
D02*
G37*
G36*
X14770D02*
Y389978D01*
X18386D01*
X18248Y390675D01*
X17134Y392342D01*
X15467Y393456D01*
X14770Y393594D01*
D02*
G37*
G36*
X53730Y398619D02*
X53033Y398481D01*
X51366Y397367D01*
X50252Y395700D01*
X50114Y395003D01*
X53730D01*
Y398619D01*
D02*
G37*
G36*
X14770Y414247D02*
Y410631D01*
X18386D01*
X18248Y411328D01*
X17134Y412995D01*
X15467Y414109D01*
X14770Y414247D01*
D02*
G37*
G36*
X53730Y420353D02*
X53033Y420214D01*
X51366Y419100D01*
X50252Y417433D01*
X50114Y416737D01*
X53730D01*
Y420353D01*
D02*
G37*
G36*
X56270D02*
Y416737D01*
X59886D01*
X59748Y417433D01*
X58634Y419100D01*
X56967Y420214D01*
X56270Y420353D01*
D02*
G37*
G36*
X53730Y414197D02*
X50114D01*
X50252Y413500D01*
X51366Y411833D01*
X53033Y410719D01*
X53730Y410581D01*
Y414197D01*
D02*
G37*
G36*
X59886D02*
X56270D01*
Y410581D01*
X56967Y410719D01*
X58634Y411833D01*
X59748Y413500D01*
X59886Y414197D01*
D02*
G37*
G36*
X12230Y414247D02*
X11533Y414109D01*
X9866Y412995D01*
X8752Y411328D01*
X8614Y410631D01*
X12230D01*
Y414247D01*
D02*
G37*
G36*
X76230Y554730D02*
X72614D01*
X72752Y554034D01*
X73866Y552366D01*
X75533Y551252D01*
X76230Y551114D01*
Y554730D01*
D02*
G37*
G36*
X12230Y662080D02*
X11533Y661942D01*
X9866Y660828D01*
X8752Y659161D01*
X8614Y658464D01*
X12230D01*
Y662080D01*
D02*
G37*
G36*
X14770D02*
Y658464D01*
X18386D01*
X18248Y659161D01*
X17134Y660828D01*
X15467Y661942D01*
X14770Y662080D01*
D02*
G37*
G36*
X53730Y674997D02*
X50114D01*
X50252Y674300D01*
X51366Y672633D01*
X53033Y671519D01*
X53730Y671380D01*
Y674997D01*
D02*
G37*
G36*
X18386Y655924D02*
X14770D01*
Y652308D01*
X15467Y652447D01*
X17134Y653561D01*
X18248Y655228D01*
X18386Y655924D01*
D02*
G37*
G36*
X53730Y659419D02*
X53033Y659281D01*
X51366Y658167D01*
X50252Y656500D01*
X50114Y655803D01*
X53730D01*
Y659419D01*
D02*
G37*
G36*
X56270D02*
Y655803D01*
X59886D01*
X59748Y656500D01*
X58634Y658167D01*
X56967Y659281D01*
X56270Y659419D01*
D02*
G37*
G36*
X53730Y681153D02*
X53033Y681014D01*
X51366Y679900D01*
X50252Y678233D01*
X50114Y677537D01*
X53730D01*
Y681153D01*
D02*
G37*
G36*
X56270D02*
Y677537D01*
X59886D01*
X59748Y678233D01*
X58634Y679900D01*
X56967Y681014D01*
X56270Y681153D01*
D02*
G37*
G36*
X12230Y682733D02*
X11533Y682595D01*
X9866Y681481D01*
X8752Y679814D01*
X8614Y679117D01*
X12230D01*
Y682733D01*
D02*
G37*
G36*
X59886Y674997D02*
X56270D01*
Y671380D01*
X56967Y671519D01*
X58634Y672633D01*
X59748Y674300D01*
X59886Y674997D01*
D02*
G37*
G36*
X12230Y676577D02*
X8614D01*
X8752Y675881D01*
X9866Y674213D01*
X11533Y673099D01*
X12230Y672961D01*
Y676577D01*
D02*
G37*
G36*
X18386D02*
X14770D01*
Y672961D01*
X15467Y673099D01*
X17134Y674213D01*
X18248Y675881D01*
X18386Y676577D01*
D02*
G37*
G36*
X12230Y655924D02*
X8614D01*
X8752Y655228D01*
X9866Y653561D01*
X11533Y652447D01*
X12230Y652308D01*
Y655924D01*
D02*
G37*
G36*
X59886Y631530D02*
X56270D01*
Y627914D01*
X56967Y628052D01*
X58634Y629166D01*
X59748Y630834D01*
X59886Y631530D01*
D02*
G37*
G36*
X12230Y635271D02*
X8614D01*
X8752Y634575D01*
X9866Y632908D01*
X11533Y631794D01*
X12230Y631655D01*
Y635271D01*
D02*
G37*
G36*
X18386D02*
X14770D01*
Y631655D01*
X15467Y631794D01*
X17134Y632908D01*
X18248Y634575D01*
X18386Y635271D01*
D02*
G37*
G36*
X117230Y674540D02*
X74460D01*
Y621020D01*
X117230D01*
Y674540D01*
D02*
G37*
G36*
X162540D02*
X119770D01*
Y621020D01*
X162540D01*
Y674540D01*
D02*
G37*
G36*
X53730Y631530D02*
X50114D01*
X50252Y630834D01*
X51366Y629166D01*
X53033Y628052D01*
X53730Y627914D01*
Y631530D01*
D02*
G37*
G36*
X14770Y641428D02*
Y637812D01*
X18386D01*
X18248Y638508D01*
X17134Y640175D01*
X15467Y641289D01*
X14770Y641428D01*
D02*
G37*
G36*
X53730Y653263D02*
X50114D01*
X50252Y652567D01*
X51366Y650900D01*
X53033Y649786D01*
X53730Y649647D01*
Y653263D01*
D02*
G37*
G36*
X59886D02*
X56270D01*
Y649647D01*
X56967Y649786D01*
X58634Y650900D01*
X59748Y652567D01*
X59886Y653263D01*
D02*
G37*
G36*
X53730Y637686D02*
X53033Y637547D01*
X51366Y636434D01*
X50252Y634767D01*
X50114Y634070D01*
X53730D01*
Y637686D01*
D02*
G37*
G36*
X56270D02*
Y634070D01*
X59886D01*
X59748Y634767D01*
X58634Y636434D01*
X56967Y637547D01*
X56270Y637686D01*
D02*
G37*
G36*
X12230Y641428D02*
X11533Y641289D01*
X9866Y640175D01*
X8752Y638508D01*
X8614Y637812D01*
X12230D01*
Y641428D01*
D02*
G37*
G36*
X132886Y700980D02*
X129270D01*
Y697364D01*
X129966Y697502D01*
X131634Y698616D01*
X132748Y700284D01*
X132886Y700980D01*
D02*
G37*
G36*
X53730Y702886D02*
X53033Y702747D01*
X51366Y701634D01*
X50252Y699967D01*
X50114Y699270D01*
X53730D01*
Y702886D01*
D02*
G37*
G36*
X56270D02*
Y699270D01*
X59886D01*
X59748Y699967D01*
X58634Y701634D01*
X56967Y702747D01*
X56270Y702886D01*
D02*
G37*
G36*
X104980Y700730D02*
X101364D01*
X101502Y700033D01*
X102616Y698366D01*
X104284Y697252D01*
X104980Y697114D01*
Y700730D01*
D02*
G37*
G36*
X111136D02*
X107520D01*
Y697114D01*
X108216Y697252D01*
X109884Y698366D01*
X110998Y700033D01*
X111136Y700730D01*
D02*
G37*
G36*
X126730Y700980D02*
X123114D01*
X123252Y700284D01*
X124366Y698616D01*
X126033Y697502D01*
X126730Y697364D01*
Y700980D01*
D02*
G37*
G36*
X107520Y706886D02*
Y703270D01*
X111136D01*
X110998Y703967D01*
X109884Y705634D01*
X108216Y706748D01*
X107520Y706886D01*
D02*
G37*
G36*
X126730Y707136D02*
X126033Y706998D01*
X124366Y705884D01*
X123252Y704217D01*
X123114Y703520D01*
X126730D01*
Y707136D01*
D02*
G37*
G36*
X129270D02*
Y703520D01*
X132886D01*
X132748Y704217D01*
X131634Y705884D01*
X129966Y706998D01*
X129270Y707136D01*
D02*
G37*
G36*
X12230Y703386D02*
X11533Y703247D01*
X9866Y702133D01*
X8752Y700466D01*
X8614Y699770D01*
X12230D01*
Y703386D01*
D02*
G37*
G36*
X14770D02*
Y699770D01*
X18386D01*
X18248Y700466D01*
X17134Y702133D01*
X15467Y703247D01*
X14770Y703386D01*
D02*
G37*
G36*
X104980Y706886D02*
X104284Y706748D01*
X102616Y705634D01*
X101502Y703967D01*
X101364Y703270D01*
X104980D01*
Y706886D01*
D02*
G37*
G36*
X18386Y697230D02*
X14770D01*
Y693614D01*
X15467Y693752D01*
X17134Y694866D01*
X18248Y696533D01*
X18386Y697230D01*
D02*
G37*
G36*
X104980Y683730D02*
X101364D01*
X101502Y683034D01*
X102616Y681366D01*
X104284Y680252D01*
X104980Y680114D01*
Y683730D01*
D02*
G37*
G36*
X111136D02*
X107520D01*
Y680114D01*
X108216Y680252D01*
X109884Y681366D01*
X110998Y683034D01*
X111136Y683730D01*
D02*
G37*
G36*
X125480Y689636D02*
X124783Y689498D01*
X123116Y688384D01*
X122002Y686717D01*
X121864Y686020D01*
X125480D01*
Y689636D01*
D02*
G37*
G36*
X14770Y682733D02*
Y679117D01*
X18386D01*
X18248Y679814D01*
X17134Y681481D01*
X15467Y682595D01*
X14770Y682733D01*
D02*
G37*
G36*
X125480Y683480D02*
X121864D01*
X122002Y682784D01*
X123116Y681116D01*
X124783Y680002D01*
X125480Y679864D01*
Y683480D01*
D02*
G37*
G36*
X131636D02*
X128020D01*
Y679864D01*
X128716Y680002D01*
X130384Y681116D01*
X131498Y682784D01*
X131636Y683480D01*
D02*
G37*
G36*
X53730Y696730D02*
X50114D01*
X50252Y696033D01*
X51366Y694366D01*
X53033Y693252D01*
X53730Y693114D01*
Y696730D01*
D02*
G37*
G36*
X59886D02*
X56270D01*
Y693114D01*
X56967Y693252D01*
X58634Y694366D01*
X59748Y696033D01*
X59886Y696730D01*
D02*
G37*
G36*
X12230Y697230D02*
X8614D01*
X8752Y696533D01*
X9866Y694866D01*
X11533Y693752D01*
X12230Y693614D01*
Y697230D01*
D02*
G37*
G36*
X128020Y689636D02*
Y686020D01*
X131636D01*
X131498Y686717D01*
X130384Y688384D01*
X128716Y689498D01*
X128020Y689636D01*
D02*
G37*
G36*
X104980Y689886D02*
X104284Y689748D01*
X102616Y688634D01*
X101502Y686966D01*
X101364Y686270D01*
X104980D01*
Y689886D01*
D02*
G37*
G36*
X107520D02*
Y686270D01*
X111136D01*
X110998Y686966D01*
X109884Y688634D01*
X108216Y689748D01*
X107520Y689886D01*
D02*
G37*
G36*
X14770Y620775D02*
Y617159D01*
X18386D01*
X18248Y617855D01*
X17134Y619522D01*
X15467Y620636D01*
X14770Y620775D01*
D02*
G37*
G36*
X93520Y560886D02*
Y557270D01*
X97136D01*
X96997Y557966D01*
X95884Y559634D01*
X94216Y560748D01*
X93520Y560886D01*
D02*
G37*
G36*
X105730D02*
X105034Y560748D01*
X103366Y559634D01*
X102252Y557966D01*
X102114Y557270D01*
X105730D01*
Y560886D01*
D02*
G37*
G36*
X108270D02*
Y557270D01*
X111886D01*
X111748Y557966D01*
X110634Y559634D01*
X108967Y560748D01*
X108270Y560886D01*
D02*
G37*
G36*
X76230D02*
X75533Y560748D01*
X73866Y559634D01*
X72752Y557966D01*
X72614Y557270D01*
X76230D01*
Y560886D01*
D02*
G37*
G36*
X78770D02*
Y557270D01*
X82386D01*
X82248Y557966D01*
X81134Y559634D01*
X79467Y560748D01*
X78770Y560886D01*
D02*
G37*
G36*
X90980D02*
X90283Y560748D01*
X88616Y559634D01*
X87502Y557966D01*
X87364Y557270D01*
X90980D01*
Y560886D01*
D02*
G37*
G36*
X137770D02*
Y557270D01*
X141386D01*
X141248Y557966D01*
X140134Y559634D01*
X138466Y560748D01*
X137770Y560886D01*
D02*
G37*
G36*
X149980D02*
X149283Y560748D01*
X147616Y559634D01*
X146502Y557966D01*
X146364Y557270D01*
X149980D01*
Y560886D01*
D02*
G37*
G36*
X152520D02*
Y557270D01*
X156136D01*
X155997Y557966D01*
X154883Y559634D01*
X153216Y560748D01*
X152520Y560886D01*
D02*
G37*
G36*
X120480D02*
X119783Y560748D01*
X118116Y559634D01*
X117002Y557966D01*
X116864Y557270D01*
X120480D01*
Y560886D01*
D02*
G37*
G36*
X123020D02*
Y557270D01*
X126636D01*
X126497Y557966D01*
X125384Y559634D01*
X123716Y560748D01*
X123020Y560886D01*
D02*
G37*
G36*
X135230D02*
X134533Y560748D01*
X132866Y559634D01*
X131752Y557966D01*
X131614Y557270D01*
X135230D01*
Y560886D01*
D02*
G37*
G36*
X14770Y558816D02*
Y555200D01*
X18386D01*
X18248Y555897D01*
X17134Y557564D01*
X15467Y558678D01*
X14770Y558816D01*
D02*
G37*
G36*
X105730Y554730D02*
X102114D01*
X102252Y554034D01*
X103366Y552366D01*
X105034Y551252D01*
X105730Y551114D01*
Y554730D01*
D02*
G37*
G36*
X111886D02*
X108270D01*
Y551114D01*
X108967Y551252D01*
X110634Y552366D01*
X111748Y554034D01*
X111886Y554730D01*
D02*
G37*
G36*
X120480D02*
X116864D01*
X117002Y554034D01*
X118116Y552366D01*
X119783Y551252D01*
X120480Y551114D01*
Y554730D01*
D02*
G37*
G36*
X82386D02*
X78770D01*
Y551114D01*
X79467Y551252D01*
X81134Y552366D01*
X82248Y554034D01*
X82386Y554730D01*
D02*
G37*
G36*
X90980D02*
X87364D01*
X87502Y554034D01*
X88616Y552366D01*
X90283Y551252D01*
X90980Y551114D01*
Y554730D01*
D02*
G37*
G36*
X97136D02*
X93520D01*
Y551114D01*
X94216Y551252D01*
X95884Y552366D01*
X96997Y554034D01*
X97136Y554730D01*
D02*
G37*
G36*
X149980D02*
X146364D01*
X146502Y554034D01*
X147616Y552366D01*
X149283Y551252D01*
X149980Y551114D01*
Y554730D01*
D02*
G37*
G36*
X156136D02*
X152520D01*
Y551114D01*
X153216Y551252D01*
X154883Y552366D01*
X155997Y554034D01*
X156136Y554730D01*
D02*
G37*
G36*
X12230Y558816D02*
X11533Y558678D01*
X9866Y557564D01*
X8752Y555897D01*
X8614Y555200D01*
X12230D01*
Y558816D01*
D02*
G37*
G36*
X126636Y554730D02*
X123020D01*
Y551114D01*
X123716Y551252D01*
X125384Y552366D01*
X126497Y554034D01*
X126636Y554730D01*
D02*
G37*
G36*
X135230D02*
X131614D01*
X131752Y554034D01*
X132866Y552366D01*
X134533Y551252D01*
X135230Y551114D01*
Y554730D01*
D02*
G37*
G36*
X141386D02*
X137770D01*
Y551114D01*
X138466Y551252D01*
X140134Y552366D01*
X141248Y554034D01*
X141386Y554730D01*
D02*
G37*
G36*
X12230Y600122D02*
X11533Y599983D01*
X9866Y598870D01*
X8752Y597202D01*
X8614Y596506D01*
X12230D01*
Y600122D01*
D02*
G37*
G36*
X14770D02*
Y596506D01*
X18386D01*
X18248Y597202D01*
X17134Y598870D01*
X15467Y599983D01*
X14770Y600122D01*
D02*
G37*
G36*
X53730Y609797D02*
X50114D01*
X50252Y609100D01*
X51366Y607433D01*
X53033Y606319D01*
X53730Y606181D01*
Y609797D01*
D02*
G37*
G36*
X18386Y593966D02*
X14770D01*
Y590350D01*
X15467Y590488D01*
X17134Y591602D01*
X18248Y593270D01*
X18386Y593966D01*
D02*
G37*
G36*
X53730Y594219D02*
X53033Y594081D01*
X51366Y592967D01*
X50252Y591300D01*
X50114Y590603D01*
X53730D01*
Y594219D01*
D02*
G37*
G36*
X56270D02*
Y590603D01*
X59886D01*
X59748Y591300D01*
X58634Y592967D01*
X56967Y594081D01*
X56270Y594219D01*
D02*
G37*
G36*
X53730Y615953D02*
X53033Y615814D01*
X51366Y614700D01*
X50252Y613033D01*
X50114Y612337D01*
X53730D01*
Y615953D01*
D02*
G37*
G36*
X56270D02*
Y612337D01*
X59886D01*
X59748Y613033D01*
X58634Y614700D01*
X56967Y615814D01*
X56270Y615953D01*
D02*
G37*
G36*
X12230Y620775D02*
X11533Y620636D01*
X9866Y619522D01*
X8752Y617855D01*
X8614Y617159D01*
X12230D01*
Y620775D01*
D02*
G37*
G36*
X59886Y609797D02*
X56270D01*
Y606181D01*
X56967Y606319D01*
X58634Y607433D01*
X59748Y609100D01*
X59886Y609797D01*
D02*
G37*
G36*
X12230Y614619D02*
X8614D01*
X8752Y613922D01*
X9866Y612255D01*
X11533Y611141D01*
X12230Y611003D01*
Y614619D01*
D02*
G37*
G36*
X18386D02*
X14770D01*
Y611003D01*
X15467Y611141D01*
X17134Y612255D01*
X18248Y613922D01*
X18386Y614619D01*
D02*
G37*
G36*
X12230Y593966D02*
X8614D01*
X8752Y593270D01*
X9866Y591602D01*
X11533Y590488D01*
X12230Y590350D01*
Y593966D01*
D02*
G37*
G36*
X162540Y618480D02*
X119770D01*
Y564960D01*
X162540D01*
Y618480D01*
D02*
G37*
G36*
X53730Y572486D02*
X53033Y572347D01*
X51366Y571234D01*
X50252Y569566D01*
X50114Y568870D01*
X53730D01*
Y572486D01*
D02*
G37*
G36*
X56270D02*
Y568870D01*
X59886D01*
X59748Y569566D01*
X58634Y571234D01*
X56967Y572347D01*
X56270Y572486D01*
D02*
G37*
G36*
X53730Y566330D02*
X50114D01*
X50252Y565634D01*
X51366Y563966D01*
X53033Y562852D01*
X53730Y562714D01*
Y566330D01*
D02*
G37*
G36*
X59886D02*
X56270D01*
Y562714D01*
X56967Y562852D01*
X58634Y563966D01*
X59748Y565634D01*
X59886Y566330D01*
D02*
G37*
G36*
X117230Y618480D02*
X74460D01*
Y564960D01*
X117230D01*
Y618480D01*
D02*
G37*
G36*
X14770Y579469D02*
Y575853D01*
X18386D01*
X18248Y576550D01*
X17134Y578217D01*
X15467Y579331D01*
X14770Y579469D01*
D02*
G37*
G36*
X53730Y588063D02*
X50114D01*
X50252Y587367D01*
X51366Y585700D01*
X53033Y584586D01*
X53730Y584447D01*
Y588063D01*
D02*
G37*
G36*
X59886D02*
X56270D01*
Y584447D01*
X56967Y584586D01*
X58634Y585700D01*
X59748Y587367D01*
X59886Y588063D01*
D02*
G37*
G36*
X12230Y573313D02*
X8614D01*
X8752Y572617D01*
X9866Y570950D01*
X11533Y569836D01*
X12230Y569697D01*
Y573313D01*
D02*
G37*
G36*
X18386D02*
X14770D01*
Y569697D01*
X15467Y569836D01*
X17134Y570950D01*
X18248Y572617D01*
X18386Y573313D01*
D02*
G37*
G36*
X12230Y579469D02*
X11533Y579331D01*
X9866Y578217D01*
X8752Y576550D01*
X8614Y575853D01*
X12230D01*
Y579469D01*
D02*
G37*
%LPD*%
D10*
X333500Y698000D02*
D03*
Y714000D02*
D03*
X333750Y664250D02*
D03*
Y680250D02*
D03*
X296749Y58750D02*
D03*
Y74750D02*
D03*
X259750Y58750D02*
D03*
Y74750D02*
D03*
X222750Y58749D02*
D03*
Y74749D02*
D03*
X185749Y58750D02*
D03*
Y74750D02*
D03*
X148749Y58750D02*
D03*
Y74750D02*
D03*
X111750Y58750D02*
D03*
Y74750D02*
D03*
X74749Y58749D02*
D03*
Y74749D02*
D03*
X38250Y58250D02*
D03*
Y74250D02*
D03*
X1006750Y466250D02*
D03*
Y450250D02*
D03*
X1036500Y130250D02*
D03*
Y114250D02*
D03*
X1074000Y122250D02*
D03*
Y106250D02*
D03*
X1095500Y82000D02*
D03*
Y98000D02*
D03*
X1056167Y71750D02*
D03*
Y87750D02*
D03*
X960767Y1345000D02*
D03*
Y1361000D02*
D03*
X875439Y1344294D02*
D03*
Y1360294D02*
D03*
X903882Y1344500D02*
D03*
Y1360500D02*
D03*
X932324Y1344250D02*
D03*
Y1360250D02*
D03*
X514500Y409250D02*
D03*
Y393250D02*
D03*
X813250Y1121750D02*
D03*
Y1137750D02*
D03*
X317700Y386700D02*
D03*
Y402700D02*
D03*
X317450Y349450D02*
D03*
Y365450D02*
D03*
X376500Y677250D02*
D03*
Y693250D02*
D03*
X333250Y532250D02*
D03*
Y548250D02*
D03*
X333500Y568500D02*
D03*
Y584500D02*
D03*
X412750Y739700D02*
D03*
Y755700D02*
D03*
X260500Y365250D02*
D03*
Y349250D02*
D03*
X262500Y488000D02*
D03*
Y472000D02*
D03*
X374750Y542750D02*
D03*
Y558750D02*
D03*
X257500Y618000D02*
D03*
Y602000D02*
D03*
X707750Y300500D02*
D03*
Y316500D02*
D03*
X707750Y348250D02*
D03*
Y332250D02*
D03*
X923250Y301250D02*
D03*
Y317250D02*
D03*
D11*
X584500Y656700D02*
D03*
X566500D02*
D03*
X1162000Y29000D02*
D03*
X1144000D02*
D03*
X818500Y181500D02*
D03*
X800500D02*
D03*
X817500Y156000D02*
D03*
X799500D02*
D03*
X819250Y44500D02*
D03*
X801250D02*
D03*
X819000Y71500D02*
D03*
X801000D02*
D03*
X584250Y680700D02*
D03*
X566250D02*
D03*
X508750Y769700D02*
D03*
X526750D02*
D03*
X792250Y1211250D02*
D03*
X810250D02*
D03*
X792000Y1177000D02*
D03*
X810000D02*
D03*
X452750Y702950D02*
D03*
X470750D02*
D03*
X576999Y757450D02*
D03*
X558999D02*
D03*
X528500Y523000D02*
D03*
X546500D02*
D03*
X566750Y539000D02*
D03*
X548750D02*
D03*
X584750Y569750D02*
D03*
X566750D02*
D03*
X971250Y1200500D02*
D03*
X953250D02*
D03*
X441000Y746700D02*
D03*
X459000D02*
D03*
X428750Y851450D02*
D03*
X410750D02*
D03*
X576750Y779450D02*
D03*
X558750D02*
D03*
X83750Y208000D02*
D03*
X65750D02*
D03*
D12*
X295750Y116250D02*
D03*
Y100250D02*
D03*
X259000Y116250D02*
D03*
Y100250D02*
D03*
X222250Y116250D02*
D03*
Y100250D02*
D03*
X185500Y116250D02*
D03*
Y100250D02*
D03*
X148750Y116250D02*
D03*
Y100250D02*
D03*
X112000Y116250D02*
D03*
Y100250D02*
D03*
X1026750Y449750D02*
D03*
Y465750D02*
D03*
X38000Y116000D02*
D03*
Y100000D02*
D03*
X75250Y116250D02*
D03*
Y100250D02*
D03*
X874689Y1384750D02*
D03*
Y1400750D02*
D03*
X903631Y1384750D02*
D03*
Y1400750D02*
D03*
X932574Y1384750D02*
D03*
Y1400750D02*
D03*
X961517Y1384750D02*
D03*
Y1400750D02*
D03*
D13*
X158750Y1089750D02*
D03*
Y1080250D02*
D03*
Y1070750D02*
D03*
X134750D02*
D03*
Y1080250D02*
D03*
Y1089750D02*
D03*
X159250Y847500D02*
D03*
Y857000D02*
D03*
Y866500D02*
D03*
X183250D02*
D03*
Y857000D02*
D03*
Y847500D02*
D03*
X171000Y1217500D02*
D03*
Y1208000D02*
D03*
Y1198500D02*
D03*
X147000D02*
D03*
Y1208000D02*
D03*
Y1217500D02*
D03*
D14*
X1056250Y451750D02*
D03*
Y465750D02*
D03*
X1025750Y416750D02*
D03*
Y430750D02*
D03*
X1077250Y477500D02*
D03*
Y491500D02*
D03*
X1077250Y451250D02*
D03*
Y465250D02*
D03*
X981250Y180000D02*
D03*
Y194000D02*
D03*
X956750Y179000D02*
D03*
Y193000D02*
D03*
X930000Y179000D02*
D03*
Y193000D02*
D03*
X373984Y520750D02*
D03*
Y506750D02*
D03*
X553750Y827200D02*
D03*
Y841200D02*
D03*
X728250Y301250D02*
D03*
Y315250D02*
D03*
D15*
X263750Y799666D02*
D03*
X247750D02*
D03*
X247750Y749500D02*
D03*
X263750D02*
D03*
X247750Y774583D02*
D03*
X263750D02*
D03*
X263750Y824750D02*
D03*
X247750D02*
D03*
X1167000Y1211000D02*
D03*
X1151000D02*
D03*
X216750Y1186750D02*
D03*
X200750D02*
D03*
X217000Y1210000D02*
D03*
X201000D02*
D03*
X209000Y1121000D02*
D03*
X193000D02*
D03*
X210000Y1091000D02*
D03*
X194000D02*
D03*
D16*
X1006700Y1304002D02*
D03*
Y1322002D02*
D03*
X1033950Y1304002D02*
D03*
Y1322002D02*
D03*
X691250Y25750D02*
D03*
Y43750D02*
D03*
X685000Y126000D02*
D03*
Y108000D02*
D03*
X684250Y163250D02*
D03*
Y181250D02*
D03*
Y223250D02*
D03*
Y205250D02*
D03*
X654250Y122500D02*
D03*
Y104500D02*
D03*
X935750Y1228750D02*
D03*
Y1246750D02*
D03*
X839500Y1075500D02*
D03*
Y1093500D02*
D03*
X902750Y1246500D02*
D03*
Y1228500D02*
D03*
X872000Y1247250D02*
D03*
Y1229250D02*
D03*
X837250Y1247500D02*
D03*
Y1229500D02*
D03*
X916750Y1092750D02*
D03*
Y1074750D02*
D03*
X886250D02*
D03*
Y1092750D02*
D03*
X376750Y635500D02*
D03*
Y653500D02*
D03*
X548500Y478500D02*
D03*
Y496500D02*
D03*
X572750Y478750D02*
D03*
Y496750D02*
D03*
X440750Y790450D02*
D03*
Y772450D02*
D03*
X465250Y790950D02*
D03*
Y772950D02*
D03*
X629500Y588500D02*
D03*
Y570500D02*
D03*
X1180200Y1290752D02*
D03*
Y1272752D02*
D03*
D17*
X578250Y426500D02*
D03*
X571750D02*
D03*
X565250D02*
D03*
X558750D02*
D03*
X552250D02*
D03*
X545750D02*
D03*
X539250D02*
D03*
X578250Y369500D02*
D03*
X571750D02*
D03*
X565250D02*
D03*
X558750D02*
D03*
X552250D02*
D03*
X545750D02*
D03*
X539250D02*
D03*
D18*
X856973Y686352D02*
D03*
X866973D02*
D03*
X876973D02*
D03*
X886973D02*
D03*
X896973D02*
D03*
X906973D02*
D03*
X916973D02*
D03*
X926973D02*
D03*
X936973D02*
D03*
X946973D02*
D03*
X956973D02*
D03*
X966973D02*
D03*
X976973D02*
D03*
X986973D02*
D03*
X996973D02*
D03*
X1006973D02*
D03*
X856973Y676352D02*
D03*
X866973D02*
D03*
X876973D02*
D03*
X886973D02*
D03*
X896973D02*
D03*
X906973D02*
D03*
X916973D02*
D03*
X926973D02*
D03*
X936973D02*
D03*
X946973D02*
D03*
X956973D02*
D03*
X966973D02*
D03*
X976973D02*
D03*
X986973D02*
D03*
X996973D02*
D03*
X1006973D02*
D03*
X856973Y666352D02*
D03*
X866973D02*
D03*
X876973D02*
D03*
X886973D02*
D03*
X896973D02*
D03*
X906973D02*
D03*
X916973D02*
D03*
X926973D02*
D03*
X936973D02*
D03*
X946973D02*
D03*
X956973D02*
D03*
X966973D02*
D03*
X976973D02*
D03*
X986973D02*
D03*
X996973D02*
D03*
X1006973D02*
D03*
X856973Y656352D02*
D03*
X866973D02*
D03*
X876973D02*
D03*
X886973D02*
D03*
X896973D02*
D03*
X906973D02*
D03*
X916973D02*
D03*
X926973D02*
D03*
X936973D02*
D03*
X946973D02*
D03*
X956973D02*
D03*
X966973D02*
D03*
X976973D02*
D03*
X986973D02*
D03*
X996973D02*
D03*
X1006973D02*
D03*
X856973Y646352D02*
D03*
X866973D02*
D03*
X876973D02*
D03*
X886973D02*
D03*
X896973D02*
D03*
X906973D02*
D03*
X916973D02*
D03*
X926973D02*
D03*
X936973D02*
D03*
X946973D02*
D03*
X956973D02*
D03*
X966973D02*
D03*
X976973D02*
D03*
X986973D02*
D03*
X996973D02*
D03*
X1006973D02*
D03*
X856973Y636352D02*
D03*
X866973D02*
D03*
X876973D02*
D03*
X886973D02*
D03*
X896973D02*
D03*
X906973D02*
D03*
X916973D02*
D03*
X926973D02*
D03*
X936973D02*
D03*
X946973D02*
D03*
X956973D02*
D03*
X966973D02*
D03*
X976973D02*
D03*
X986973D02*
D03*
X996973D02*
D03*
X1006973D02*
D03*
X856973Y626352D02*
D03*
X866973D02*
D03*
X876973D02*
D03*
X886973D02*
D03*
X896973D02*
D03*
X906973D02*
D03*
X916973D02*
D03*
X926973D02*
D03*
X936973D02*
D03*
X946973D02*
D03*
X956973D02*
D03*
X966973D02*
D03*
X976973D02*
D03*
X986973D02*
D03*
X996973D02*
D03*
X1006973D02*
D03*
X856973Y616352D02*
D03*
X866973D02*
D03*
X876973D02*
D03*
X886973D02*
D03*
X896973D02*
D03*
X906973D02*
D03*
X916973D02*
D03*
X926973D02*
D03*
X936973D02*
D03*
X946973D02*
D03*
X956973D02*
D03*
X966973D02*
D03*
X976973D02*
D03*
X986973D02*
D03*
X996973D02*
D03*
X1006973D02*
D03*
X856973Y606352D02*
D03*
X866973D02*
D03*
X876973D02*
D03*
X886973D02*
D03*
X896973D02*
D03*
X906973D02*
D03*
X916973D02*
D03*
X926973D02*
D03*
X936973D02*
D03*
X946973D02*
D03*
X956973D02*
D03*
X966973D02*
D03*
X976973D02*
D03*
X986973D02*
D03*
X996973D02*
D03*
X1006973D02*
D03*
X856973Y596351D02*
D03*
X866973D02*
D03*
X876973D02*
D03*
X886973D02*
D03*
X896973D02*
D03*
X906973D02*
D03*
X916973D02*
D03*
X926973D02*
D03*
X936973D02*
D03*
X946973D02*
D03*
X956973D02*
D03*
X966973D02*
D03*
X976973D02*
D03*
X986973D02*
D03*
X996973D02*
D03*
X1006973D02*
D03*
X856973Y586351D02*
D03*
X866973D02*
D03*
X876973D02*
D03*
X886973D02*
D03*
X896973D02*
D03*
X906973D02*
D03*
X916973D02*
D03*
X926973D02*
D03*
X936973D02*
D03*
X946973D02*
D03*
X956973D02*
D03*
X966973D02*
D03*
X976973D02*
D03*
X986973D02*
D03*
X996973D02*
D03*
X1006973D02*
D03*
X856973Y576351D02*
D03*
X866973D02*
D03*
X876973D02*
D03*
X886973D02*
D03*
X896973D02*
D03*
X906973D02*
D03*
X916973D02*
D03*
X926973D02*
D03*
X936973D02*
D03*
X946973D02*
D03*
X956973D02*
D03*
X966973D02*
D03*
X976973D02*
D03*
X986973D02*
D03*
X996973D02*
D03*
X1006973D02*
D03*
X856973Y566351D02*
D03*
X866973D02*
D03*
X876973D02*
D03*
X886973D02*
D03*
X896973D02*
D03*
X906973D02*
D03*
X916973D02*
D03*
X926973D02*
D03*
X936973D02*
D03*
X946973D02*
D03*
X956973D02*
D03*
X966973D02*
D03*
X976973D02*
D03*
X986973D02*
D03*
X996973D02*
D03*
X1006973D02*
D03*
X856973Y556351D02*
D03*
X866973D02*
D03*
X876973D02*
D03*
X886973D02*
D03*
X896973D02*
D03*
X906973D02*
D03*
X916973D02*
D03*
X926973D02*
D03*
X936973D02*
D03*
X946973D02*
D03*
X956973D02*
D03*
X966973D02*
D03*
X976973D02*
D03*
X986973D02*
D03*
X996973D02*
D03*
X1006973D02*
D03*
X856973Y546351D02*
D03*
X866973D02*
D03*
X876973D02*
D03*
X886973D02*
D03*
X896973D02*
D03*
X906973D02*
D03*
X916973D02*
D03*
X926973D02*
D03*
X936973D02*
D03*
X946973D02*
D03*
X956973D02*
D03*
X966973D02*
D03*
X976973D02*
D03*
X986973D02*
D03*
X996973D02*
D03*
X1006973D02*
D03*
X856973Y536351D02*
D03*
X866973D02*
D03*
X876973D02*
D03*
X886973D02*
D03*
X896973D02*
D03*
X906973D02*
D03*
X916973D02*
D03*
X926973D02*
D03*
X936973D02*
D03*
X946973D02*
D03*
X956973D02*
D03*
X966973D02*
D03*
X976973D02*
D03*
X986973D02*
D03*
X996973D02*
D03*
X1006973D02*
D03*
X924748Y1201242D02*
D03*
Y1193242D02*
D03*
Y1185241D02*
D03*
Y1177242D02*
D03*
Y1169241D02*
D03*
Y1161242D02*
D03*
Y1153242D02*
D03*
Y1145242D02*
D03*
Y1137241D02*
D03*
Y1129241D02*
D03*
Y1121241D02*
D03*
X916748Y1201242D02*
D03*
Y1193242D02*
D03*
Y1185241D02*
D03*
Y1177242D02*
D03*
Y1169241D02*
D03*
Y1161242D02*
D03*
Y1153242D02*
D03*
Y1145242D02*
D03*
Y1137241D02*
D03*
Y1129241D02*
D03*
Y1121241D02*
D03*
X908748Y1201242D02*
D03*
Y1193242D02*
D03*
Y1185241D02*
D03*
Y1177242D02*
D03*
Y1169241D02*
D03*
Y1161242D02*
D03*
Y1153242D02*
D03*
Y1145242D02*
D03*
Y1137241D02*
D03*
Y1129241D02*
D03*
Y1121241D02*
D03*
X900748Y1201242D02*
D03*
Y1193242D02*
D03*
Y1185241D02*
D03*
Y1177242D02*
D03*
Y1169241D02*
D03*
Y1161242D02*
D03*
Y1153242D02*
D03*
Y1145242D02*
D03*
Y1137241D02*
D03*
Y1129241D02*
D03*
Y1121241D02*
D03*
X892748Y1201242D02*
D03*
Y1193242D02*
D03*
Y1185241D02*
D03*
Y1177242D02*
D03*
Y1169241D02*
D03*
Y1161242D02*
D03*
Y1153242D02*
D03*
Y1145242D02*
D03*
Y1137241D02*
D03*
Y1129241D02*
D03*
Y1121241D02*
D03*
X884748Y1201242D02*
D03*
Y1193242D02*
D03*
Y1185241D02*
D03*
Y1177242D02*
D03*
Y1169241D02*
D03*
Y1161242D02*
D03*
Y1153242D02*
D03*
Y1145242D02*
D03*
Y1137241D02*
D03*
Y1129241D02*
D03*
Y1121241D02*
D03*
X876748Y1201242D02*
D03*
Y1193242D02*
D03*
Y1185241D02*
D03*
Y1177242D02*
D03*
Y1169241D02*
D03*
Y1161242D02*
D03*
Y1153242D02*
D03*
Y1145242D02*
D03*
Y1137241D02*
D03*
Y1129241D02*
D03*
Y1121241D02*
D03*
X868748Y1201242D02*
D03*
Y1193242D02*
D03*
Y1185241D02*
D03*
Y1177242D02*
D03*
Y1169241D02*
D03*
Y1161242D02*
D03*
Y1153242D02*
D03*
Y1145242D02*
D03*
Y1137241D02*
D03*
Y1129241D02*
D03*
Y1121241D02*
D03*
X860748Y1201242D02*
D03*
Y1193242D02*
D03*
Y1185241D02*
D03*
Y1177242D02*
D03*
Y1169241D02*
D03*
Y1161242D02*
D03*
Y1153242D02*
D03*
Y1145242D02*
D03*
Y1137241D02*
D03*
Y1129241D02*
D03*
Y1121241D02*
D03*
X852748Y1201242D02*
D03*
Y1193242D02*
D03*
Y1185241D02*
D03*
Y1177242D02*
D03*
Y1169241D02*
D03*
Y1161242D02*
D03*
Y1153242D02*
D03*
Y1145242D02*
D03*
Y1137241D02*
D03*
Y1129241D02*
D03*
Y1121241D02*
D03*
X844748Y1201242D02*
D03*
Y1193242D02*
D03*
Y1185241D02*
D03*
Y1177242D02*
D03*
Y1169241D02*
D03*
Y1161242D02*
D03*
Y1153242D02*
D03*
Y1145242D02*
D03*
Y1137241D02*
D03*
Y1129241D02*
D03*
Y1121241D02*
D03*
D19*
X627500Y61700D02*
D03*
Y74400D02*
D03*
Y87100D02*
D03*
Y99800D02*
D03*
X556000Y61700D02*
D03*
Y74400D02*
D03*
Y87100D02*
D03*
Y99800D02*
D03*
D20*
X470500Y1449750D02*
D03*
Y1404750D02*
D03*
X391000D02*
D03*
Y1449750D02*
D03*
D21*
X734450Y1137750D02*
D03*
X785250D02*
D03*
Y1095750D02*
D03*
X734450D02*
D03*
D22*
X231500Y1121750D02*
D03*
X226250D02*
D03*
D23*
X89250Y837000D02*
D03*
X1108500Y974000D02*
D03*
X91750Y1253750D02*
D03*
X91500Y1126500D02*
D03*
D24*
X46750Y837000D02*
D03*
Y738500D02*
D03*
X1151000Y974000D02*
D03*
Y1072500D02*
D03*
X49250Y1253750D02*
D03*
Y1155250D02*
D03*
X49000Y1126500D02*
D03*
Y1028000D02*
D03*
D25*
X89250Y738500D02*
D03*
X1108500Y1072500D02*
D03*
X91750Y1155250D02*
D03*
X91500Y1028000D02*
D03*
D26*
X89000Y795750D02*
D03*
Y803750D02*
D03*
Y779750D02*
D03*
Y771750D02*
D03*
Y787750D02*
D03*
X1108750Y1015250D02*
D03*
Y1007250D02*
D03*
Y1031250D02*
D03*
Y1039250D02*
D03*
Y1023250D02*
D03*
X91500Y1212500D02*
D03*
Y1220500D02*
D03*
Y1196500D02*
D03*
Y1188500D02*
D03*
Y1204500D02*
D03*
X91250Y1085250D02*
D03*
Y1093250D02*
D03*
Y1069250D02*
D03*
Y1061250D02*
D03*
Y1077250D02*
D03*
D27*
X1065400Y1240500D02*
D03*
X1071900D02*
D03*
X1078400D02*
D03*
X1084900D02*
D03*
X1091400D02*
D03*
X1097900D02*
D03*
X1104400D02*
D03*
X1110900D02*
D03*
X1117400D02*
D03*
X1123900D02*
D03*
X1130400D02*
D03*
X1136900D02*
D03*
X1143400D02*
D03*
X1149900D02*
D03*
X1065400Y1308500D02*
D03*
X1071900D02*
D03*
X1078400D02*
D03*
X1084900D02*
D03*
X1091400D02*
D03*
X1097900D02*
D03*
X1104400D02*
D03*
X1110900D02*
D03*
X1117400D02*
D03*
X1123900D02*
D03*
X1130400D02*
D03*
X1136900D02*
D03*
X1143400D02*
D03*
X1149900D02*
D03*
D28*
X767250Y1077250D02*
D03*
X753250D02*
D03*
X471500Y725700D02*
D03*
X457500D02*
D03*
D29*
X303500Y748749D02*
D03*
X319500D02*
D03*
X303500Y773833D02*
D03*
X319500D02*
D03*
X303500Y798916D02*
D03*
X319500D02*
D03*
X303500Y823999D02*
D03*
X319500D02*
D03*
D30*
X756500Y374750D02*
D03*
X801500D02*
D03*
Y295250D02*
D03*
X756500D02*
D03*
X842000Y374750D02*
D03*
X887000D02*
D03*
Y295250D02*
D03*
X842000D02*
D03*
D31*
X282750Y369000D02*
D03*
Y341000D02*
D03*
X259750Y411500D02*
D03*
Y383500D02*
D03*
X287500Y488500D02*
D03*
Y460500D02*
D03*
X263000Y534750D02*
D03*
Y506750D02*
D03*
X286500Y617500D02*
D03*
Y589500D02*
D03*
X259750Y663250D02*
D03*
Y635250D02*
D03*
D32*
X523250Y711950D02*
D03*
D33*
X497050Y729450D02*
D03*
Y724450D02*
D03*
Y719450D02*
D03*
Y714450D02*
D03*
Y709450D02*
D03*
Y704450D02*
D03*
Y699450D02*
D03*
Y694450D02*
D03*
X549450D02*
D03*
Y699450D02*
D03*
Y704450D02*
D03*
Y709450D02*
D03*
Y714450D02*
D03*
Y719450D02*
D03*
Y724450D02*
D03*
Y729450D02*
D03*
D34*
X505750Y685750D02*
D03*
X510750D02*
D03*
X515750D02*
D03*
X520750D02*
D03*
X525750D02*
D03*
X530750D02*
D03*
X535750D02*
D03*
X540750D02*
D03*
Y738150D02*
D03*
X535750D02*
D03*
X530750D02*
D03*
X525750D02*
D03*
X520750D02*
D03*
X515750D02*
D03*
X510750D02*
D03*
X505750D02*
D03*
D35*
X533750Y845250D02*
D03*
Y794450D02*
D03*
X491750D02*
D03*
Y845250D02*
D03*
D36*
X1170500Y1412000D02*
D03*
D37*
Y1454500D02*
D03*
X1072000D02*
D03*
D38*
Y1412000D02*
D03*
D39*
X1129250Y1412250D02*
D03*
X1137250D02*
D03*
X1113250D02*
D03*
X1105250D02*
D03*
X1121250D02*
D03*
D40*
X119000Y365000D02*
D03*
X119000Y489500D02*
D03*
X118500Y619750D02*
D03*
D41*
X213500Y399000D02*
D03*
Y382000D02*
D03*
Y365000D02*
D03*
Y348000D02*
D03*
Y331000D02*
D03*
X213500Y523500D02*
D03*
Y506500D02*
D03*
Y489500D02*
D03*
Y472500D02*
D03*
Y455500D02*
D03*
X213000Y653750D02*
D03*
Y636750D02*
D03*
Y619750D02*
D03*
Y602750D02*
D03*
Y585750D02*
D03*
D42*
X886250Y1075750D02*
X895596D01*
X876000D02*
X886250D01*
X831000Y377000D02*
X842000D01*
X1075500Y1328000D02*
X1078400Y1325100D01*
Y1308500D02*
Y1325100D01*
X839697Y1075303D02*
X849541D01*
X839500Y1075500D02*
X839697Y1075303D01*
X1002750Y641000D02*
Y641250D01*
Y641000D02*
X1006973Y636777D01*
X883000Y680250D02*
X883075D01*
X886973Y676352D01*
X933046Y651205D02*
Y651782D01*
Y651205D02*
X936973Y647277D01*
X933046Y641205D02*
Y641781D01*
Y641205D02*
X936973Y637277D01*
X912325Y641000D02*
X916973Y636352D01*
X584750Y569750D02*
X648000D01*
X912544Y560527D02*
X912973D01*
X916973Y556527D01*
X912294Y630781D02*
X912719D01*
X916973Y626527D01*
X850825Y642500D02*
X856973Y636352D01*
X862542Y670783D02*
Y671033D01*
Y670783D02*
X866973Y666352D01*
X862292Y671033D02*
X862542D01*
X862250Y671075D02*
X862292Y671033D01*
X962750Y661750D02*
X966973Y657527D01*
X872060Y1229310D02*
X882293D01*
X872000Y1229250D02*
X872060Y1229310D01*
X951546Y1184308D02*
X951558D01*
X953250Y1186000D01*
X895596Y1075750D02*
X895794Y1075553D01*
X902294Y630531D02*
X902794D01*
X906973Y626352D01*
X891794Y692618D02*
Y692784D01*
X891250Y692075D02*
X891794Y692618D01*
X78000Y1077250D02*
X119750D01*
X124000Y1090250D02*
X144750D01*
X78000Y1085250D02*
X119000D01*
X1082500Y1006750D02*
X1123000D01*
X1084500Y1022750D02*
X1123000D01*
X548500Y496500D02*
Y541750D01*
X82750Y1204750D02*
X133000D01*
X1090750Y1038750D02*
X1123000D01*
X556000Y782200D02*
X556500Y782700D01*
X557500Y780450D02*
X561750D01*
X535750Y761950D02*
X556000Y782200D01*
X535750Y738150D02*
Y761950D01*
Y673200D02*
X552250Y656700D01*
X1062500Y1015500D02*
X1122250D01*
X82750Y1212750D02*
X134250D01*
X558999Y746251D02*
X560500Y744750D01*
X558999Y746251D02*
Y757450D01*
X557749Y756200D02*
X558999Y757450D01*
X552250Y756200D02*
X557749D01*
X566250Y670250D02*
Y680700D01*
X485750Y714390D02*
X496990D01*
X412750Y739700D02*
X434450Y718000D01*
X482140D02*
X485750Y714390D01*
X434450Y718000D02*
X482140D01*
X496990Y714390D02*
X497050Y714450D01*
X472249Y704450D02*
X497050D01*
X472249D02*
X478299Y710500D01*
X470750Y702950D02*
X472249Y704450D01*
X459000Y746700D02*
Y757500D01*
X198750Y1188750D02*
X200750Y1186750D01*
X160000Y1188750D02*
X198750D01*
X199000Y1208000D02*
X201000Y1210000D01*
X171000Y1208000D02*
X199000D01*
X410750Y851450D02*
Y895000D01*
X214750Y1091000D02*
X410750Y895000D01*
X210000Y1091000D02*
X214750D01*
X209000Y1121000D02*
X209750Y1121750D01*
X226250D01*
X179500Y1121250D02*
X179750Y1121000D01*
X193000D01*
X118750Y1093250D02*
X125250Y1099750D01*
X169000Y1090500D02*
X193500D01*
X194000Y1091000D01*
X158750Y1080250D02*
X169000Y1090500D01*
X151000Y1068250D02*
Y1071500D01*
X142250Y1080250D02*
X151000Y1071500D01*
X134750Y1080250D02*
X142250D01*
X119000Y1085250D02*
X124000Y1090250D01*
X126250Y1070750D02*
X134750D01*
X119750Y1077250D02*
X126250Y1070750D01*
X125500Y1081250D02*
X126500Y1080250D01*
X134750D01*
X147000Y1208000D02*
X158500D01*
X163250Y1203250D01*
Y1192000D02*
Y1203250D01*
X160000Y1188750D02*
X163250Y1192000D01*
X167500Y1208000D02*
X171000D01*
X163000Y1212500D02*
X167500Y1208000D01*
X163000Y1212500D02*
Y1222000D01*
X159000Y1226000D02*
X163000Y1222000D01*
X133750Y1226000D02*
X159000D01*
X128500Y1220750D02*
X133750Y1226000D01*
X557750Y560750D02*
X566750Y569750D01*
X559750Y576750D02*
X566750Y569750D01*
X551000Y576750D02*
X559750D01*
X157500Y1217500D02*
X157750Y1217750D01*
X147000Y1217500D02*
X157500D01*
X157250Y1198500D02*
X157750Y1199000D01*
X147000Y1198500D02*
X157250D01*
X139250D02*
X147000D01*
X133000Y1204750D02*
X139250Y1198500D01*
X139000Y1217500D02*
X147000D01*
X134250Y1212750D02*
X139000Y1217500D01*
X144000Y1061250D02*
X151000Y1068250D01*
X150500Y1088500D02*
X158750Y1080250D01*
X150500Y1088500D02*
Y1093750D01*
X144500Y1099750D02*
X150500Y1093750D01*
X125250Y1099750D02*
X144500D01*
X172868Y1083500D02*
X179071D01*
X169000Y1079632D02*
X172868Y1083500D01*
X179071D02*
X376500Y886071D01*
X169000Y1074500D02*
Y1079632D01*
X175250Y1077750D02*
X177750D01*
X371500Y739179D02*
Y884000D01*
X177750Y1077750D02*
X371500Y884000D01*
X134750Y1070750D02*
X144500D01*
X1024750Y408250D02*
X1025750Y409250D01*
Y416750D01*
X1180200Y1258800D02*
Y1272752D01*
X558750Y426500D02*
Y450500D01*
X548500Y460750D02*
X558750Y450500D01*
X1033950Y1288550D02*
Y1304002D01*
X1006700Y1290450D02*
Y1304002D01*
X470500Y1449750D02*
X486250D01*
X909750Y317250D02*
X923250D01*
X1055750Y483250D02*
X1061500Y477500D01*
X1077250D01*
X1006000Y477500D02*
X1006750Y476750D01*
Y466250D02*
Y476750D01*
X1005250Y436500D02*
Y448000D01*
X1046500Y451750D02*
X1056250D01*
X1077250Y491500D02*
X1087250D01*
X1067250D02*
X1077250D01*
X1077250Y451250D02*
X1087000D01*
X1056250Y451750D02*
X1064000D01*
X1077250Y477500D02*
X1077250Y477500D01*
Y465250D02*
Y477500D01*
X1160750Y69000D02*
X1162000Y67750D01*
Y29000D02*
Y67750D01*
X1140750Y69000D02*
X1144000Y65750D01*
Y29000D02*
Y65750D01*
X942250Y601250D02*
X946973Y596527D01*
Y596351D02*
Y596527D01*
X1025750Y130250D02*
X1036500D01*
X1046250D01*
X1060500Y122250D02*
X1074000D01*
X1085250D01*
X1095500Y82000D02*
X1104250D01*
X1087250D02*
X1095500D01*
X1056167Y71750D02*
X1068250D01*
X1044250D02*
X1056167D01*
X981250Y194000D02*
X993250D01*
X956750Y193000D02*
X980250D01*
X930000D02*
X956750D01*
X980250D02*
X981250Y194000D01*
X668250Y223250D02*
X684250D01*
X672500Y163250D02*
X684250D01*
X654250Y104500D02*
X667500D01*
X640500Y122500D02*
X654250D01*
X669500D01*
X696000Y126000D02*
X700000Y130000D01*
X685000Y126000D02*
X696000D01*
X707750Y348250D02*
X720000D01*
X707750Y287750D02*
Y300500D01*
X826500Y372500D02*
X831000Y377000D01*
X802750Y376000D02*
X815000D01*
X801500Y374750D02*
X802750Y376000D01*
X902075Y671250D02*
X906973Y666352D01*
X901500Y671825D02*
X902075Y671250D01*
X844240Y1193750D02*
X844748Y1193242D01*
X972250Y681075D02*
Y681250D01*
Y681075D02*
X976973Y676352D01*
X982325Y651000D02*
X986973Y646352D01*
X852075Y671250D02*
X856973Y666352D01*
X862325Y681000D02*
X866973Y676352D01*
X872075Y671250D02*
X876973Y666352D01*
X912325Y671000D02*
X916973Y666352D01*
X872575Y680750D02*
X876973Y676352D01*
X911825Y651500D02*
X916973Y646352D01*
X902000Y661325D02*
X906973Y656352D01*
X912075Y661250D02*
X916973Y656352D01*
X893000Y681000D02*
X896973Y677027D01*
Y676352D02*
Y677027D01*
X891250Y692075D02*
X896973Y686352D01*
X899250Y693500D02*
X906398Y686352D01*
X906973D01*
X882325Y651000D02*
X886973Y646352D01*
X862500Y610750D02*
X866898Y606352D01*
X866973D01*
X852250Y541000D02*
X856899Y536351D01*
X856973D01*
X882325Y551000D02*
X886973Y546351D01*
X916973Y556351D02*
Y556527D01*
X1002500Y590825D02*
X1006973Y586351D01*
X972574Y580750D02*
X976973Y576351D01*
X942750Y570574D02*
X946973Y566351D01*
X962250Y610750D02*
X966648Y606352D01*
X966973D01*
X992750Y620575D02*
X996973Y616352D01*
X1002250Y692750D02*
X1006973Y688027D01*
Y686352D02*
Y688027D01*
X942000Y671250D02*
X942075D01*
X946973Y666352D01*
X902250Y591250D02*
X906973Y586527D01*
Y586351D02*
Y586527D01*
X873000Y581000D02*
X876973Y577027D01*
Y576351D02*
Y577027D01*
X882250Y661075D02*
Y661500D01*
Y661075D02*
X886973Y656352D01*
X972750Y631750D02*
X976973Y627527D01*
X952500Y591000D02*
X956973Y586527D01*
X931825Y631500D02*
X936973Y626352D01*
X922250Y641750D02*
X926973Y637027D01*
Y636352D02*
Y637027D01*
X851824Y591500D02*
X856973Y586351D01*
X1002575Y540750D02*
X1006973Y536351D01*
X992500Y570824D02*
X996973Y566351D01*
X956973Y586351D02*
Y586527D01*
X931500Y611250D02*
X936398Y606352D01*
X936973D01*
X922750Y601250D02*
X926973Y597027D01*
Y596351D02*
Y597027D01*
X912250Y601000D02*
X916899Y596351D01*
X916973D01*
X903000Y620325D02*
X906973Y616352D01*
X912500Y610825D02*
Y611250D01*
Y610825D02*
X916973Y606352D01*
X852750Y691000D02*
X856973Y686777D01*
Y686352D02*
Y686777D01*
X862325Y661000D02*
X866973Y656352D01*
X872750Y631250D02*
X876973Y627027D01*
Y626352D02*
Y627027D01*
X882000Y601500D02*
X886973Y596527D01*
Y596351D02*
Y596527D01*
X962250Y561500D02*
X966973Y556777D01*
Y556351D02*
Y556777D01*
X932500Y551250D02*
X936973Y546777D01*
Y546351D02*
Y546777D01*
X902500Y541250D02*
X906973Y536777D01*
Y536351D02*
Y536777D01*
X862250Y561074D02*
X866973Y556351D01*
X922500Y580824D02*
X926973Y576351D01*
X892000Y571324D02*
X896973Y566351D01*
X902000Y601324D02*
X906973Y596351D01*
X982000Y601324D02*
X986973Y596351D01*
X981824Y601500D02*
X982000Y601324D01*
X981750Y601500D02*
X981824D01*
X956973Y606352D02*
Y607277D01*
X952500Y611750D02*
X956973Y607277D01*
X942000Y641325D02*
X946973Y636352D01*
X976973Y626352D02*
Y627527D01*
X1006973Y636352D02*
Y636777D01*
X992500Y671500D02*
X996973Y667027D01*
Y666352D02*
Y667027D01*
X966973Y656352D02*
Y657527D01*
X952000Y692250D02*
X956973Y687277D01*
Y686352D02*
Y687277D01*
X922500Y680750D02*
X922575D01*
X926973Y676352D01*
X892750Y671250D02*
X896973Y667027D01*
Y666352D02*
Y667027D01*
X936973Y646352D02*
Y647277D01*
X903500Y641000D02*
X906973Y637527D01*
Y636352D02*
Y637527D01*
X916973Y626352D02*
Y626527D01*
X912250Y620750D02*
X916648Y616352D01*
X916973D01*
Y616527D01*
X922500Y621000D02*
X926973Y616527D01*
Y616352D02*
Y616527D01*
X922500Y611250D02*
X926973Y606777D01*
Y606352D02*
Y606777D01*
X932500Y620825D02*
X936973Y616352D01*
Y636352D02*
Y637277D01*
X884748Y1094252D02*
Y1121241D01*
Y1094252D02*
X886250Y1092750D01*
X876000Y1075750D02*
X876000Y1075750D01*
X916750Y1064750D02*
Y1074750D01*
X1110900Y1308500D02*
Y1324749D01*
X1084900Y1223749D02*
X1085649Y1223000D01*
X1084900Y1223749D02*
Y1240500D01*
X1078400Y1206500D02*
Y1240500D01*
X1091400Y1219500D02*
X1095400Y1215500D01*
X1091400Y1219500D02*
Y1240500D01*
X1117150Y1272000D02*
X1150900D01*
X1097900Y1291250D02*
X1117150Y1272000D01*
X1097900Y1291250D02*
Y1308500D01*
X1103900Y1240000D02*
X1104400Y1240500D01*
X508750Y750950D02*
X513750D01*
X466750D02*
X508750D01*
X459000Y746700D02*
X462500D01*
X466750Y750950D01*
X513750D02*
X515750Y748950D01*
Y738150D02*
Y748950D01*
X510750Y738150D02*
Y748950D01*
X508750Y750950D02*
X510750Y748950D01*
X540750Y738150D02*
Y744700D01*
X552250Y756200D01*
X649550Y99800D02*
X654250Y104500D01*
X627500Y99800D02*
X649550D01*
X412000Y848950D02*
X412999D01*
X411499Y813450D02*
X412000Y813950D01*
X409749Y786300D02*
X411499Y788050D01*
X504000Y745700D02*
X505750Y743950D01*
Y738150D02*
Y743950D01*
X440750Y772450D02*
X464750D01*
X515500Y756200D02*
X520750Y750950D01*
Y738150D02*
Y750950D01*
X764400Y71500D02*
X801000D01*
X762150Y69250D02*
X764400Y71500D01*
X700750Y69250D02*
X736750D01*
X693200Y61700D02*
X700750Y69250D01*
X627500Y61700D02*
X693200D01*
X706900Y94650D02*
X736750D01*
X686650Y74400D02*
X706900Y94650D01*
X627500Y74400D02*
X686650D01*
X762800Y44500D02*
X801250D01*
X762150Y43850D02*
X762800Y44500D01*
X916748Y1121241D02*
X917000Y1120989D01*
X810000Y1177000D02*
X844507D01*
X844748Y1177242D01*
X813250Y1137750D02*
X813759Y1137241D01*
X844748D01*
X785250Y1137750D02*
X813250D01*
X785250Y1137750D02*
X785250Y1137750D01*
X802750Y1121750D02*
X813250D01*
X822500D01*
X839241Y1129241D02*
X844748D01*
X835500Y1125500D02*
X839241Y1129241D01*
X835500Y1108250D02*
Y1125500D01*
Y1108250D02*
X839500Y1104250D01*
Y1093500D02*
Y1104250D01*
X837508Y1153242D02*
X844748D01*
X829250Y1075500D02*
X839500D01*
X907250Y1074750D02*
X916750D01*
X971250Y1200500D02*
X984500D01*
X792000Y1177000D02*
Y1186000D01*
Y1167250D02*
Y1177000D01*
X810250Y1211250D02*
Y1221750D01*
Y1200500D02*
Y1211250D01*
X792250D02*
Y1220250D01*
X810000Y1177000D02*
Y1186750D01*
X767250Y1077250D02*
X785250Y1095250D01*
Y1095750D01*
X752950Y1077250D02*
X753250D01*
X734450Y1095750D02*
X752950Y1077250D01*
X753250Y1066000D02*
Y1077250D01*
X767250Y1066750D02*
Y1077250D01*
X734450Y1095750D02*
Y1137750D01*
X893750Y1228500D02*
X902750D01*
X913250D01*
X902750Y1246500D02*
X913250D01*
X892250D02*
X902750D01*
X872000Y1247250D02*
X882000D01*
X860000D02*
X872000D01*
X871500Y1228750D02*
X872000Y1229250D01*
X861500Y1228750D02*
X871500D01*
X826500Y1247500D02*
X837250D01*
X847000D01*
X837250Y1229500D02*
X847000D01*
X825500D02*
X837250D01*
X789750Y1213750D02*
X792250Y1211250D01*
X782000Y1213750D02*
X789750D01*
X886250Y1092750D02*
X886250Y1092750D01*
X935750Y1246750D02*
X946750D01*
X925250D02*
X935750D01*
X925750Y1228750D02*
X935750D01*
X946750D01*
X505750Y654950D02*
Y685750D01*
Y654950D02*
X533950Y626750D01*
X637000D01*
X658200Y652150D02*
X661500D01*
X643750Y637700D02*
X658200Y652150D01*
X515750Y649193D02*
X535192Y629750D01*
X619300D01*
X627250Y637700D01*
X515750Y649193D02*
Y685750D01*
X627250Y637700D02*
X643750D01*
X520750Y648435D02*
X536435Y632750D01*
X608050D01*
X627450Y652150D02*
X637000D01*
X520750Y648435D02*
Y685750D01*
X608050Y632750D02*
X627450Y652150D01*
X525750Y647678D02*
Y685750D01*
Y647678D02*
X537678Y635750D01*
X600800D01*
X630250Y665200D01*
X649150D01*
X661500Y677550D01*
X530750Y646920D02*
Y685750D01*
Y646920D02*
X538920Y638750D01*
X592500D01*
X631300Y677550D01*
X637000D01*
X540750Y681700D02*
Y685750D01*
Y681700D02*
X541750Y680700D01*
X566250D01*
X552250Y656700D02*
X566500D01*
X535750Y673200D02*
Y685750D01*
X549450Y694450D02*
X628250D01*
X632000Y690700D01*
X649250D01*
X661500Y702950D01*
X549450Y699450D02*
X633500D01*
X637000Y702950D01*
X549450Y704450D02*
X618000D01*
X630750Y717200D01*
X650350D01*
X661500Y728350D01*
X549450Y709450D02*
X618100D01*
X637000Y728350D01*
X549450Y714450D02*
X597250D01*
X624000Y741200D01*
X646750D01*
X659300Y753750D01*
X661500D01*
X549450Y719450D02*
X593750D01*
X628050Y753750D01*
X637000D01*
X549450Y724450D02*
X584750D01*
X626500Y766200D01*
X648550D01*
X661500Y779150D01*
X549450Y729450D02*
X578250D01*
X627950Y779150D01*
X637000D01*
X466250Y702950D02*
X467750Y704450D01*
X556000Y782200D02*
X556000Y782200D01*
X481000Y756200D02*
X515500D01*
X412000Y813950D02*
Y848950D01*
X487700Y694450D02*
X497050D01*
X483750Y690500D02*
X487700Y694450D01*
X485629Y699450D02*
X497050D01*
X480215Y694036D02*
X485629Y699450D01*
X423714Y694036D02*
X480215D01*
X483750Y690500D02*
X483750D01*
X420179D02*
X420179D01*
X371500Y739179D02*
X420179Y690500D01*
X376500Y741250D02*
X423714Y694036D01*
X376500Y741250D02*
Y886071D01*
X902000Y661325D02*
Y661750D01*
X553750Y841200D02*
X564700D01*
X539250Y426500D02*
Y436250D01*
X535000Y440500D02*
X539250Y436250D01*
X531250Y440500D02*
X535000D01*
X527500Y436750D02*
X531250Y440500D01*
X539250Y357000D02*
Y369500D01*
X534000Y351750D02*
X539250Y357000D01*
X523750Y351750D02*
X534000D01*
X514750Y360750D02*
X523750Y351750D01*
X514750Y360750D02*
Y393000D01*
X514500Y393250D02*
X514750Y393000D01*
X552250Y410500D02*
Y426500D01*
X535000Y393250D02*
X552250Y410500D01*
X527500Y404000D02*
Y436750D01*
X516750Y393250D02*
X527500Y404000D01*
X514500Y393250D02*
X516750D01*
X535000D01*
X506750Y385500D02*
X514500Y393250D01*
X506750Y381250D02*
Y385500D01*
X548500Y460750D02*
Y478500D01*
X565250Y460250D02*
X572750Y467750D01*
Y478750D01*
X565250Y426500D02*
Y460250D01*
X571750Y369500D02*
Y387508D01*
X577493Y393250D01*
X565250Y369500D02*
Y385250D01*
X576250Y396250D01*
X571750Y426500D02*
Y441250D01*
X601500Y471000D01*
X578250Y426500D02*
Y435500D01*
X558750Y369500D02*
Y384250D01*
X573750Y399250D01*
X552250Y369500D02*
Y382250D01*
X572250Y402250D01*
X545750Y369500D02*
Y379993D01*
X571007Y405250D01*
X577493Y393250D02*
X605000D01*
X620000Y378250D01*
X645500D01*
X655250Y388000D01*
X573750Y399250D02*
X610500D01*
X623000Y411750D01*
X650750D01*
X572250Y402250D02*
X602250D01*
X622250Y422250D01*
X571007Y405250D02*
X591500D01*
X628250Y442000D01*
X650250D01*
X655750Y447500D01*
X578250Y435500D02*
X599750Y457000D01*
X601500Y471000D02*
X650500D01*
X654500Y475000D01*
X650750Y411750D02*
X663150Y424150D01*
Y424400D01*
X655250Y388000D02*
Y391100D01*
X663150Y399000D01*
X576250Y396250D02*
X635000D01*
X637750Y399000D01*
X622250Y422250D02*
X635600D01*
X637750Y424400D01*
X599750Y457000D02*
X636000D01*
X637750Y458750D01*
X655750Y447500D02*
Y451350D01*
X663150Y458750D01*
X654500Y475000D02*
Y475500D01*
X663150Y484150D01*
X892325Y621000D02*
X896973Y616352D01*
X891750Y621000D02*
X892325D01*
X548000Y542250D02*
X548500Y541750D01*
X548750Y539000D02*
Y563000D01*
X543250Y568500D02*
X548750Y563000D01*
X557750Y526750D02*
X572750Y511750D01*
Y496750D02*
Y511750D01*
X557750Y526750D02*
Y560750D01*
X1143500Y1143752D02*
X1156250Y1131002D01*
X1142800Y1143752D02*
X1143500D01*
X1130400Y1199252D02*
Y1240500D01*
X1103900Y1220252D02*
Y1240000D01*
X1084900Y1308500D02*
Y1324652D01*
X1136900Y1295301D02*
X1141450Y1290752D01*
X1180200D01*
X1136900Y1295301D02*
Y1308500D01*
X1130400D02*
Y1325201D01*
X1112450Y1333750D02*
X1117400Y1328800D01*
Y1308500D02*
Y1328800D01*
X1093950Y1333252D02*
X1094448Y1333750D01*
X1112450D01*
X1006700Y1322002D02*
X1033950D01*
X1033950Y1322002D01*
X1047450D01*
X1058700Y1333252D01*
X1093950D01*
X1149900Y1196802D02*
X1150200Y1196501D01*
X1129250Y1392250D02*
Y1412250D01*
X1126750Y1389750D02*
X1129250Y1392250D01*
X1134000Y1383500D02*
X1138000Y1387500D01*
X1124868Y1383500D02*
X1134000D01*
X1121000Y1387368D02*
X1124868Y1383500D01*
X1121000Y1387368D02*
Y1412000D01*
X1121250Y1412250D01*
X1143400Y1308500D02*
Y1343600D01*
X1149900Y1308500D02*
Y1345100D01*
X1138000Y1357000D02*
X1149900Y1345100D01*
X1137250Y1401250D02*
Y1412250D01*
Y1401250D02*
X1150250Y1388250D01*
X1138000Y1357000D02*
X1138500Y1357500D01*
Y1372000D01*
X1105250Y1390250D02*
Y1412250D01*
X1008500Y1323802D02*
Y1336000D01*
X1006700Y1322002D02*
X1008500Y1323802D01*
X1041200Y1143752D02*
X1065400Y1167952D01*
Y1240500D01*
X1092000Y1143752D02*
Y1192900D01*
X1078400Y1206500D02*
X1092000Y1192900D01*
X1117400Y1143752D02*
Y1186252D01*
X1130400Y1199252D01*
X1168200Y1143752D02*
Y1160300D01*
X1150200Y1178300D02*
X1168200Y1160300D01*
X1150200Y1178300D02*
Y1196501D01*
X1117750Y1369250D02*
X1143400Y1343600D01*
X1117750Y1369250D02*
Y1370250D01*
X1122250Y1015500D02*
X1123000Y1014750D01*
X1048750Y1001750D02*
X1062500Y1015500D01*
X1081000Y1008250D02*
X1082500Y1006750D01*
X1042250Y1039500D02*
X1067750D01*
X1084500Y1022750D01*
X1080000Y1049500D02*
X1090750Y1038750D01*
X1040250Y1049500D02*
X1080000D01*
X1026500Y1035750D02*
X1040250Y1049500D01*
X629500Y588500D02*
X632000D01*
X645250Y575250D01*
X651750D01*
X566750Y539000D02*
X583250Y555500D01*
X656500D01*
X648000Y569750D02*
X656000Y561750D01*
X651750Y575250D02*
X655750Y571250D01*
X982574Y550750D02*
X986973Y546351D01*
X952074Y541250D02*
X956973Y536351D01*
X875439Y1335811D02*
Y1344294D01*
Y1335811D02*
X885000Y1326250D01*
X903882Y1329382D02*
Y1344500D01*
X932324Y1333824D02*
Y1344250D01*
X960767Y1330233D02*
Y1345000D01*
X1025750Y430750D02*
Y450500D01*
X545750Y426500D02*
Y444500D01*
X528500Y461750D02*
X545750Y444500D01*
X528500Y461750D02*
Y523000D01*
X672500Y29500D02*
X676250Y25750D01*
X691250D01*
X1150900Y1272000D02*
X1189499Y1233400D01*
X305400Y399000D02*
X317700Y386700D01*
X486200Y724450D02*
X497050D01*
X484750Y723000D02*
X486200Y724450D01*
X471500Y725700D02*
Y735500D01*
X481700Y745700D01*
X504000D01*
X489800Y729450D02*
X497050D01*
X484250Y735000D02*
X489800Y729450D01*
X953250Y1186000D02*
Y1200500D01*
Y1205750D01*
X963250Y1215750D01*
X971250Y1200500D02*
Y1209750D01*
X792250Y1201250D02*
Y1211250D01*
X839500Y1093500D02*
X839500Y1093500D01*
X827000Y1093500D02*
X839500D01*
X839500Y1093500D02*
X849750D01*
X850250Y1094000D01*
X482285Y689036D02*
X483750Y690500D01*
X420179D02*
X421643Y689036D01*
X482285D01*
X917000Y1090500D02*
Y1120989D01*
X409749Y754450D02*
Y786300D01*
X508750Y769700D02*
Y779750D01*
Y760250D02*
Y769700D01*
X464750Y772450D02*
X481000Y756200D01*
X525750Y738150D02*
Y788950D01*
X900250Y1325750D02*
X903882Y1329382D01*
X893500Y1325750D02*
X900250D01*
X930750Y1332250D02*
X932324Y1333824D01*
X919000Y1332250D02*
X930750D01*
X960767Y1330233D02*
X963750Y1327250D01*
X975500D01*
X82750Y1220750D02*
X128500D01*
X82750Y1188750D02*
X160000D01*
X84750Y1093250D02*
X118750D01*
X1156250Y1131002D02*
X1175002D01*
X1189499Y1145499D01*
Y1233400D01*
X1149900Y1196802D02*
Y1240500D01*
X317450Y365450D02*
Y386450D01*
X317700Y386700D01*
X84750Y1061250D02*
X144000D01*
X213000Y399000D02*
X213500D01*
X305400D01*
X467750Y704450D02*
X470750D01*
X526000Y843500D02*
X551450D01*
X1003000Y450250D02*
X1005250Y448000D01*
X1165700Y1210001D02*
X1176749D01*
D43*
X579500Y670950D02*
X584250Y675700D01*
X493250Y795951D02*
Y811450D01*
X248749Y825750D02*
X249000Y825499D01*
X237000Y825750D02*
X248749D01*
X216500Y617500D02*
X286500D01*
X942296Y590954D02*
Y591279D01*
Y590954D02*
X946899Y586351D01*
X851250Y651000D02*
X855898Y646352D01*
X333250Y548250D02*
Y568250D01*
X290000Y681250D02*
X307000Y664250D01*
X199750Y681250D02*
X290000D01*
X189500Y671000D02*
X199750Y681250D01*
X189500Y642500D02*
Y671000D01*
Y642500D02*
X195250Y636750D01*
X333500Y714000D02*
X343250D01*
X333750Y687500D02*
Y697750D01*
Y680250D02*
Y687500D01*
X333500Y698000D02*
X333750Y697750D01*
X231500Y1121750D02*
X241250D01*
X38000Y100000D02*
X38250Y99750D01*
Y74250D02*
Y99750D01*
X259750Y58750D02*
X296749D01*
X148749D02*
X185749D01*
X111750D02*
X148749D01*
X296749D02*
X320250D01*
X324750Y63250D01*
X440000D01*
X473250Y30000D01*
X295750Y75750D02*
X296749Y74750D01*
X295750Y75750D02*
Y100250D01*
X259000Y75499D02*
X259750Y74750D01*
X259000Y75499D02*
Y100250D01*
X222250Y75250D02*
Y100250D01*
X185500Y74999D02*
X185749Y74750D01*
X185500Y74999D02*
Y100250D01*
X148749Y74750D02*
X148750Y74751D01*
Y100250D01*
X111750Y74750D02*
X112000Y75000D01*
Y100250D01*
X74749Y74749D02*
X75250Y75250D01*
Y100250D01*
X930000Y179000D02*
X930600Y178400D01*
X922500Y650825D02*
X926973Y646352D01*
X922500Y650825D02*
Y651000D01*
X307000Y664250D02*
X333750D01*
X237750Y584250D02*
X246250D01*
X286500Y617500D02*
X300500D01*
X259750Y663250D02*
Y673000D01*
Y663250D02*
X276500D01*
X236250Y585750D02*
X237750Y584250D01*
X214250Y585750D02*
X236250D01*
X214250Y619750D02*
X216500Y617500D01*
X317700Y402700D02*
Y413950D01*
X304700Y349450D02*
X317450D01*
X886973Y686352D02*
Y687027D01*
X855898Y646352D02*
X856973D01*
X952500Y640750D02*
X956898Y636352D01*
X956973D01*
X942250Y650750D02*
X942575D01*
X946973Y646352D01*
X952325Y601000D02*
X956973Y596352D01*
Y596351D02*
Y596352D01*
X946899Y586351D02*
X946973D01*
X942325Y611000D02*
X946973Y606352D01*
X942250Y631075D02*
X946973Y626352D01*
X922500Y630750D02*
X926898Y626352D01*
X926973D01*
Y586351D02*
Y586527D01*
X932250Y601750D02*
X936973Y597027D01*
Y596351D02*
Y597027D01*
X902250Y611075D02*
X906973Y606352D01*
X266500Y748749D02*
X303500D01*
X265750Y824750D02*
X266500Y823999D01*
X319500D02*
Y836750D01*
X215000Y767500D02*
X233000Y749500D01*
X319500Y748749D02*
Y767999D01*
X319500Y767999D01*
X263750Y799666D02*
X302750D01*
X303500Y798916D01*
X263750Y774583D02*
X302750D01*
X303500Y773833D01*
X319500Y767999D02*
Y773833D01*
X234750Y773750D02*
X244750D01*
X319500Y773833D02*
X325833D01*
X328500Y776500D01*
X228500Y780000D02*
X234750Y773750D01*
X214500Y780000D02*
X228500D01*
X213500Y653751D02*
X214500Y652750D01*
X376750Y653500D02*
Y677250D01*
X376750Y677250D01*
X376250Y653000D02*
X376750Y653500D01*
X360000Y704750D02*
X371500Y693250D01*
X198250Y557000D02*
X298750D01*
X323500Y532250D01*
X333250D01*
Y568250D02*
X333500Y568500D01*
X321250Y584500D02*
X333500D01*
X371500Y693250D02*
X376500D01*
X376750D01*
X373984Y541984D02*
X374750Y542750D01*
X371484Y523250D02*
X373984Y520750D01*
X362250Y558750D02*
X374750D01*
X214500Y652750D02*
X376250D01*
X373984Y520750D02*
Y523500D01*
Y541984D01*
X584500Y656700D02*
Y665450D01*
Y646700D02*
Y656700D01*
X584250Y675700D02*
Y680700D01*
Y690450D01*
X465250Y790950D02*
Y801451D01*
X440750Y790450D02*
Y801700D01*
X493250Y811450D02*
X494500D01*
X491750Y794450D02*
X493250Y795951D01*
X427999Y746700D02*
X441000D01*
X451500Y731700D02*
X457500Y725700D01*
X266500Y823999D02*
X303500D01*
X319500Y773833D02*
Y798916D01*
X553750Y818250D02*
Y827200D01*
X578250Y349500D02*
Y369500D01*
X214000Y331000D02*
X241250D01*
X246250Y336000D01*
X536050Y61700D02*
X556000D01*
X533250Y64500D02*
X536050Y61700D01*
X214000Y472500D02*
X214000Y472500D01*
X503500Y409250D02*
X514500D01*
Y418000D01*
X286500Y617500D02*
Y627000D01*
X442000Y713000D02*
X452050Y702950D01*
X452750D01*
X37750Y58750D02*
X111750D01*
X185749D02*
X259750D01*
X305500Y687250D02*
X305750Y687500D01*
X333750D01*
X192750Y574500D02*
Y596000D01*
Y574500D02*
X198500Y568750D01*
X192750Y596000D02*
X199500Y602750D01*
X192250Y443250D02*
X196500Y439000D01*
X192250Y443250D02*
Y466000D01*
X198750Y472500D01*
X214000Y455500D02*
X229250D01*
X241000Y443750D01*
Y427250D02*
Y443750D01*
X200750Y348000D02*
X213000D01*
X191250Y338500D02*
X200750Y348000D01*
X191250Y338500D02*
X191500Y338250D01*
Y334250D02*
Y338250D01*
X189750Y515000D02*
X198250Y506500D01*
X189750Y515000D02*
Y548500D01*
X198250Y557000D01*
X195250Y636750D02*
X212500D01*
X198250Y506500D02*
X213000D01*
Y472500D02*
X213500D01*
X214000D01*
X213000Y348000D02*
X214000D01*
X198750Y472500D02*
X214000D01*
X199500Y602750D02*
X213500D01*
X214000Y523500D02*
X373984D01*
X233000Y749500D02*
X249750D01*
X922000Y591500D02*
X926973Y586527D01*
X956750Y134350D02*
Y179000D01*
X930600Y133600D02*
Y178400D01*
X981250Y133750D02*
Y180000D01*
D44*
X177250Y857000D02*
X190500D01*
X84750Y772000D02*
X109500D01*
X577200Y779000D02*
X588000D01*
X576750Y779450D02*
X577200Y779000D01*
X576999Y746251D02*
Y757450D01*
Y746251D02*
X577375Y745875D01*
X428750Y851450D02*
X440300D01*
X233916Y799666D02*
X247750D01*
X113250Y804000D02*
X142750Y833500D01*
X171000Y863000D02*
Y873750D01*
X136500Y908250D02*
X171000Y873750D01*
X77250Y908250D02*
X136500D01*
X123000Y958250D02*
X195500Y885750D01*
Y862000D02*
Y885750D01*
X190500Y857000D02*
X195500Y862000D01*
X172750Y835250D02*
Y852500D01*
X109500Y772000D02*
X172750Y835250D01*
X165000Y857000D02*
X171000Y863000D01*
X159250Y857000D02*
X165000D01*
X150500D02*
X159250D01*
X142750Y849250D02*
X150500Y857000D01*
X142750Y833500D02*
Y849250D01*
X172750Y852500D02*
X177250Y857000D01*
X80250Y958250D02*
X123000D01*
X84750Y804000D02*
X113250D01*
X65750Y162750D02*
Y208000D01*
X65750Y208000D01*
Y222500D01*
D45*
X213000Y489500D02*
X214500Y488000D01*
X281750Y369250D02*
X294750D01*
X77250Y958250D02*
X80250D01*
X281750Y369250D02*
X282750Y378500D01*
X259750Y411500D02*
X273500D01*
X246500D02*
X259750D01*
X260500Y349250D02*
X268250D01*
X276500Y341000D01*
X282750D01*
X274250Y369000D02*
X281750Y369250D01*
X270500Y365250D02*
X274250Y369000D01*
X260500Y365250D02*
X270500D01*
X214000Y382000D02*
X215500Y383500D01*
X259750D01*
X215250Y349250D02*
X260500D01*
X260250Y365000D02*
X260500Y365250D01*
X214000Y365000D02*
X260250D01*
X286500Y589500D02*
X302750D01*
X259250Y602750D02*
X260000Y602000D01*
X277500Y589500D02*
X286500D01*
X260000Y602000D02*
X265000D01*
X277500Y589500D01*
X263000Y488500D02*
X287500D01*
X262500Y488000D02*
X263000Y488500D01*
X214500Y488000D02*
X262500D01*
X262000Y472500D02*
X262500Y472000D01*
X214000Y472500D02*
X262000D01*
X262500Y472000D02*
X274000Y460500D01*
X287500D01*
X263000Y534750D02*
X279000D01*
X246500D02*
X263000D01*
X287500Y488500D02*
X287750Y488750D01*
X324500D01*
X302750Y589500D02*
X314750Y601500D01*
X320000D01*
X213500Y602750D02*
X259250D01*
X85000Y137750D02*
X91250Y131500D01*
X92000Y208000D02*
X120250Y179750D01*
X83750Y208000D02*
X92000D01*
X85000Y137750D02*
Y206750D01*
X83750Y208000D02*
X85000Y206750D01*
X83750Y208000D02*
Y223000D01*
D46*
X849672Y196750D02*
X851500Y198578D01*
X855422Y64672D02*
Y208078D01*
X835250Y44500D02*
X855422Y64672D01*
X852500Y211000D02*
X855422Y208078D01*
X880173Y1133241D02*
X880617D01*
X880688Y1133312D01*
X884748Y1129252D01*
X889195Y1133305D02*
X892748Y1129752D01*
X889000Y1125250D02*
X892748Y1121502D01*
X1002500Y670825D02*
Y671000D01*
X962500Y670825D02*
Y671000D01*
X962000Y641000D02*
X966648Y636352D01*
X933046Y660704D02*
Y661032D01*
Y660704D02*
X936973Y656777D01*
X887000Y296750D02*
X918750D01*
X1002000Y611750D02*
X1006973Y606777D01*
X1001799Y680783D02*
X1002467D01*
X1006898Y676352D01*
X923000Y671250D02*
X926973Y667277D01*
X932296Y671533D02*
X932717D01*
X971750Y692250D02*
X971750D01*
X976973Y687027D01*
X992000Y692750D02*
X992500D01*
X996973Y688277D01*
X1026000Y113250D02*
X1105000D01*
X912544Y570780D02*
Y571028D01*
Y570780D02*
X916973Y566351D01*
X1017500Y90500D02*
X1139250D01*
X1032500Y98250D02*
X1130000D01*
X932717Y671533D02*
X936973Y667277D01*
X942046Y691796D02*
Y693284D01*
X942000Y691750D02*
X942046Y691796D01*
X932750Y681250D02*
X936973Y677027D01*
X921795Y692295D02*
Y695034D01*
X921750Y692250D02*
X921795Y692295D01*
X980250Y994000D02*
X988250Y986000D01*
X938154Y994000D02*
X980250D01*
X929750Y985596D02*
X938154Y994000D01*
X925360Y1153242D02*
X929795Y1148806D01*
X924748Y1153242D02*
X925360D01*
X929795Y1148806D02*
X931045D01*
X864792Y1180808D02*
X865942D01*
X868748Y1178002D01*
X904544Y1149306D02*
X905444D01*
X908748Y1146002D01*
X864250Y1116000D02*
X868748Y1120498D01*
X837041Y1197459D02*
Y1197558D01*
Y1197459D02*
X840750Y1193750D01*
X932795Y1182046D02*
Y1182808D01*
X927991Y1177242D02*
X932795Y1182046D01*
X785650Y931750D02*
X817790Y963890D01*
Y992798D01*
X1006750Y106250D02*
X1121250D01*
X277250Y134749D02*
X295750Y116250D01*
X277250Y134749D02*
Y135250D01*
X257000Y118250D02*
X259000Y116250D01*
X257000Y118250D02*
Y146000D01*
X219000Y144250D02*
X222250Y141000D01*
Y116250D02*
Y141000D01*
X185500Y116250D02*
Y140500D01*
X851250Y601750D02*
X856649Y596351D01*
X856973D01*
X148750Y116250D02*
Y140500D01*
X113750Y118001D02*
Y140000D01*
X112000Y116250D02*
X113750Y118001D01*
X73250Y138500D02*
X75250Y136500D01*
Y116250D02*
Y136500D01*
X38000Y131000D02*
X44750Y137750D01*
X38000Y116000D02*
Y131000D01*
X851000Y621250D02*
X855898Y616352D01*
X856973D01*
X872500Y610825D02*
Y611250D01*
Y610825D02*
X876973Y606352D01*
X850750Y611250D02*
X855648Y606352D01*
X856973D01*
X872500Y600912D02*
Y601000D01*
Y600824D02*
Y600912D01*
Y600824D02*
X876973Y596351D01*
X862824Y590500D02*
X866973Y586351D01*
X862500Y590500D02*
X862824D01*
X876973Y586351D02*
Y586777D01*
X872500Y591250D02*
X876973Y586777D01*
X872750Y621500D02*
X876973Y617277D01*
Y616352D02*
Y617277D01*
X222250Y75250D02*
X222750Y74749D01*
X644000Y1207200D02*
X729250D01*
X635500Y1215700D02*
X644000Y1207200D01*
X391000Y1404750D02*
X415500Y1429250D01*
X715500D01*
X728500Y1416250D01*
X736000D01*
X767750Y1391750D02*
X786500Y1373000D01*
X684300Y1391750D02*
X767750D01*
X659800Y1416250D02*
X684300Y1391750D01*
X771250Y1394500D02*
X813000Y1352750D01*
X732350Y1394500D02*
X771250D01*
X710600Y1416250D02*
X732350Y1394500D01*
X931750Y591574D02*
X936973Y586351D01*
X941250Y301250D02*
X945000Y305000D01*
X923250Y301250D02*
X941250D01*
X1026750Y465750D02*
X1026750Y465750D01*
X1056250D01*
X941750Y621000D02*
X946398Y616352D01*
X946973D01*
X952500Y620825D02*
Y621250D01*
X1025750Y478500D02*
X1026750Y477500D01*
Y465750D02*
Y477500D01*
X1121250Y106250D02*
X1140750Y125750D01*
X1004000Y109000D02*
X1006750Y106250D01*
X1139250Y90500D02*
X1140750Y89000D01*
X1013750Y94250D02*
X1017500Y90500D01*
X1130000Y98250D02*
X1140750Y109000D01*
X1105000Y113250D02*
X1140750Y149000D01*
Y125750D02*
Y129000D01*
X956973Y576351D02*
Y577027D01*
X953000Y581000D02*
X956973Y577027D01*
X981250Y133750D02*
X981400Y133600D01*
X932250Y581000D02*
X936899Y576351D01*
X936973D01*
X942324Y581000D02*
X946973Y576351D01*
X956000Y133600D02*
X956750Y134350D01*
X912250Y591074D02*
X916973Y586351D01*
Y576351D02*
Y577027D01*
X912750Y581250D02*
X916973Y577027D01*
X916649Y566351D02*
X916973D01*
X922250Y571074D02*
X926973Y566351D01*
X819000Y85000D02*
X819750Y85750D01*
X819000Y71500D02*
Y85000D01*
X819250Y44500D02*
X835250D01*
X848750Y156000D02*
X850500Y157750D01*
X817500Y156000D02*
X848750D01*
X824500Y181500D02*
X834250Y191250D01*
X818500Y181500D02*
X824500D01*
X772550Y196750D02*
X849672D01*
X763250Y206050D02*
X772550Y196750D01*
X1002750Y601250D02*
X1006973Y597026D01*
Y596351D02*
Y597026D01*
X962574Y590750D02*
X966973Y586351D01*
X992324Y601000D02*
X996973Y596351D01*
X982500Y611000D02*
X986973Y606527D01*
Y606352D02*
Y606527D01*
X976898Y606352D02*
X976973D01*
X972250Y611000D02*
X976898Y606352D01*
X918750Y296750D02*
X923250Y301250D01*
X942500Y540824D02*
Y541250D01*
Y540824D02*
X946973Y536351D01*
X750500Y301250D02*
X756500Y295250D01*
X728250Y301250D02*
X750500D01*
X727001Y316500D02*
X728250Y315250D01*
X707750Y316500D02*
X727001D01*
X707750Y316500D02*
X707750Y316500D01*
X707750Y316500D02*
Y332250D01*
X756500Y295250D02*
Y302250D01*
X848750Y1205239D02*
X852748Y1201242D01*
X848750Y1205239D02*
Y1208250D01*
X921750Y692250D02*
X926973Y687027D01*
Y686352D02*
Y687027D01*
X839500Y1206489D02*
X844748Y1201242D01*
X839500Y1206489D02*
Y1208000D01*
X932250Y692000D02*
X936973Y687277D01*
Y686352D02*
Y687277D01*
X932250Y692000D02*
Y693500D01*
X860748Y1193242D02*
Y1193752D01*
X942000Y691750D02*
X946973Y686777D01*
Y686352D02*
Y686777D01*
X868748Y1185241D02*
Y1186252D01*
X864750Y1189240D02*
X868748Y1185241D01*
X961750Y692250D02*
X966973Y687027D01*
Y686352D02*
Y687027D01*
X840750Y1193750D02*
X844240D01*
X936973Y676352D02*
Y677027D01*
X852748Y1193242D02*
Y1193502D01*
X849000Y1197250D02*
X852748Y1193502D01*
X942500Y680825D02*
X946973Y676352D01*
X942500Y680825D02*
Y681000D01*
X856989Y1189000D02*
X860748Y1185241D01*
X856750Y1189000D02*
X856989D01*
X962500Y680825D02*
X966973Y676352D01*
X864750Y1197250D02*
X868748Y1193252D01*
Y1193242D02*
Y1193252D01*
X952250Y681500D02*
X956973Y676777D01*
Y676352D02*
Y676777D01*
X857000Y1204989D02*
Y1208000D01*
Y1204989D02*
X860748Y1201242D01*
X936973Y666352D02*
Y667277D01*
X865000Y1204989D02*
Y1207500D01*
Y1204989D02*
X868748Y1201242D01*
X926973Y666352D02*
Y667277D01*
X982250Y680750D02*
X986648Y676352D01*
X992250Y681250D02*
X996973Y676527D01*
X981750Y693000D02*
X986973Y687777D01*
X913000Y1165250D02*
X916748Y1161502D01*
Y1161242D02*
Y1161502D01*
X991500Y631250D02*
X996398Y626352D01*
X996973D01*
X982500Y620825D02*
Y621000D01*
Y620825D02*
X986973Y616352D01*
X928242Y1169241D02*
X932250Y1173250D01*
X924748Y1169241D02*
X928242D01*
X1006973Y606352D02*
Y606777D01*
X896750Y1165370D02*
Y1165500D01*
Y1165239D02*
Y1165370D01*
Y1165239D02*
X900748Y1161242D01*
X996973Y606352D02*
Y606527D01*
X992500Y611000D02*
X996973Y606527D01*
X993000Y661500D02*
X996973Y657527D01*
X952074Y571250D02*
X956973Y566351D01*
X873250Y692250D02*
X876973Y688527D01*
X882500Y690825D02*
Y692000D01*
Y690825D02*
X886973Y686352D01*
X892325Y631000D02*
X896973Y626352D01*
X864000Y692500D02*
X866973Y689527D01*
Y686352D02*
Y689527D01*
X876973Y686352D02*
Y688527D01*
X992750Y590574D02*
X996973Y586351D01*
X892000Y611750D02*
X896973Y606777D01*
Y606352D02*
Y606777D01*
X882250Y611750D02*
X886973Y607027D01*
Y606352D02*
Y607027D01*
X851750Y631750D02*
X856973Y626527D01*
Y626352D02*
Y626527D01*
X863000Y631500D02*
X866973Y627527D01*
Y626352D02*
Y627527D01*
X862500Y621750D02*
X866973Y617277D01*
Y616352D02*
Y617277D01*
X882750Y631250D02*
X886973Y627027D01*
Y626352D02*
Y627027D01*
X882500Y620825D02*
Y621250D01*
Y620825D02*
X886973Y616352D01*
X1002500Y670825D02*
X1006973Y666352D01*
X952500Y620825D02*
X956973Y616352D01*
X962500Y631000D02*
X966973Y626527D01*
Y626352D02*
Y626527D01*
X962750Y621250D02*
X966973Y617027D01*
Y616352D02*
Y617027D01*
X972500Y621500D02*
X976973Y617027D01*
Y616352D02*
Y617027D01*
X1002250Y621750D02*
X1006973Y617027D01*
Y616352D02*
Y617027D01*
X1002500Y631250D02*
X1006973Y626777D01*
Y626352D02*
Y626777D01*
X982250Y631000D02*
X982325D01*
X986973Y626352D01*
X992500Y641250D02*
X996973Y636777D01*
Y636352D02*
Y636777D01*
X982500Y640825D02*
Y641000D01*
Y640825D02*
X986973Y636352D01*
X972500Y641500D02*
X976973Y637027D01*
Y636352D02*
Y637027D01*
X966648Y636352D02*
X966973D01*
X952250Y651000D02*
X952325D01*
X956973Y646352D01*
X962750Y651000D02*
X966973Y646777D01*
Y646352D02*
Y646777D01*
X972000Y651325D02*
X976973Y646352D01*
X992250Y651075D02*
Y651250D01*
Y651075D02*
X996973Y646352D01*
X1003000Y651000D02*
X1006973Y647027D01*
Y646352D02*
Y647027D01*
X936973Y656352D02*
Y656777D01*
X953000Y671500D02*
X956973Y667527D01*
Y666352D02*
Y667527D01*
X962500Y670825D02*
X966973Y666352D01*
X972000Y671325D02*
Y671750D01*
Y671325D02*
X976973Y666352D01*
X982500Y671250D02*
X986973Y666777D01*
Y666352D02*
Y666777D01*
X996973Y686352D02*
Y688277D01*
X986973Y686352D02*
Y687777D01*
X976973Y686352D02*
Y687027D01*
X986648Y676352D02*
X986973D01*
X996973D02*
Y676527D01*
X1006898Y676352D02*
X1006973D01*
X1002750Y661500D02*
X1006973Y657277D01*
Y656352D02*
Y657277D01*
X996973Y656352D02*
Y657527D01*
X982500Y660825D02*
Y661250D01*
Y660825D02*
X986973Y656352D01*
X972250Y661075D02*
Y661250D01*
Y661075D02*
X976973Y656352D01*
X982324Y541000D02*
X986973Y536351D01*
X849000Y1188989D02*
X852748Y1185241D01*
X848750Y1181239D02*
X852748Y1177242D01*
X856750Y1181239D02*
Y1181250D01*
Y1181239D02*
X860748Y1177242D01*
X838750Y1185250D02*
X844740D01*
X857078Y1172564D02*
X857936D01*
X856750Y1165239D02*
Y1165250D01*
X848509Y1173492D02*
X852748Y1169252D01*
X843195Y1173492D02*
X848509D01*
X727750Y984500D02*
Y991437D01*
X721250Y978000D02*
X727750Y984500D01*
X721250Y912450D02*
Y978000D01*
X709050Y900250D02*
X721250Y912450D01*
X743000Y959500D02*
Y991250D01*
X725000Y941500D02*
X743000Y959500D01*
X725000Y926000D02*
Y941500D01*
Y926000D02*
X750750Y900250D01*
X759850D01*
X734850Y931750D02*
Y937100D01*
X789250Y991500D01*
X760250Y931750D02*
Y942500D01*
X814500Y996750D01*
X829500D01*
X844740Y1185250D02*
X844748Y1185241D01*
X856750Y1149250D02*
X860748Y1145252D01*
Y1145242D02*
Y1145252D01*
Y1153242D02*
Y1153752D01*
X857250Y1157250D02*
X860748Y1153752D01*
Y1177242D02*
Y1177502D01*
X872750Y1133500D02*
X876748Y1129502D01*
Y1129241D02*
Y1129502D01*
X905000Y1141500D02*
X908748Y1137752D01*
Y1137241D02*
Y1137752D01*
X896750Y1133239D02*
X900748Y1129241D01*
X896750Y1133239D02*
Y1133250D01*
X892748Y1129241D02*
Y1129752D01*
X896500Y1141489D02*
X900748Y1137241D01*
X889000Y1140989D02*
X892748Y1137241D01*
X884748Y1129241D02*
Y1129252D01*
X876748Y1114002D02*
X876750Y1114000D01*
X876748Y1121241D02*
Y1121502D01*
Y1114002D02*
Y1121241D01*
X921250Y1141250D02*
X924748Y1137752D01*
Y1137241D02*
Y1137752D01*
X912750Y1141239D02*
X916748Y1137241D01*
X929750Y985000D02*
Y985596D01*
X887250Y931750D02*
Y942500D01*
X929750Y985000D01*
X912650Y931750D02*
X920250D01*
X974500Y986000D01*
X938050Y931750D02*
X942500D01*
X996750Y986000D01*
X988850Y931750D02*
X1002250Y945150D01*
Y986750D01*
X1063750Y931750D02*
X1065050D01*
X1008750Y986750D02*
X1063750Y931750D01*
X916748Y1193242D02*
Y1193752D01*
X913000Y1197500D02*
X916748Y1193752D01*
X924748Y1193242D02*
Y1193760D01*
X920879Y1197629D02*
X924748Y1193760D01*
X905000Y1189250D02*
X908748Y1185502D01*
Y1185241D02*
Y1185502D01*
X931750Y1191250D02*
Y1191750D01*
X925742Y1185241D02*
X931750Y1191250D01*
X924748Y1185241D02*
X925742D01*
X916748D02*
Y1185752D01*
X913000Y1189500D02*
X916748Y1185752D01*
X924748Y1177242D02*
X927991D01*
X888619Y1189631D02*
X892748Y1185502D01*
Y1185241D02*
Y1185502D01*
Y1193242D02*
Y1193760D01*
X889379Y1197129D02*
X892748Y1193760D01*
X912739Y1181250D02*
X916748Y1177242D01*
X938500Y1098500D02*
X944000Y1093000D01*
X938500Y1098500D02*
Y1115489D01*
X924748Y1129241D02*
X938500Y1115489D01*
X873250Y1180740D02*
X876748Y1177242D01*
X900748Y1169241D02*
Y1169502D01*
X896750Y1173239D02*
X900748Y1169241D01*
X896750Y1173239D02*
Y1173250D01*
X897000Y1156990D02*
X900748Y1153242D01*
X884748Y1145242D02*
Y1145502D01*
X880879Y1149371D02*
X884748Y1145502D01*
X876748Y1145242D02*
Y1145502D01*
X873000Y1149250D02*
X876748Y1145502D01*
X848989Y1141000D02*
X852748Y1137241D01*
X852560Y1153242D02*
X852748D01*
X848748Y1157053D02*
X852560Y1153242D01*
X876748Y1185241D02*
Y1185502D01*
X873000Y1189250D02*
X876748Y1185502D01*
X900748Y1177242D02*
Y1177252D01*
X896500Y1181500D02*
X900748Y1177252D01*
X908748Y1153242D02*
Y1153252D01*
X904750Y1157250D02*
X908748Y1153252D01*
X872500Y1141489D02*
X876748Y1137241D01*
X884748D02*
Y1137502D01*
X881000Y1141250D02*
X884748Y1137502D01*
X852748Y1129241D02*
Y1129502D01*
X849000Y1133250D02*
X852748Y1129502D01*
X892748Y1121241D02*
Y1121502D01*
X868748Y1137241D02*
Y1137752D01*
Y1129241D02*
Y1129502D01*
X865000Y1133250D02*
X868748Y1129502D01*
X896750Y1197239D02*
X900748Y1193242D01*
X896750Y1197239D02*
Y1197370D01*
X868748Y1120498D02*
Y1121241D01*
X849000Y1148990D02*
X852748Y1145242D01*
X865000Y1164989D02*
X868748Y1161242D01*
X865000Y1156990D02*
X868748Y1153242D01*
X864989Y1173000D02*
X868748Y1169241D01*
X865000Y1141500D02*
X868748Y1137752D01*
X912750Y1133239D02*
X916748Y1129241D01*
Y1129502D01*
X924748Y1161242D02*
Y1161502D01*
X916748Y1145242D02*
Y1145502D01*
X912750Y1149500D02*
X916748Y1145502D01*
X904879Y1197629D02*
X908748Y1193760D01*
Y1193242D02*
Y1193760D01*
X924748Y1201242D02*
Y1208248D01*
X916748Y1201242D02*
Y1207748D01*
X908748Y1201242D02*
Y1207498D01*
X900748Y1201242D02*
Y1207248D01*
X916748Y1153242D02*
X917242D01*
X921250Y1157250D01*
X927750D01*
X929742Y1159241D01*
X1010759D01*
X924748Y1161242D02*
X1011587D01*
X924748Y1121241D02*
X925248Y1120741D01*
X929009D02*
X936250Y1113500D01*
X924748Y1121241D02*
Y1121252D01*
X925248Y1120741D02*
X929009D01*
X936500Y1097672D02*
X943172Y1091000D01*
X936250Y1100186D02*
X936500Y1099936D01*
X936250Y1100186D02*
Y1113500D01*
X936500Y1097672D02*
Y1099936D01*
X908748Y1145242D02*
Y1146002D01*
X900748Y1145242D02*
Y1145752D01*
X896750Y1149750D02*
X900748Y1145752D01*
X892748Y1145242D02*
Y1145502D01*
X889000Y1149250D02*
X892748Y1145502D01*
X856750Y1165239D02*
X860748Y1161242D01*
X848750Y1165240D02*
X852748Y1161242D01*
X860748Y1169241D02*
Y1169752D01*
X868748Y1177242D02*
Y1178002D01*
X857936Y1172564D02*
X860748Y1169752D01*
X852748Y1169241D02*
Y1169252D01*
X843186Y1173500D02*
X843195Y1173492D01*
X830000Y1173500D02*
X843186D01*
X818500Y1162000D02*
X830000Y1173500D01*
X774450Y1162000D02*
X818500D01*
X729250Y1207200D02*
X774450Y1162000D01*
X886250Y1091750D02*
Y1092750D01*
X631150Y728350D02*
X637000D01*
X852000Y581000D02*
X852325D01*
X856973Y576351D01*
X851250Y571250D02*
X856149Y566351D01*
X856973D01*
X866973D02*
Y566527D01*
X862250Y571250D02*
X866973Y566527D01*
X892574Y580750D02*
X896973Y576351D01*
X852574Y560750D02*
X856973Y556351D01*
X872500Y560825D02*
X876973Y556351D01*
X882325Y561000D02*
X886973Y556351D01*
X1016000Y1143250D02*
Y1154000D01*
Y1143250D02*
X1026500Y1132750D01*
X1054750D01*
X1066600Y1120900D01*
Y1118352D02*
Y1120900D01*
X1010759Y1159241D02*
X1016000Y1154000D01*
X1011587Y1161242D02*
X1020500Y1152328D01*
Y1146250D02*
Y1152328D01*
X1012000Y1091000D02*
X1025250Y1077750D01*
Y1077750D02*
Y1077750D01*
X943172Y1091000D02*
X1012000D01*
X944000Y1093000D02*
X1030750D01*
X1045750Y1078000D01*
X966649Y566351D02*
X966973D01*
X961750Y571250D02*
X966649Y566351D01*
X972500Y570824D02*
X976973Y566351D01*
X986899D02*
X986973D01*
X982250Y571074D02*
X986973Y566351D01*
X942074Y561250D02*
X946973Y556351D01*
X952500Y560824D02*
X956973Y556351D01*
X976973D02*
Y556527D01*
X972000Y561500D02*
X976973Y556527D01*
X982074Y561250D02*
X986973Y556351D01*
X982000Y561250D02*
X982074D01*
X966399Y546351D02*
X966973D01*
X962250Y550500D02*
X966399Y546351D01*
X976973D02*
Y546527D01*
X972250Y551250D02*
X976973Y546527D01*
X962324Y541000D02*
X966973Y536351D01*
X976899D02*
X976973D01*
X972074Y541250D02*
X976973Y536351D01*
X992074Y541250D02*
X996973Y536351D01*
X1002250Y551075D02*
X1006973Y546351D01*
X942000Y551324D02*
X946973Y546351D01*
X860748Y1119998D02*
Y1121241D01*
X856250Y1115500D02*
X860748Y1119998D01*
X857500Y1197000D02*
X860748Y1193752D01*
X903631Y1400750D02*
Y1450364D01*
X911017Y1457750D01*
X874689Y1400750D02*
Y1446822D01*
X885617Y1457750D01*
X932574Y1400750D02*
Y1453907D01*
X936417Y1457750D01*
X961517Y1400750D02*
Y1457450D01*
X961817Y1457750D01*
X874689Y1361044D02*
Y1384750D01*
Y1361044D02*
X875439Y1360294D01*
X903631Y1360750D02*
Y1384750D01*
Y1360750D02*
X903882Y1360500D01*
X932574Y1360500D02*
Y1384750D01*
X932324Y1360250D02*
X932574Y1360500D01*
X961517Y1361750D02*
Y1384750D01*
X960767Y1361000D02*
X961517Y1361750D01*
X916748Y1153242D02*
Y1153502D01*
X892748Y1201242D02*
Y1206998D01*
X728250Y315250D02*
Y357750D01*
X729000Y358500D01*
X158500Y167500D02*
X185500Y140500D01*
X158500Y167500D02*
Y167750D01*
X133500Y155750D02*
X148750Y140500D01*
D47*
X214000Y348000D02*
X215250Y349250D01*
X259750Y635250D02*
X376500D01*
X376750Y635500D01*
X384250D01*
X408000Y611750D01*
Y560250D02*
X436750Y531500D01*
X408000Y560250D02*
Y611750D01*
X436750Y531500D02*
X457000D01*
X455350Y506750D02*
X456000Y506100D01*
X287500Y460500D02*
X324750D01*
X259750Y383500D02*
X273250D01*
X278500Y388750D01*
X288000D01*
X282750Y341000D02*
X301500Y322250D01*
X315250D01*
X212500Y636750D02*
X212500Y636750D01*
X258249D01*
D48*
X226250Y1121750D02*
X231500D01*
X800750Y155250D02*
X801500Y156000D01*
X737850Y153600D02*
Y155250D01*
X692250Y108000D02*
X737850Y153600D01*
X685000Y108000D02*
X692250D01*
X685000Y101750D02*
Y108000D01*
X670350Y87100D02*
X685000Y101750D01*
X627500Y87100D02*
X670350D01*
X801650Y180650D02*
X802500Y181500D01*
X684850Y180650D02*
X737850D01*
X684250Y181250D02*
X684850Y180650D01*
X672000Y181250D02*
X684250D01*
X565150Y74400D02*
X672000Y181250D01*
X556000Y74400D02*
X565150D01*
X685550Y206050D02*
X737850D01*
X556000Y99800D02*
X579300D01*
X692350Y43850D02*
X736750D01*
X523750Y57500D02*
X538500Y42750D01*
X523750Y57500D02*
Y81500D01*
X529350Y87100D01*
X556000D01*
X763250Y155250D02*
X800750D01*
X684500Y205000D02*
X685550Y206050D01*
X579300Y99800D02*
X684500Y205000D01*
X763250Y180650D02*
X801650D01*
X691750Y43250D02*
X692350Y43850D01*
X691250Y42750D02*
X691750Y43250D01*
X538500Y42750D02*
X691250D01*
D49*
X324750Y460500D02*
X325000Y460250D01*
D50*
X263000Y506750D02*
X373984D01*
X373984Y506750D01*
X455350D01*
X262750Y506500D02*
X263000Y506750D01*
X213000Y506500D02*
X213500D01*
X262750D01*
D51*
X885617Y1457750D02*
D03*
X558200Y1416250D02*
D03*
X1041200Y1118352D02*
D03*
X1078950Y852000D02*
D03*
X498650Y30000D02*
D03*
D52*
X911017Y1457750D02*
D03*
X936417D02*
D03*
X961817D02*
D03*
X1146250Y383450D02*
D03*
Y408850D02*
D03*
Y434250D02*
D03*
Y459650D02*
D03*
Y485050D02*
D03*
Y510450D02*
D03*
Y535850D02*
D03*
Y561250D02*
D03*
Y586650D02*
D03*
Y612050D02*
D03*
Y637450D02*
D03*
Y662850D02*
D03*
Y688250D02*
D03*
Y713650D02*
D03*
Y739050D02*
D03*
X637000Y753750D02*
D03*
Y728350D02*
D03*
Y702950D02*
D03*
Y677550D02*
D03*
Y652150D02*
D03*
Y626750D02*
D03*
X661500Y779150D02*
D03*
Y753750D02*
D03*
Y728350D02*
D03*
Y702950D02*
D03*
Y677550D02*
D03*
Y652150D02*
D03*
Y626750D02*
D03*
X737850Y206050D02*
D03*
Y180650D02*
D03*
Y155250D02*
D03*
X763250Y206050D02*
D03*
Y180650D02*
D03*
X736750Y94650D02*
D03*
Y69250D02*
D03*
Y43850D02*
D03*
X762150Y94650D02*
D03*
Y69250D02*
D03*
X786800Y1441650D02*
D03*
Y1416250D02*
D03*
X761400Y1441650D02*
D03*
Y1416250D02*
D03*
X736000Y1441650D02*
D03*
Y1416250D02*
D03*
X710600D02*
D03*
Y1441650D02*
D03*
X685200D02*
D03*
Y1416250D02*
D03*
X659800Y1441650D02*
D03*
X558200D02*
D03*
X583600Y1416250D02*
D03*
Y1441650D02*
D03*
X609000Y1416250D02*
D03*
Y1441650D02*
D03*
X634400Y1416250D02*
D03*
Y1441650D02*
D03*
X659800Y1416250D02*
D03*
X457000Y531500D02*
D03*
Y506100D02*
D03*
Y480700D02*
D03*
X411499Y788050D02*
D03*
X1066600Y1118352D02*
D03*
X1092000D02*
D03*
X1117400D02*
D03*
X1142800D02*
D03*
X1168200D02*
D03*
X1041200Y1143752D02*
D03*
X1066600D02*
D03*
X1092000D02*
D03*
X1117400D02*
D03*
X1142800D02*
D03*
X1168200D02*
D03*
X635500Y1291900D02*
D03*
Y1266500D02*
D03*
Y1241100D02*
D03*
Y1215700D02*
D03*
X1053550Y852000D02*
D03*
X1028150D02*
D03*
X1002750D02*
D03*
X473250Y30000D02*
D03*
X447850D02*
D03*
X477000Y90150D02*
D03*
Y115550D02*
D03*
Y140950D02*
D03*
Y166350D02*
D03*
Y191750D02*
D03*
X451600Y90150D02*
D03*
Y115550D02*
D03*
Y140950D02*
D03*
Y166350D02*
D03*
D53*
X636000Y897200D02*
D03*
D54*
Y922600D02*
D03*
Y948000D02*
D03*
Y973400D02*
D03*
Y998800D02*
D03*
Y1024200D02*
D03*
Y1049600D02*
D03*
Y1075000D02*
D03*
Y1100400D02*
D03*
Y1125800D02*
D03*
Y1151200D02*
D03*
Y1176600D02*
D03*
X1065050Y931750D02*
D03*
X1039650D02*
D03*
X1014250D02*
D03*
X988850D02*
D03*
X963450D02*
D03*
X938050D02*
D03*
X912650D02*
D03*
X887250D02*
D03*
X861850D02*
D03*
X836450D02*
D03*
X811050D02*
D03*
X785650D02*
D03*
X760250D02*
D03*
X734850D02*
D03*
X709450D02*
D03*
X1064650Y900250D02*
D03*
X1039250D02*
D03*
X1013850D02*
D03*
X988450D02*
D03*
X963050D02*
D03*
X937650D02*
D03*
X912250D02*
D03*
X886850D02*
D03*
X861450D02*
D03*
X836050D02*
D03*
X810650D02*
D03*
X785250D02*
D03*
X759850D02*
D03*
X734450D02*
D03*
X709050D02*
D03*
D55*
X684050Y931750D02*
D03*
X683650Y900250D02*
D03*
D56*
X1146250Y764450D02*
D03*
X637000Y779150D02*
D03*
X763250Y155250D02*
D03*
X762150Y43850D02*
D03*
X457000Y556900D02*
D03*
X411499Y813450D02*
D03*
X635500Y1317300D02*
D03*
X451600Y191750D02*
D03*
D57*
X77250Y958250D02*
D03*
D58*
Y908250D02*
D03*
D59*
X65750Y809750D02*
D03*
Y765750D02*
D03*
X1132000Y1001250D02*
D03*
Y1045250D02*
D03*
X1143250Y1435500D02*
D03*
X1099250D02*
D03*
X68250Y1226500D02*
D03*
Y1182500D02*
D03*
X68000Y1099250D02*
D03*
Y1055250D02*
D03*
D60*
X1160750Y69000D02*
D03*
X637750Y399000D02*
D03*
Y458750D02*
D03*
D61*
X1140750Y69000D02*
D03*
X1160750Y89000D02*
D03*
X1140750D02*
D03*
X1160750Y109000D02*
D03*
X1140750D02*
D03*
X1160750Y129000D02*
D03*
X1140750D02*
D03*
X1160750Y149000D02*
D03*
X1140750D02*
D03*
X1160750Y169000D02*
D03*
X1140750D02*
D03*
X1160750Y189000D02*
D03*
X1140750D02*
D03*
X271900Y708250D02*
D03*
X324750Y432500D02*
D03*
X663150Y424400D02*
D03*
Y399000D02*
D03*
X637750Y424400D02*
D03*
X663150Y484150D02*
D03*
Y458750D02*
D03*
X637750Y484150D02*
D03*
D62*
X246500Y708250D02*
D03*
X350150Y432500D02*
D03*
D63*
X930600Y133600D02*
D03*
X956000D02*
D03*
X981400D02*
D03*
Y57400D02*
D03*
X956000D02*
D03*
D64*
X930600D02*
D03*
D65*
X1075500Y1328000D02*
D03*
X343250Y714000D02*
D03*
X560500Y744750D02*
D03*
X566250Y670250D02*
D03*
X478299Y710500D02*
D03*
X459000Y757500D02*
D03*
X241250Y1121750D02*
D03*
X440300Y851450D02*
D03*
X179500Y1121250D02*
D03*
X125500Y1081250D02*
D03*
X154250Y428500D02*
D03*
X138500Y430000D02*
D03*
X117500D02*
D03*
X97250Y430750D02*
D03*
X79500Y431250D02*
D03*
X13500Y347403D02*
D03*
Y326750D02*
D03*
X151250Y556000D02*
D03*
X136500D02*
D03*
X121750D02*
D03*
X107000D02*
D03*
X92250D02*
D03*
X77500D02*
D03*
X126750Y684750D02*
D03*
X106250Y702000D02*
D03*
X128000Y702250D02*
D03*
X106250Y685000D02*
D03*
X55000Y676267D02*
D03*
Y698000D02*
D03*
Y654533D02*
D03*
Y632800D02*
D03*
Y611067D02*
D03*
Y589333D02*
D03*
Y567600D02*
D03*
Y545867D02*
D03*
Y524133D02*
D03*
Y502400D02*
D03*
Y480667D02*
D03*
Y458933D02*
D03*
Y437200D02*
D03*
Y415467D02*
D03*
Y393733D02*
D03*
Y372000D02*
D03*
X13500Y368055D02*
D03*
Y388708D02*
D03*
Y409361D02*
D03*
Y430014D02*
D03*
Y450667D02*
D03*
Y471319D02*
D03*
Y491972D02*
D03*
Y512625D02*
D03*
Y533278D02*
D03*
Y553930D02*
D03*
Y574583D02*
D03*
Y595236D02*
D03*
Y615889D02*
D03*
Y636541D02*
D03*
Y657194D02*
D03*
Y677847D02*
D03*
Y698500D02*
D03*
X1110900Y1324749D02*
D03*
X1085649Y1223000D02*
D03*
X1095400Y1215500D02*
D03*
X802750Y1121750D02*
D03*
X822500D02*
D03*
X1093950Y1333252D02*
D03*
X533250Y64500D02*
D03*
X672500Y29500D02*
D03*
X1080250Y666500D02*
D03*
X1099500Y677250D02*
D03*
Y625500D02*
D03*
X1080500Y636750D02*
D03*
X1120000D02*
D03*
X1119000Y666750D02*
D03*
X509750Y725450D02*
D03*
X518750D02*
D03*
X527750D02*
D03*
X536750D02*
D03*
X509750Y716450D02*
D03*
X518750D02*
D03*
X527750D02*
D03*
X536750D02*
D03*
X509750Y707450D02*
D03*
X518750D02*
D03*
X527750D02*
D03*
X536750D02*
D03*
X509750Y698450D02*
D03*
X518750D02*
D03*
X527750D02*
D03*
X536750D02*
D03*
X305500Y687250D02*
D03*
X163500Y191250D02*
D03*
X319500Y120500D02*
D03*
X353750Y43750D02*
D03*
X167750D02*
D03*
X342750Y71000D02*
D03*
X158750Y255750D02*
D03*
X173000Y72500D02*
D03*
X166750Y120750D02*
D03*
X327500Y32250D02*
D03*
X91250Y131500D02*
D03*
X120250Y179750D02*
D03*
X65750Y162750D02*
D03*
X83750Y223000D02*
D03*
X65750Y222500D02*
D03*
D66*
X919750Y741250D02*
D03*
X851500Y198578D02*
D03*
X896500Y1141489D02*
D03*
X880173Y1133241D02*
D03*
X889195Y1133305D02*
D03*
X889000Y1125250D02*
D03*
X849541Y1075303D02*
D03*
X1002500Y671000D02*
D03*
X962500D02*
D03*
X962000Y641000D02*
D03*
X896750Y731250D02*
D03*
X886543Y735536D02*
D03*
X933046Y661032D02*
D03*
X747037Y522525D02*
D03*
X911750Y766250D02*
D03*
X932000Y488500D02*
D03*
X1002000Y611750D02*
D03*
X1001799Y680783D02*
D03*
X1002750Y641250D02*
D03*
X883000Y680250D02*
D03*
X914750Y711500D02*
D03*
X923000Y671250D02*
D03*
X932296Y671533D02*
D03*
X933046Y651782D02*
D03*
Y641781D02*
D03*
X912325Y641000D02*
D03*
X971750Y692250D02*
D03*
X992000Y692750D02*
D03*
X912544Y560527D02*
D03*
Y571028D02*
D03*
X912294Y630781D02*
D03*
X942296Y591279D02*
D03*
X1058552Y530776D02*
D03*
X905794Y445272D02*
D03*
X917500Y427750D02*
D03*
X910794Y509525D02*
D03*
X914795Y488024D02*
D03*
X912544Y495024D02*
D03*
X838250Y486750D02*
D03*
X810790Y586529D02*
D03*
X813040Y608030D02*
D03*
X807289Y617530D02*
D03*
X851250Y651000D02*
D03*
X850825Y642500D02*
D03*
X862542Y671033D02*
D03*
X974747Y712285D02*
D03*
X970750Y704000D02*
D03*
X942046Y693284D02*
D03*
X962750Y661750D02*
D03*
X932750Y681250D02*
D03*
X941750Y671750D02*
D03*
X921795Y695034D02*
D03*
X933788Y712419D02*
D03*
X954797Y704034D02*
D03*
X935546Y703534D02*
D03*
X933046Y719785D02*
D03*
X895750Y709250D02*
D03*
X877043Y727286D02*
D03*
X931045Y1148806D02*
D03*
X864792Y1180808D02*
D03*
X904544Y1149306D02*
D03*
X882293Y1229310D02*
D03*
X837041Y1197558D02*
D03*
X951546Y1184308D02*
D03*
X932795Y1182808D02*
D03*
X895794Y1075553D02*
D03*
X817790Y992798D02*
D03*
X902294Y630531D02*
D03*
X891794Y692784D02*
D03*
X237000Y825750D02*
D03*
X588000Y779000D02*
D03*
X577375Y745875D02*
D03*
X233916Y799666D02*
D03*
X157750Y1217750D02*
D03*
X157250Y1198500D02*
D03*
X169000Y1074500D02*
D03*
X175250Y1077750D02*
D03*
X144500Y1070750D02*
D03*
X144750Y1090250D02*
D03*
X1024750Y408250D02*
D03*
X1180200Y1258800D02*
D03*
X277250Y135250D02*
D03*
X257000Y146000D02*
D03*
X219000Y144250D02*
D03*
X113750Y140000D02*
D03*
X73250Y138500D02*
D03*
X44750Y137750D02*
D03*
X851000Y621250D02*
D03*
X872500Y611250D02*
D03*
X850750D02*
D03*
X851250Y601750D02*
D03*
X872500Y600912D02*
D03*
X862500Y590500D02*
D03*
X872500Y591250D02*
D03*
X872750Y621500D02*
D03*
X811750Y569000D02*
D03*
X1025750Y573250D02*
D03*
X1033950Y1288550D02*
D03*
X1006700Y1290450D02*
D03*
X486250Y1449750D02*
D03*
X813000Y1352750D02*
D03*
X786500Y1373000D02*
D03*
X931500Y591750D02*
D03*
X945000Y305000D02*
D03*
X909750Y317250D02*
D03*
X1055750Y483250D02*
D03*
X1027500Y606750D02*
D03*
X941750Y621000D02*
D03*
X952500Y621250D02*
D03*
X1025750Y478500D02*
D03*
X1006000Y477500D02*
D03*
X1005250Y436500D02*
D03*
X1046500Y451750D02*
D03*
X1087250Y491500D02*
D03*
X1067250D02*
D03*
X1087000Y451250D02*
D03*
X1064000Y451750D02*
D03*
X942250Y601250D02*
D03*
X1025750Y130250D02*
D03*
X1046250D02*
D03*
X1060500Y122250D02*
D03*
X1085250D02*
D03*
X1104250Y82000D02*
D03*
X1087250D02*
D03*
X1068250Y71750D02*
D03*
X1044250D02*
D03*
X1032500Y98250D02*
D03*
X1013750Y94250D02*
D03*
X1004000Y109000D02*
D03*
X1026000Y113250D02*
D03*
X953000Y581000D02*
D03*
X981250Y168000D02*
D03*
X932250Y581000D02*
D03*
X930500Y168000D02*
D03*
X942324Y581000D02*
D03*
X957000Y168000D02*
D03*
X912250Y591074D02*
D03*
X912750Y581250D02*
D03*
X922250Y571074D02*
D03*
X993250Y194000D02*
D03*
X852500Y211000D02*
D03*
X819750Y85750D02*
D03*
X834250Y191250D02*
D03*
X850500Y157750D02*
D03*
X1002750Y601250D02*
D03*
X962574Y590750D02*
D03*
X992324Y601000D02*
D03*
X982500Y611000D02*
D03*
X972250D02*
D03*
X922500Y650825D02*
D03*
X931000Y503500D02*
D03*
X952000Y503250D02*
D03*
X933000Y508750D02*
D03*
X950250Y509500D02*
D03*
X970500Y511000D02*
D03*
X950000Y495000D02*
D03*
X969500Y484500D02*
D03*
X969000Y490750D02*
D03*
X668250Y223250D02*
D03*
X672500Y163250D02*
D03*
X667500Y104500D02*
D03*
X640500Y122500D02*
D03*
X669500D02*
D03*
X700000Y130000D02*
D03*
X942500Y541250D02*
D03*
X707750Y287750D02*
D03*
X720000Y348250D02*
D03*
X826500Y372500D02*
D03*
X815000Y376000D02*
D03*
X240250Y427000D02*
D03*
X300500Y617500D02*
D03*
X259750Y673000D02*
D03*
X276500Y663250D02*
D03*
X317700Y413950D02*
D03*
X304700Y349450D02*
D03*
X282750Y378500D02*
D03*
X848750Y1208250D02*
D03*
X839500Y1208000D02*
D03*
X932250Y693500D02*
D03*
X864750Y1189240D02*
D03*
X961750Y692250D02*
D03*
X848750Y1197250D02*
D03*
X942500Y680825D02*
D03*
X856750Y1189000D02*
D03*
X962500Y680825D02*
D03*
X864750Y1197250D02*
D03*
X952250Y681500D02*
D03*
X857000Y1208000D02*
D03*
X865000Y1207500D02*
D03*
X972250Y681075D02*
D03*
X982250Y680750D02*
D03*
X992250Y681250D02*
D03*
X981750Y693000D02*
D03*
X913000Y1165250D02*
D03*
X896250Y989750D02*
D03*
X991500Y631250D02*
D03*
X890750Y990250D02*
D03*
X982500Y621000D02*
D03*
X932250Y1173250D02*
D03*
X918000Y988750D02*
D03*
X896750Y1165370D02*
D03*
X885000Y990500D02*
D03*
X992500Y611000D02*
D03*
X993000Y661500D02*
D03*
X982325Y651000D02*
D03*
X918000Y718750D02*
D03*
X914750Y723750D02*
D03*
X955500Y719000D02*
D03*
X953500Y723750D02*
D03*
X952074Y571250D02*
D03*
X852075Y671250D02*
D03*
X862325Y681000D02*
D03*
X872075Y671250D02*
D03*
X912325Y671000D02*
D03*
X872575Y680750D02*
D03*
X873250Y692250D02*
D03*
X911825Y651500D02*
D03*
X912075Y661250D02*
D03*
X882500Y692000D02*
D03*
X902075Y671250D02*
D03*
X892325Y631000D02*
D03*
X864000Y692500D02*
D03*
X893000Y681000D02*
D03*
X899250Y693500D02*
D03*
X882325Y651000D02*
D03*
X862500Y610750D02*
D03*
X852250Y541000D02*
D03*
X882325Y551000D02*
D03*
X992750Y590574D02*
D03*
X1002500Y590825D02*
D03*
X972574Y580750D02*
D03*
X942750Y570574D02*
D03*
X962250Y610750D02*
D03*
X992750Y620575D02*
D03*
X1002250Y692750D02*
D03*
X902250Y591250D02*
D03*
X873000Y581000D02*
D03*
X892000Y611750D02*
D03*
X882250D02*
D03*
X851750Y631750D02*
D03*
X863000Y631500D02*
D03*
X862500Y621750D02*
D03*
X882750Y631250D02*
D03*
X882500Y621250D02*
D03*
X953000Y671500D02*
D03*
X952789Y710273D02*
D03*
X937039Y724274D02*
D03*
X962500Y631000D02*
D03*
X962750Y621250D02*
D03*
X972500Y621500D02*
D03*
X1002250Y621750D02*
D03*
X1002500Y631250D02*
D03*
X982250Y631000D02*
D03*
X992500Y641250D02*
D03*
X982500Y641000D02*
D03*
X972500Y641500D02*
D03*
X952250Y651000D02*
D03*
X962750D02*
D03*
X972000Y651325D02*
D03*
X992250Y651075D02*
D03*
X1003000Y651000D02*
D03*
X972000Y671325D02*
D03*
X982500Y671250D02*
D03*
X1002750Y661500D02*
D03*
X982500Y661250D02*
D03*
X972250D02*
D03*
X852050Y787950D02*
D03*
X789000Y755250D02*
D03*
X770750D02*
D03*
X833000Y717000D02*
D03*
X882250Y661500D02*
D03*
X807000Y690500D02*
D03*
X791000Y698250D02*
D03*
X773500Y690500D02*
D03*
X809000Y648000D02*
D03*
X952500Y640750D02*
D03*
X942250Y650750D02*
D03*
X759250Y542000D02*
D03*
Y504000D02*
D03*
X800000Y524500D02*
D03*
X789250Y541250D02*
D03*
X790250Y504500D02*
D03*
X1045500Y572000D02*
D03*
X1032000Y557500D02*
D03*
X1046000Y556000D02*
D03*
X1050500Y522250D02*
D03*
X1053750Y539750D02*
D03*
X1046000Y541500D02*
D03*
X1026750D02*
D03*
X1036000Y539750D02*
D03*
X1033750Y519750D02*
D03*
X828500Y609500D02*
D03*
X824750Y590750D02*
D03*
X805750Y592750D02*
D03*
X830750Y569500D02*
D03*
X832250Y586250D02*
D03*
X825500Y542750D02*
D03*
X835000Y552250D02*
D03*
X825500Y562250D02*
D03*
X807500Y542250D02*
D03*
Y562250D02*
D03*
X1058000Y658250D02*
D03*
X1038250Y651500D02*
D03*
X1039750Y634500D02*
D03*
X1033000Y615000D02*
D03*
X1034250Y631250D02*
D03*
X1054500Y615500D02*
D03*
X1055250Y630500D02*
D03*
X1050000Y634500D02*
D03*
Y650250D02*
D03*
X1066500Y666500D02*
D03*
X1054250Y675000D02*
D03*
X1029750Y657750D02*
D03*
X1027250Y666500D02*
D03*
X1029750Y676500D02*
D03*
X918000Y464000D02*
D03*
X948000Y427500D02*
D03*
Y464000D02*
D03*
X959750Y445500D02*
D03*
X916000Y703750D02*
D03*
X815500Y698500D02*
D03*
Y665750D02*
D03*
X820000Y682750D02*
D03*
X812250Y681250D02*
D03*
X972750Y631750D02*
D03*
X829500Y665500D02*
D03*
X837500Y673750D02*
D03*
X829500Y683500D02*
D03*
Y698000D02*
D03*
X1063500Y713750D02*
D03*
X1055000Y704000D02*
D03*
Y724000D02*
D03*
X1027750Y713750D02*
D03*
X1037000Y704500D02*
D03*
X1037500Y723500D02*
D03*
X875750Y709250D02*
D03*
X974500Y726750D02*
D03*
X987500Y487500D02*
D03*
X979250Y479000D02*
D03*
X987500Y505500D02*
D03*
X979250Y512750D02*
D03*
X969500Y503250D02*
D03*
X952500Y488750D02*
D03*
X933500Y494750D02*
D03*
X914250Y503500D02*
D03*
X896000Y509250D02*
D03*
Y495500D02*
D03*
X884000Y479500D02*
D03*
X892250Y490750D02*
D03*
X875250Y491500D02*
D03*
X874750Y503500D02*
D03*
X892750Y502250D02*
D03*
X745750Y595000D02*
D03*
X727500Y586000D02*
D03*
X763500D02*
D03*
X763250Y556000D02*
D03*
X727500D02*
D03*
X952500Y591000D02*
D03*
X952325Y601000D02*
D03*
X942325Y611000D02*
D03*
X931825Y631500D02*
D03*
X942250Y631075D02*
D03*
X922500Y630750D02*
D03*
X922250Y641750D02*
D03*
X851824Y591500D02*
D03*
X1002575Y540750D02*
D03*
X992500Y570824D02*
D03*
X962250Y561500D02*
D03*
X931500Y611250D02*
D03*
X922750Y601250D02*
D03*
X912250Y601000D02*
D03*
X903000Y620325D02*
D03*
X912500Y611250D02*
D03*
X852750Y691000D02*
D03*
X862325Y661000D02*
D03*
X872750Y631250D02*
D03*
X882000Y601500D02*
D03*
X932500Y551250D02*
D03*
X902500Y541250D02*
D03*
X862250Y561074D02*
D03*
X922500Y580824D02*
D03*
X892000Y571324D02*
D03*
X902000Y601324D02*
D03*
X982000Y601324D02*
D03*
X952500Y611750D02*
D03*
X942000Y641325D02*
D03*
X992500Y671500D02*
D03*
X952000Y692250D02*
D03*
X922500Y680750D02*
D03*
X892750Y671250D02*
D03*
X903500Y641000D02*
D03*
X912250Y620750D02*
D03*
X922500Y621000D02*
D03*
Y611250D02*
D03*
X922750Y590750D02*
D03*
X932250Y601750D02*
D03*
X902250Y611075D02*
D03*
X932500Y620825D02*
D03*
X825000Y616500D02*
D03*
X787000Y615250D02*
D03*
X769000Y614250D02*
D03*
X744250Y613250D02*
D03*
X982324Y541000D02*
D03*
X849000Y1188989D02*
D03*
X848750Y1181239D02*
D03*
X856750Y1181239D02*
D03*
X838750Y1185250D02*
D03*
X857078Y1172564D02*
D03*
X856750Y1165250D02*
D03*
X789250Y991500D02*
D03*
X794500D02*
D03*
X877000Y1101500D02*
D03*
X877250Y1075500D02*
D03*
X743000Y991250D02*
D03*
X829500Y996750D02*
D03*
X720250Y991750D02*
D03*
X727750Y991437D02*
D03*
X736250Y991750D02*
D03*
X749250Y991250D02*
D03*
X769250Y991500D02*
D03*
X777750D02*
D03*
X801500Y991000D02*
D03*
X856750Y1149250D02*
D03*
X857250Y1157250D02*
D03*
X872750Y1133500D02*
D03*
X905000Y1141500D02*
D03*
X896750Y1133239D02*
D03*
X889000Y1140989D02*
D03*
X876749Y1114001D02*
D03*
X921250Y1141250D02*
D03*
X912750Y1141239D02*
D03*
X924000Y988250D02*
D03*
X960250Y986250D02*
D03*
X902500Y989250D02*
D03*
X910500Y989000D02*
D03*
X974500Y986000D02*
D03*
X988250D02*
D03*
X996750Y986000D02*
D03*
X1002250Y986750D02*
D03*
X1008750D02*
D03*
X913000Y1197500D02*
D03*
X920879Y1197629D02*
D03*
X905000Y1189250D02*
D03*
X931750Y1191750D02*
D03*
X913000Y1189500D02*
D03*
X888619Y1189631D02*
D03*
X889379Y1197129D02*
D03*
X912739Y1181250D02*
D03*
X873250Y1180740D02*
D03*
X896750Y1173239D02*
D03*
X897000Y1156990D02*
D03*
X880879Y1149371D02*
D03*
X873000Y1149250D02*
D03*
X849000Y1148990D02*
D03*
X848989Y1141000D02*
D03*
X837508Y1153242D02*
D03*
X848748Y1157053D02*
D03*
X873000Y1189250D02*
D03*
X896500Y1181500D02*
D03*
X904750Y1157250D02*
D03*
X872500Y1141489D02*
D03*
X881000Y1141250D02*
D03*
X849000Y1133250D02*
D03*
X865000D02*
D03*
X896750Y1197370D02*
D03*
X865000Y1164989D02*
D03*
Y1156990D02*
D03*
X864989Y1173000D02*
D03*
X865000Y1141500D02*
D03*
X912750Y1133239D02*
D03*
Y1149500D02*
D03*
X904879Y1197629D02*
D03*
X924748Y1208248D02*
D03*
X916748Y1207748D02*
D03*
X908748Y1207498D02*
D03*
X900748Y1207248D02*
D03*
X829250Y1075500D02*
D03*
X907250Y1074750D02*
D03*
X916750Y1064750D02*
D03*
X983000Y1119750D02*
D03*
X983500Y1172750D02*
D03*
X984500Y1200500D02*
D03*
X810250Y1200500D02*
D03*
Y1221750D02*
D03*
X792000Y1186000D02*
D03*
X792250Y1220250D02*
D03*
X792000Y1167250D02*
D03*
X810000Y1186750D02*
D03*
X753250Y1066000D02*
D03*
X767250Y1066750D02*
D03*
X913250Y1228500D02*
D03*
X893750D02*
D03*
X913250Y1246500D02*
D03*
X892250D02*
D03*
X882000Y1247250D02*
D03*
X860000D02*
D03*
X861500Y1228750D02*
D03*
X825500Y1229500D02*
D03*
X826500Y1247500D02*
D03*
X847000D02*
D03*
X847000Y1229500D02*
D03*
X896750Y1149750D02*
D03*
X889000Y1149250D02*
D03*
X848750Y1165240D02*
D03*
X782000Y1213750D02*
D03*
X946750Y1246750D02*
D03*
X925250D02*
D03*
X925750Y1228750D02*
D03*
X946750D02*
D03*
X952750Y1129000D02*
D03*
X952250Y1110250D02*
D03*
X920250Y778000D02*
D03*
X959000Y761500D02*
D03*
X950250Y777750D02*
D03*
X993750Y708750D02*
D03*
X993750Y726750D02*
D03*
X970000Y720000D02*
D03*
X898750Y719000D02*
D03*
X983750Y735000D02*
D03*
X952250Y744750D02*
D03*
X319500Y836750D02*
D03*
X195750Y757500D02*
D03*
X133250Y732750D02*
D03*
X215000Y767500D02*
D03*
X328500Y776500D02*
D03*
X214500Y780000D02*
D03*
X214750Y748000D02*
D03*
X180750Y723250D02*
D03*
X360000Y704750D02*
D03*
X333000Y558500D02*
D03*
X321250Y584500D02*
D03*
X362250Y558750D02*
D03*
X584500Y665450D02*
D03*
Y646700D02*
D03*
X580250Y671700D02*
D03*
X584250Y690450D02*
D03*
X465250Y801451D02*
D03*
X440750Y801700D02*
D03*
X494500Y811450D02*
D03*
X427999Y746700D02*
D03*
X451500Y731700D02*
D03*
X902000Y661750D02*
D03*
X941000Y986250D02*
D03*
X950000Y988250D02*
D03*
X564700Y841200D02*
D03*
X553750Y818250D02*
D03*
X765500Y471000D02*
D03*
X789750Y471250D02*
D03*
X824000Y487000D02*
D03*
X856000Y488750D02*
D03*
X800750Y462250D02*
D03*
X811750Y471250D02*
D03*
X775500Y461250D02*
D03*
X744750Y450500D02*
D03*
X727250Y459750D02*
D03*
X762000D02*
D03*
X714750Y457500D02*
D03*
X506750Y381250D02*
D03*
X578250Y349500D02*
D03*
X891750Y621000D02*
D03*
X743750Y546000D02*
D03*
X551000Y576750D02*
D03*
X543250Y568500D02*
D03*
X246250Y336000D02*
D03*
X852000Y581000D02*
D03*
X851250Y571250D02*
D03*
X862250D02*
D03*
X892574Y580750D02*
D03*
X852574Y560750D02*
D03*
X872500Y560825D02*
D03*
X882325Y561000D02*
D03*
X389250Y260250D02*
D03*
X362500Y209750D02*
D03*
X389500Y86750D02*
D03*
X331750Y206000D02*
D03*
X1103900Y1220252D02*
D03*
X1084900Y1324652D02*
D03*
X1130400Y1325201D02*
D03*
X1126750Y1389750D02*
D03*
X1138000Y1387500D02*
D03*
X1150250Y1388250D02*
D03*
X1138500Y1372000D02*
D03*
X1105250Y1390250D02*
D03*
X1033750Y1378000D02*
D03*
X1020500Y1146250D02*
D03*
X1176749Y1210001D02*
D03*
X1117750Y1370250D02*
D03*
X1009000Y1336250D02*
D03*
X1025250Y1077750D02*
D03*
X1045750Y1078000D02*
D03*
X1048750Y1001750D02*
D03*
X1081000Y1008250D02*
D03*
X1042250Y1039500D02*
D03*
X1055500Y1023000D02*
D03*
X1026500Y1035750D02*
D03*
X996750Y1083250D02*
D03*
X656500Y555500D02*
D03*
X656000Y561750D02*
D03*
X655750Y571250D02*
D03*
X961750D02*
D03*
X972500Y570824D02*
D03*
X982250Y571074D02*
D03*
X942074Y561250D02*
D03*
X952500Y560824D02*
D03*
X972000Y561500D02*
D03*
X982000Y561250D02*
D03*
X962250Y550500D02*
D03*
X972250Y551250D02*
D03*
X982574Y550750D02*
D03*
X962324Y541000D02*
D03*
X972074Y541250D02*
D03*
X992074D02*
D03*
X1002250Y551075D02*
D03*
X952074Y541250D02*
D03*
X942000Y551324D02*
D03*
X865000Y1116000D02*
D03*
X856250Y1115500D02*
D03*
X857500Y1197000D02*
D03*
X885000Y1326250D02*
D03*
X892748Y1206998D02*
D03*
X503500Y409250D02*
D03*
X514500Y418000D02*
D03*
X484750Y723000D02*
D03*
X484250Y735000D02*
D03*
X541000Y668000D02*
D03*
X535750Y750000D02*
D03*
X675750Y550750D02*
D03*
X718750Y550000D02*
D03*
X698500Y540750D02*
D03*
X963250Y1215750D02*
D03*
X971250Y1209750D02*
D03*
X792250Y1201250D02*
D03*
X827000Y1093500D02*
D03*
X850250Y1094000D02*
D03*
X985500Y1145250D02*
D03*
X770000Y745750D02*
D03*
X729000Y358500D02*
D03*
X286500Y627000D02*
D03*
X508750Y779750D02*
D03*
Y760250D02*
D03*
X442000Y713000D02*
D03*
X893500Y1325750D02*
D03*
X919000Y1332250D02*
D03*
X975500Y1327250D02*
D03*
X1024500Y556000D02*
D03*
X387250Y37750D02*
D03*
X385250Y170000D02*
D03*
X386000Y233500D02*
D03*
X198500Y568750D02*
D03*
X196500Y439000D02*
D03*
X191500Y334250D02*
D03*
X158500Y167750D02*
D03*
X133500Y155750D02*
D03*
X305050Y245550D02*
D03*
X304800Y220550D02*
D03*
X305250Y195550D02*
D03*
X168500Y214000D02*
D03*
D67*
X246250Y584250D02*
D03*
X279000Y534750D02*
D03*
X246500D02*
D03*
X288000Y388750D02*
D03*
X324500Y488750D02*
D03*
X325000Y460250D02*
D03*
X315250Y322250D02*
D03*
X320000Y601500D02*
D03*
X276250Y411500D02*
D03*
X244000Y411250D02*
D03*
X298750Y369500D02*
D03*
M02*
