G04 Layer_Physical_Order=6*
G04 Layer_Color=8388736*
%FSLAX44Y44*%
%MOMM*%
G71*
G01*
G75*
%ADD43C,0.3000*%
%ADD46C,0.1000*%
%ADD51R,1.5500X1.5500*%
%ADD52C,1.5500*%
%ADD53R,1.5200X1.5200*%
%ADD54C,1.5200*%
%ADD55R,1.5200X1.5200*%
%ADD61C,1.5000*%
%ADD62R,1.5000X1.5000*%
%ADD65C,0.5000*%
%ADD66C,0.4000*%
D43*
X332875Y558625D02*
X339500Y565250D01*
X233750Y723250D02*
X339500Y617500D01*
X234750Y748000D02*
X295500Y687250D01*
X339500Y565250D02*
Y617500D01*
X215000Y767500D02*
X267000D01*
X344750Y689750D01*
Y452250D02*
Y689750D01*
X240250Y427000D02*
X319500D01*
X214500Y780000D02*
X268250D01*
X349500Y698750D01*
X214750Y748000D02*
X234750D01*
X180750Y723250D02*
X233750D01*
X246250Y336000D02*
X258375Y323875D01*
X286125D01*
X349500Y387250D01*
X295500Y687250D02*
X305500D01*
X349500Y387250D02*
Y698750D01*
X319500Y427000D02*
X344750Y452250D01*
D46*
X884750Y1130250D02*
Y1211500D01*
X882000Y1127500D02*
X884750Y1130250D01*
X878863Y1127500D02*
X882000D01*
X867363Y1116000D02*
X878863Y1127500D01*
X1006000Y664750D02*
Y681846D01*
X940000Y667250D02*
X987250D01*
X978500Y665250D02*
X982500Y661250D01*
X939172Y665250D02*
X978500D01*
X934346Y657500D02*
X986750D01*
X930250Y655500D02*
X984750D01*
X943731Y647281D02*
X976219D01*
X944559Y645281D02*
X968719D01*
X958250Y637250D02*
X962000Y641000D01*
X1002750Y661500D02*
X1006000Y664750D01*
X1002846Y685000D02*
X1006000Y681846D01*
X936000Y668422D02*
X939172Y665250D01*
X885000Y743250D02*
X890043Y738207D01*
Y730793D02*
Y738207D01*
X888250Y729000D02*
X890043Y730793D01*
X887000Y744079D02*
X892750Y738328D01*
Y730672D02*
Y738328D01*
X890250Y728172D02*
X892750Y730672D01*
X883000Y705250D02*
Y800750D01*
X879500Y734825D02*
X881000Y733325D01*
Y706250D02*
Y733325D01*
X878250Y703500D02*
X881000Y706250D01*
X883000Y705250D02*
X886250Y702000D01*
X883000Y800750D02*
X898750Y816500D01*
X901000Y733000D02*
X903000Y731000D01*
X901000Y733000D02*
Y734278D01*
X897778Y737500D02*
X901000Y734278D01*
X896500Y737500D02*
X897778D01*
X889000Y745000D02*
X896500Y737500D01*
X965500Y615250D02*
X971750Y621500D01*
X900750Y615250D02*
X965500D01*
X897000Y619000D02*
X900750Y615250D01*
X958750Y617250D02*
X962750Y621250D01*
X920750Y617250D02*
X958750D01*
X886250Y651750D02*
X920750Y617250D01*
X936000Y668422D02*
Y679550D01*
X926500Y659250D02*
Y820578D01*
Y659250D02*
X930250Y655500D01*
X926500Y820578D02*
X982750Y876828D01*
X928500Y819750D02*
X1000750Y892000D01*
X928500Y660078D02*
X931078Y657500D01*
X934346D01*
X928500Y660078D02*
Y819750D01*
X441250Y389235D02*
X571040Y519025D01*
X571869Y517025D02*
X753668D01*
X443250Y388407D02*
X571869Y517025D01*
X445250Y387578D02*
X572697Y515025D01*
X752839Y519025D02*
X799564Y565750D01*
X571040Y519025D02*
X752839D01*
X753668Y517025D02*
X794892Y558250D01*
X754496Y515025D02*
X791971Y552500D01*
X572697Y515025D02*
X754496D01*
X755324Y513026D02*
X791049Y548750D01*
X573526Y513026D02*
X755324D01*
X447250Y386750D02*
X573526Y513026D01*
X439250Y390064D02*
X575436Y526250D01*
X437250Y390892D02*
X574608Y528250D01*
X435250Y391721D02*
X573779Y530250D01*
X433250Y392549D02*
X572951Y532250D01*
X916500Y764750D02*
Y816235D01*
X909250Y757500D02*
X916500Y764750D01*
X909250Y683250D02*
Y757500D01*
X916500Y816235D02*
X963050Y862785D01*
X924000Y820907D02*
X975250Y872157D01*
X911250Y749000D02*
X924000Y761750D01*
Y820907D01*
X927250Y587750D02*
X931750Y592250D01*
X941371Y308629D02*
X945000Y305000D01*
X941371Y308629D02*
Y463879D01*
X941250Y464000D02*
X941371Y463879D01*
X1002907Y606500D02*
X1025086Y628679D01*
X997000Y606500D02*
X1002907D01*
X1002000Y611750D02*
X1005329D01*
X992500Y611000D02*
X997000Y606500D01*
X958250Y685000D02*
X1002846D01*
X1003675Y687000D02*
X1008250Y682425D01*
X999000Y634750D02*
Y672778D01*
X997000Y645750D02*
Y671950D01*
X993950Y675000D02*
X997000Y671950D01*
X994778Y677000D02*
X999000Y672778D01*
X990222Y677000D02*
X994778D01*
X990222Y677000D02*
X990222Y677000D01*
X951500Y677000D02*
X990222D01*
X991050Y675000D02*
X993950D01*
X991050Y675000D02*
X991050Y675000D01*
X950672Y675000D02*
X991050D01*
X946000Y820250D02*
X1009750Y884000D01*
X946000Y679672D02*
Y820250D01*
Y679672D02*
X950672Y675000D01*
X886500Y678800D02*
Y681700D01*
X886250Y678550D02*
X886500Y678800D01*
X886250Y651750D02*
Y678550D01*
X888500Y663000D02*
Y688250D01*
X886250Y681950D02*
X886500Y681700D01*
X888250Y688500D02*
X888500Y688250D01*
X888250Y688500D02*
Y729000D01*
X888500Y663000D02*
X907750Y643750D01*
X898500Y685750D02*
X903000Y690250D01*
X898500Y659250D02*
Y685750D01*
X896500Y658421D02*
Y688250D01*
X895250Y689500D02*
X896500Y688250D01*
Y658421D02*
X909422Y645500D01*
X898500Y659250D02*
X910250Y647500D01*
X913000Y657750D02*
X916750Y654000D01*
X910625Y657750D02*
X913000D01*
X907250Y661125D02*
X910625Y657750D01*
X907250Y661125D02*
Y810250D01*
X916750Y649000D02*
Y654000D01*
X918500Y647250D02*
X926078D01*
X916750Y662000D02*
Y675750D01*
Y662000D02*
X927500Y651250D01*
Y649325D02*
Y651250D01*
X918750Y663250D02*
Y677000D01*
Y663250D02*
X929500Y652500D01*
X938000Y669250D02*
Y678722D01*
Y669250D02*
X940000Y667250D01*
X909250Y683250D02*
X916750Y675750D01*
X911250Y684500D02*
X918750Y677000D01*
X916750Y649000D02*
X918500Y647250D01*
X928828Y644500D02*
X929000D01*
X926078Y647250D02*
X928828Y644500D01*
X916500Y645250D02*
X925250D01*
X914250Y647500D02*
X916500Y645250D01*
X910250Y647500D02*
X914250D01*
X915825Y642425D02*
Y642450D01*
X913774Y644500D02*
X915825Y642450D01*
X913750Y644500D02*
X913774D01*
X912750Y645500D02*
X913750Y644500D01*
X909422Y645500D02*
X912750D01*
X968719Y645281D02*
X972500Y641500D01*
X944528Y645250D02*
X944559Y645281D01*
X934527Y645250D02*
X944528D01*
X934495Y645281D02*
X934527Y645250D01*
X976219Y647281D02*
X982500Y641000D01*
X943700Y647250D02*
X943731Y647281D01*
X937281Y647250D02*
X943700D01*
X937250Y647281D02*
X937281Y647250D01*
X932373Y647281D02*
X937250D01*
X929500Y650154D02*
X932373Y647281D01*
X931596Y645281D02*
X934495D01*
X931570Y645256D02*
X931596Y645281D01*
X927500Y649325D02*
X931570Y645256D01*
X932500Y637250D02*
X958250D01*
X929000Y640750D02*
X932500Y637250D01*
X929250Y635250D02*
X959079D01*
X927000Y637500D02*
X929250Y635250D01*
X927000Y637500D02*
Y643500D01*
X977750Y635500D02*
X982250Y631000D01*
X959329Y635500D02*
X977750D01*
X959079Y635250D02*
X959329Y635500D01*
X958000Y626500D02*
X962500Y631000D01*
X931750Y626500D02*
X958000D01*
X915825Y642425D02*
X931750Y626500D01*
X949250Y624500D02*
X952500Y621250D01*
X923500Y624500D02*
X949250D01*
X917500Y630500D02*
X923500Y624500D01*
X925250Y645250D02*
X927000Y643500D01*
X913250Y637000D02*
X917500Y632750D01*
Y630500D02*
Y632750D01*
X854750Y573500D02*
X872500Y591250D01*
X854750Y569800D02*
Y573500D01*
X825750Y556000D02*
X840950D01*
X854750Y569800D01*
X817500Y565500D02*
X849500Y597500D01*
X810300Y565500D02*
X817500D01*
X810050Y565750D02*
X810300Y565500D01*
X799564Y565750D02*
X810050D01*
X812250Y572500D02*
X841500Y601750D01*
X810300Y572500D02*
X812250D01*
X810050Y572250D02*
X810300Y572500D01*
X803235Y572250D02*
X810050D01*
X841500Y601750D02*
X851250D01*
X835000Y621250D02*
X851000D01*
X814250Y600500D02*
X835000Y621250D01*
X807500Y600500D02*
X814250D01*
X884325Y639000D02*
X892325Y631000D01*
X836232Y639000D02*
X884325D01*
X807540Y610308D02*
X836232Y639000D01*
X904500Y570000D02*
X905528Y571028D01*
X912544D01*
X937250Y247500D02*
Y455356D01*
X935250Y248328D02*
Y454528D01*
X933250Y249157D02*
Y453699D01*
X920750Y466199D02*
X933250Y453699D01*
X922750Y467028D02*
X935250Y454528D01*
X924750Y467856D02*
X937250Y455356D01*
X924750Y467856D02*
Y517250D01*
X922750Y467028D02*
Y516422D01*
X920750Y466199D02*
Y515593D01*
X835810Y651000D02*
X851250D01*
X837060Y637000D02*
X877000D01*
X809540Y609479D02*
X837060Y637000D01*
X803789Y618980D02*
X835810Y651000D01*
X803789Y608693D02*
Y618980D01*
X762596Y567500D02*
X803789Y608693D01*
X807540Y609615D02*
Y610308D01*
X763425Y565500D02*
X807540Y609615D01*
X809540Y608787D02*
Y609479D01*
X764253Y563500D02*
X809540Y608787D01*
X938000Y683778D02*
Y696672D01*
Y683778D02*
X938250Y683528D01*
Y678972D02*
Y683528D01*
X938000Y678722D02*
X938250Y678972D01*
X936000Y682950D02*
Y697500D01*
Y682950D02*
X936250Y682700D01*
Y679800D02*
Y682700D01*
X936000Y679550D02*
X936250Y679800D01*
X934346Y657500D02*
X934346Y657500D01*
X879500Y734825D02*
Y801750D01*
X946000Y967500D02*
Y987500D01*
X942750Y990750D02*
X946000Y987500D01*
X927750Y990750D02*
X942750D01*
X855000Y1176500D02*
X867750D01*
X888500Y1275250D02*
X936750Y1323500D01*
X888500Y1218500D02*
Y1275250D01*
X881500Y1211500D02*
X888500Y1218500D01*
X886000Y1275750D02*
X911000Y1300750D01*
X886000Y1218828D02*
Y1275750D01*
X884750Y1211500D02*
X906250Y1233000D01*
X877250Y1155000D02*
X881500Y1159250D01*
X877250Y1146750D02*
Y1155000D01*
X875750Y1145250D02*
X877250Y1146750D01*
X824500Y1185018D02*
X837041Y1197558D01*
X824500Y1182936D02*
Y1185018D01*
X835922Y1193500D02*
X838078D01*
X827789Y1185368D02*
X835922Y1193500D01*
X827789Y1183211D02*
Y1185368D01*
X826686Y1182108D02*
X827789Y1183211D01*
X826500Y1182108D02*
X826686D01*
X840078Y1191500D02*
X845828Y1197250D01*
X658750Y1010172D02*
X829789Y1181211D01*
Y1184539D01*
X836750Y1191500D01*
X840078D01*
X649423Y1004827D02*
X826016Y1181420D01*
X838078Y1193500D02*
X842500Y1197922D01*
X825914Y1181522D02*
X826500Y1182108D01*
X843500Y1183250D02*
Y1189500D01*
X841422Y1181172D02*
X843500Y1183250D01*
X832578Y1181172D02*
X841422D01*
X895250Y694277D02*
Y697250D01*
Y694277D02*
X895294Y694233D01*
Y691334D02*
Y694233D01*
X895250Y691291D02*
X895294Y691334D01*
X895250Y689500D02*
Y691291D01*
X886250Y681950D02*
Y702000D01*
X257000Y146000D02*
X257500Y145500D01*
X253500Y159000D02*
X277250Y135250D01*
X246828Y159000D02*
X253500D01*
X240328Y165500D02*
X246828Y159000D01*
X203407Y165500D02*
X240328D01*
X162500Y206407D02*
X203407Y165500D01*
X204828Y163500D02*
X239500D01*
X204532Y163203D02*
X204828Y163500D01*
X202875Y163203D02*
X204532D01*
X160500Y205578D02*
X202875Y163203D01*
X162500Y206407D02*
Y223000D01*
X239500Y163500D02*
X257000Y146000D01*
X160500Y205578D02*
Y223828D01*
X158500Y204750D02*
X219000Y144250D01*
X158500Y204750D02*
Y224657D01*
X155500Y170500D02*
Y224485D01*
X113750Y140000D02*
Y188392D01*
X73250Y138500D02*
Y150721D01*
X44750Y137750D02*
X57451D01*
X799250Y592250D02*
X807500Y600500D01*
X799250Y576750D02*
Y592250D01*
X754750Y532250D02*
X799250Y576750D01*
X843250Y617500D02*
X866250D01*
X872500Y611250D01*
X821750Y596000D02*
X843250Y617500D01*
X803250Y585250D02*
X814000Y596000D01*
X821750D01*
X803250Y577922D02*
Y585250D01*
X755579Y530250D02*
X803250Y577922D01*
X840000Y611250D02*
X850750D01*
X816750Y588000D02*
X840000Y611250D01*
X816750Y584750D02*
Y588000D01*
X806250Y574250D02*
X816750Y584750D01*
X802407Y574250D02*
X806250D01*
X756407Y528250D02*
X802407Y574250D01*
X757235Y526250D02*
X803235Y572250D01*
X849500Y597500D02*
X869088D01*
X872500Y600912D01*
X857750Y585750D02*
X862500Y590500D01*
X840578Y585750D02*
X857750D01*
X813078Y558250D02*
X840578Y585750D01*
X794892Y558250D02*
X813078D01*
X822250Y552500D02*
X825750Y556000D01*
X791971Y552500D02*
X822250D01*
X872750Y621500D02*
X877250Y617000D01*
Y576500D02*
Y617000D01*
X867500Y566750D02*
X877250Y576500D01*
X867500Y558250D02*
Y566750D01*
X858000Y548750D02*
X867500Y558250D01*
X791049Y548750D02*
X858000D01*
X421299Y276250D02*
X447250Y302201D01*
X420471Y278250D02*
X445250Y303029D01*
X419642Y280250D02*
X443250Y303858D01*
Y388407D01*
X418814Y282250D02*
X441250Y304686D01*
Y389235D01*
X417985Y284250D02*
X439250Y305515D01*
Y390064D01*
X417157Y286250D02*
X437250Y306343D01*
Y390892D01*
X416329Y288250D02*
X435250Y307172D01*
X415500Y290250D02*
X433250Y308000D01*
Y392549D01*
X435250Y307172D02*
Y391721D01*
X445250Y303029D02*
Y387578D01*
X447250Y302201D02*
Y386750D01*
X575436Y526250D02*
X757235D01*
X574608Y528250D02*
X756407D01*
X573779Y530250D02*
X755579D01*
X572951Y532250D02*
X754750D01*
X927250Y535000D02*
Y587750D01*
Y535000D02*
X941250Y521000D01*
Y464000D02*
Y521000D01*
X1002000Y491500D02*
X1019500Y474000D01*
X1046500D02*
X1055750Y483250D01*
X1019500Y474000D02*
X1046500D01*
X988000Y585824D02*
X992750Y590574D01*
X988000Y523064D02*
Y585824D01*
Y523064D02*
X1002000Y509064D01*
Y491500D02*
Y509064D01*
X1025750Y478500D02*
Y531000D01*
X910500Y637000D02*
X913250D01*
X971750Y621500D02*
X972500D01*
X949250Y586000D02*
X958750D01*
X946000Y589250D02*
X949250Y586000D01*
X967750Y531078D02*
Y577000D01*
X958750Y586000D02*
X967750Y577000D01*
Y531078D02*
X969828Y529000D01*
X942250Y601250D02*
X946000Y597500D01*
Y589250D02*
Y597500D01*
X969828Y529000D02*
X979235D01*
X1000000Y508235D01*
Y483500D02*
Y508235D01*
Y483500D02*
X1006000Y477500D01*
X957000Y539000D02*
X969000Y527000D01*
X978407D01*
X957000Y539000D02*
Y577000D01*
X994000Y369157D02*
Y505750D01*
X977250Y352407D02*
X994000Y369157D01*
X976750Y523000D02*
X994000Y505750D01*
X1029750Y98250D02*
X1032500D01*
X1021879Y90379D02*
X1029750Y98250D01*
X909293Y92379D02*
X1011879D01*
X1013750Y94250D01*
X908464Y90379D02*
X1021879D01*
X1000629Y94379D02*
X1019500Y113250D01*
X910121Y94379D02*
X1000629D01*
X887379Y117121D02*
X910121Y94379D01*
X989000Y96500D02*
X1001500Y109000D01*
X911000Y96500D02*
X989000D01*
X889500Y118000D02*
X911000Y96500D01*
X883379Y115464D02*
X908464Y90379D01*
X883379Y115464D02*
Y199286D01*
X933250Y249157D01*
X1001500Y109000D02*
X1004000D01*
X885379Y116293D02*
X909293Y92379D01*
X885379Y116293D02*
Y198457D01*
X935250Y248328D01*
X1019500Y113250D02*
X1026000D01*
X998000Y367500D02*
Y507407D01*
X978407Y527000D02*
X998000Y507407D01*
X996000Y368328D02*
Y506578D01*
X977578Y525000D02*
X996000Y506578D01*
X959750Y525000D02*
X977578D01*
X952250Y523000D02*
X976750D01*
X977250Y214750D02*
Y352407D01*
X930500Y168000D02*
X977250Y214750D01*
X979250Y351578D02*
X996000Y368328D01*
X979250Y190250D02*
Y351578D01*
X957000Y168000D02*
X979250Y190250D01*
X981250Y350750D02*
X998000Y367500D01*
X981250Y168000D02*
Y350750D01*
X937250Y538000D02*
X952250Y523000D01*
X937250Y538000D02*
Y576000D01*
X946500Y538250D02*
X959750Y525000D01*
X946500Y538250D02*
Y576824D01*
X953000Y581000D02*
X957000Y577000D01*
X942324Y581000D02*
X946500Y576824D01*
X932250Y581000D02*
X937250Y576000D01*
X916250Y520093D02*
X920750Y515593D01*
X916250Y520093D02*
Y535093D01*
X908824Y591074D02*
X912250D01*
X900500Y582750D02*
X908824Y591074D01*
X900500Y550843D02*
Y582750D01*
Y550843D02*
X916250Y535093D01*
X918250Y520922D02*
X922750Y516422D01*
X918250Y520922D02*
Y535922D01*
X905250Y581250D02*
X912750D01*
X902500Y578500D02*
X905250Y581250D01*
X902500Y551672D02*
Y578500D01*
Y551672D02*
X918250Y535922D01*
X920250Y521750D02*
X924750Y517250D01*
X920250Y521750D02*
Y536750D01*
X904500Y552500D02*
Y570000D01*
X887379Y197629D02*
X937250Y247500D01*
X904500Y552500D02*
X920250Y536750D01*
X926871Y500500D02*
Y518129D01*
X926750Y468750D02*
X939371Y456129D01*
X926750Y500379D02*
X926871Y500500D01*
X926750Y468750D02*
Y500379D01*
X939371Y246621D02*
Y456129D01*
X922250Y522750D02*
Y571074D01*
X889500Y196750D02*
X939371Y246621D01*
X922250Y522750D02*
X926871Y518129D01*
X887379Y117121D02*
Y197629D01*
X889500Y118000D02*
Y196750D01*
X636000Y998800D02*
X642027Y1004827D01*
X649423D01*
X842250Y1214750D02*
X848750Y1208250D01*
X833328Y1214750D02*
X842250D01*
X820500Y1201922D02*
X833328Y1214750D01*
X820500Y1184593D02*
Y1201922D01*
X710907Y1075000D02*
X820500Y1184593D01*
X636000Y1075000D02*
X710907D01*
X822500Y1200500D02*
X830000Y1208000D01*
X839500D01*
X822500Y1183765D02*
Y1200500D01*
X688335Y1049600D02*
X822500Y1183765D01*
X636000Y1049600D02*
X688335D01*
X853000Y1203000D02*
X857500Y1198500D01*
X845000Y1203000D02*
X853000D01*
X842500Y1197922D02*
Y1200500D01*
X845000Y1203000D01*
X869250Y1178000D02*
Y1184740D01*
X867750Y1176500D02*
X869250Y1178000D01*
X864750Y1189240D02*
X869250Y1184740D01*
X844500Y1166000D02*
X855000Y1176500D01*
X826750Y1166000D02*
X844500D01*
X672000Y1011250D02*
X826750Y1166000D01*
X672000Y933200D02*
Y1011250D01*
X636000Y897200D02*
X672000Y933200D01*
X665764Y1024200D02*
X824500Y1182936D01*
X636000Y1024200D02*
X665764D01*
X845828Y1197250D02*
X848750D01*
X658750Y999250D02*
Y1010172D01*
X636000Y976500D02*
X658750Y999250D01*
X636000Y973400D02*
Y976500D01*
X856750Y1188500D02*
Y1189000D01*
X852500Y1176829D02*
Y1184250D01*
X856750Y1188500D01*
X843922Y1168250D02*
X852500Y1176829D01*
X823000Y1168250D02*
X843922D01*
X670000Y1015250D02*
X823000Y1168250D01*
X670000Y956600D02*
Y1015250D01*
X636000Y922600D02*
X670000Y956600D01*
X860250Y1192750D02*
X864750Y1197250D01*
X846750Y1192750D02*
X860250D01*
X843500Y1189500D02*
X846750Y1192750D01*
X667000Y970250D02*
Y1015593D01*
X832578Y1181172D01*
X644750Y948000D02*
X667000Y970250D01*
X636000Y948000D02*
X644750D01*
X848250Y1216750D02*
X857000Y1208000D01*
X818500Y1202750D02*
X832500Y1216750D01*
X848250D01*
X818500Y1185422D02*
Y1202750D01*
X733478Y1100400D02*
X818500Y1185422D01*
X636000Y1100400D02*
X733478D01*
X853750Y1218750D02*
X865000Y1207500D01*
X816500Y1205500D02*
X829750Y1218750D01*
X853750D01*
X816500Y1186250D02*
Y1205500D01*
X756050Y1125800D02*
X816500Y1186250D01*
X636000Y1125800D02*
X756050D01*
X960500Y687000D02*
X1003675D01*
X1008250Y656250D02*
Y682425D01*
X1055550Y828600D02*
X1078950Y852000D01*
X1055550Y828300D02*
Y828600D01*
X1034000Y806750D02*
X1055550Y828300D01*
X1034000Y806750D02*
Y806750D01*
X1028150Y806966D02*
Y852000D01*
X1015697Y794513D02*
X1028150Y806966D01*
X1002750Y852000D02*
X1013697Y841053D01*
Y651553D02*
Y841053D01*
X1053550Y829128D02*
Y852000D01*
X1017697Y793276D02*
X1053550Y829128D01*
X886850Y809100D02*
Y900250D01*
X879500Y801750D02*
X886850Y809100D01*
X898750Y816500D02*
Y915500D01*
X912250Y825500D02*
Y900250D01*
X885000Y798250D02*
X912250Y825500D01*
X885000Y743250D02*
Y798250D01*
X887000Y744079D02*
Y796078D01*
X924500Y833578D02*
Y919900D01*
X887000Y796078D02*
X924500Y833578D01*
X936750Y843000D02*
Y899350D01*
X889000Y795250D02*
X936750Y843000D01*
X889000Y745000D02*
Y795250D01*
X948750Y851750D02*
Y913750D01*
X907250Y810250D02*
X948750Y851750D01*
X963050Y862785D02*
Y900250D01*
X975250Y872157D02*
Y907250D01*
X982750Y876828D02*
Y894550D01*
X1000750Y892000D02*
Y915500D01*
X1013850Y893600D02*
Y900250D01*
X1008250Y888000D02*
X1013850Y893600D01*
X1008093Y888000D02*
X1008250D01*
X941000Y820907D02*
X1008093Y888000D01*
X941000Y702500D02*
Y820907D01*
X1008922Y886000D02*
X1017000D01*
X943000Y820078D02*
X1008922Y886000D01*
X943000Y701672D02*
Y820078D01*
X1051000Y892500D02*
Y920400D01*
X1040500Y882000D02*
X1051000Y892500D01*
X1010578Y882000D02*
X1040500D01*
X1052250Y878000D02*
X1064650Y890400D01*
X1012235Y878000D02*
X1052250D01*
X964750Y830515D02*
X1012235Y878000D01*
X1041500Y880000D02*
X1054750Y893250D01*
X1011407Y880000D02*
X1041500D01*
X962750Y831343D02*
X1011407Y880000D01*
X955000Y826422D02*
X1010578Y882000D01*
X1023000Y884000D02*
X1039250Y900250D01*
X1009750Y884000D02*
X1023000D01*
X1064650Y890400D02*
Y900250D01*
X964750Y705422D02*
Y830515D01*
X962750Y706250D02*
Y831343D01*
X955000Y774578D02*
Y826422D01*
X1054750Y921450D02*
X1065050Y931750D01*
X1054750Y893250D02*
Y921450D01*
X1039650Y931750D02*
X1051000Y920400D01*
X1065050Y926550D02*
Y931750D01*
X948000Y767578D02*
X955000Y774578D01*
X1026750Y895750D02*
Y906000D01*
X1017000Y886000D02*
X1026750Y895750D01*
X1014250Y918500D02*
X1026750Y906000D01*
X1014250Y918500D02*
Y931750D01*
X988850D02*
X994250Y926350D01*
Y922000D02*
Y926350D01*
Y922000D02*
X1000750Y915500D01*
X982750Y894550D02*
X988450Y900250D01*
X963450Y919050D02*
X975250Y907250D01*
X963450Y919050D02*
Y931750D01*
X938050Y924450D02*
Y931750D01*
Y924450D02*
X948750Y913750D01*
X936750Y899350D02*
X937650Y900250D01*
X912650Y931750D02*
X924500Y919900D01*
X887250Y927000D02*
X898750Y915500D01*
X887250Y927000D02*
Y931750D01*
X1014172Y626250D02*
X1019086Y631164D01*
X996500Y631250D02*
X1001500Y626250D01*
X1014172D01*
X991500Y631250D02*
X996500D01*
X989000Y616000D02*
X1006750D01*
X982500Y621000D02*
X984000D01*
X989000Y616000D01*
X1013697Y651553D02*
X1019086Y646164D01*
X1015697Y652381D02*
Y794513D01*
Y652381D02*
X1021086Y646993D01*
X1017697Y653619D02*
Y793276D01*
X1019697Y792447D02*
X1034000Y806750D01*
X1019697Y654447D02*
Y792447D01*
Y654447D02*
X1025086Y649059D01*
Y628679D02*
Y649059D01*
X1005329Y611750D02*
X1023086Y629507D01*
X1017697Y653619D02*
X1023086Y648230D01*
Y629507D02*
Y648230D01*
X1021086Y630336D02*
Y646993D01*
X1006750Y616000D02*
X1021086Y630336D01*
X1019086Y631164D02*
Y646164D01*
X958000Y698672D02*
X964750Y705422D01*
X958000Y689500D02*
Y698672D01*
Y689500D02*
X960500Y687000D01*
X1003000Y651000D02*
X1008250Y656250D01*
X987250Y667250D02*
X993000Y661500D01*
X956000Y699500D02*
X962750Y706250D01*
X956000Y687250D02*
Y699500D01*
Y687250D02*
X958250Y685000D01*
X948000Y680500D02*
Y767578D01*
Y680500D02*
X951500Y677000D01*
X999000Y634750D02*
X1002500Y631250D01*
X938000Y696672D02*
X943000Y701672D01*
X984750Y655500D02*
X987250Y653000D01*
X936000Y697500D02*
X941000Y702500D01*
X992500Y641250D02*
X997000Y645750D01*
X986750Y657500D02*
X992250Y652000D01*
Y651075D02*
Y652000D01*
X911250Y684500D02*
Y749000D01*
X987250Y628500D02*
Y653000D01*
Y628500D02*
X989000Y626750D01*
X997250D01*
X1002250Y621750D01*
X903000Y690250D02*
Y731000D01*
X890250Y702250D02*
Y728172D01*
Y702250D02*
X895250Y697250D01*
X683650Y900250D02*
X696750Y913350D01*
Y939250D01*
X705500Y948000D01*
X713000D01*
X749250Y984250D01*
Y991250D01*
X709450Y931750D02*
X709500D01*
X769250Y991500D01*
X846950Y914750D02*
X861450Y900250D01*
X834000Y914750D02*
X846950D01*
X822750Y926000D02*
X834000Y914750D01*
X822750Y926000D02*
Y938500D01*
X777750Y983500D02*
X822750Y938500D01*
X777750Y983500D02*
Y991500D01*
X860750Y931750D02*
X861850D01*
X801500Y991000D02*
X860750Y931750D01*
X960250Y977750D02*
Y986250D01*
Y977750D02*
X973000Y965000D01*
X1002750D01*
X1027000Y940750D01*
Y912500D02*
Y940750D01*
Y912500D02*
X1039250Y900250D01*
X975500Y913200D02*
Y941750D01*
Y913200D02*
X988450Y900250D01*
X951000Y912300D02*
Y959250D01*
Y912300D02*
X963050Y900250D01*
X924000Y988250D02*
X925250D01*
X941000Y969250D02*
Y986250D01*
Y969250D02*
X951000Y959250D01*
X950000Y967250D02*
X975500Y941750D01*
X946000Y967500D02*
X963450Y950050D01*
Y931750D02*
Y950050D01*
X950000Y967250D02*
Y988250D01*
X925250Y988250D02*
X927750Y990750D01*
X929500Y650154D02*
Y652500D01*
X929000Y640750D02*
Y644500D01*
X907750Y639750D02*
Y643750D01*
Y639750D02*
X910500Y637000D01*
X878250Y649500D02*
X885000Y642750D01*
X878250Y649500D02*
Y703500D01*
X885000Y642750D02*
X887250D01*
X897000Y633000D01*
Y619000D02*
Y633000D01*
X877000Y637000D02*
X882750Y631250D01*
X656000Y561750D02*
X659750Y565500D01*
X656500Y555500D02*
X664500Y563500D01*
X659750Y565500D02*
X763425D01*
X664500Y563500D02*
X764253D01*
X659500Y567500D02*
X762596D01*
X655750Y571250D02*
X659500Y567500D01*
X860750Y1137500D02*
X865000Y1133250D01*
X860750Y1137500D02*
Y1147500D01*
X877250Y1164000D01*
X865000Y1141500D02*
Y1148000D01*
X879250Y1162250D01*
X856250Y1115500D02*
X869000Y1128250D01*
Y1143000D01*
X879250Y1162250D02*
Y1212078D01*
X865000Y1116000D02*
X867363D01*
X881500Y1159250D02*
Y1211500D01*
X869000Y1143000D02*
X871250Y1145250D01*
X875750D01*
X857500Y1197000D02*
Y1198500D01*
X877250Y1164000D02*
Y1216250D01*
X873000Y1220500D02*
X877250Y1216250D01*
X906250Y1233000D02*
Y1279000D01*
X961817Y1334567D01*
Y1457750D01*
X936750Y1323500D02*
Y1457417D01*
X936417Y1457750D02*
X936750Y1457417D01*
X879250Y1212078D02*
X886000Y1218828D01*
X911000Y1300750D02*
Y1442500D01*
X911017Y1442517D02*
Y1457750D01*
X911000Y1442500D02*
X911017Y1442517D01*
X873000Y1220500D02*
Y1431750D01*
X885617Y1444367D02*
Y1457750D01*
X873000Y1431750D02*
X885617Y1444367D01*
X1020250Y599500D02*
X1027500Y606750D01*
X1020250Y536500D02*
X1025750Y531000D01*
X1020250Y536500D02*
Y599500D01*
X155500Y170500D02*
X158250Y167750D01*
X158500D01*
X133500Y155750D02*
Y205314D01*
X215750Y276250D02*
X421299D01*
X214922Y278250D02*
X420471D01*
X213265Y282250D02*
X418814D01*
X214093Y280250D02*
X419642D01*
X211608Y286250D02*
X417157D01*
X212436Y284250D02*
X417985D01*
X162500Y223000D02*
X215750Y276250D01*
X160500Y223828D02*
X214922Y278250D01*
X158500Y224657D02*
X214093Y280250D01*
X155500Y224485D02*
X213265Y282250D01*
X133500Y205314D02*
X212436Y284250D01*
X113750Y188392D02*
X211608Y286250D01*
X209951Y290250D02*
X415500D01*
X210779Y288250D02*
X416329D01*
X73250Y150721D02*
X210779Y288250D01*
X57451Y137750D02*
X209951Y290250D01*
D51*
X885617Y1457750D02*
D03*
X1078950Y852000D02*
D03*
D52*
X911017Y1457750D02*
D03*
X936417D02*
D03*
X961817D02*
D03*
X1053550Y852000D02*
D03*
X1028150D02*
D03*
X1002750D02*
D03*
D53*
X636000Y897200D02*
D03*
D54*
Y922600D02*
D03*
Y948000D02*
D03*
Y973400D02*
D03*
Y998800D02*
D03*
Y1024200D02*
D03*
Y1049600D02*
D03*
Y1075000D02*
D03*
Y1100400D02*
D03*
Y1125800D02*
D03*
X1065050Y931750D02*
D03*
X1039650D02*
D03*
X1014250D02*
D03*
X988850D02*
D03*
X963450D02*
D03*
X938050D02*
D03*
X912650D02*
D03*
X887250D02*
D03*
X861850D02*
D03*
X709450D02*
D03*
X1064650Y900250D02*
D03*
X1039250D02*
D03*
X1013850D02*
D03*
X988450D02*
D03*
X963050D02*
D03*
X937650D02*
D03*
X912250D02*
D03*
X886850D02*
D03*
X861450D02*
D03*
D55*
X683650D02*
D03*
D61*
X271900Y708250D02*
D03*
X324750Y432500D02*
D03*
D62*
X246500Y708250D02*
D03*
X350150Y432500D02*
D03*
D65*
X305500Y687250D02*
D03*
D66*
X962000Y641000D02*
D03*
X1002000Y611750D02*
D03*
X912544Y571028D02*
D03*
X851250Y651000D02*
D03*
X837041Y1197558D02*
D03*
X277250Y135250D02*
D03*
X257000Y146000D02*
D03*
X219000Y144250D02*
D03*
X113750Y140000D02*
D03*
X73250Y138500D02*
D03*
X44750Y137750D02*
D03*
X851000Y621250D02*
D03*
X872500Y611250D02*
D03*
X850750D02*
D03*
X851250Y601750D02*
D03*
X872500Y600912D02*
D03*
X862500Y590500D02*
D03*
X872500Y591250D02*
D03*
X872750Y621500D02*
D03*
X931500Y591750D02*
D03*
X945000Y305000D02*
D03*
X1055750Y483250D02*
D03*
X1027500Y606750D02*
D03*
X952500Y621250D02*
D03*
X1025750Y478500D02*
D03*
X1006000Y477500D02*
D03*
X942250Y601250D02*
D03*
X1032500Y98250D02*
D03*
X1013750Y94250D02*
D03*
X1004000Y109000D02*
D03*
X1026000Y113250D02*
D03*
X953000Y581000D02*
D03*
X981250Y168000D02*
D03*
X932250Y581000D02*
D03*
X930500Y168000D02*
D03*
X942324Y581000D02*
D03*
X957000Y168000D02*
D03*
X912250Y591074D02*
D03*
X912750Y581250D02*
D03*
X922250Y571074D02*
D03*
X240250Y427000D02*
D03*
X848750Y1208250D02*
D03*
X839500Y1208000D02*
D03*
X864750Y1189240D02*
D03*
X848750Y1197250D02*
D03*
X856750Y1189000D02*
D03*
X864750Y1197250D02*
D03*
X857000Y1208000D02*
D03*
X865000Y1207500D02*
D03*
X991500Y631250D02*
D03*
X982500Y621000D02*
D03*
X992500Y611000D02*
D03*
X993000Y661500D02*
D03*
X892325Y631000D02*
D03*
X992750Y590574D02*
D03*
X882750Y631250D02*
D03*
X962500Y631000D02*
D03*
X962750Y621250D02*
D03*
X972500Y621500D02*
D03*
X1002250Y621750D02*
D03*
X1002500Y631250D02*
D03*
X982250Y631000D02*
D03*
X992500Y641250D02*
D03*
X982500Y641000D02*
D03*
X972500Y641500D02*
D03*
X992250Y651075D02*
D03*
X1003000Y651000D02*
D03*
X1002750Y661500D02*
D03*
X982500Y661250D02*
D03*
X749250Y991250D02*
D03*
X769250Y991500D02*
D03*
X777750D02*
D03*
X801500Y991000D02*
D03*
X924000Y988250D02*
D03*
X960250Y986250D02*
D03*
X865000Y1133250D02*
D03*
Y1141500D02*
D03*
X215000Y767500D02*
D03*
X214500Y780000D02*
D03*
X214750Y748000D02*
D03*
X180750Y723250D02*
D03*
X333000Y558500D02*
D03*
X941000Y986250D02*
D03*
X950000Y988250D02*
D03*
X246250Y336000D02*
D03*
X656500Y555500D02*
D03*
X656000Y561750D02*
D03*
X655750Y571250D02*
D03*
X865000Y1116000D02*
D03*
X856250Y1115500D02*
D03*
X857500Y1197000D02*
D03*
X158500Y167750D02*
D03*
X133500Y155750D02*
D03*
M02*
