G04 Layer_Color=255*
%FSLAX44Y44*%
%MOMM*%
G71*
G01*
G75*
%ADD12R,1.1000X1.1000*%
%ADD17R,1.0000X0.9000*%
%ADD19R,0.9000X0.7000*%
%ADD20R,0.9000X1.0000*%
%ADD26R,1.1000X1.1000*%
%ADD33R,0.7000X0.9000*%
%ADD36R,0.7000X0.4500*%
%ADD37R,0.3000X0.3000*%
%ADD38R,1.8000X2.0000*%
%ADD51C,1.5000*%
%ADD52R,1.5000X1.5000*%
%ADD53R,1.5500X1.5500*%
%ADD54C,1.5500*%
%ADD55C,1.3000*%
%ADD56R,1.3000X1.3000*%
%ADD57R,1.5500X1.5500*%
%ADD58C,0.9000*%
%ADD59R,1.5000X1.5000*%
%ADD60C,2.0500*%
%ADD61R,2.0500X2.0500*%
%ADD62R,1.5200X1.5200*%
%ADD63C,1.5200*%
%ADD64R,1.5200X1.5200*%
%ADD78R,1.1500X2.7000*%
%ADD79R,2.7000X1.1500*%
%ADD80R,0.3000X0.3000*%
%ADD81R,0.4500X0.7000*%
G04:AMPARAMS|DCode=82|XSize=1.524mm|YSize=3.048mm|CornerRadius=0.381mm|HoleSize=0mm|Usage=FLASHONLY|Rotation=270.000|XOffset=0mm|YOffset=0mm|HoleType=Round|Shape=RoundedRectangle|*
%AMROUNDEDRECTD82*
21,1,1.5240,2.2860,0,0,270.0*
21,1,0.7620,3.0480,0,0,270.0*
1,1,0.7620,-1.1430,-0.3810*
1,1,0.7620,-1.1430,0.3810*
1,1,0.7620,1.1430,0.3810*
1,1,0.7620,1.1430,-0.3810*
%
%ADD82ROUNDEDRECTD82*%
G04:AMPARAMS|DCode=83|XSize=1.16mm|YSize=2.5mm|CornerRadius=0.29mm|HoleSize=0mm|Usage=FLASHONLY|Rotation=270.000|XOffset=0mm|YOffset=0mm|HoleType=Round|Shape=RoundedRectangle|*
%AMROUNDEDRECTD83*
21,1,1.1600,1.9200,0,0,270.0*
21,1,0.5800,2.5000,0,0,270.0*
1,1,0.5800,-0.9600,-0.2900*
1,1,0.5800,-0.9600,0.2900*
1,1,0.5800,0.9600,0.2900*
1,1,0.5800,0.9600,-0.2900*
%
%ADD83ROUNDEDRECTD83*%
%ADD84R,1.6000X0.6500*%
D12*
X800750Y489250D02*
D03*
Y471250D02*
D03*
X775500Y489000D02*
D03*
Y471000D02*
D03*
X345750Y206000D02*
D03*
Y224000D02*
D03*
X343250Y143750D02*
D03*
Y161750D02*
D03*
X886250Y1093750D02*
D03*
Y1075750D02*
D03*
X886250Y709250D02*
D03*
Y727250D02*
D03*
X983750Y708750D02*
D03*
Y726750D02*
D03*
X744250Y640500D02*
D03*
Y622500D02*
D03*
X769000Y640500D02*
D03*
Y622500D02*
D03*
X884000Y505500D02*
D03*
Y487500D02*
D03*
X979250Y505500D02*
D03*
Y487500D02*
D03*
X714750Y485250D02*
D03*
Y467250D02*
D03*
D17*
X1008750Y1052250D02*
D03*
Y1068250D02*
D03*
X398500Y144750D02*
D03*
Y160750D02*
D03*
X375250Y70750D02*
D03*
Y86750D02*
D03*
X398500Y53750D02*
D03*
Y37750D02*
D03*
X375249Y193750D02*
D03*
Y209750D02*
D03*
X398500Y218250D02*
D03*
Y234250D02*
D03*
X375250Y244250D02*
D03*
Y260250D02*
D03*
X124750Y755750D02*
D03*
Y739750D02*
D03*
D19*
X856000Y510000D02*
D03*
Y496000D02*
D03*
X840000Y510000D02*
D03*
Y496000D02*
D03*
X824000Y509750D02*
D03*
Y495750D02*
D03*
X1052750Y1054500D02*
D03*
Y1068500D02*
D03*
X1030750Y1054000D02*
D03*
Y1068000D02*
D03*
X906750Y707500D02*
D03*
Y721500D02*
D03*
X925417Y707500D02*
D03*
Y721500D02*
D03*
X944083Y707500D02*
D03*
Y721500D02*
D03*
X962750Y707500D02*
D03*
Y721500D02*
D03*
X786500Y637750D02*
D03*
Y623750D02*
D03*
X808000Y638000D02*
D03*
Y624000D02*
D03*
X828500Y638250D02*
D03*
Y624250D02*
D03*
X904250Y507250D02*
D03*
Y493250D02*
D03*
X922916Y507250D02*
D03*
Y493250D02*
D03*
X941583Y507250D02*
D03*
Y493250D02*
D03*
X960250Y507250D02*
D03*
Y493250D02*
D03*
X780000Y741250D02*
D03*
Y755250D02*
D03*
D20*
X1057000Y990500D02*
D03*
X1041000D02*
D03*
X1084000Y1353000D02*
D03*
X1068000D02*
D03*
X1085750Y1371750D02*
D03*
X1069750D02*
D03*
X859000Y709500D02*
D03*
X843000D02*
D03*
X219750Y329000D02*
D03*
X203750D02*
D03*
X222750Y419750D02*
D03*
X206750D02*
D03*
X216750Y546500D02*
D03*
X200750D02*
D03*
D26*
X952750Y1172750D02*
D03*
X970750D02*
D03*
X970750Y1145250D02*
D03*
X952750D02*
D03*
X952750Y1119750D02*
D03*
X970750D02*
D03*
X1055000Y713750D02*
D03*
X1037000D02*
D03*
X825500Y552250D02*
D03*
X807500D02*
D03*
X1036250Y666500D02*
D03*
X1054250D02*
D03*
X1032000Y531250D02*
D03*
X1050000D02*
D03*
D33*
X829500Y690500D02*
D03*
X815500D02*
D03*
X829500Y673750D02*
D03*
X815500D02*
D03*
X826000Y599750D02*
D03*
X812000D02*
D03*
X825750Y577500D02*
D03*
X811750D02*
D03*
X1036250Y622750D02*
D03*
X1050250D02*
D03*
X1036000Y642750D02*
D03*
X1050000D02*
D03*
X1029000Y564750D02*
D03*
X1043000D02*
D03*
X1029250Y549250D02*
D03*
X1043250D02*
D03*
X829500Y653250D02*
D03*
X815500D02*
D03*
D36*
X1041000Y1011750D02*
D03*
Y1021250D02*
D03*
Y1030750D02*
D03*
X1065000D02*
D03*
Y1021250D02*
D03*
Y1011750D02*
D03*
D37*
X1060750Y1371750D02*
D03*
X1055500D02*
D03*
X767250Y657750D02*
D03*
X762000D02*
D03*
D38*
X801250Y773500D02*
D03*
X852050D02*
D03*
Y731500D02*
D03*
X801250D02*
D03*
D51*
X637750Y484150D02*
D03*
X663150Y458750D02*
D03*
Y484150D02*
D03*
X637750Y424400D02*
D03*
X663150Y399000D02*
D03*
Y424400D02*
D03*
X324750Y432500D02*
D03*
X271900Y708250D02*
D03*
X1140750Y189000D02*
D03*
X1160750D02*
D03*
X1140750Y169000D02*
D03*
X1160750D02*
D03*
X1140750Y149000D02*
D03*
X1160750D02*
D03*
X1140750Y129000D02*
D03*
X1160750D02*
D03*
X1140750Y109000D02*
D03*
X1160750D02*
D03*
X1140750Y89000D02*
D03*
X1160750D02*
D03*
X1140750Y69000D02*
D03*
D52*
X637750Y458750D02*
D03*
Y399000D02*
D03*
X1160750Y69000D02*
D03*
D53*
X451600Y191750D02*
D03*
X635500Y1317300D02*
D03*
X411499Y813450D02*
D03*
X457000Y556900D02*
D03*
X762150Y43850D02*
D03*
X763250Y155250D02*
D03*
X637000Y779150D02*
D03*
X1146250Y764450D02*
D03*
D54*
X451600Y166350D02*
D03*
Y140950D02*
D03*
Y115550D02*
D03*
Y90150D02*
D03*
X477000Y191750D02*
D03*
Y166350D02*
D03*
Y140950D02*
D03*
Y115550D02*
D03*
Y90150D02*
D03*
X447850Y30000D02*
D03*
X473250D02*
D03*
X1002750Y852000D02*
D03*
X1028150D02*
D03*
X1053550D02*
D03*
X635500Y1215700D02*
D03*
Y1241100D02*
D03*
Y1266500D02*
D03*
Y1291900D02*
D03*
X1168200Y1143752D02*
D03*
X1142800D02*
D03*
X1117400D02*
D03*
X1092000D02*
D03*
X1066600D02*
D03*
X1041200D02*
D03*
X1168200Y1118352D02*
D03*
X1142800D02*
D03*
X1117400D02*
D03*
X1092000D02*
D03*
X1066600D02*
D03*
X411499Y788050D02*
D03*
X457000Y480700D02*
D03*
Y506100D02*
D03*
Y531500D02*
D03*
X62250Y30750D02*
D03*
Y272750D02*
D03*
X659800Y1416250D02*
D03*
X634400Y1441650D02*
D03*
Y1416250D02*
D03*
X609000Y1441650D02*
D03*
Y1416250D02*
D03*
X583600Y1441650D02*
D03*
Y1416250D02*
D03*
X558200Y1441650D02*
D03*
X659800D02*
D03*
X685200Y1416250D02*
D03*
Y1441650D02*
D03*
X710600D02*
D03*
Y1416250D02*
D03*
X736000D02*
D03*
Y1441650D02*
D03*
X761400Y1416250D02*
D03*
Y1441650D02*
D03*
X786800Y1416250D02*
D03*
Y1441650D02*
D03*
X762150Y69250D02*
D03*
Y94650D02*
D03*
X736750Y43850D02*
D03*
Y69250D02*
D03*
Y94650D02*
D03*
X763250Y180650D02*
D03*
Y206050D02*
D03*
X737850Y155250D02*
D03*
Y180650D02*
D03*
Y206050D02*
D03*
X661500Y626750D02*
D03*
Y652150D02*
D03*
Y677550D02*
D03*
Y702950D02*
D03*
Y728350D02*
D03*
Y753750D02*
D03*
Y779150D02*
D03*
X637000Y626750D02*
D03*
Y652150D02*
D03*
Y677550D02*
D03*
Y702950D02*
D03*
Y728350D02*
D03*
Y753750D02*
D03*
X1146250Y739050D02*
D03*
Y713650D02*
D03*
Y688250D02*
D03*
Y662850D02*
D03*
Y637450D02*
D03*
Y612050D02*
D03*
Y586650D02*
D03*
Y561250D02*
D03*
Y535850D02*
D03*
Y510450D02*
D03*
Y485050D02*
D03*
Y459650D02*
D03*
Y434250D02*
D03*
Y408850D02*
D03*
Y383450D02*
D03*
X961817Y1457750D02*
D03*
X936417D02*
D03*
X911017D02*
D03*
D55*
X930600Y133600D02*
D03*
X956000D02*
D03*
X981400D02*
D03*
Y57400D02*
D03*
X956000D02*
D03*
D56*
X930600D02*
D03*
D57*
X498650Y30000D02*
D03*
X1078950Y852000D02*
D03*
X1041200Y1118352D02*
D03*
X558200Y1416250D02*
D03*
X885617Y1457750D02*
D03*
D58*
X68000Y1055250D02*
D03*
Y1099250D02*
D03*
X68250Y1182500D02*
D03*
Y1226500D02*
D03*
X1099250Y1435500D02*
D03*
X1143250D02*
D03*
X1132000Y1045250D02*
D03*
Y1001250D02*
D03*
X65750Y765750D02*
D03*
Y809750D02*
D03*
D59*
X350150Y432500D02*
D03*
X246500Y708250D02*
D03*
D60*
X77250Y908250D02*
D03*
D61*
Y958250D02*
D03*
D62*
X683650Y900250D02*
D03*
X684050Y931750D02*
D03*
D63*
X709050Y900250D02*
D03*
X734450D02*
D03*
X759850D02*
D03*
X785250D02*
D03*
X810650D02*
D03*
X836050D02*
D03*
X861450D02*
D03*
X886850D02*
D03*
X912250D02*
D03*
X937650D02*
D03*
X963050D02*
D03*
X988450D02*
D03*
X1013850D02*
D03*
X1039250D02*
D03*
X1064650D02*
D03*
X709450Y931750D02*
D03*
X734850D02*
D03*
X760250D02*
D03*
X785650D02*
D03*
X811050D02*
D03*
X836450D02*
D03*
X861850D02*
D03*
X887250D02*
D03*
X912650D02*
D03*
X938050D02*
D03*
X963450D02*
D03*
X988850D02*
D03*
X1014250D02*
D03*
X1039650D02*
D03*
X1065050D02*
D03*
X636000Y1176600D02*
D03*
Y1151200D02*
D03*
Y1125800D02*
D03*
Y1100400D02*
D03*
Y1075000D02*
D03*
Y1049600D02*
D03*
Y1024200D02*
D03*
Y998800D02*
D03*
Y973400D02*
D03*
Y948000D02*
D03*
Y922600D02*
D03*
D64*
Y897200D02*
D03*
D78*
X759250Y523000D02*
D03*
X789250D02*
D03*
X920250Y761500D02*
D03*
X950250D02*
D03*
X918000Y445500D02*
D03*
X948000D02*
D03*
D79*
X744750Y489750D02*
D03*
Y459750D02*
D03*
X698500Y582000D02*
D03*
Y552000D02*
D03*
X745750Y556000D02*
D03*
Y586000D02*
D03*
X1099500Y666750D02*
D03*
Y636750D02*
D03*
X791000Y660500D02*
D03*
Y690500D02*
D03*
D80*
X1007500Y1078000D02*
D03*
Y1083250D02*
D03*
D81*
X1119000Y1380250D02*
D03*
X1128500D02*
D03*
X1138000D02*
D03*
Y1356250D02*
D03*
X1128500D02*
D03*
X1119000D02*
D03*
D82*
X83250Y15750D02*
D03*
Y295750D02*
D03*
D83*
X305250Y120450D02*
D03*
Y54250D02*
D03*
Y71250D02*
D03*
Y95450D02*
D03*
Y245550D02*
D03*
Y145450D02*
D03*
Y162550D02*
D03*
Y220550D02*
D03*
Y195550D02*
D03*
Y20750D02*
D03*
Y179050D02*
D03*
D84*
X151500Y767000D02*
D03*
Y757500D02*
D03*
Y748001D02*
D03*
X176500D02*
D03*
Y757500D02*
D03*
Y767000D02*
D03*
M02*
