G04 Layer_Physical_Order=2*
G04 Layer_Color=32768*
%FSLAX44Y44*%
%MOMM*%
G71*
G01*
G75*
%ADD68C,1.0160*%
%ADD69C,1.5280*%
%ADD70C,2.0580*%
%ADD71C,1.4080*%
%ADD72C,1.4080*%
%ADD73C,1.3080*%
%ADD74C,0.7080*%
%ADD75C,0.8080*%
%ADD76C,1.1080*%
D68*
X-0Y0D02*
X1200000D01*
Y1500000D01*
X-0D02*
X1200000D01*
X-0Y0D02*
Y1500000D01*
D69*
X885617Y1457750D02*
D03*
X911017D02*
D03*
X936417D02*
D03*
X961817D02*
D03*
X636000Y897200D02*
D03*
Y922600D02*
D03*
Y948000D02*
D03*
Y973400D02*
D03*
Y998800D02*
D03*
Y1024200D02*
D03*
Y1049600D02*
D03*
Y1075000D02*
D03*
Y1100400D02*
D03*
Y1125800D02*
D03*
X1065050Y931750D02*
D03*
X1039650D02*
D03*
X1014250D02*
D03*
X988850D02*
D03*
X963450D02*
D03*
X938050D02*
D03*
X912650D02*
D03*
X887250D02*
D03*
X861850D02*
D03*
X836450D02*
D03*
X811050D02*
D03*
X785650D02*
D03*
X760250D02*
D03*
X734850D02*
D03*
X709450D02*
D03*
X684050D02*
D03*
X1064650Y900250D02*
D03*
X1039250D02*
D03*
X1013850D02*
D03*
X988450D02*
D03*
X963050D02*
D03*
X937650D02*
D03*
X912250D02*
D03*
X886850D02*
D03*
X861450D02*
D03*
X836050D02*
D03*
X810650D02*
D03*
X785250D02*
D03*
X759850D02*
D03*
X734450D02*
D03*
X709050D02*
D03*
X683650D02*
D03*
X1146250Y383450D02*
D03*
Y408850D02*
D03*
Y434250D02*
D03*
Y459650D02*
D03*
Y485050D02*
D03*
Y510450D02*
D03*
Y535850D02*
D03*
Y561250D02*
D03*
Y586650D02*
D03*
Y612050D02*
D03*
Y637450D02*
D03*
Y662850D02*
D03*
Y688250D02*
D03*
Y713650D02*
D03*
Y739050D02*
D03*
Y764450D02*
D03*
X637000Y753750D02*
D03*
Y728350D02*
D03*
Y702950D02*
D03*
Y677550D02*
D03*
Y652150D02*
D03*
Y626750D02*
D03*
Y779150D02*
D03*
X661500D02*
D03*
Y753750D02*
D03*
Y728350D02*
D03*
Y702950D02*
D03*
Y677550D02*
D03*
Y652150D02*
D03*
X737850Y206050D02*
D03*
Y180650D02*
D03*
Y155250D02*
D03*
X763250Y206050D02*
D03*
Y180650D02*
D03*
Y155250D02*
D03*
X736750Y94650D02*
D03*
Y69250D02*
D03*
Y43850D02*
D03*
X762150Y94650D02*
D03*
Y69250D02*
D03*
Y43850D02*
D03*
X786800Y1416250D02*
D03*
X761400D02*
D03*
X736000D02*
D03*
X710600D02*
D03*
X685200D02*
D03*
X558200D02*
D03*
X583600D02*
D03*
X609000D02*
D03*
X634400D02*
D03*
X659800D02*
D03*
X246500Y708250D02*
D03*
X271900D02*
D03*
X350150Y432500D02*
D03*
X324750D02*
D03*
X663150Y424400D02*
D03*
Y399000D02*
D03*
X637750D02*
D03*
Y424400D02*
D03*
X457000Y531500D02*
D03*
Y506100D02*
D03*
Y480700D02*
D03*
X411499Y788050D02*
D03*
Y813450D02*
D03*
X1041200Y1118352D02*
D03*
X1066600D02*
D03*
X1092000D02*
D03*
X1117400D02*
D03*
X1142800D02*
D03*
X1168200D02*
D03*
X1041200Y1143752D02*
D03*
X1066600D02*
D03*
X1092000D02*
D03*
X1117400D02*
D03*
X1142800D02*
D03*
X1168200D02*
D03*
X635500Y1317300D02*
D03*
Y1291900D02*
D03*
Y1266500D02*
D03*
Y1241100D02*
D03*
Y1215700D02*
D03*
X1078950Y852000D02*
D03*
X1053550D02*
D03*
X1028150D02*
D03*
X1002750D02*
D03*
X473250Y30000D02*
D03*
X447850D02*
D03*
X477000Y90150D02*
D03*
Y115550D02*
D03*
Y140950D02*
D03*
Y166350D02*
D03*
Y191750D02*
D03*
X451600Y90150D02*
D03*
Y115550D02*
D03*
Y140950D02*
D03*
Y166350D02*
D03*
X663150Y484150D02*
D03*
Y458750D02*
D03*
X637750D02*
D03*
D70*
X77250Y908250D02*
D03*
X62250Y272750D02*
D03*
Y30750D02*
D03*
D71*
X65750Y809750D02*
D03*
Y765750D02*
D03*
X1132000Y1001250D02*
D03*
Y1045250D02*
D03*
X1143250Y1435500D02*
D03*
X1099250D02*
D03*
X68250Y1226500D02*
D03*
Y1182500D02*
D03*
X68000Y1099250D02*
D03*
Y1055250D02*
D03*
D72*
X1140750Y69000D02*
D03*
Y89000D02*
D03*
Y109000D02*
D03*
Y129000D02*
D03*
Y149000D02*
D03*
Y169000D02*
D03*
Y189000D02*
D03*
D73*
X981400Y133600D02*
D03*
X956000D02*
D03*
X930600D02*
D03*
D74*
X919750Y741250D02*
D03*
X851500Y198578D02*
D03*
X896500Y1141489D02*
D03*
X880173Y1133241D02*
D03*
X889195Y1133305D02*
D03*
X889000Y1125250D02*
D03*
X1002500Y671000D02*
D03*
X962500D02*
D03*
X962000Y641000D02*
D03*
X933046Y661032D02*
D03*
X747037Y522525D02*
D03*
X911750Y766250D02*
D03*
X1002000Y611750D02*
D03*
X1001799Y680783D02*
D03*
X883000Y680250D02*
D03*
X914750Y711500D02*
D03*
X923000Y671250D02*
D03*
X932296Y671533D02*
D03*
X933046Y641781D02*
D03*
X912325Y641000D02*
D03*
X971750Y692250D02*
D03*
X992000Y692750D02*
D03*
X912544Y560527D02*
D03*
Y571028D02*
D03*
X942296Y591279D02*
D03*
X905794Y445272D02*
D03*
X917500Y427750D02*
D03*
X910794Y509525D02*
D03*
X851250Y651000D02*
D03*
X850825Y642500D02*
D03*
X862542Y671033D02*
D03*
X974747Y712285D02*
D03*
X970750Y704000D02*
D03*
X942046Y693284D02*
D03*
X932750Y681250D02*
D03*
X941750Y671750D02*
D03*
X921795Y695034D02*
D03*
X933788Y712419D02*
D03*
X954797Y704034D02*
D03*
X935546Y703534D02*
D03*
X895750Y709250D02*
D03*
X931045Y1148806D02*
D03*
X864792Y1180808D02*
D03*
X904544Y1149306D02*
D03*
X882293Y1229310D02*
D03*
X837041Y1197558D02*
D03*
X951546Y1184308D02*
D03*
X932795Y1182808D02*
D03*
X817790Y992798D02*
D03*
X902294Y630531D02*
D03*
X891794Y692784D02*
D03*
X157750Y1217750D02*
D03*
X157250Y1198500D02*
D03*
X169000Y1074500D02*
D03*
X175250Y1077750D02*
D03*
X144500Y1070750D02*
D03*
X144750Y1090250D02*
D03*
X277250Y135250D02*
D03*
X257000Y146000D02*
D03*
X219000Y144250D02*
D03*
X182500Y143500D02*
D03*
X147750Y141500D02*
D03*
X113750Y140000D02*
D03*
X73250Y138500D02*
D03*
X44750Y137750D02*
D03*
X851000Y621250D02*
D03*
X872500Y611250D02*
D03*
X850750D02*
D03*
X851250Y601750D02*
D03*
X872500Y600912D02*
D03*
X862500Y590500D02*
D03*
X872500Y591250D02*
D03*
X872750Y621500D02*
D03*
X1025750Y573250D02*
D03*
X813000Y1352750D02*
D03*
X786500Y1373000D02*
D03*
X931500Y591750D02*
D03*
X945000Y305000D02*
D03*
X909750Y317250D02*
D03*
X1055750Y483250D02*
D03*
X1027500Y606750D02*
D03*
X941750Y621000D02*
D03*
X952500Y621250D02*
D03*
X1025750Y478500D02*
D03*
X1006000Y477500D02*
D03*
X1005250Y436500D02*
D03*
X1046500Y451750D02*
D03*
X1087000Y451250D02*
D03*
X1064000Y451750D02*
D03*
X942250Y601250D02*
D03*
X1025750Y130250D02*
D03*
X1046250D02*
D03*
X1060500Y122250D02*
D03*
X1085250D02*
D03*
X1104250Y82000D02*
D03*
X1087250D02*
D03*
X1068250Y71750D02*
D03*
X1044250D02*
D03*
X1032500Y98250D02*
D03*
X1013750Y94250D02*
D03*
X1004000Y109000D02*
D03*
X1026000Y113250D02*
D03*
X953000Y581000D02*
D03*
X981250Y168000D02*
D03*
X932250Y581000D02*
D03*
X930500Y168000D02*
D03*
X942324Y581000D02*
D03*
X957000Y168000D02*
D03*
X912250Y591074D02*
D03*
X912750Y581250D02*
D03*
X922250Y571074D02*
D03*
X993250Y194000D02*
D03*
X852500Y211000D02*
D03*
X819750Y85750D02*
D03*
X834250Y191250D02*
D03*
X850500Y157750D02*
D03*
X1002750Y601250D02*
D03*
X962574Y590750D02*
D03*
X992324Y601000D02*
D03*
X982500Y611000D02*
D03*
X972250D02*
D03*
X922500Y650825D02*
D03*
X931000Y503500D02*
D03*
X952000Y503250D02*
D03*
X933000Y508750D02*
D03*
X950250Y509500D02*
D03*
X970500Y511000D02*
D03*
X668250Y223250D02*
D03*
X672500Y163250D02*
D03*
X667500Y104500D02*
D03*
X700000Y130000D02*
D03*
X942500Y541250D02*
D03*
X720000Y348250D02*
D03*
X240250Y427000D02*
D03*
X304700Y349450D02*
D03*
X848750Y1208250D02*
D03*
X839500Y1208000D02*
D03*
X932250Y693500D02*
D03*
X864750Y1189240D02*
D03*
X961750Y692250D02*
D03*
X848750Y1197250D02*
D03*
X942500Y680825D02*
D03*
X856750Y1189000D02*
D03*
X962500Y680825D02*
D03*
X864750Y1197250D02*
D03*
X952250Y681500D02*
D03*
X857000Y1208000D02*
D03*
X865000Y1207500D02*
D03*
X972250Y681075D02*
D03*
X982250Y680750D02*
D03*
X992250Y681250D02*
D03*
X981750Y693000D02*
D03*
X913000Y1165250D02*
D03*
X896250Y989750D02*
D03*
X991500Y631250D02*
D03*
X890750Y990250D02*
D03*
X982500Y621000D02*
D03*
X932250Y1173250D02*
D03*
X918000Y988750D02*
D03*
X896750Y1165370D02*
D03*
X885000Y990500D02*
D03*
X992500Y611000D02*
D03*
X993000Y661500D02*
D03*
X982325Y651000D02*
D03*
X952074Y571250D02*
D03*
X852075Y671250D02*
D03*
X862325Y681000D02*
D03*
X872075Y671250D02*
D03*
X912325Y671000D02*
D03*
X872575Y680750D02*
D03*
X873250Y692250D02*
D03*
X911825Y651500D02*
D03*
X912075Y661250D02*
D03*
X882500Y692000D02*
D03*
X902075Y671250D02*
D03*
X892325Y631000D02*
D03*
X864000Y692500D02*
D03*
X893000Y681000D02*
D03*
X899250Y693500D02*
D03*
X882325Y651000D02*
D03*
X862500Y610750D02*
D03*
X852250Y541000D02*
D03*
X882325Y551000D02*
D03*
X992750Y590574D02*
D03*
X1002500Y590825D02*
D03*
X972574Y580750D02*
D03*
X942750Y570574D02*
D03*
X962250Y610750D02*
D03*
X992750Y620575D02*
D03*
X1002250Y692750D02*
D03*
X902250Y591250D02*
D03*
X873000Y581000D02*
D03*
X892000Y611750D02*
D03*
X882250D02*
D03*
X851750Y631750D02*
D03*
X863000Y631500D02*
D03*
X862500Y621750D02*
D03*
X882750Y631250D02*
D03*
X882500Y621250D02*
D03*
X953000Y671500D02*
D03*
X952789Y710273D02*
D03*
X962500Y631000D02*
D03*
X962750Y621250D02*
D03*
X972500Y621500D02*
D03*
X1002250Y621750D02*
D03*
X1002500Y631250D02*
D03*
X982250Y631000D02*
D03*
X992500Y641250D02*
D03*
X982500Y641000D02*
D03*
X972500Y641500D02*
D03*
X952250Y651000D02*
D03*
X962750D02*
D03*
X972000Y651325D02*
D03*
X992250Y651075D02*
D03*
X1003000Y651000D02*
D03*
X972000Y671325D02*
D03*
X982500Y671250D02*
D03*
X1002750Y661500D02*
D03*
X982500Y661250D02*
D03*
X972250D02*
D03*
X882250Y661500D02*
D03*
X952500Y640750D02*
D03*
X942250Y650750D02*
D03*
X759250Y542000D02*
D03*
Y504000D02*
D03*
X1032000Y557500D02*
D03*
X1026750Y541500D02*
D03*
X1036000Y539750D02*
D03*
X1033750Y519750D02*
D03*
X828500Y609500D02*
D03*
X824750Y590750D02*
D03*
X830750Y569500D02*
D03*
X832250Y586250D02*
D03*
X825500Y542750D02*
D03*
X835000Y552250D02*
D03*
X825500Y562250D02*
D03*
X1038250Y651500D02*
D03*
X1039750Y634500D02*
D03*
X1033000Y615000D02*
D03*
X1034250Y631250D02*
D03*
X1029750Y657750D02*
D03*
X1027250Y666500D02*
D03*
X1029750Y676500D02*
D03*
X918000Y464000D02*
D03*
X916000Y703750D02*
D03*
X829500Y665500D02*
D03*
X837500Y673750D02*
D03*
X829500Y683500D02*
D03*
Y698000D02*
D03*
X1063500Y713750D02*
D03*
X1055000Y704000D02*
D03*
Y724000D02*
D03*
X875750Y709250D02*
D03*
X987500Y505500D02*
D03*
X979250Y512750D02*
D03*
X969500Y503250D02*
D03*
X914250Y503500D02*
D03*
X896000Y509250D02*
D03*
X874750Y503500D02*
D03*
X892750Y502250D02*
D03*
X763250Y556000D02*
D03*
X727500D02*
D03*
X952325Y601000D02*
D03*
X942325Y611000D02*
D03*
X942250Y631075D02*
D03*
X922500Y630750D02*
D03*
X922750Y590750D02*
D03*
X932250Y601750D02*
D03*
X902250Y611075D02*
D03*
X932500Y620825D02*
D03*
X982324Y541000D02*
D03*
X849000Y1188989D02*
D03*
X856750Y1181239D02*
D03*
X838750Y1185250D02*
D03*
X857078Y1172564D02*
D03*
X856750Y1165250D02*
D03*
X789250Y991500D02*
D03*
X794500D02*
D03*
X877000Y1101500D02*
D03*
X743000Y991250D02*
D03*
X829500Y996750D02*
D03*
X720250Y991750D02*
D03*
X727750Y991437D02*
D03*
X736250Y991750D02*
D03*
X749250Y991250D02*
D03*
X769250Y991500D02*
D03*
X777750D02*
D03*
X801500Y991000D02*
D03*
X856750Y1149250D02*
D03*
X857250Y1157250D02*
D03*
X872750Y1133500D02*
D03*
X905000Y1141500D02*
D03*
X896750Y1133239D02*
D03*
X889000Y1140989D02*
D03*
X876749Y1114001D02*
D03*
X921250Y1141250D02*
D03*
X912750Y1141239D02*
D03*
X924000Y988250D02*
D03*
X960250Y986250D02*
D03*
X902500Y989250D02*
D03*
X910500Y989000D02*
D03*
X974500Y986000D02*
D03*
X988250D02*
D03*
X996750Y986000D02*
D03*
X1002250Y986750D02*
D03*
X1008750D02*
D03*
X913000Y1197500D02*
D03*
X920879Y1197629D02*
D03*
X905000Y1189250D02*
D03*
X931750Y1191750D02*
D03*
X913000Y1189500D02*
D03*
X888619Y1189631D02*
D03*
X889379Y1197129D02*
D03*
X912739Y1181250D02*
D03*
X873250Y1180740D02*
D03*
X896750Y1173239D02*
D03*
X897000Y1156990D02*
D03*
X880879Y1149371D02*
D03*
X873000Y1149250D02*
D03*
X849000Y1148990D02*
D03*
X848989Y1141000D02*
D03*
X865000Y1133250D02*
D03*
X896750Y1197370D02*
D03*
X865000Y1156990D02*
D03*
X864989Y1173000D02*
D03*
X865000Y1141500D02*
D03*
X912750Y1133239D02*
D03*
Y1149500D02*
D03*
X904879Y1197629D02*
D03*
X924748Y1208248D02*
D03*
X916748Y1207748D02*
D03*
X908748Y1207498D02*
D03*
X900748Y1207248D02*
D03*
X810250Y1200500D02*
D03*
Y1221750D02*
D03*
X810000Y1186750D02*
D03*
X753250Y1066000D02*
D03*
X913250Y1228500D02*
D03*
X893750D02*
D03*
X861500Y1228750D02*
D03*
X825500Y1229500D02*
D03*
X847000D02*
D03*
X896750Y1149750D02*
D03*
X889000Y1149250D02*
D03*
X848750Y1165240D02*
D03*
X925750Y1228750D02*
D03*
X946750D02*
D03*
X952750Y1129000D02*
D03*
X952250Y1110250D02*
D03*
X920250Y778000D02*
D03*
X993750Y708750D02*
D03*
X319500Y836750D02*
D03*
X215000Y767500D02*
D03*
X328500Y776500D02*
D03*
X214500Y780000D02*
D03*
X214750Y748000D02*
D03*
X180750Y723250D02*
D03*
X333000Y558500D02*
D03*
X902000Y661750D02*
D03*
X941000Y986250D02*
D03*
X950000Y988250D02*
D03*
X564700Y841200D02*
D03*
X506750Y381250D02*
D03*
X891750Y621000D02*
D03*
X743750Y546000D02*
D03*
X551000Y576750D02*
D03*
X543250Y568500D02*
D03*
X246250Y336000D02*
D03*
X359500Y143750D02*
D03*
X852000Y581000D02*
D03*
X851250Y571250D02*
D03*
X862250D02*
D03*
X892574Y580750D02*
D03*
X852574Y560750D02*
D03*
X872500Y560825D02*
D03*
X882325Y561000D02*
D03*
X389250Y260250D02*
D03*
X362500Y209750D02*
D03*
X389500Y86750D02*
D03*
X1126750Y1389750D02*
D03*
X1138000Y1387500D02*
D03*
X1150250Y1388250D02*
D03*
X1138500Y1372000D02*
D03*
X1105250Y1390250D02*
D03*
X1020500Y1146250D02*
D03*
X1176749Y1210001D02*
D03*
X1117750Y1370250D02*
D03*
X1009000Y1336250D02*
D03*
X1025250Y1077750D02*
D03*
X1045750Y1078000D02*
D03*
X1048750Y1001750D02*
D03*
X1081000Y1008250D02*
D03*
X1042250Y1039500D02*
D03*
X1055500Y1023000D02*
D03*
X1026500Y1035750D02*
D03*
X656500Y555500D02*
D03*
X656000Y561750D02*
D03*
X655750Y571250D02*
D03*
X961750D02*
D03*
X972500Y570824D02*
D03*
X982250Y571074D02*
D03*
X942074Y561250D02*
D03*
X952500Y560824D02*
D03*
X972000Y561500D02*
D03*
X982000Y561250D02*
D03*
X962250Y550500D02*
D03*
X972250Y551250D02*
D03*
X982574Y550750D02*
D03*
X962324Y541000D02*
D03*
X972074Y541250D02*
D03*
X992074D02*
D03*
X1002250Y551075D02*
D03*
X952074Y541250D02*
D03*
X942000Y551324D02*
D03*
X865000Y1116000D02*
D03*
X856250Y1115500D02*
D03*
X857500Y1197000D02*
D03*
X892748Y1206998D02*
D03*
X541000Y668000D02*
D03*
X535750Y750000D02*
D03*
X963250Y1215750D02*
D03*
X827000Y1093500D02*
D03*
X850250Y1094000D02*
D03*
X770000Y745750D02*
D03*
X729000Y358500D02*
D03*
X1024500Y556000D02*
D03*
X387250Y37750D02*
D03*
X385250Y170000D02*
D03*
X386000Y233500D02*
D03*
X198500Y568750D02*
D03*
X196500Y439000D02*
D03*
X191500Y334250D02*
D03*
D75*
X560500Y744750D02*
D03*
X566250Y670250D02*
D03*
X478299Y710500D02*
D03*
X459000Y757500D02*
D03*
X179500Y1121250D02*
D03*
X125500Y1081250D02*
D03*
X1085649Y1223000D02*
D03*
X1095400Y1215500D02*
D03*
X1093950Y1333252D02*
D03*
X672500Y29500D02*
D03*
X1080250Y666500D02*
D03*
X1099500Y677250D02*
D03*
X1119000Y666750D02*
D03*
X305500Y687250D02*
D03*
D76*
X246250Y584250D02*
D03*
X288000Y388750D02*
D03*
X325000Y460250D02*
D03*
X315250Y322250D02*
D03*
X320000Y601500D02*
D03*
M02*
