G04 Layer_Color=32896*
%FSLAX44Y44*%
%MOMM*%
G71*
G01*
G75*
%ADD42C,0.2000*%
%ADD86C,0.2500*%
%ADD87C,0.3000*%
%ADD89C,0.1500*%
D42*
X9748Y37758D02*
G03*
X9794Y264904I-31998J113580D01*
G01*
X208250Y550500D02*
X209250D01*
X208250Y542500D02*
X209250D01*
X214250Y423750D02*
X215250D01*
X214250Y415750D02*
X215250D01*
X211250Y333000D02*
X212250D01*
X211250Y325000D02*
X212250D01*
X776500Y747750D02*
Y748750D01*
X783500Y747750D02*
Y748750D01*
X850500Y705500D02*
X851500D01*
X850500Y713500D02*
X851500D01*
X778500Y670000D02*
Y681000D01*
X803501Y670000D02*
Y681000D01*
X822000Y649750D02*
X823000D01*
X822000Y656750D02*
X823000D01*
X719250Y475750D02*
Y476750D01*
X710250Y475750D02*
Y476750D01*
X1040500Y535750D02*
X1041500D01*
X1040500Y526750D02*
X1041500D01*
X1035750Y552750D02*
X1036750D01*
X1035750Y545750D02*
X1036750D01*
X1035500Y568250D02*
X1036500D01*
X1035500Y561250D02*
X1036500D01*
X1044750Y671000D02*
X1045750D01*
X1044750Y662000D02*
X1045750D01*
X1042500Y646250D02*
X1043500D01*
X1042500Y639250D02*
X1043500D01*
X1042750Y626250D02*
X1043750D01*
X1042750Y619250D02*
X1043750D01*
X1112000Y646250D02*
Y657250D01*
X1087000Y646250D02*
Y657250D01*
X927500Y458000D02*
X938500D01*
X927500Y433000D02*
X938500D01*
X983750Y496000D02*
Y497000D01*
X974750Y496000D02*
Y497000D01*
X963750Y499750D02*
Y500750D01*
X956750Y499750D02*
Y500750D01*
X945083Y499750D02*
Y500750D01*
X938083Y499750D02*
Y500750D01*
X926417Y499750D02*
Y500750D01*
X919417Y499750D02*
Y500750D01*
X907750Y499750D02*
Y500750D01*
X900751Y499750D02*
Y500750D01*
X888500Y496000D02*
Y497000D01*
X879500Y496000D02*
Y497000D01*
X816000Y547750D02*
X817000D01*
X816000Y556750D02*
X817000D01*
X818250Y574000D02*
X819250D01*
X818250Y581000D02*
X819250D01*
X818500Y596250D02*
X819500D01*
X818500Y603250D02*
X819500D01*
X822000Y670250D02*
X823000D01*
X822000Y677250D02*
X823000D01*
X733250Y565500D02*
Y576500D01*
X758250Y565500D02*
Y576500D01*
X822000Y687000D02*
X823000D01*
X822000Y694000D02*
X823000D01*
X1045500Y709250D02*
X1046500D01*
X1045500Y718250D02*
X1046500D01*
X832000Y630750D02*
Y631750D01*
X825000Y630750D02*
Y631750D01*
X811500Y630500D02*
Y631500D01*
X804500Y630500D02*
Y631500D01*
X790000Y630250D02*
Y631250D01*
X783000Y630250D02*
Y631250D01*
X773500Y631000D02*
Y632000D01*
X764500Y631000D02*
Y632000D01*
X748750Y631000D02*
Y632000D01*
X739750Y631000D02*
Y632000D01*
X959250Y714000D02*
Y715000D01*
X966250Y714000D02*
Y715000D01*
X940583Y714000D02*
Y715000D01*
X947583Y714000D02*
Y715000D01*
X921917Y714000D02*
Y715000D01*
X928917Y714000D02*
Y715000D01*
X903250Y714000D02*
Y715000D01*
X910250Y714000D02*
Y715000D01*
X979250Y717250D02*
Y718250D01*
X988250Y717250D02*
Y718250D01*
X881750Y717750D02*
Y718750D01*
X890750Y717750D02*
Y718750D01*
X929750Y774000D02*
X940750D01*
X929750Y749000D02*
X940750D01*
X890750Y1084250D02*
Y1085250D01*
X881750Y1084250D02*
Y1085250D01*
X163500Y772001D02*
X164500D01*
X163500Y743000D02*
X164500D01*
Y772001D01*
X163500Y743000D02*
Y772001D01*
X128750Y747250D02*
Y748250D01*
X120750Y747250D02*
Y748250D01*
X297750Y255750D02*
Y297950D01*
X107550D02*
X297750D01*
X9837D02*
X56750D01*
X9793Y297906D02*
X9837Y297950D01*
X9793Y264905D02*
Y297906D01*
X9750Y13550D02*
Y37756D01*
Y13550D02*
X56750D01*
X107550Y13510D02*
X287750Y13550D01*
X379250Y251750D02*
Y252750D01*
X371250Y251750D02*
Y252750D01*
X402500Y225750D02*
Y226750D01*
X394500Y225750D02*
Y226750D01*
X379249Y201250D02*
Y202250D01*
X371249Y201250D02*
Y202250D01*
X394500Y45250D02*
Y46250D01*
X402500Y45250D02*
Y46250D01*
X379250Y78250D02*
Y79250D01*
X371250Y78250D02*
Y79250D01*
X402500Y152250D02*
Y153250D01*
X394500Y152250D02*
Y153250D01*
X338750Y152250D02*
Y153250D01*
X347750Y152250D02*
Y153250D01*
X341250Y214500D02*
Y215500D01*
X350250Y214500D02*
Y215500D01*
X1113000Y1363750D02*
X1144000D01*
X1113000Y1372750D02*
X1144000D01*
Y1363750D02*
Y1372750D01*
X1113000Y1363750D02*
Y1372750D01*
X1077250Y1375750D02*
X1078250D01*
X1077250Y1367750D02*
X1078250D01*
X1075500Y1357000D02*
X1076500D01*
X1075500Y1349000D02*
X1076500D01*
X1048500Y994500D02*
X1049500D01*
X1048500Y986500D02*
X1049500D01*
X1057500Y1005750D02*
Y1036750D01*
X1048500Y1005750D02*
Y1036750D01*
X1057500D01*
X1048500Y1005750D02*
X1057500D01*
X1012750Y1059750D02*
Y1060750D01*
X1004750Y1059750D02*
Y1060750D01*
X1034250Y1060500D02*
Y1061500D01*
X1027250Y1060500D02*
Y1061500D01*
X1056250Y1061000D02*
Y1062000D01*
X1049250Y1061000D02*
Y1062000D01*
X961250Y1124250D02*
X962250D01*
X961250Y1115250D02*
X962250D01*
X961250Y1140750D02*
X962250D01*
X961250Y1149750D02*
X962250D01*
X961250Y1177250D02*
X962250D01*
X961250Y1168250D02*
X962250D01*
X711000Y561500D02*
Y572500D01*
X686000Y561500D02*
Y572500D01*
X757250Y469250D02*
Y480250D01*
X732250Y469250D02*
Y480250D01*
X780000Y479500D02*
Y480500D01*
X771000Y479500D02*
Y480500D01*
X805250Y479750D02*
Y480750D01*
X796250Y479750D02*
Y480750D01*
X768750Y535500D02*
X779750D01*
X768750Y510500D02*
X779750D01*
X827500Y502250D02*
Y503250D01*
X820500Y502250D02*
Y503250D01*
X843500Y502500D02*
Y503500D01*
X836500Y502500D02*
Y503500D01*
X859500Y502500D02*
Y503500D01*
X852500Y502500D02*
Y503500D01*
D86*
X177750Y775750D02*
G03*
X177750Y775750I-1250J0D01*
G01*
X1112500Y1380250D02*
G03*
X1112500Y1380250I-1250J0D01*
G01*
X1042250Y1004000D02*
G03*
X1042250Y1004000I-1250J0D01*
G01*
D87*
X787280Y787470D02*
D03*
D89*
X188188Y790830D02*
Y785832D01*
X187188Y784832D01*
X185189D01*
X184189Y785832D01*
Y790830D01*
X179191Y784832D02*
Y790830D01*
X182190Y787831D01*
X178191D01*
X1037000Y1374250D02*
Y1368252D01*
X1039999D01*
X1040999Y1369252D01*
Y1371251D01*
X1039999Y1372251D01*
X1037000D01*
X1038999D02*
X1040999Y1374250D01*
X1042998Y1368252D02*
X1046997D01*
Y1369252D01*
X1042998Y1373250D01*
Y1374250D01*
X1048996Y1368252D02*
X1052995D01*
Y1369252D01*
X1048996Y1373250D01*
Y1374250D01*
X1035500Y1355000D02*
Y1349002D01*
X1038499D01*
X1039499Y1350002D01*
Y1352001D01*
X1038499Y1353001D01*
X1035500D01*
X1037499D02*
X1039499Y1355000D01*
X1041498Y1349002D02*
X1045497D01*
Y1350002D01*
X1041498Y1354000D01*
Y1355000D01*
X1051495Y1349002D02*
X1049495Y1350002D01*
X1047496Y1352001D01*
Y1354000D01*
X1048496Y1355000D01*
X1050495D01*
X1051495Y1354000D01*
Y1353001D01*
X1050495Y1352001D01*
X1047496D01*
X1005750Y1077500D02*
X1011748D01*
Y1080499D01*
X1010748Y1081499D01*
X1008749D01*
X1007749Y1080499D01*
Y1077500D01*
Y1079499D02*
X1005750Y1081499D01*
X1011748Y1087497D02*
X1010748Y1085497D01*
X1008749Y1083498D01*
X1006750D01*
X1005750Y1084498D01*
Y1086497D01*
X1006750Y1087497D01*
X1007749D01*
X1008749Y1086497D01*
Y1083498D01*
X1011748Y1089496D02*
Y1093495D01*
X1010748D01*
X1006750Y1089496D01*
X1005750D01*
X1083500Y987500D02*
Y993498D01*
X1080501D01*
X1079501Y992498D01*
Y990499D01*
X1080501Y989499D01*
X1083500D01*
X1081501D02*
X1079501Y987500D01*
X1073503Y993498D02*
X1075503Y992498D01*
X1077502Y990499D01*
Y988500D01*
X1076502Y987500D01*
X1074503D01*
X1073503Y988500D01*
Y989499D01*
X1074503Y990499D01*
X1077502D01*
X1067505Y993498D02*
X1069504Y992498D01*
X1071504Y990499D01*
Y988500D01*
X1070504Y987500D01*
X1068505D01*
X1067505Y988500D01*
Y989499D01*
X1068505Y990499D01*
X1071504D01*
X354946Y241344D02*
Y247342D01*
X351947D01*
X350947Y246342D01*
Y244343D01*
X351947Y243343D01*
X354946D01*
X352947D02*
X350947Y241344D01*
X345949D02*
Y247342D01*
X348948Y244343D01*
X344949D01*
X339951Y241344D02*
Y247342D01*
X342950Y244343D01*
X338951D01*
X401750Y186750D02*
X395752D01*
Y183751D01*
X396752Y182751D01*
X398751D01*
X399751Y183751D01*
Y186750D01*
Y184751D02*
X401750Y182751D01*
Y177753D02*
X395752D01*
X398751Y180752D01*
Y176753D01*
X396752Y174754D02*
X395752Y173754D01*
Y171755D01*
X396752Y170755D01*
X397752D01*
X398751Y171755D01*
Y172754D01*
Y171755D01*
X399751Y170755D01*
X400751D01*
X401750Y171755D01*
Y173754D01*
X400751Y174754D01*
X404638Y248158D02*
Y254156D01*
X401639D01*
X400639Y253156D01*
Y251157D01*
X401639Y250157D01*
X404638D01*
X402639D02*
X400639Y248158D01*
X395641D02*
Y254156D01*
X398640Y251157D01*
X394641D01*
X388643Y248158D02*
X392642D01*
X388643Y252157D01*
Y253156D01*
X389643Y254156D01*
X391642D01*
X392642Y253156D01*
X381390Y274194D02*
Y280192D01*
X378391D01*
X377391Y279192D01*
Y277193D01*
X378391Y276193D01*
X381390D01*
X379390D02*
X377391Y274194D01*
X372393D02*
Y280192D01*
X375392Y277193D01*
X371393D01*
X369394Y274194D02*
X367394D01*
X368394D01*
Y280192D01*
X369394Y279192D01*
X400750Y26750D02*
X394752D01*
Y23751D01*
X395752Y22751D01*
X397751D01*
X398751Y23751D01*
Y26750D01*
Y24751D02*
X400750Y22751D01*
Y17753D02*
X394752D01*
X397751Y20752D01*
Y16753D01*
X395752Y14754D02*
X394752Y13754D01*
Y11755D01*
X395752Y10755D01*
X399750D01*
X400750Y11755D01*
Y13754D01*
X399750Y14754D01*
X395752D01*
X379000Y112250D02*
X373002D01*
Y109251D01*
X374002Y108251D01*
X376001D01*
X377001Y109251D01*
Y112250D01*
Y110251D02*
X379000Y108251D01*
X374002Y106252D02*
X373002Y105252D01*
Y103253D01*
X374002Y102253D01*
X375001D01*
X376001Y103253D01*
Y104253D01*
Y103253D01*
X377001Y102253D01*
X378000D01*
X379000Y103253D01*
Y105252D01*
X378000Y106252D01*
Y100254D02*
X379000Y99254D01*
Y97255D01*
X378000Y96255D01*
X374002D01*
X373002Y97255D01*
Y99254D01*
X374002Y100254D01*
X375001D01*
X376001Y99254D01*
Y96255D01*
X381516Y223616D02*
Y229614D01*
X378517D01*
X377517Y228614D01*
Y226615D01*
X378517Y225615D01*
X381516D01*
X379516D02*
X377517Y223616D01*
X375518Y228614D02*
X374518Y229614D01*
X372519D01*
X371519Y228614D01*
Y227615D01*
X372519Y226615D01*
X373518D01*
X372519D01*
X371519Y225615D01*
Y224616D01*
X372519Y223616D01*
X374518D01*
X375518Y224616D01*
X369520Y228614D02*
X368520Y229614D01*
X366520D01*
X365521Y228614D01*
Y227615D01*
X366520Y226615D01*
X365521Y225615D01*
Y224616D01*
X366520Y223616D01*
X368520D01*
X369520Y224616D01*
Y225615D01*
X368520Y226615D01*
X369520Y227615D01*
Y228614D01*
X368520Y226615D02*
X366520D01*
X222384Y560926D02*
Y566924D01*
X219385D01*
X218385Y565925D01*
Y563925D01*
X219385Y562926D01*
X222384D01*
X220385D02*
X218385Y560926D01*
X216386Y565925D02*
X215386Y566924D01*
X213387D01*
X212387Y565925D01*
Y564925D01*
X213387Y563925D01*
X214387D01*
X213387D01*
X212387Y562926D01*
Y561926D01*
X213387Y560926D01*
X215386D01*
X216386Y561926D01*
X210388Y565925D02*
X209388Y566924D01*
X207389D01*
X206389Y565925D01*
Y564925D01*
X207389Y563925D01*
X208389D01*
X207389D01*
X206389Y562926D01*
Y561926D01*
X207389Y560926D01*
X209388D01*
X210388Y561926D01*
X228480Y434180D02*
Y440178D01*
X225481D01*
X224481Y439179D01*
Y437179D01*
X225481Y436180D01*
X228480D01*
X226481D02*
X224481Y434180D01*
X218483D02*
X222482D01*
X218483Y438179D01*
Y439179D01*
X219483Y440178D01*
X221482D01*
X222482Y439179D01*
X216484D02*
X215484Y440178D01*
X213485D01*
X212485Y439179D01*
Y438179D01*
X213485Y437179D01*
X212485Y436180D01*
Y435180D01*
X213485Y434180D01*
X215484D01*
X216484Y435180D01*
Y436180D01*
X215484Y437179D01*
X216484Y438179D01*
Y439179D01*
X215484Y437179D02*
X213485D01*
X225444Y343438D02*
Y349436D01*
X222445D01*
X221445Y348437D01*
Y346437D01*
X222445Y345438D01*
X225444D01*
X223445D02*
X221445Y343438D01*
X215447D02*
X219446D01*
X215447Y347437D01*
Y348437D01*
X216447Y349436D01*
X218446D01*
X219446Y348437D01*
X209449Y343438D02*
X213448D01*
X209449Y347437D01*
Y348437D01*
X210449Y349436D01*
X212448D01*
X213448Y348437D01*
X1028750Y1076500D02*
X1034748D01*
Y1079499D01*
X1033748Y1080499D01*
X1031749D01*
X1030749Y1079499D01*
Y1076500D01*
Y1078499D02*
X1028750Y1080499D01*
Y1086497D02*
Y1082498D01*
X1032749Y1086497D01*
X1033748D01*
X1034748Y1085497D01*
Y1083498D01*
X1033748Y1082498D01*
X1050750Y1077250D02*
X1056748D01*
Y1080249D01*
X1055748Y1081249D01*
X1053749D01*
X1052749Y1080249D01*
Y1077250D01*
Y1079249D02*
X1050750Y1081249D01*
Y1083248D02*
Y1085247D01*
Y1084248D01*
X1056748D01*
X1055748Y1083248D01*
X859683Y801430D02*
X861682D01*
X862682Y800430D01*
Y796432D01*
X861682Y795432D01*
X859683D01*
X858683Y796432D01*
Y800430D01*
X859683Y801430D01*
X852685Y800430D02*
X853685Y801430D01*
X855684D01*
X856684Y800430D01*
Y799431D01*
X855684Y798431D01*
X853685D01*
X852685Y797431D01*
Y796432D01*
X853685Y795432D01*
X855684D01*
X856684Y796432D01*
X846687Y800430D02*
X847687Y801430D01*
X849686D01*
X850686Y800430D01*
Y796432D01*
X849686Y795432D01*
X847687D01*
X846687Y796432D01*
X844688Y800430D02*
X843688Y801430D01*
X841689D01*
X840689Y800430D01*
Y799431D01*
X841689Y798431D01*
X842689D01*
X841689D01*
X840689Y797431D01*
Y796432D01*
X841689Y795432D01*
X843688D01*
X844688Y796432D01*
X313329Y317002D02*
X315329D01*
X314329D01*
Y312004D01*
X315329Y311004D01*
X316328D01*
X317328Y312004D01*
X311330Y311004D02*
X309331D01*
X310330D01*
Y317002D01*
X311330Y316003D01*
X1071750Y1047498D02*
Y1041500D01*
X1068751D01*
X1067751Y1042500D01*
Y1046498D01*
X1068751Y1047498D01*
X1071750D01*
X1061753Y1041500D02*
X1065752D01*
X1061753Y1045499D01*
Y1046498D01*
X1062753Y1047498D01*
X1064752D01*
X1065752Y1046498D01*
X1145354Y1401990D02*
Y1395992D01*
X1142355D01*
X1141355Y1396992D01*
Y1400990D01*
X1142355Y1401990D01*
X1145354D01*
X1139356Y1395992D02*
X1137357D01*
X1138356D01*
Y1401990D01*
X1139356Y1400990D01*
X787751Y705998D02*
X788751Y706998D01*
X790750D01*
X791750Y705998D01*
Y702000D01*
X790750Y701000D01*
X788751D01*
X787751Y702000D01*
X785752Y705998D02*
X784752Y706998D01*
X782753D01*
X781753Y705998D01*
Y704999D01*
X782753Y703999D01*
X781753Y702999D01*
Y702000D01*
X782753Y701000D01*
X784752D01*
X785752Y702000D01*
Y702999D01*
X784752Y703999D01*
X785752Y704999D01*
Y705998D01*
X784752Y703999D02*
X782753D01*
X775755Y706998D02*
X777755Y705998D01*
X779754Y703999D01*
Y702000D01*
X778754Y701000D01*
X776755D01*
X775755Y702000D01*
Y702999D01*
X776755Y703999D01*
X779754D01*
X850001Y655248D02*
X851001Y656248D01*
X853000D01*
X854000Y655248D01*
Y651250D01*
X853000Y650250D01*
X851001D01*
X850001Y651250D01*
X848002Y655248D02*
X847002Y656248D01*
X845003D01*
X844003Y655248D01*
Y654249D01*
X845003Y653249D01*
X844003Y652249D01*
Y651250D01*
X845003Y650250D01*
X847002D01*
X848002Y651250D01*
Y652249D01*
X847002Y653249D01*
X848002Y654249D01*
Y655248D01*
X847002Y653249D02*
X845003D01*
X838005Y656248D02*
X842004D01*
Y653249D01*
X840005Y654249D01*
X839005D01*
X838005Y653249D01*
Y651250D01*
X839005Y650250D01*
X841004D01*
X842004Y651250D01*
X858998Y522499D02*
X859998Y521499D01*
Y519500D01*
X858998Y518500D01*
X855000D01*
X854000Y519500D01*
Y521499D01*
X855000Y522499D01*
X858998Y524498D02*
X859998Y525498D01*
Y527497D01*
X858998Y528497D01*
X857999D01*
X856999Y527497D01*
X855999Y528497D01*
X855000D01*
X854000Y527497D01*
Y525498D01*
X855000Y524498D01*
X855999D01*
X856999Y525498D01*
X857999Y524498D01*
X858998D01*
X856999Y525498D02*
Y527497D01*
X854000Y533495D02*
X859998D01*
X856999Y530496D01*
Y534495D01*
X842748Y522249D02*
X843748Y521249D01*
Y519250D01*
X842748Y518250D01*
X838750D01*
X837750Y519250D01*
Y521249D01*
X838750Y522249D01*
X842748Y524248D02*
X843748Y525248D01*
Y527247D01*
X842748Y528247D01*
X841749D01*
X840749Y527247D01*
X839749Y528247D01*
X838750D01*
X837750Y527247D01*
Y525248D01*
X838750Y524248D01*
X839749D01*
X840749Y525248D01*
X841749Y524248D01*
X842748D01*
X840749Y525248D02*
Y527247D01*
X842748Y530246D02*
X843748Y531246D01*
Y533245D01*
X842748Y534245D01*
X841749D01*
X840749Y533245D01*
Y532245D01*
Y533245D01*
X839749Y534245D01*
X838750D01*
X837750Y533245D01*
Y531246D01*
X838750Y530246D01*
X826498Y521999D02*
X827498Y520999D01*
Y519000D01*
X826498Y518000D01*
X822500D01*
X821500Y519000D01*
Y520999D01*
X822500Y521999D01*
X826498Y523998D02*
X827498Y524998D01*
Y526997D01*
X826498Y527997D01*
X825499D01*
X824499Y526997D01*
X823499Y527997D01*
X822500D01*
X821500Y526997D01*
Y524998D01*
X822500Y523998D01*
X823499D01*
X824499Y524998D01*
X825499Y523998D01*
X826498D01*
X824499Y524998D02*
Y526997D01*
X821500Y533995D02*
Y529996D01*
X825499Y533995D01*
X826498D01*
X827498Y532995D01*
Y530996D01*
X826498Y529996D01*
X798502Y454251D02*
X797502Y455251D01*
Y457250D01*
X798502Y458250D01*
X802500D01*
X803500Y457250D01*
Y455251D01*
X802500Y454251D01*
X798502Y452252D02*
X797502Y451252D01*
Y449253D01*
X798502Y448253D01*
X799501D01*
X800501Y449253D01*
X801501Y448253D01*
X802500D01*
X803500Y449253D01*
Y451252D01*
X802500Y452252D01*
X801501D01*
X800501Y451252D01*
X799501Y452252D01*
X798502D01*
X800501Y451252D02*
Y449253D01*
X803500Y446254D02*
Y444254D01*
Y445254D01*
X797502D01*
X798502Y446254D01*
X773252Y453501D02*
X772252Y454501D01*
Y456500D01*
X773252Y457500D01*
X777250D01*
X778250Y456500D01*
Y454501D01*
X777250Y453501D01*
X773252Y451502D02*
X772252Y450502D01*
Y448503D01*
X773252Y447503D01*
X774251D01*
X775251Y448503D01*
X776251Y447503D01*
X777250D01*
X778250Y448503D01*
Y450502D01*
X777250Y451502D01*
X776251D01*
X775251Y450502D01*
X774251Y451502D01*
X773252D01*
X775251Y450502D02*
Y448503D01*
X773252Y445504D02*
X772252Y444504D01*
Y442505D01*
X773252Y441505D01*
X777250D01*
X778250Y442505D01*
Y444504D01*
X777250Y445504D01*
X773252D01*
X736251Y448498D02*
X737251Y449498D01*
X739250D01*
X740250Y448498D01*
Y444500D01*
X739250Y443500D01*
X737251D01*
X736251Y444500D01*
X734252Y449498D02*
X730253D01*
Y448498D01*
X734252Y444500D01*
Y443500D01*
X728254Y444500D02*
X727254Y443500D01*
X725255D01*
X724255Y444500D01*
Y448498D01*
X725255Y449498D01*
X727254D01*
X728254Y448498D01*
Y447499D01*
X727254Y446499D01*
X724255D01*
X842248Y621749D02*
X843248Y620749D01*
Y618750D01*
X842248Y617750D01*
X838250D01*
X837250Y618750D01*
Y620749D01*
X838250Y621749D01*
X843248Y623748D02*
Y627747D01*
X842248D01*
X838250Y623748D01*
X837250D01*
X842248Y629746D02*
X843248Y630746D01*
Y632745D01*
X842248Y633745D01*
X841249D01*
X840249Y632745D01*
X839249Y633745D01*
X838250D01*
X837250Y632745D01*
Y630746D01*
X838250Y629746D01*
X839249D01*
X840249Y630746D01*
X841249Y629746D01*
X842248D01*
X840249Y630746D02*
Y632745D01*
X819915Y624832D02*
X820748Y623999D01*
Y622333D01*
X819915Y621500D01*
X816583D01*
X815750Y622333D01*
Y623999D01*
X816583Y624832D01*
X820748Y626498D02*
Y629831D01*
X819915D01*
X816583Y626498D01*
X815750D01*
X820748Y631497D02*
Y634829D01*
X819915D01*
X816583Y631497D01*
X815750D01*
X795585Y633918D02*
X794752Y634751D01*
Y636417D01*
X795585Y637250D01*
X798917D01*
X799750Y636417D01*
Y634751D01*
X798917Y633918D01*
X794752Y632252D02*
Y628919D01*
X795585D01*
X798917Y632252D01*
X799750D01*
X794752Y623921D02*
X795585Y625587D01*
X797251Y627253D01*
X798917D01*
X799750Y626420D01*
Y624754D01*
X798917Y623921D01*
X798084D01*
X797251Y624754D01*
Y627253D01*
X770248Y656249D02*
X771248Y655249D01*
Y653250D01*
X770248Y652250D01*
X766250D01*
X765250Y653250D01*
Y655249D01*
X766250Y656249D01*
X771248Y658248D02*
Y662247D01*
X770248D01*
X766250Y658248D01*
X765250D01*
X771248Y668245D02*
Y664246D01*
X768249D01*
X769249Y666245D01*
Y667245D01*
X768249Y668245D01*
X766250D01*
X765250Y667245D01*
Y665246D01*
X766250Y664246D01*
X746748Y656999D02*
X747748Y655999D01*
Y654000D01*
X746748Y653000D01*
X742750D01*
X741750Y654000D01*
Y655999D01*
X742750Y656999D01*
X747748Y658998D02*
Y662997D01*
X746748D01*
X742750Y658998D01*
X741750D01*
Y667995D02*
X747748D01*
X744749Y664996D01*
Y668995D01*
X703251Y597748D02*
X704251Y598748D01*
X706250D01*
X707250Y597748D01*
Y593750D01*
X706250Y592750D01*
X704251D01*
X703251Y593750D01*
X701252Y598748D02*
X697253D01*
Y597748D01*
X701252Y593750D01*
Y592750D01*
X695254Y597748D02*
X694254Y598748D01*
X692255D01*
X691255Y597748D01*
Y596749D01*
X692255Y595749D01*
X693254D01*
X692255D01*
X691255Y594749D01*
Y593750D01*
X692255Y592750D01*
X694254D01*
X695254Y593750D01*
X720117Y507690D02*
X721117Y508690D01*
X723116D01*
X724116Y507690D01*
Y503692D01*
X723116Y502692D01*
X721117D01*
X720117Y503692D01*
X718118Y508690D02*
X714119D01*
Y507690D01*
X718118Y503692D01*
Y502692D01*
X708121D02*
X712120D01*
X708121Y506691D01*
Y507690D01*
X709121Y508690D01*
X711120D01*
X712120Y507690D01*
X1061501Y567249D02*
X1062501Y568248D01*
X1064501D01*
X1065500Y567249D01*
Y563250D01*
X1064501Y562250D01*
X1062501D01*
X1061501Y563250D01*
X1059502Y568248D02*
X1055503D01*
Y567249D01*
X1059502Y563250D01*
Y562250D01*
X1053504D02*
X1051505D01*
X1052504D01*
Y568248D01*
X1053504Y567249D01*
X1063751Y550748D02*
X1064751Y551748D01*
X1066750D01*
X1067750Y550748D01*
Y546750D01*
X1066750Y545750D01*
X1064751D01*
X1063751Y546750D01*
X1061752Y551748D02*
X1057753D01*
Y550748D01*
X1061752Y546750D01*
Y545750D01*
X1055754Y550748D02*
X1054754Y551748D01*
X1052755D01*
X1051755Y550748D01*
Y546750D01*
X1052755Y545750D01*
X1054754D01*
X1055754Y546750D01*
Y550748D01*
X1070251Y624748D02*
X1071251Y625748D01*
X1073250D01*
X1074250Y624748D01*
Y620750D01*
X1073250Y619750D01*
X1071251D01*
X1070251Y620750D01*
X1064253Y625748D02*
X1066253Y624748D01*
X1068252Y622749D01*
Y620750D01*
X1067252Y619750D01*
X1065253D01*
X1064253Y620750D01*
Y621749D01*
X1065253Y622749D01*
X1068252D01*
X1062254Y620750D02*
X1061254Y619750D01*
X1059255D01*
X1058255Y620750D01*
Y624748D01*
X1059255Y625748D01*
X1061254D01*
X1062254Y624748D01*
Y623749D01*
X1061254Y622749D01*
X1058255D01*
X1068501Y644748D02*
X1069501Y645748D01*
X1071500D01*
X1072500Y644748D01*
Y640750D01*
X1071500Y639750D01*
X1069501D01*
X1068501Y640750D01*
X1062503Y645748D02*
X1064503Y644748D01*
X1066502Y642749D01*
Y640750D01*
X1065502Y639750D01*
X1063503D01*
X1062503Y640750D01*
Y641749D01*
X1063503Y642749D01*
X1066502D01*
X1060504Y644748D02*
X1059504Y645748D01*
X1057505D01*
X1056505Y644748D01*
Y643749D01*
X1057505Y642749D01*
X1056505Y641749D01*
Y640750D01*
X1057505Y639750D01*
X1059504D01*
X1060504Y640750D01*
Y641749D01*
X1059504Y642749D01*
X1060504Y643749D01*
Y644748D01*
X1059504Y642749D02*
X1057505D01*
X1041251Y683998D02*
X1042251Y684998D01*
X1044250D01*
X1045250Y683998D01*
Y680000D01*
X1044250Y679000D01*
X1042251D01*
X1041251Y680000D01*
X1035253Y684998D02*
X1037253Y683998D01*
X1039252Y681999D01*
Y680000D01*
X1038252Y679000D01*
X1036253D01*
X1035253Y680000D01*
Y680999D01*
X1036253Y681999D01*
X1039252D01*
X1033254Y684998D02*
X1029255D01*
Y683998D01*
X1033254Y680000D01*
Y679000D01*
X1076501Y531248D02*
X1077501Y532248D01*
X1079500D01*
X1080500Y531248D01*
Y527250D01*
X1079500Y526250D01*
X1077501D01*
X1076501Y527250D01*
X1070503Y532248D02*
X1072503Y531248D01*
X1074502Y529249D01*
Y527250D01*
X1073502Y526250D01*
X1071503D01*
X1070503Y527250D01*
Y528249D01*
X1071503Y529249D01*
X1074502D01*
X1064505Y532248D02*
X1066505Y531248D01*
X1068504Y529249D01*
Y527250D01*
X1067504Y526250D01*
X1065505D01*
X1064505Y527250D01*
Y528249D01*
X1065505Y529249D01*
X1068504D01*
X1110291Y686996D02*
X1111291Y687996D01*
X1113290D01*
X1114290Y686996D01*
Y682998D01*
X1113290Y681998D01*
X1111291D01*
X1110291Y682998D01*
X1104293Y687996D02*
X1106293Y686996D01*
X1108292Y684997D01*
Y682998D01*
X1107292Y681998D01*
X1105293D01*
X1104293Y682998D01*
Y683997D01*
X1105293Y684997D01*
X1108292D01*
X1098295Y687996D02*
X1102294D01*
Y684997D01*
X1100294Y685997D01*
X1099295D01*
X1098295Y684997D01*
Y682998D01*
X1099295Y681998D01*
X1101294D01*
X1102294Y682998D01*
X960252Y740751D02*
X959252Y741751D01*
Y743750D01*
X960252Y744750D01*
X964250D01*
X965250Y743750D01*
Y741751D01*
X964250Y740751D01*
X959252Y734753D02*
X960252Y736753D01*
X962251Y738752D01*
X964250D01*
X965250Y737752D01*
Y735753D01*
X964250Y734753D01*
X963251D01*
X962251Y735753D01*
Y738752D01*
X965250Y729755D02*
X959252D01*
X962251Y732754D01*
Y728755D01*
X942335Y740001D02*
X941335Y741001D01*
Y743000D01*
X942335Y744000D01*
X946334D01*
X947333Y743000D01*
Y741001D01*
X946334Y740001D01*
X941335Y734003D02*
X942335Y736003D01*
X944334Y738002D01*
X946334D01*
X947333Y737002D01*
Y735003D01*
X946334Y734003D01*
X945334D01*
X944334Y735003D01*
Y738002D01*
X942335Y732004D02*
X941335Y731004D01*
Y729005D01*
X942335Y728005D01*
X943335D01*
X944334Y729005D01*
Y730005D01*
Y729005D01*
X945334Y728005D01*
X946334D01*
X947333Y729005D01*
Y731004D01*
X946334Y732004D01*
X923668Y740251D02*
X922669Y741251D01*
Y743250D01*
X923668Y744250D01*
X927667D01*
X928667Y743250D01*
Y741251D01*
X927667Y740251D01*
X922669Y734253D02*
X923668Y736253D01*
X925668Y738252D01*
X927667D01*
X928667Y737252D01*
Y735253D01*
X927667Y734253D01*
X926667D01*
X925668Y735253D01*
Y738252D01*
X928667Y728255D02*
Y732254D01*
X924668Y728255D01*
X923668D01*
X922669Y729255D01*
Y731254D01*
X923668Y732254D01*
X905002Y738501D02*
X904002Y739501D01*
Y741500D01*
X905002Y742500D01*
X909000D01*
X910000Y741500D01*
Y739501D01*
X909000Y738501D01*
X904002Y732503D02*
X905002Y734503D01*
X907001Y736502D01*
X909000D01*
X910000Y735502D01*
Y733503D01*
X909000Y732503D01*
X908001D01*
X907001Y733503D01*
Y736502D01*
X910000Y730504D02*
Y728505D01*
Y729504D01*
X904002D01*
X905002Y730504D01*
X986251Y744999D02*
X987251Y745998D01*
X989250D01*
X990250Y744999D01*
Y741000D01*
X989250Y740000D01*
X987251D01*
X986251Y741000D01*
X980253Y745998D02*
X982253Y744999D01*
X984252Y742999D01*
Y741000D01*
X983252Y740000D01*
X981253D01*
X980253Y741000D01*
Y742000D01*
X981253Y742999D01*
X984252D01*
X978254Y744999D02*
X977254Y745998D01*
X975255D01*
X974255Y744999D01*
Y741000D01*
X975255Y740000D01*
X977254D01*
X978254Y741000D01*
Y744999D01*
X890501Y745998D02*
X891501Y746998D01*
X893500D01*
X894500Y745998D01*
Y742000D01*
X893500Y741000D01*
X891501D01*
X890501Y742000D01*
X884503Y746998D02*
X888502D01*
Y743999D01*
X886503Y744999D01*
X885503D01*
X884503Y743999D01*
Y742000D01*
X885503Y741000D01*
X887502D01*
X888502Y742000D01*
X882504D02*
X881504Y741000D01*
X879505D01*
X878505Y742000D01*
Y745998D01*
X879505Y746998D01*
X881504D01*
X882504Y745998D01*
Y744999D01*
X881504Y743999D01*
X878505D01*
X953481Y789330D02*
X954481Y790330D01*
X956480D01*
X957480Y789330D01*
Y785332D01*
X956480Y784332D01*
X954481D01*
X953481Y785332D01*
X947483Y790330D02*
X951482D01*
Y787331D01*
X949483Y788331D01*
X948483D01*
X947483Y787331D01*
Y785332D01*
X948483Y784332D01*
X950482D01*
X951482Y785332D01*
X945484Y789330D02*
X944484Y790330D01*
X942485D01*
X941485Y789330D01*
Y788331D01*
X942485Y787331D01*
X941485Y786331D01*
Y785332D01*
X942485Y784332D01*
X944484D01*
X945484Y785332D01*
Y786331D01*
X944484Y787331D01*
X945484Y788331D01*
Y789330D01*
X944484Y787331D02*
X942485D01*
X902252Y481251D02*
X901252Y482251D01*
Y484250D01*
X902252Y485250D01*
X906251D01*
X907250Y484250D01*
Y482251D01*
X906251Y481251D01*
X901252Y475253D02*
Y479252D01*
X904251D01*
X903251Y477253D01*
Y476253D01*
X904251Y475253D01*
X906251D01*
X907250Y476253D01*
Y478252D01*
X906251Y479252D01*
X901252Y473254D02*
Y469255D01*
X902252D01*
X906251Y473254D01*
X907250D01*
X920668Y481001D02*
X919669Y482001D01*
Y484000D01*
X920668Y485000D01*
X924667D01*
X925667Y484000D01*
Y482001D01*
X924667Y481001D01*
X919669Y475003D02*
Y479002D01*
X922668D01*
X921668Y477003D01*
Y476003D01*
X922668Y475003D01*
X924667D01*
X925667Y476003D01*
Y478002D01*
X924667Y479002D01*
X919669Y469005D02*
X920668Y471005D01*
X922668Y473004D01*
X924667D01*
X925667Y472004D01*
Y470005D01*
X924667Y469005D01*
X923667D01*
X922668Y470005D01*
Y473004D01*
X938085Y480751D02*
X937085Y481751D01*
Y483750D01*
X938085Y484750D01*
X942084D01*
X943083Y483750D01*
Y481751D01*
X942084Y480751D01*
X937085Y474753D02*
Y478752D01*
X940084D01*
X939085Y476753D01*
Y475753D01*
X940084Y474753D01*
X942084D01*
X943083Y475753D01*
Y477752D01*
X942084Y478752D01*
X937085Y468755D02*
Y472754D01*
X940084D01*
X939085Y470755D01*
Y469755D01*
X940084Y468755D01*
X942084D01*
X943083Y469755D01*
Y471754D01*
X942084Y472754D01*
X957751Y480001D02*
X956752Y481001D01*
Y483000D01*
X957751Y484000D01*
X961750D01*
X962750Y483000D01*
Y481001D01*
X961750Y480001D01*
X956752Y474003D02*
Y478002D01*
X959751D01*
X958751Y476003D01*
Y475003D01*
X959751Y474003D01*
X961750D01*
X962750Y475003D01*
Y477002D01*
X961750Y478002D01*
X962750Y469005D02*
X956752D01*
X959751Y472004D01*
Y468005D01*
X883502Y470751D02*
X882502Y471751D01*
Y473750D01*
X883502Y474750D01*
X887500D01*
X888500Y473750D01*
Y471751D01*
X887500Y470751D01*
X882502Y464753D02*
Y468752D01*
X885501D01*
X884501Y466753D01*
Y465753D01*
X885501Y464753D01*
X887500D01*
X888500Y465753D01*
Y467752D01*
X887500Y468752D01*
X883502Y462754D02*
X882502Y461754D01*
Y459755D01*
X883502Y458755D01*
X884501D01*
X885501Y459755D01*
Y460755D01*
Y459755D01*
X886501Y458755D01*
X887500D01*
X888500Y459755D01*
Y461754D01*
X887500Y462754D01*
X976752Y466751D02*
X975752Y467751D01*
Y469750D01*
X976752Y470750D01*
X980750D01*
X981750Y469750D01*
Y467751D01*
X980750Y466751D01*
X975752Y460753D02*
Y464752D01*
X978751D01*
X977751Y462752D01*
Y461753D01*
X978751Y460753D01*
X980750D01*
X981750Y461753D01*
Y463752D01*
X980750Y464752D01*
X981750Y454755D02*
Y458754D01*
X977751Y454755D01*
X976752D01*
X975752Y455755D01*
Y457754D01*
X976752Y458754D01*
X931749Y422502D02*
X930749Y421502D01*
X928750D01*
X927750Y422502D01*
Y426500D01*
X928750Y427500D01*
X930749D01*
X931749Y426500D01*
X937747Y421502D02*
X933748D01*
Y424501D01*
X935748Y423501D01*
X936747D01*
X937747Y424501D01*
Y426500D01*
X936747Y427500D01*
X934748D01*
X933748Y426500D01*
X939746Y427500D02*
X941746D01*
X940746D01*
Y421502D01*
X939746Y422502D01*
X848501Y690748D02*
X849501Y691748D01*
X851500D01*
X852500Y690748D01*
Y686750D01*
X851500Y685750D01*
X849501D01*
X848501Y686750D01*
X842503Y691748D02*
X846502D01*
Y688749D01*
X844503Y689749D01*
X843503D01*
X842503Y688749D01*
Y686750D01*
X843503Y685750D01*
X845502D01*
X846502Y686750D01*
X840504Y690748D02*
X839504Y691748D01*
X837505D01*
X836505Y690748D01*
Y686750D01*
X837505Y685750D01*
X839504D01*
X840504Y686750D01*
Y690748D01*
X854751Y675248D02*
X855751Y676248D01*
X857750D01*
X858750Y675248D01*
Y671250D01*
X857750Y670250D01*
X855751D01*
X854751Y671250D01*
X849753Y670250D02*
Y676248D01*
X852752Y673249D01*
X848753D01*
X846754Y671250D02*
X845754Y670250D01*
X843755D01*
X842755Y671250D01*
Y675248D01*
X843755Y676248D01*
X845754D01*
X846754Y675248D01*
Y674249D01*
X845754Y673249D01*
X842755D01*
X800001Y601998D02*
X801001Y602998D01*
X803000D01*
X804000Y601998D01*
Y598000D01*
X803000Y597000D01*
X801001D01*
X800001Y598000D01*
X795003Y597000D02*
Y602998D01*
X798002Y599999D01*
X794003D01*
X792004Y601998D02*
X791004Y602998D01*
X789005D01*
X788005Y601998D01*
Y600999D01*
X789005Y599999D01*
X788005Y598999D01*
Y598000D01*
X789005Y597000D01*
X791004D01*
X792004Y598000D01*
Y598999D01*
X791004Y599999D01*
X792004Y600999D01*
Y601998D01*
X791004Y599999D02*
X789005D01*
X800501Y579248D02*
X801501Y580248D01*
X803500D01*
X804500Y579248D01*
Y575250D01*
X803500Y574250D01*
X801501D01*
X800501Y575250D01*
X795503Y574250D02*
Y580248D01*
X798502Y577249D01*
X794503D01*
X792504Y580248D02*
X788505D01*
Y579248D01*
X792504Y575250D01*
Y574250D01*
X1080251Y715498D02*
X1081251Y716498D01*
X1083250D01*
X1084250Y715498D01*
Y711500D01*
X1083250Y710500D01*
X1081251D01*
X1080251Y711500D01*
X1075253Y710500D02*
Y716498D01*
X1078252Y713499D01*
X1074253D01*
X1068255Y716498D02*
X1070255Y715498D01*
X1072254Y713499D01*
Y711500D01*
X1071254Y710500D01*
X1069255D01*
X1068255Y711500D01*
Y712499D01*
X1069255Y713499D01*
X1072254D01*
X790252Y558251D02*
X789252Y559251D01*
Y561250D01*
X790252Y562250D01*
X794250D01*
X795250Y561250D01*
Y559251D01*
X794250Y558251D01*
X795250Y553253D02*
X789252D01*
X792251Y556252D01*
Y552253D01*
X789252Y546255D02*
Y550254D01*
X792251D01*
X791251Y548255D01*
Y547255D01*
X792251Y546255D01*
X794250D01*
X795250Y547255D01*
Y549254D01*
X794250Y550254D01*
X756501Y602498D02*
X757501Y603498D01*
X759500D01*
X760500Y602498D01*
Y598500D01*
X759500Y597500D01*
X757501D01*
X756501Y598500D01*
X751503Y597500D02*
Y603498D01*
X754502Y600499D01*
X750503D01*
X745505Y597500D02*
Y603498D01*
X748504Y600499D01*
X744505D01*
X778751Y545998D02*
X779751Y546998D01*
X781750D01*
X782750Y545998D01*
Y542000D01*
X781750Y541000D01*
X779751D01*
X778751Y542000D01*
X773753Y541000D02*
Y546998D01*
X776752Y543999D01*
X772753D01*
X770754Y545998D02*
X769754Y546998D01*
X767755D01*
X766755Y545998D01*
Y544999D01*
X767755Y543999D01*
X768755D01*
X767755D01*
X766755Y542999D01*
Y542000D01*
X767755Y541000D01*
X769754D01*
X770754Y542000D01*
X829001Y711248D02*
X830001Y712248D01*
X832000D01*
X833000Y711248D01*
Y707250D01*
X832000Y706250D01*
X830001D01*
X829001Y707250D01*
X824003Y706250D02*
Y712248D01*
X827002Y709249D01*
X823003D01*
X817005Y706250D02*
X821004D01*
X817005Y710249D01*
Y711248D01*
X818005Y712248D01*
X820004D01*
X821004Y711248D01*
X780171Y771496D02*
X781171Y772496D01*
X783170D01*
X784170Y771496D01*
Y767498D01*
X783170Y766498D01*
X781171D01*
X780171Y767498D01*
X775173Y766498D02*
Y772496D01*
X778172Y769497D01*
X774173D01*
X772174Y766498D02*
X770174D01*
X771174D01*
Y772496D01*
X772174Y771496D01*
X347751Y180248D02*
X348751Y181248D01*
X350750D01*
X351750Y180248D01*
Y176250D01*
X350750Y175250D01*
X348751D01*
X347751Y176250D01*
X341753Y175250D02*
X345752D01*
X341753Y179249D01*
Y180248D01*
X342753Y181248D01*
X344752D01*
X345752Y180248D01*
X339754D02*
X338754Y181248D01*
X336755D01*
X335755Y180248D01*
Y179249D01*
X336755Y178249D01*
X335755Y177249D01*
Y176250D01*
X336755Y175250D01*
X338754D01*
X339754Y176250D01*
Y177249D01*
X338754Y178249D01*
X339754Y179249D01*
Y180248D01*
X338754Y178249D02*
X336755D01*
X126893Y774548D02*
X127893Y775548D01*
X129892D01*
X130892Y774548D01*
Y770550D01*
X129892Y769550D01*
X127893D01*
X126893Y770550D01*
X120895Y769550D02*
X124894D01*
X120895Y773549D01*
Y774548D01*
X121895Y775548D01*
X123894D01*
X124894Y774548D01*
X118896Y769550D02*
X116896D01*
X117896D01*
Y775548D01*
X118896Y774548D01*
X991749Y1118502D02*
X990749Y1117502D01*
X988750D01*
X987750Y1118502D01*
Y1122500D01*
X988750Y1123500D01*
X990749D01*
X991749Y1122500D01*
X993748Y1123500D02*
X995747D01*
X994748D01*
Y1117502D01*
X993748Y1118502D01*
X998746D02*
X999746Y1117502D01*
X1001745D01*
X1002745Y1118502D01*
Y1122500D01*
X1001745Y1123500D01*
X999746D01*
X998746Y1122500D01*
Y1118502D01*
X891407Y1115992D02*
X892407Y1116992D01*
X894406D01*
X895406Y1115992D01*
Y1111994D01*
X894406Y1110994D01*
X892407D01*
X891407Y1111994D01*
X889408Y1116992D02*
X885409D01*
Y1115992D01*
X889408Y1111994D01*
Y1110994D01*
X991749Y1170502D02*
X990749Y1169502D01*
X988750D01*
X987750Y1170502D01*
Y1174500D01*
X988750Y1175500D01*
X990749D01*
X991749Y1174500D01*
X997747Y1169502D02*
X995747Y1170502D01*
X993748Y1172501D01*
Y1174500D01*
X994748Y1175500D01*
X996747D01*
X997747Y1174500D01*
Y1173501D01*
X996747Y1172501D01*
X993748D01*
X992999Y1143002D02*
X991999Y1142002D01*
X990000D01*
X989000Y1143002D01*
Y1147000D01*
X990000Y1148000D01*
X991999D01*
X992999Y1147000D01*
X998997Y1142002D02*
X994998D01*
Y1145001D01*
X996997Y1144001D01*
X997997D01*
X998997Y1145001D01*
Y1147000D01*
X997997Y1148000D01*
X995998D01*
X994998Y1147000D01*
M02*
