M48
;Layer_Color=9474304
;FILE_FORMAT=4:4
METRIC,LZ
;TYPE=PLATED
T1F00S00C0.2000
T2F00S00C0.3000
T3F00S00C0.6000
T4F00S00C0.8000
T5F00S00C0.9000
T6F00S00C1.0200
T7F00S00C1.5500
;TYPE=NON_PLATED
T8F00S00C0.9000
T9F00S00C1.5500
%
T01
X0038725Y0003775
X0011975Y00026
X0011375Y0014
X0007325Y001385
X0004475Y0013775
X0003675Y003145
X001915Y0033425
X0024625Y00336
X003047Y0034945
X0028275Y003785
X003177Y0041395
X0024025Y00427
X001965Y00439
X001825Y001435
X0014775Y001415
X00219Y0014425
X00257Y00146
X0027725Y0013525
X003595Y0014375
X0035975Y0016175
X0038525Y0017
X003625Y0020975
X0033175Y00206
X00386Y002335
X0038925Y0026025
X003895Y0008675
X0050675Y0038125
X005035Y0040925
X005145Y00418
X0057825Y003495
X0072Y0034825
X00729Y003585
X0070775Y0028775
X0066825Y0022325
X006725Y0016325
X006695Y001225
X006675Y001045
X006405Y001225
X007Y0013
X0081975Y0008575
X008505Y0015775
X00852172Y0019925
X008525Y00211
X0083425Y0019125
X008265Y003725
X00815Y00376
X0074475Y004505
X00906Y004455
X00918Y0042825
X0090975Y0031725
X00945Y00305
X00948Y004275
X0095975Y004455
X0100525Y004365
X0102475Y0040825
X010465Y0045175
X01064
X01087Y0045125
X0108525Y0012225
X010605
X0104625Y0013025
X0102575
X01026Y0011325
X010325Y0009825
X0101375Y0009425
X01004Y00109
X0104425Y0007175
X0106825
X0108725Y00082
X0110425
X0098125Y00168
X00957
X009305
X0099325Y00194
X01006Y004775
X0102575Y004785
X0105575Y0048325
X0106725Y004915
X0108725
X010505Y0052225
X0105875Y0053125
X0105375Y0053975
X01046Y005415
X01036Y0053975
X0102675Y005415
X010245Y00556
X01032Y005575
X01046Y00556
X010455Y00572
X0102575Y0057325
X010275Y0060675
X01033Y00615
X0103425Y0063125
X0103975Y006345
X0105Y006345
X0105525Y006305
X010545Y006155
X0105Y0065025
X0103825Y006515
X0102975Y0065775
X0102725Y006665
X0102975Y006765
X0105425Y00675
X01058Y0065825
X010665Y006665
X01055Y00704
X010635Y0071375
X01055Y00724
X010375Y007235
X01037Y007045
X0102775Y0071375
X0099375Y0070875
X00992Y0069325
X0098175Y00693
X00972Y00692
X0096175Y0069225
X00952Y0069225
X00942Y00693
X0093225Y006935
X0093275Y0068125
Y006715
X0094175Y0067175
X009425Y00680825
X0095225Y006815
X00953Y006715
X009625Y00671
X0096275Y0066175
X0097225Y0066125
X00972Y00651325
X0096275Y00651
X0095225
X0094225Y0065075
X00942Y00641325
X0093275Y006415
X0093275Y006515
X00933Y0066075
X00931825Y006315
X0094225Y00631075
X0094175Y00621
X009325Y00620825
X009315Y0061125
X0093225Y0060175
X0094225Y0060125
X00942325Y00611
X009525Y0061175
X009525Y0062125
X0096275
X009725Y006215
X0097275Y0063175
X009725Y006415
X009825Y00641
X00982325Y00651
X0099225Y00651075
X009925Y0064125
X0100225Y006415
X01003Y00651
X0100275Y006615
X010025Y00671
X009925Y006715
X0099225Y0068125
X01002
X0100225Y0069275
X0098225Y0068075
X009825Y0067125
Y0066125
X00993Y006615
X00972Y00671325
X0097225Y00681075
X009625Y00680825
X0095479Y00703773
X00952789Y00710273
X009555Y00719
X009535Y0072375
X00937039Y00724274
X00933038Y00719273
X00933788Y00712773
X00935538Y00704273
X0097075Y00704
X0097479Y00709523
X0097Y0072
X009745Y0072675
X0098375Y00735
X0099375Y0072675
X0095225Y0074475
X00959Y007615
X0095025Y0077775
X009525Y0064075
X00962Y00641
X009625Y00631
X0098225
X009915Y0063125
X010025
X0100225Y0062175
X01002Y0061175
X009925Y00611
X0099275Y00620575
X009825Y00621
X009825Y00611
X00982Y00601324
X00992324Y00601
X0100275Y0060125
X010025Y00590825
X0099275Y00590574
X009925Y00570824
X0098225Y00571074
X009725Y00570824
X00972Y005615
X0096225Y005615
X0096175Y0057125
X00952074Y0057125
X0094275Y00570574
X00942074Y0056125
X00942Y00551324
X009325Y0055125
X009425Y0054125
X00952074
X00962324Y00541
X0096225Y005505
X0097225Y0055125
X00972074Y0054125
X00982324Y00541
X00992074Y0054125
X01002575Y0054075
X0100225Y00551075
X00982574Y0055075
X00982Y0056125
X00972574Y0058075
X00953Y00581
X009525Y00591
X00952325Y00601
X0096225Y0061075
X0097225Y00611
X00962574Y0059075
X0094225Y00591
X00942324Y00581
X0093225
X009315Y0059175
X009525Y00560824
X0095025Y005095
X00952Y0050325
X0095Y00495
X009525Y0048875
X00969Y0049075
X009695Y004845
X0097925Y00479
X009875Y004875
X009875Y005055
X0097925Y0051275
X009705Y00511
X009695Y0050325
X00931Y005035
X00933Y0050875
X009335Y0049475
X0093Y004895
X00948Y00464
X0103375Y0051975
X00910794Y00509525
X0091425Y005035
X00912544Y00495024
X0091475Y004885
X0089225Y0049075
X00896Y004955
X0089275Y0050225
X00896Y0050925
X0087475Y005035
X0087525Y004915
X00884Y004795
X00856Y0048875
X0084Y0048775
X00824Y00487
X0081175Y0047125
X0080075Y0046225
X0078975Y0047125
X007755Y0046125
X00762Y0045975
X007655Y00471
X0075925Y00504
X00747Y00523
X0074375Y00546
X0075925Y00542
X0076325Y00556
X007635Y00586
X0074575Y00595
X0074425Y0061325
X00769Y0061425
X00787Y0061525
X0080775Y0061725
X0081354Y0060803
X008285Y006095
X00825Y006165
X0082475Y0059075
X0083225Y0058625
X0083075Y005695
X008255Y0056225
X008075Y0056225
X0081175Y00569
X0081075Y00587
X0080575Y0059275
X00851824Y005915
X00852Y00581
X0085125Y0057125
X0086225
Y00561074
X00852574Y0056075
X008725Y00560825
X00882325Y00561
Y00551
X009025Y0054125
X009125Y00561
Y00570824
X0092225Y00571074
X009225Y00580824
X0091275Y0058125
X0091225Y00591074
Y00601
X009125Y0061125
X0091225Y0062075
X00903Y00620325
X0090225Y00611075
X00902Y00601324
X0090225Y0059125
X00892574Y0058075
X00892Y00571324
X00873Y00581
X008725Y0059125
Y00600912
X00882Y006015
X0088225Y0061175
X008825Y0062125
X0089175Y00621
X00892Y0061175
X00892325Y00631
X0088275Y0063125
X0087275Y0063125
Y006215
X008625Y0062175
X00863Y006315
X0085175Y0063175
X00851Y0062125
X0085075Y0061125
X0085125Y0060175
X008625Y0061075
X008725Y0061125
X008625Y005905
X0085225Y00541
X00835Y0055225
X008255Y0054275
X008075Y0054225
X0078925Y0054125
X008Y005245
X0079025Y005045
X0072725Y0045975
X0071475Y004575
X0071875Y0055
X007275Y00556
X007275Y00586
X006985Y0054075
X0067575Y0055075
X006565Y005555
X00656Y0056175
X0065575Y0057125
X00551Y0057675
X0054325Y005685
X00541Y00668
X0058025Y006717
X005845Y0066545
Y006467
X0058425Y0069045
X00577375Y00745875
X00588Y00779
X0055375Y0081825
X005647Y008412
X0053575Y0075
X0077Y0074575
X0077075Y0075525
X00789
X00791Y0069825
X00807Y006905
X0081225Y0068125
X0082Y0068275
X008295Y006835
Y00698
X008155Y006985
Y0066575
X008295Y006655
X008375Y0067375
X00852075Y0067125
X008625Y00670825
X00862325Y00661
X00872075Y0067125
X00872575Y0068075
X00862325Y00681
X00864Y006925
X0087325Y0069225
X008825Y00692
X008915Y0069275
X0089925Y006935
X00893Y00681
X0089275Y0067125
X00902075Y0067125
X00902Y0066175
X00912075Y0066125
X00911825Y006515
X00912325Y00641
X009035
X009025Y00630825
X0091275Y0063075
X009225
Y00621
Y0061125
X0092275Y0060125
Y0059075
X0092225Y0064175
X009225Y00650825
X00923Y0067125
X009225Y0068075
X0092175Y0069475
X00916Y0070375
X009145Y0071125
X00918Y0071875
X0091475Y0072375
X0089875Y00719
X0089575Y0070925
X0087575
X008775Y0072725
X0088625Y007355
X008955Y00732
X0092Y0074125
X0091175Y0076625
X0092025Y00778
X0085205Y0078795
X00833Y00717
X0085275Y00691
X00883Y0068025
X0088225Y006615
X00882325Y00651
X0085125
X00850825Y006425
X00809Y00648
X007735Y006905
X00912325Y00671
X00918Y00464
X0036225Y0055875
X00333Y005585
X0032125Y005845
X003005Y006175
X002865Y00627
X002765Y0066325
X0025975Y00673
X0021475Y00748
X00215Y007675
X002145Y0078
X00233916Y00799666
X00237Y0082575
X003195Y0083675
X003285Y007765
X0036Y0070475
X00442Y00713
X004515Y007317
X0048425Y00735
X0048475Y00723
X0050875Y0076025
Y0077975
X004945Y0081145
X0046525Y00801451
X0044075Y008017
X00427999Y007467
X0019575Y007575
X0018075Y0072325
X001985Y0056875
X0013325Y0073275
X001445Y0107075
X0014475Y0109025
X00169Y010745
X0017525Y0107775
X0015725Y011985
X0015775Y0121775
X00782Y0121375
X0079225Y0122025
Y0120125
X00792Y01186
X0081Y0118675
X0081025Y012005
Y0122175
X008255Y012295
X008265Y012475
X00847
X0086Y0124725
X008615Y0122875
X00847Y012295
X0084875Y0120825
X00857Y01208
X00865Y012075
X0086475Y0119725
X008575Y01197
X0085675Y01189
Y01181239
X0084875Y01181239
X00849Y01188989
X0084875Y0119725
X0083725
X008395Y01208
X0083875Y0118525
X0086475Y0118924
X00873Y0118925
X0087325Y0118074
X008655Y0118125
X00864989Y01173
X00865Y01164989
Y0115699
X0085725Y0115725
X0085675Y0114925
X00849Y0114899
X00848989Y01141
X00849Y0113325
X00865
X0087275Y011335
X00880079Y01133312
X00881Y0114125
X00880879Y01149371
X00873Y0114925
X008725Y01141489
X00865Y011415
X00889Y01140989
X0088875Y0113375
X0089675Y01133239
X008965Y01141489
X0089675Y0114975
X00897Y0115699
X0090475Y0115725
X00905Y0114975
X0091275Y011495
Y01141239
Y01133239
X00905Y011415
X0092125Y0114125
X00913Y0116525
X00912739Y0118125
X00913Y011895
Y011975
X00920879Y01197629
X00916748Y01207748
X00908748Y01207498
X00900748Y01207248
X00892748Y01206998
X00889379Y01197129
X0089675Y0119737
X00904879Y01197629
X00905Y0118925
X008965Y011815
X0089675Y01173239
Y0116537
X00889Y0114925
Y0112525
X00876749Y01114001
X00877Y011015
X0087725Y010755
X008955Y0107575
X0090725Y0107475
X0091675Y0106475
X00918Y0098875
X00924Y0098825
X009105Y00989
X009025Y0098925
X0089625Y0098975
X0089075Y0099025
X00885Y009905
X008295Y0099675
X0081775Y00993172
X008015Y00991
X007945Y009915
X0078925
X0078375Y0099125
X0077775Y009915
X0076925
X0074925Y0099125
X00743Y0099125
X0073625Y0099175
X0072775Y00991437
X0072025Y0099175
X0075325Y01066
X0076725Y0106675
X0082925Y010755
X0084925
X0085025Y01094
X00827Y010935
X0085625Y011155
X00865Y01116
X00848748Y01157053
X0084875Y0116524
X0085675Y0116525
X00857078Y01172564
X00837508Y01153242
X00792Y0116725
X00888619Y01189631
X0089375Y012285
X0088275Y0122925
X00882Y0124725
X0089225Y012465
X0091325
X0092525Y0124675
X0092575Y0122875
X0091325Y012285
X00924748Y01208248
X0093175Y0119175
X0093275Y01182
X0093225Y0117325
X0093075Y011485
X0095275Y01129
X0095225Y0111025
X00983Y0111975
X009855Y0114525
X009835Y0117275
X009845Y012005
X0097125Y0120975
X0096325Y0121575
X0094675Y0122875
X0094675Y0124675
X0095125Y01184
X010205Y0114625
X0102525Y0107775
X0104575Y01078
X0104225Y010395
X010265Y0103575
X010555Y01023
X0104875Y0100175
X01081Y0100825
X0100875Y0098675
X0100225
X0099675Y00986
X0098825Y00986
X009745
X0096025Y0098625
X0095Y0098825
X00941Y0098625
X0099675Y0108325
X011039Y01220252
X01176749Y01210001
X011802Y012588
X011304Y01325201
X010849Y01324652
X0111775Y0137025
X011385Y01372
X01138Y013875
X0115025Y0138825
X0112675Y0138975
X0110525Y0139025
X0103375Y01378
X01009Y0133625
X009755Y0132725
X010067Y0129045
X0103395Y0128855
X00919Y0133225
X008935Y0132575
X00885Y0132625
X00813Y0135275
X007865Y01373
X0048625Y0144975
T02
X006725Y000295
X001175Y0043
X0009725Y0043075
X000795Y0043125
X00055Y004372
Y00415467
Y00393733
Y00372
X000135Y00368055
Y00388708
Y00409361
Y00430014
Y00450667
Y00347403
Y0032675
X001385Y0043
X0015425Y004285
X0053325Y000645
X010805Y0063675
X0108025Y006665
X010995Y0067725
X01119Y0066675
X0112Y0063675
X010995Y006255
X0056625Y0067025
X0053675Y0069845
Y0070745
Y0071645
Y0072545
X005605Y0074475
X0052775Y0072545
X0051875
Y0071645
Y0070745
X0052775
Y0071645
Y0069845
X0051875
X0050975
Y0070745
Y0071645
Y0072545
X00478299Y007105
X00459Y007575
X0034325Y00714
X003055Y0068725
X0015125Y00556
X001365
X0012175
X00107
X0009225
X000775
X00055Y00545867
Y00524133
Y005024
Y00480667
Y00458933
X000135Y00471319
Y00491972
Y00512625
Y00533278
Y0055393
Y00574583
Y00595236
Y00615889
Y00636541
Y00657194
Y00677847
Y006985
X00055Y00698
Y00676267
Y00654533
Y006328
Y00611067
Y00589333
Y005676
X0010625Y00685
Y00702
X00128Y0070225
X0012675Y0068475
X001255Y0108125
X001795Y0112125
X0024125Y0112175
X004403Y0085145
X0080275Y0112175
X008225
X01085649Y01223
X010954Y012155
X0109395Y01333252
X011109Y01324749
T03
X0031525Y0032225
X0029875Y003695
X00288Y0038875
X0027625Y004115
X00244Y0041125
X002465Y0053475
X00279
X0024625Y0058425
X0032Y006015
X003245Y0048875
X00325Y0046025
T04
X009306Y000574
X00956
X009814
Y001336
X00956
X009306
T05
X0114075Y00069
Y00089
Y00109
Y00129
Y00149
Y00169
Y00189
X0116075
Y00169
Y00149
Y00129
Y00109
Y00089
Y00069
T06
X0073675Y0004385
X0076215
X0049865Y0003
X0047325
X0044785
X004516Y0009015
Y0011555
Y0014095
Y0016635
Y0019175
X00477
Y0016635
Y0014095
Y0011555
Y0009015
X0035015Y004325
X0032475
X0063775Y004244
Y00399
X0066315
Y004244
X0073785Y0020605
X0076325
Y0018065
Y0015525
X0073785
Y0018065
X0073675Y0009465
X0076215
Y0006925
X0073675
X0114625Y0038345
Y0040885
Y0043425
Y0045965
Y0048505
Y0051045
Y0053585
Y0056125
Y0058665
Y0061205
Y0063745
Y0066285
Y0068825
Y0071365
Y0073905
Y0076445
X006615Y0075375
X00637
Y0077915
X006615
Y0072835
X00637
Y0070295
X006615
Y0067755
X00637
Y0065215
X006615
Y0062675
X00637
X0063775Y0048415
Y0045875
X0066315
Y0048415
X00457Y004807
Y005061
Y005315
Y005569
X00411499Y0078805
Y0081345
X002719Y0070825
X002465
X00636Y008972
Y009226
Y00948
Y009734
Y009988
Y010242
Y010496
Y01075
Y011004
Y011258
Y011512
Y011766
X006355Y012157
Y012411
X0068405Y0093175
X0070945
X0073485
X0076025
X0078565
X0081105
X0083645
X0086185
X0088725
X0091265
X0091225Y0090025
X0088685
X0086145
X0083605
X0081065
X0078525
X0075985
X0073445
X0070905
X0068365
X0093765
X0096305
X0098845
X0101385
X0103925
X0106465
X0106505Y0093175
X0103965
X0101425
X0098885
X0096345
X0093805
X0100275Y00852
X0102815
X0105355
X0107895
X010666Y01118352
Y01143752
X01092
X011174
X011428
X011682
Y01118352
X011428
X011174
X01092
X010412
Y01143752
X00961817Y0145775
X00936417
X00911017
X00885617
X007868Y0144165
X007614
X00736
X007106
X006852
X006598
Y0141625
X006344
Y0144165
X00609
Y0141625
X005836
Y0144165
X005582
Y0141625
X006852
X007106
X00736
X007614
X007868
X006355Y013173
Y012919
Y012665
T07
X0007725Y0090825
Y0095825
T08
X0006575Y0076575
Y0080975
X00068Y0105525
Y0109925
X0006825Y011825
Y012265
X01132Y0104525
Y0100125
X0114325Y014355
X0109925
T09
X0006225Y0003075
Y0027275
M30
